<svg width="107" height="105" viewBox="0 0 107 105" fill="none" xmlns="http://www.w3.org/2000/svg">
<g clip-path="url(#clip0_1_13945)">
<path d="M76.4348 9.26051C77.7186 10.1716 77.9664 11.663 78.322 13.1066C78.3772 13.3239 78.3772 13.3239 78.4334 13.5456C78.468 13.685 78.5027 13.8243 78.5384 13.9678C78.5697 14.0936 78.601 14.2195 78.6333 14.3491C78.7011 14.6901 78.7011 14.6901 78.7011 15.2291C78.9095 15.1958 78.9095 15.1958 79.1222 15.1618C81.567 14.8703 81.567 14.8703 82.5093 15.4466C83.668 16.3689 84.0605 17.4442 84.2402 18.8838C84.2529 18.9954 84.2655 19.1071 84.2786 19.2221C84.293 19.34 84.3073 19.458 84.3222 19.5795C84.3673 19.9514 84.4106 20.3235 84.4539 20.6956C84.4844 20.9498 84.515 21.2039 84.5457 21.4581C84.6203 22.077 84.6934 22.696 84.7655 23.3151C84.8744 23.3384 84.9832 23.3617 85.0953 23.3858C86.5367 23.7159 86.5367 23.7159 87.065 24.2248C87.1582 24.3102 87.2515 24.3957 87.3477 24.4838C87.9941 25.3018 88.0589 26.0584 88.0521 27.0647C88.0532 27.2613 88.0532 27.2612 88.0543 27.4618C88.0563 27.8996 88.0553 28.3373 88.0544 28.7752C88.0551 29.0896 88.0561 29.4039 88.0572 29.7183C88.0596 30.5715 88.0594 31.4246 88.0586 32.2777C88.0582 33.0802 88.0592 33.8827 88.0602 34.6852C88.062 36.3717 88.0613 38.0581 88.0597 39.7446C88.0584 41.2863 88.0602 42.828 88.0634 44.3697C88.0667 45.9541 88.068 47.5386 88.0671 49.123C88.0666 50.012 88.0669 50.9009 88.0693 51.7899C88.0713 52.6258 88.0708 53.4617 88.0683 54.2977C88.0678 54.6043 88.0682 54.9109 88.0696 55.2175C88.0714 55.6364 88.0698 56.0552 88.0674 56.4741C88.0687 56.5951 88.07 56.7162 88.0714 56.8408C88.0599 57.8247 87.7816 58.5118 87.1492 59.2638C86.1858 60.0704 85.3403 60.2615 84.1011 60.2586C83.9937 60.2589 83.8864 60.2591 83.7758 60.2594C83.4146 60.2602 83.0535 60.26 82.6923 60.2598C82.4313 60.2601 82.1704 60.2605 81.9094 60.261C81.1911 60.2621 80.4728 60.2623 79.7545 60.2624C78.9802 60.2627 78.2059 60.2637 77.4317 60.2646C75.7382 60.2664 74.0448 60.2673 72.3513 60.2678C71.2942 60.2682 70.2371 60.2688 69.18 60.2694C66.2539 60.271 63.3279 60.2724 60.4019 60.2729C60.2127 60.2729 60.0235 60.2729 59.8343 60.273C59.6446 60.273 59.455 60.273 59.2653 60.2731C58.8848 60.2731 58.5044 60.2732 58.1239 60.2732C58.0296 60.2733 57.9352 60.2733 57.8381 60.2733C54.7789 60.2738 51.7198 60.2759 48.6607 60.2791C45.4262 60.2824 42.1917 60.2842 38.9572 60.2844C37.1941 60.2845 35.431 60.2853 33.6679 60.2877C32.1668 60.2898 30.6656 60.2905 29.1645 60.2894C28.3985 60.2889 27.6325 60.289 26.8664 60.2909C26.1652 60.2926 25.4639 60.2924 24.7626 60.2908C24.509 60.2905 24.2553 60.291 24.0016 60.2921C21.0067 60.3051 21.0067 60.3051 19.8085 59.2975C19.3343 58.6627 18.9838 58.0753 18.9818 57.2674C18.9812 57.1556 18.9806 57.0437 18.98 56.9284C18.98 56.8056 18.98 56.6827 18.9801 56.5561C18.9796 56.4255 18.9791 56.2949 18.9786 56.1604C18.9771 55.7209 18.9766 55.2815 18.976 54.842C18.9752 54.5277 18.9743 54.2134 18.9734 53.8991C18.971 53.0437 18.9696 52.1883 18.9685 51.3329C18.9678 50.7986 18.967 50.2644 18.9661 49.7302C18.9638 48.2507 18.9619 46.7713 18.9609 45.2919C18.9606 44.908 18.9604 44.5241 18.9601 44.1402C18.9601 44.0448 18.96 43.9494 18.9599 43.8511C18.9588 42.3059 18.9554 40.7607 18.951 39.2154C18.9466 37.6286 18.9441 36.0417 18.9437 34.4549C18.9434 33.5641 18.9422 32.6733 18.9388 31.7825C18.9357 30.9444 18.9351 30.1063 18.9365 29.2682C18.9365 28.9607 18.9357 28.6532 18.9338 28.3457C18.9314 27.9256 18.9324 27.5056 18.9342 27.0855C18.9327 26.9641 18.9312 26.8427 18.9297 26.7176C18.9392 25.7787 19.1807 25.0716 19.8038 24.3606C19.8915 24.288 19.9792 24.2153 20.0696 24.1405C20.157 24.0658 20.2444 23.9911 20.3344 23.9142C20.9415 23.4958 21.63 23.3593 22.3398 23.2017C23.5042 22.9352 24.6523 22.624 25.8014 22.2986C26.0126 22.2391 26.2239 22.1797 26.4352 22.1204C26.8871 21.9933 27.3389 21.866 27.7905 21.7384C28.519 21.5327 29.2476 21.3276 29.9763 21.1227C31.0083 20.8323 32.0402 20.5417 33.0721 20.2509C35.3131 19.6193 37.5546 18.9896 39.7962 18.36C40.2922 18.2207 40.7881 18.0813 41.2841 17.942C45.3357 16.8034 49.3887 15.6693 53.4421 14.5371C57.003 13.5424 60.5631 12.5447 64.1215 11.5411C69.4224 10.0461 69.4224 10.0461 71.4012 9.495C71.6025 9.43892 71.8038 9.38277 72.0051 9.32654C72.2664 9.25356 72.5278 9.18095 72.7893 9.10837C72.9281 9.06977 73.0669 9.03117 73.21 8.9914C74.3399 8.69751 75.3893 8.67336 76.4348 9.26051ZM73.3864 11.2962C73.237 11.3381 73.237 11.3381 73.0847 11.3808C72.7519 11.4746 72.4197 11.5704 72.0876 11.6663C71.8501 11.7336 71.6126 11.8008 71.3751 11.8678C70.8646 12.0123 70.3544 12.1576 69.8443 12.3037C69.0314 12.5365 68.2178 12.7673 67.4042 12.9978C66.4219 13.2762 65.4397 13.555 64.4577 13.8344C62.8156 14.3016 61.1725 14.7654 59.5286 15.226C59.4149 15.2578 59.3012 15.2897 59.1841 15.3225C58.617 15.4814 58.0498 15.6402 57.4827 15.7989C56.4731 16.0815 55.4638 16.3647 54.4544 16.6478C53.8891 16.8064 53.3237 16.9649 52.7584 17.1234C51.2376 17.5499 49.7169 17.9764 48.1961 18.403C48.0665 18.4393 47.9369 18.4757 47.8033 18.5132C47.1617 18.6931 46.5201 18.8731 45.8786 19.053C44.8003 19.3555 43.722 19.6579 42.6438 19.9604C42.1398 20.1017 41.6359 20.2431 41.1319 20.3844C40.8522 20.4629 40.5726 20.5413 40.2929 20.6198C40.2929 20.6642 40.2929 20.7087 40.2929 20.7545C41.9934 20.6694 43.6712 20.4034 45.3548 20.1613C45.689 20.1136 46.0232 20.066 46.3574 20.0185C47.1671 19.9031 47.9767 19.7872 48.7863 19.6711C49.7296 19.5358 50.6731 19.4011 51.6165 19.2664C53.2992 19.0261 54.9819 18.7853 56.6645 18.5442C58.2968 18.3103 59.9293 18.0768 61.5618 17.8438C63.342 17.5897 65.1222 17.3354 66.9024 17.0806C67.092 17.0535 67.2816 17.0264 67.4713 16.9992C67.5646 16.9859 67.6579 16.9725 67.754 16.9588C68.4117 16.8647 69.0694 16.7707 69.7271 16.6768C70.611 16.5507 71.4948 16.4241 72.3786 16.2972C72.7035 16.2506 73.0284 16.2042 73.3534 16.1579C73.7955 16.0948 74.2376 16.0313 74.6796 15.9677C74.8094 15.9493 74.9392 15.9309 75.0729 15.912C75.1909 15.8949 75.3089 15.8778 75.4305 15.8602C75.5326 15.8456 75.6346 15.831 75.7398 15.8159C76.0329 15.7699 76.033 15.7699 76.4101 15.6334C76.3217 14.7978 76.1638 13.9981 75.9636 13.1824C75.9366 13.0644 75.9096 12.9463 75.8818 12.8247C75.7214 12.1699 75.5778 11.6546 75.0624 11.1862C74.4611 10.9824 73.9748 11.1235 73.3864 11.2962ZM78.7034 17.5382C78.5876 17.5547 78.4718 17.5712 78.3525 17.5881C77.9673 17.6432 77.5822 17.6994 77.1972 17.7556C76.9193 17.7955 76.6414 17.8354 76.3635 17.8752C75.6073 17.9837 74.8513 18.0932 74.0953 18.203C73.2918 18.3194 72.4882 18.4348 71.6846 18.5503C70.1502 18.7711 68.616 18.9927 67.0817 19.2147C65.2145 19.4847 63.3471 19.7538 61.4798 20.0228C60.8133 20.1188 60.1469 20.2148 59.4805 20.3109C59.3165 20.3345 59.1524 20.3582 58.9834 20.3825C57.8323 20.5484 56.6812 20.7145 55.5301 20.8806C51.428 21.4727 47.3255 22.062 43.2224 22.6476C43.0381 22.6739 43.0381 22.6739 42.8499 22.7007C41.4136 22.9057 39.9773 23.1105 38.5409 23.3151C38.5409 23.3596 38.5409 23.404 38.5409 23.4499C52.9945 23.4499 67.4481 23.4499 82.3397 23.4499C82.2565 22.2006 82.1705 20.9675 82.0197 19.727C82.0044 19.5875 81.9891 19.448 81.9734 19.3042C81.8666 18.3464 81.8666 18.3464 81.3964 17.5202C80.6337 17.1388 79.5181 17.4174 78.7034 17.5382ZM21.5029 25.9893C21.0747 26.5763 21.1369 27.179 21.1381 27.8743C21.1378 27.9975 21.1375 28.1206 21.1372 28.2475C21.1364 28.6619 21.1365 29.0762 21.1366 29.4906C21.1362 29.7869 21.1357 30.0833 21.1352 30.3797C21.134 31.186 21.1337 31.9924 21.1336 32.7988C21.1335 33.4713 21.133 34.1438 21.1325 34.8163C21.1315 36.3119 21.1311 37.8076 21.1312 39.3032C21.1312 39.393 21.1312 39.4827 21.1312 39.5752C21.1312 39.6651 21.1312 39.755 21.1312 39.8475C21.1312 41.3042 21.13 42.7608 21.1281 44.2174C21.1261 45.7127 21.1252 47.208 21.1253 48.7033C21.1253 49.543 21.125 50.3826 21.1235 51.2222C21.1222 52.0118 21.1222 52.8013 21.1232 53.5909C21.1233 53.881 21.123 54.171 21.1222 54.4611C21.1212 54.8565 21.1218 55.2519 21.1228 55.6474C21.1221 55.7626 21.1214 55.8778 21.1207 55.9965C21.1232 56.8059 21.1232 56.8059 21.4257 57.5456C21.984 57.9756 22.4808 58.0072 23.1613 58.0007C23.2679 58.0013 23.3745 58.0019 23.4844 58.0025C23.843 58.004 24.2015 58.0026 24.5602 58.0012C24.8193 58.0017 25.0785 58.0023 25.3376 58.0031C26.0508 58.0048 26.764 58.004 27.4772 58.0027C28.2459 58.0018 29.0147 58.0032 29.7834 58.0043C31.2898 58.0061 32.7962 58.0057 34.3026 58.0046C35.5265 58.0036 36.7505 58.0035 37.9744 58.004C38.2354 58.004 38.2354 58.004 38.5017 58.0041C38.8552 58.0043 39.2087 58.0044 39.5621 58.0045C42.7842 58.0057 46.0063 58.0045 49.2283 58.0024C52.1706 58.0005 55.1128 58.0006 58.0551 58.0026C61.3597 58.0047 64.6642 58.0056 67.9688 58.0043C68.321 58.0042 68.6732 58.0041 69.0254 58.004C69.1987 58.0039 69.372 58.0038 69.5505 58.0038C70.7734 58.0034 71.9963 58.004 73.2192 58.005C74.7089 58.0061 76.1986 58.0058 77.6883 58.0036C78.4488 58.0026 79.2093 58.0022 79.9698 58.0035C80.6654 58.0047 81.361 58.004 82.0566 58.0019C82.3088 58.0014 82.561 58.0017 82.8132 58.0026C83.155 58.0039 83.4967 58.0026 83.8385 58.0007C83.9373 58.0017 84.0361 58.0026 84.1378 58.0036C84.729 57.997 85.1035 57.9081 85.5741 57.5456C85.9326 56.9589 85.8817 56.3164 85.8788 55.6501C85.8793 55.5268 85.8798 55.4035 85.8803 55.2765C85.8817 54.8633 85.8812 54.4501 85.8807 54.0369C85.8812 53.7407 85.882 53.4445 85.8828 53.1483C85.8846 52.3437 85.8846 51.539 85.8843 50.7343C85.8841 50.0628 85.8848 49.3913 85.8855 48.7198C85.887 47.0452 85.8869 45.3706 85.8861 43.696C85.8854 42.2421 85.8869 40.7883 85.8894 39.3344C85.892 37.841 85.8931 36.3477 85.8927 34.8543C85.8924 34.0161 85.8928 33.1779 85.8946 32.3397C85.8963 31.5516 85.8961 30.7635 85.8943 29.9754C85.894 29.686 85.8944 29.3967 85.8955 29.1073C85.8969 28.7125 85.8958 28.3178 85.8941 27.923C85.8951 27.8083 85.8961 27.6937 85.8971 27.5756C85.891 26.911 85.8097 26.4509 85.4394 25.8756C85.0283 25.6701 84.6 25.7219 84.149 25.7228C84.0419 25.7225 83.9348 25.7221 83.8244 25.7218C83.4618 25.7209 83.0991 25.721 82.7364 25.721C82.4753 25.7206 82.2142 25.7201 81.9531 25.7195C81.2325 25.7182 80.512 25.7177 79.7915 25.7173C79.0156 25.7168 78.2397 25.7155 77.4638 25.7143C75.5887 25.7117 73.7135 25.7103 71.8384 25.7091C70.9563 25.7085 70.0742 25.7078 69.1921 25.7071C66.2614 25.7048 63.3308 25.7028 60.4001 25.7019C60.2106 25.7018 60.021 25.7017 59.8314 25.7017C59.7374 25.7016 59.6434 25.7016 59.5465 25.7016C59.0701 25.7014 58.5938 25.7013 58.1174 25.7011C58.0229 25.7011 57.9283 25.701 57.8309 25.701C54.7644 25.6999 51.6979 25.6968 48.6313 25.6924C45.391 25.6878 42.1506 25.6851 38.9102 25.6847C37.1432 25.6844 35.3761 25.6832 33.609 25.6798C32.1046 25.6768 30.6003 25.6757 29.0959 25.6771C28.3278 25.6777 27.5597 25.6774 26.7916 25.6748C26.0891 25.6724 25.3867 25.6725 24.6843 25.6746C24.4295 25.675 24.1746 25.6744 23.9198 25.6728C23.5747 25.6708 23.2298 25.672 22.8848 25.6742C22.7346 25.6721 22.7346 25.6721 22.5813 25.67C22.1218 25.6762 21.8736 25.7077 21.5029 25.9893Z" fill="#004DC9"/>
<path d="M53.4648 27.7189C53.6191 27.7197 53.7735 27.7205 53.9325 27.7213C55.095 27.7379 56.1517 27.834 57.2719 28.1654C57.3626 28.1921 57.4533 28.2189 57.5467 28.2465C61.1417 29.3372 64.1071 31.7205 65.9232 35.0284C67.5967 38.191 68.1734 42.134 67.1366 45.6059C67.0833 45.7654 67.03 45.9249 66.975 46.0892C66.9231 46.2459 66.8711 46.4026 66.8176 46.564C66.2252 48.209 65.3637 49.5762 64.2797 50.9408C64.2068 51.0363 64.1338 51.1318 64.0586 51.2303C61.9356 53.8573 58.4941 55.3737 55.2262 55.8555C54.8743 55.8914 54.5258 55.9141 54.1723 55.9271C54.0688 55.9325 53.9652 55.9379 53.8585 55.9434C50.3749 56.0414 47.1763 54.8254 44.4692 52.6927C44.3589 52.6072 44.2485 52.5218 44.1349 52.4337C41.5668 50.3065 40.0036 47.0433 39.4828 43.7982C39.4313 43.1482 39.4247 42.5042 39.4323 41.8525C39.4337 41.6811 39.435 41.5097 39.4364 41.3331C39.5032 37.2942 41.2071 34.0134 44.0728 31.2155C46.6683 28.8923 50.008 27.7011 53.4648 27.7189ZM49.725 30.5911C49.585 30.6384 49.445 30.6856 49.3007 30.7343C46.1549 31.9233 43.9287 34.3107 42.5611 37.3312C41.4265 40.0105 41.3647 43.2632 42.4247 45.9704C43.6311 48.924 45.7887 51.3786 48.7533 52.649C51.9957 53.9501 55.2629 53.9274 58.4848 52.5579C59.8914 51.891 61.0354 50.9639 62.1235 49.8626C62.2131 49.7744 62.3027 49.6861 62.3951 49.5952C63.513 48.4169 64.2862 46.7997 64.8188 45.2806C64.8619 45.1595 64.9049 45.0384 64.9493 44.9137C65.7964 41.9999 65.2939 38.8147 63.8749 36.1908C63.7858 36.0309 63.6962 35.8714 63.6059 35.7122C63.5407 35.5974 63.4756 35.4826 63.4085 35.3643C61.7086 32.6298 59.0003 30.9751 55.9242 30.1868C53.9151 29.7456 51.6582 29.9278 49.725 30.5911Z" fill="#004DC9"/>
<path d="M66.2581 27.6912C66.4045 27.6903 66.5509 27.6894 66.7018 27.6884C67.1863 27.686 67.6708 27.6876 68.1553 27.6894C68.4917 27.689 68.828 27.6885 69.1644 27.6878C69.8695 27.687 70.5746 27.6882 71.2797 27.6907C72.0945 27.6937 72.9093 27.6927 73.7241 27.6897C74.5085 27.687 75.2928 27.6873 76.0771 27.6889C76.4107 27.6892 76.7442 27.6888 77.0778 27.6875C77.5437 27.6862 78.0095 27.6882 78.4754 27.6912C78.6138 27.6902 78.7521 27.6891 78.8947 27.6879C79.8272 27.6991 79.8272 27.6991 80.2657 28.0131C80.4853 28.3501 80.5665 28.6308 80.6464 29.0244C80.8296 29.7399 80.9517 30.1183 81.5308 30.5911C81.9407 30.718 82.3426 30.8092 82.7653 30.8827C83.2273 31.0187 83.3889 31.1587 83.6871 31.5344C83.7549 31.9192 83.7549 31.9192 83.7555 32.3733C83.757 32.5456 83.7586 32.7179 83.7601 32.8955C83.7591 33.0861 83.758 33.2768 83.7568 33.4675C83.7575 33.6685 83.7585 33.8695 83.7597 34.0705C83.7621 34.6163 83.7612 35.162 83.7595 35.7077C83.7581 36.2787 83.7594 36.8497 83.7602 37.4207C83.7612 38.3796 83.7599 39.3385 83.7573 40.2974C83.7544 41.4062 83.7554 42.5149 83.7583 43.6237C83.7608 44.5755 83.7611 45.5273 83.7597 46.479C83.7589 47.0476 83.7588 47.6161 83.7605 48.1847C83.7621 48.7192 83.761 49.2536 83.7579 49.7881C83.7572 49.9844 83.7574 50.1806 83.7586 50.3768C83.76 50.6445 83.7579 50.9122 83.7555 51.1799C83.7553 51.3298 83.7551 51.4797 83.7549 51.6341C83.6712 52.1086 83.5229 52.2646 83.148 52.5579C82.7948 52.68 82.7948 52.68 82.4152 52.76C81.6098 52.9634 81.6098 52.9634 80.9917 53.5012C80.8243 53.8967 80.7074 54.3022 80.5875 54.7141C80.2886 55.5891 80.2886 55.5891 79.9388 55.8158C79.6151 55.9379 79.3764 55.9612 79.0312 55.9621C78.909 55.9631 78.7868 55.9641 78.6608 55.965C78.5277 55.9647 78.3946 55.9644 78.2575 55.964C78.0461 55.9651 78.0461 55.9651 77.8304 55.9661C77.364 55.968 76.8977 55.9679 76.4313 55.9675C76.1074 55.9681 75.7834 55.9687 75.4595 55.9693C74.7803 55.9703 74.1012 55.9703 73.422 55.9696C72.5513 55.9688 71.6806 55.9711 70.8099 55.9742C70.1409 55.9762 69.4718 55.9763 68.8028 55.9759C68.4817 55.9759 68.1607 55.9766 67.8396 55.978C67.3909 55.9797 66.9422 55.9788 66.4934 55.9772C66.3606 55.9782 66.2278 55.9792 66.0909 55.9803C65.4271 55.9752 64.9478 55.9687 64.4156 55.5227C64.2047 55.101 64.1869 54.6318 64.2808 54.1751C64.472 53.8919 64.472 53.8919 64.8199 53.636C65.2564 53.5565 65.688 53.568 66.1305 53.5748C66.2634 53.5747 66.3962 53.5746 66.5331 53.5746C66.9721 53.5749 67.411 53.5791 67.85 53.5834C68.1544 53.5844 68.4588 53.5851 68.7632 53.5857C69.5643 53.5877 70.3654 53.593 71.1666 53.599C71.9841 53.6045 72.8016 53.607 73.6191 53.6097C75.2232 53.6155 76.8272 53.6247 78.4312 53.636C78.4502 53.5085 78.4692 53.381 78.4888 53.2496C78.6687 52.2652 79.5328 51.5083 80.3179 50.9407C81.0187 50.5364 81.0187 50.5364 81.5308 50.5364C81.4863 44.7994 81.4419 39.0624 81.396 33.1516C80.8624 32.8848 80.3287 32.6179 79.7789 32.343C79.1869 31.7601 78.7392 31.2353 78.4312 30.4563C78.4312 30.3229 78.4312 30.1895 78.4312 30.052C78.2656 30.0529 78.0999 30.0538 77.9292 30.0547C76.3686 30.0629 74.8081 30.069 73.2475 30.073C72.4451 30.0751 71.6428 30.0779 70.8405 30.0825C70.0663 30.0869 69.2921 30.0893 68.5179 30.0904C68.2224 30.0911 67.927 30.0926 67.6315 30.0948C67.2179 30.0977 66.8043 30.0981 66.3906 30.0979C66.2683 30.0994 66.146 30.1008 66.0199 30.1023C65.3759 30.0992 64.9355 30.0733 64.4156 29.6477C64.2047 29.226 64.1869 28.7568 64.2808 28.3001C64.7601 27.5608 65.4651 27.685 66.2581 27.6912Z" fill="#004DC9"/>
<path d="M27.7039 27.7215C27.8307 27.7204 27.9575 27.7192 28.0881 27.718C28.2963 27.7182 28.2963 27.7182 28.5088 27.7184C28.6552 27.7175 28.8016 27.7166 28.9525 27.7157C29.4377 27.7131 29.9229 27.7126 30.4082 27.7123C30.7447 27.7114 31.0813 27.7105 31.4178 27.7096C32.1237 27.708 32.8296 27.7074 33.5355 27.7076C34.3514 27.7078 35.1671 27.7049 35.983 27.7007C36.7679 27.6967 37.5529 27.6958 38.3379 27.6959C38.6718 27.6956 39.0058 27.6944 39.3397 27.6923C39.8063 27.6897 40.2727 27.6905 40.7393 27.6921C40.8779 27.6906 41.0164 27.6891 41.1592 27.6875C42.0943 27.6958 42.0943 27.6958 42.5347 28.0143C42.8291 28.466 42.8276 28.8547 42.7187 29.3748C42.4667 29.7024 42.2765 29.8654 41.9101 30.0486C41.7308 30.0609 41.5509 30.065 41.3712 30.0648C41.2586 30.065 41.1459 30.0652 41.0299 30.0653C40.8442 30.0646 40.8442 30.0646 40.6548 30.0639C40.5246 30.0639 40.3944 30.0639 40.2603 30.0639C39.8286 30.0638 39.397 30.0628 38.9653 30.0617C38.6665 30.0615 38.3678 30.0613 38.0691 30.0612C37.2817 30.0606 36.4943 30.0593 35.7069 30.0578C34.9038 30.0565 34.1008 30.0558 33.2977 30.0552C31.7213 30.0537 30.1448 30.0514 28.5683 30.0486C28.5397 30.206 28.5397 30.206 28.5104 30.3666C28.306 31.3128 27.6066 32.0181 26.8464 32.5702C26.4511 32.7994 26.0234 32.9682 25.6035 33.1482C25.559 38.8852 25.5145 44.6221 25.4687 50.533C25.6911 50.5774 25.9134 50.6219 26.1425 50.6677C27.219 51.186 27.9668 51.905 28.4836 52.9861C28.5683 53.2283 28.5683 53.2283 28.5683 53.6326C28.7376 53.6314 28.907 53.6302 29.0814 53.6289C30.6758 53.618 32.2701 53.6099 33.8645 53.6046C34.6842 53.6018 35.5039 53.598 36.3236 53.5919C37.1144 53.586 37.9052 53.5828 38.696 53.5814C38.9979 53.5804 39.2999 53.5785 39.6019 53.5756C40.0243 53.5717 40.4466 53.5711 40.869 53.5714C40.9943 53.5694 41.1196 53.5675 41.2488 53.5655C42.0963 53.5709 42.0963 53.5709 42.5266 53.8891C42.7935 54.2817 42.7948 54.5315 42.7724 54.9934C42.6905 55.3842 42.4943 55.5574 42.1796 55.7888C41.865 55.9462 41.6803 55.9412 41.3297 55.9425C41.2078 55.9433 41.086 55.944 40.9604 55.9448C40.8263 55.945 40.6923 55.9451 40.5541 55.9453C40.4132 55.946 40.2723 55.9466 40.1271 55.9473C39.6593 55.9493 39.1915 55.9502 38.7236 55.951C38.3993 55.9517 38.075 55.9525 37.7507 55.9533C37.0699 55.9547 36.3891 55.9555 35.7084 55.956C34.8355 55.9567 33.9627 55.9599 33.0899 55.9638C32.4197 55.9663 31.7495 55.967 31.0793 55.9672C30.7575 55.9676 30.4357 55.9687 30.1139 55.9704C29.6638 55.9727 29.2138 55.9725 28.7637 55.9716C28.6305 55.9729 28.4972 55.9741 28.3599 55.9754C27.201 55.9683 27.201 55.9683 26.6816 55.5193C26.5168 55.1203 26.5168 55.1203 26.4036 54.6602C26.2179 53.9154 26.0081 53.352 25.3382 52.924C24.9493 52.7819 24.5582 52.7222 24.1505 52.6566C23.7488 52.5194 23.5792 52.3453 23.3125 52.0154C23.2446 51.6306 23.2446 51.6306 23.244 51.1765C23.2425 51.0042 23.241 50.8319 23.2394 50.6543C23.2404 50.4637 23.2416 50.273 23.2427 50.0823C23.242 49.8813 23.241 49.6803 23.2398 49.4793C23.2374 48.9335 23.2383 48.3878 23.24 47.8421C23.2414 47.2711 23.2401 46.7001 23.2393 46.1291C23.2383 45.1702 23.2396 44.2113 23.2422 43.2525C23.2451 42.1437 23.2442 41.0349 23.2412 39.9261C23.2388 38.9743 23.2384 38.0226 23.2398 37.0708C23.2407 36.5022 23.2408 35.9337 23.239 35.3651C23.2374 34.8306 23.2385 34.2962 23.2416 33.7617C23.2423 33.5655 23.2421 33.3692 23.2409 33.173C23.2395 32.9053 23.2416 32.6376 23.244 32.3699C23.2442 32.22 23.2444 32.0701 23.2446 31.9157C23.3284 31.4407 23.4747 31.284 23.8515 30.9919C24.2342 30.8793 24.2342 30.8793 24.6517 30.8066C25.4446 30.6247 25.4446 30.6247 26.0151 30.0602C26.2555 29.5299 26.4027 28.9708 26.5479 28.4082C26.7643 27.7912 27.1034 27.724 27.7039 27.7215Z" fill="#004DC9"/>
<path d="M53.4998 32.0042C53.5888 32.0028 53.6777 32.0014 53.7693 32C54.1738 32.1074 54.3307 32.2758 54.5779 32.6107C54.6306 33.0465 54.6306 33.0465 54.6116 33.5203C54.6068 33.6781 54.6019 33.8358 54.5969 33.9983C54.5906 34.1185 54.5844 34.2388 54.5779 34.3626C54.7617 34.3853 54.7617 34.3853 54.9491 34.4084C55.9899 34.6201 56.807 35.5478 57.408 36.3841C57.8808 37.1855 57.977 38.1714 57.8123 39.0794C57.5104 39.4562 57.3399 39.5972 56.8774 39.7448C56.3676 39.7552 56.1906 39.6609 55.7908 39.3489C55.6261 38.9499 55.6261 38.9499 55.5129 38.4898C55.3264 37.742 55.1136 37.1888 54.4505 36.7494C53.9158 36.5644 53.3825 36.5824 52.826 36.6536C52.2322 36.9451 51.8558 37.2462 51.6131 37.8665C51.5203 38.5502 51.533 39.0569 51.8489 39.6774C52.4424 40.3533 52.9227 40.4993 53.803 40.6208C55.2629 40.8551 56.1808 41.2743 57.1385 42.4485C57.8985 43.6773 58.0287 45.0874 57.7249 46.491C57.4353 47.2843 56.9906 47.9807 56.3299 48.513C56.0461 48.6423 55.7595 48.7656 55.4708 48.8836C55.0456 49.0564 55.0456 49.0564 54.7127 49.3216C54.5842 49.7589 54.5755 50.1071 54.6032 50.5608C54.5779 50.9388 54.5779 50.9388 54.3332 51.2499C53.9538 51.5437 53.709 51.6028 53.2303 51.6126C52.6151 51.3255 52.6151 51.3255 52.4217 50.9388C52.4264 50.8227 52.4311 50.7067 52.4359 50.5871C52.448 50.1225 52.43 49.7653 52.2869 49.3216C51.9045 49.0382 51.5255 48.8822 51.0856 48.7025C50.2376 48.3161 49.7809 47.6218 49.3979 46.7947C49.131 46.0485 49.0315 45.2515 49.1873 44.47C49.4361 44.146 49.5977 43.9651 49.9959 43.8594C50.1293 43.8615 50.1293 43.8615 50.2654 43.8636C50.3544 43.8622 50.4433 43.8608 50.535 43.8594C50.9301 43.9643 51.0908 44.1534 51.3436 44.47C51.461 44.8185 51.461 44.8185 51.5373 45.1944C51.7113 45.8951 51.8852 46.2745 52.4217 46.761C53.0482 47.0813 53.6427 47.1027 54.3084 46.8958C54.8146 46.597 55.1664 46.2303 55.3865 45.6829C55.4815 45.014 55.4584 44.4816 55.1591 43.872C54.548 43.1948 53.9492 43.0601 53.0703 42.9455C51.7746 42.7446 50.7134 42.3008 49.8948 41.2288C49.1313 40.0382 49.0492 38.8393 49.1873 37.4622C49.4784 36.2513 50.3827 35.3397 51.3609 34.62C51.7049 34.4527 52.0448 34.4128 52.4217 34.3626C52.4154 34.2424 52.4092 34.1222 52.4027 33.9983C52.3954 33.7617 52.3954 33.7617 52.388 33.5203C52.3817 33.364 52.3755 33.2076 52.369 33.0465C52.4217 32.6107 52.4217 32.6107 52.6596 32.2885C52.9769 32.0599 53.115 31.9982 53.4998 32.0042Z" fill="#004DC9"/>
<path d="M76.6057 38.7488C77.3907 39.2232 78.0268 39.9603 78.2987 40.8377C78.4093 41.9134 78.4238 42.9105 77.7597 43.8025C77.105 44.581 76.4195 45.0117 75.4181 45.1417C74.366 45.2024 73.448 44.8875 72.6386 44.2068C71.829 43.123 71.7272 42.179 71.83 40.8377C72.0543 39.9405 72.7022 39.3295 73.4472 38.8162C74.3611 38.3561 75.6672 38.3329 76.6057 38.7488ZM74.34 41.0482C74.0402 41.4979 74.0536 41.7903 74.121 42.3201C74.3277 42.6465 74.4841 42.7092 74.8454 42.8423C75.3031 42.8641 75.5071 42.719 75.873 42.4549C76.0576 42.2989 76.0576 42.2989 76.0498 41.8737C76.0483 41.3803 76.0483 41.3803 75.7887 41.0482C75.2629 40.7023 74.8658 40.7023 74.34 41.0482Z" fill="#004DC9"/>
<path d="M33.4807 38.7488C34.2657 39.2232 34.9018 39.9603 35.1737 40.8377C35.2843 41.9134 35.2988 42.9105 34.6347 43.8025C33.98 44.581 33.2945 45.0117 32.2931 45.1417C31.241 45.2024 30.323 44.8875 29.5136 44.2068C28.704 43.123 28.6022 42.179 28.705 40.8377C28.9293 39.9405 29.5772 39.3295 30.3222 38.8162C31.2361 38.3561 32.5422 38.3329 33.4807 38.7488ZM31.215 41.0482C30.9152 41.4979 30.9286 41.7903 30.996 42.3201C31.2027 42.6465 31.3591 42.7092 31.7204 42.8423C32.1781 42.8641 32.3821 42.719 32.748 42.4549C32.9326 42.2989 32.9326 42.2989 32.9248 41.8737C32.9233 41.3803 32.9233 41.3803 32.6637 41.0482C32.1379 40.7023 31.7408 40.7023 31.215 41.0482Z" fill="#004DC9"/>
</g>
<path d="M17.3184 104L22.582 89.7031H24.7695L30.0625 104H27.748L23.998 93.4043C23.9199 93.1829 23.8516 92.9714 23.793 92.7695C23.7409 92.5677 23.6921 92.3626 23.6465 92.1543H23.5684C23.5228 92.3626 23.4707 92.5677 23.4121 92.7695C23.36 92.9714 23.2949 93.1829 23.2168 93.4043L19.457 104H17.3184ZM19.8184 100.465L20.3945 98.7461H26.8984L27.4746 100.465H19.8184ZM31.3613 104V89.1172H33.5V104H31.3613ZM36.2832 104V89.1172H38.4219V104H36.2832ZM45.5898 97.3301V96.4512C45.5898 94.2051 46.1465 92.4863 47.2598 91.2949C48.3796 90.1035 49.8021 89.5078 51.5273 89.5078C53.2266 89.5078 54.5579 89.9635 55.5215 90.875C56.4915 91.7865 56.9766 92.929 56.9766 94.3027V94.498H54.7695V94.2832C54.7695 93.3783 54.4993 92.6523 53.959 92.1055C53.4251 91.5586 52.6146 91.2852 51.5273 91.2852C50.4336 91.2852 49.5449 91.6921 48.8613 92.5059C48.1777 93.3197 47.8359 94.5892 47.8359 96.3145V97.4668C47.8359 99.0749 48.1745 100.315 48.8516 101.188C49.5352 102.06 50.4336 102.496 51.5469 102.496C52.5755 102.496 53.3503 102.219 53.8711 101.666C54.3984 101.106 54.6979 100.38 54.7695 99.4883V99.293H56.9766L56.9668 99.498C56.8691 100.852 56.3646 101.988 55.4531 102.906C54.5417 103.818 53.2331 104.273 51.5273 104.273C49.7826 104.273 48.3568 103.674 47.25 102.477C46.1432 101.279 45.5898 99.5632 45.5898 97.3301ZM58.4609 101.041C58.4609 99.9863 58.8743 99.1758 59.7012 98.6094C60.528 98.0365 61.5794 97.75 62.8555 97.75H65.0723V97.0664C65.0723 96.5 64.9258 96.0475 64.6328 95.709C64.3398 95.3639 63.8385 95.1914 63.1289 95.1914C62.4258 95.1914 61.918 95.3346 61.6055 95.6211C61.293 95.9076 61.1367 96.2526 61.1367 96.6562V96.7637L59.0371 96.7539V96.6465C59.0371 95.8066 59.4147 95.0938 60.1699 94.5078C60.9316 93.9154 61.944 93.6191 63.207 93.6191C64.4701 93.6191 65.4499 93.9056 66.1465 94.4785C66.8496 95.0449 67.2012 95.9108 67.2012 97.0762V101.676C67.2012 102.099 67.2337 102.496 67.2988 102.867C67.3639 103.238 67.4583 103.564 67.582 103.844V104H65.5117C65.4206 103.837 65.3392 103.632 65.2676 103.385C65.2025 103.131 65.1569 102.877 65.1309 102.623C64.9095 103.033 64.5286 103.398 63.9883 103.717C63.4479 104.029 62.7578 104.186 61.918 104.186C60.9414 104.186 60.1211 103.919 59.457 103.385C58.793 102.851 58.4609 102.07 58.4609 101.041ZM60.5898 100.895C60.5898 101.428 60.7461 101.848 61.0586 102.154C61.3711 102.46 61.8529 102.613 62.5039 102.613C63.1745 102.613 63.7702 102.389 64.291 101.939C64.8118 101.484 65.0723 100.982 65.0723 100.436V99.1562H63.1484C62.2956 99.1562 61.6543 99.3092 61.2246 99.6152C60.8014 99.9212 60.5898 100.348 60.5898 100.895ZM69.2617 100.934L71.3613 100.943V101.041C71.3613 101.601 71.5566 102.014 71.9473 102.281C72.3379 102.548 72.862 102.682 73.5195 102.682C74.1836 102.682 74.6979 102.555 75.0625 102.301C75.4271 102.047 75.6094 101.708 75.6094 101.285C75.6094 100.862 75.4466 100.543 75.1211 100.328C74.8021 100.107 74.099 99.8724 73.0117 99.625C71.8919 99.3711 71.0293 99.0065 70.4238 98.5312C69.8249 98.0495 69.5254 97.3984 69.5254 96.5781C69.5254 95.6992 69.8802 94.9863 70.5898 94.4395C71.306 93.8861 72.2695 93.6094 73.4805 93.6094C74.6784 93.6094 75.6419 93.8893 76.3711 94.4492C77.1003 95.0026 77.4648 95.7611 77.4648 96.7246V96.8027H75.3848V96.6855C75.3848 96.2168 75.2253 95.8555 74.9062 95.6016C74.5938 95.3477 74.1152 95.2207 73.4707 95.2207C72.8262 95.2207 72.3542 95.3346 72.0547 95.5625C71.7617 95.7904 71.6152 96.0866 71.6152 96.4512C71.6152 96.8092 71.7878 97.0957 72.1328 97.3105C72.4844 97.5189 73.2038 97.7467 74.291 97.9941C75.4108 98.248 76.2604 98.6159 76.8398 99.0977C77.4258 99.5729 77.7188 100.253 77.7188 101.139C77.7188 102.083 77.3672 102.844 76.6641 103.424C75.9609 103.997 74.916 104.283 73.5293 104.283C72.1491 104.283 71.0911 103.993 70.3555 103.414C69.6263 102.828 69.2617 102.031 69.2617 101.021V100.934ZM79.8086 104V89.1172H81.9375V95.1816C82.2695 94.7389 82.7025 94.3809 83.2363 94.1074C83.7767 93.834 84.3919 93.6973 85.082 93.6973C86.0326 93.6973 86.8105 93.9902 87.416 94.5762C88.0215 95.1621 88.3242 96.1289 88.3242 97.4766V104H86.1953V97.5449C86.1953 96.7832 86.0228 96.2396 85.6777 95.9141C85.3392 95.582 84.8639 95.416 84.252 95.416C83.7246 95.416 83.2624 95.5625 82.8652 95.8555C82.4681 96.1484 82.1589 96.5326 81.9375 97.0078V104H79.8086Z" fill="#333333"/>
<defs>
<clipPath id="clip0_1_13945">
<rect width="69" height="69" fill="white" transform="translate(19)"/>
</clipPath>
</defs>
</svg>
