<svg width="134" height="88" viewBox="0 0 134 88" fill="none" xmlns="http://www.w3.org/2000/svg">
<g clip-path="url(#clip0_4_9791)">
<path d="M90.7382 53.7139H125.418L125.096 85.9762H90.4746L90.7382 53.7139Z" fill="#72839D"/>
<g style="mix-blend-mode:overlay" opacity="0.3">
<path d="M90.7285 56.5256L125.43 54.747L125.422 53.7139H90.7418L90.7285 56.5256Z" fill="black"/>
</g>
<g style="mix-blend-mode:overlay" opacity="0.5">
<path d="M119.704 59.6201H95.8145V85.9748H119.704V59.6201Z" fill="black"/>
</g>
<path d="M119.221 60.4873H96.6543V85.9764H119.221V60.4873Z" fill="#1E3A68"/>
<g style="mix-blend-mode:overlay" opacity="0.3">
<path d="M119.221 70.0065L96.6543 70.4916V69.8551L119.221 69.37V70.0065ZM96.6543 64.7331H119.221V64.0967H96.6543V64.7331ZM96.6543 75.2218H119.221V74.5854H96.6543V75.2218ZM119.221 80.7696V80.1331C113.589 80.1529 101.555 80.1883 96.6543 80.1572V80.7936C98.0702 80.8028 100.07 80.8063 102.336 80.8063C107.954 80.8063 115.196 80.7844 119.221 80.7696Z" fill="black"/>
</g>
<g style="mix-blend-mode:overlay" opacity="0.3">
<path d="M119.221 60.4873H96.6543V85.9764H99.0335L101.209 65.2656L119.221 62.2333V60.4873Z" fill="black"/>
</g>
<g style="mix-blend-mode:overlay" opacity="0.3">
<path d="M99.8316 53.7139H90.737L90.4707 85.9762H97.7079C98.3363 76.6268 99.4194 60.3655 99.8316 53.7139Z" fill="black"/>
</g>
<g style="mix-blend-mode:overlay" opacity="0.2">
<path d="M125.418 53.7139H124.546L123.089 84.238L90.4874 84.4509L90.4746 85.9762H125.096L125.418 53.7139Z" fill="black"/>
</g>
<g style="mix-blend-mode:overlay" opacity="0.1">
<path d="M125.418 53.7139H117.739L103.366 77.0638L90.5028 82.5663L90.4746 85.9762H125.096L125.418 53.7139Z" fill="white"/>
</g>
<path d="M8.5918 28.6958L8.72599 52.0429L23.3858 40.6873L26.7895 27.8076L8.5918 28.6958Z" fill="#134F87"/>
<g style="mix-blend-mode:overlay" opacity="0.3">
<path d="M8.60564 31.0571L25.3677 33.1877L26.7895 27.8076L8.5918 28.6958L8.60564 31.0571Z" fill="black"/>
</g>
<g style="mix-blend-mode:overlay" opacity="0.3">
<path d="M9.61101 28.6436L8.5918 28.6931L8.72599 52.0402L10.9646 50.3062L9.61101 28.6436Z" fill="white"/>
</g>
<path d="M27.0469 29.4977H7.0957L7.33107 28.2588L25.1619 13.933L26.5757 10.0732H43.7409L27.0469 29.4977Z" fill="#476FAF"/>
<path opacity="0.3" d="M26.5757 10.0732L25.1619 13.933L7.33107 28.2588L7.0957 29.4977L40.3579 10.0732H26.5757Z" fill="#5D9BFF"/>
<g style="mix-blend-mode:overlay" opacity="0.3">
<path d="M29.0385 27.1787L7.24267 28.7225L7.0957 29.4961H27.0469L29.0385 27.1787Z" fill="#004DC9"/>
</g>
<path d="M86.3774 28.6955L86.2433 52.0426L71.5835 40.6869L57.1074 27.9756L86.3774 28.6955Z" fill="#134F87"/>
<g style="mix-blend-mode:overlay" opacity="0.3">
<path d="M86.3636 31.0567L57.5089 34.7248L57.1074 27.9756L86.3774 28.6955L86.3636 31.0567Z" fill="black"/>
</g>
<g style="mix-blend-mode:overlay" opacity="0.3">
<path d="M85.9388 28.6709L86.3813 28.6921L86.2471 52.0392L84.3418 50.231L85.9388 28.6709Z" fill="black"/>
</g>
<path d="M56.718 29.4977H87.872L87.6367 28.2588L69.8058 13.933L68.3921 10.0732H43.7441L56.718 29.4977Z" fill="#476FAF"/>
<g style="mix-blend-mode:overlay" opacity="0.3">
<path d="M68.3909 10.0732L69.8046 13.933L87.6355 28.2588L87.8708 29.4977L61.2559 10.0732H68.3909Z" fill="#004DC9"/>
</g>
<g style="mix-blend-mode:overlay" opacity="0.3">
<path d="M54.6113 26.1436L87.7265 28.724L87.8735 29.4976H56.7195L54.6113 26.1436Z" fill="#004DC9"/>
</g>
<path opacity="0.3" d="M68.3921 10.0732H43.7441L46.4887 14.1826L69.4906 13.0723L68.3921 10.0732Z" fill="#5D9BFF"/>
<path d="M74.2258 54.1032H127.167L126.931 52.8635L109.1 38.5377L107.687 34.6787H61.252L74.2258 54.1032Z" fill="#476FAF"/>
<g style="mix-blend-mode:overlay" opacity="0.3">
<path d="M107.688 34.6787L109.102 38.5377L126.932 52.8635L127.168 54.1032L100.553 34.6787H107.688Z" fill="#004DC9"/>
</g>
<g style="mix-blend-mode:overlay" opacity="0.3">
<path d="M72.1191 50.749L127.021 53.3288L127.168 54.1031H74.2273L72.1191 50.749Z" fill="#004DC9"/>
</g>
<path opacity="0.3" d="M107.687 34.6787H61.252L63.9965 38.7874L108.785 37.6771L107.687 34.6787Z" fill="#5D9BFF"/>
<path d="M43.8082 2.80762L7.20508 52.0434H8.72324V85.9797H38.6695H48.9468H78.8931V52.0434H80.4118L43.8082 2.80762Z" fill="#476FAF"/>
<g style="mix-blend-mode:overlay" opacity="0.3">
<path d="M35.2255 41.4973L34.7676 41.9838L35.9066 42.575L52.7214 42.797L52.3492 26.8936H51.4328L35.2255 41.4973Z" fill="black"/>
</g>
<path d="M52.0089 26.4443H34.7676V41.9872H52.0089V26.4443Z" fill="#DBCFD1"/>
<path d="M35.8809 28.2189V41.2237L50.9618 41.0843V27.9756L35.8809 28.2189Z" fill="#476FAF"/>
<g style="mix-blend-mode:overlay" opacity="0.3">
<path d="M40.9717 28.135V41.1731H40.7363V28.1386L40.9717 28.135ZM46.006 28.0537H45.7701L45.8968 41.1257H46.1322L46.006 28.0537Z" fill="black"/>
</g>
<path d="M45.5194 31.3458L45.5359 33.3966L43.6083 33.3634L43.6147 31.3126L45.5194 31.3458ZM43.6072 33.6795L43.6003 35.7303L45.5546 35.7635L45.5381 33.7127L43.6072 33.6795ZM43.3644 35.7303L43.3713 33.6795L41.2664 33.6427L41.2797 35.6935L43.3644 35.7303ZM43.6232 28.7753L43.6158 31.0029L45.5168 31.0354L45.4992 28.7725L43.6232 28.7753ZM43.3793 31.3112L41.2493 31.2744L41.2632 33.3252L43.3713 33.3613L43.3793 31.3112ZM48.3316 30.8657L48.3247 28.7753H46.3406L46.3533 30.8968L48.3316 30.8657ZM43.3793 30.9986L43.3868 28.7753H41.2317L41.2461 30.9619L43.3793 30.9986ZM45.5567 36.0803L43.5992 36.0464L43.5923 38.0972L45.5732 38.1311L45.5567 36.0803ZM48.5824 35.5924L50.5164 35.5591V33.5084L48.5755 33.5416L48.5824 35.5924ZM48.5749 33.2269L50.5164 33.193V31.1422L48.568 31.1761L48.5749 33.2269ZM48.3481 35.9099L46.3837 35.9438L46.3959 37.9946L48.355 37.9614L48.3481 35.9099ZM48.5904 37.9607L50.5164 37.9274V35.8682L48.5835 35.9014L48.5904 37.9607ZM48.3401 33.5458L46.3698 33.5798L46.3821 35.6306L48.3476 35.5966L48.3401 33.5458ZM48.3321 31.1804L46.3549 31.2143L46.3672 33.2651L48.3374 33.2312L48.3321 31.1804ZM48.5669 30.8628L50.5164 30.8296V28.7788H48.5595L48.5669 30.8628ZM38.1374 31.0043L38.1299 28.7767H36.2731V31.0396L38.1374 31.0043ZM38.1619 38.414L36.2731 38.4465V40.5581L38.1693 40.5355L38.1619 38.414ZM48.5914 38.2725L48.5989 40.4117L50.5159 40.3884V38.2365L48.5914 38.2725ZM38.3978 38.409L38.4047 40.5305L40.5224 40.5051L40.5038 38.3708L38.3978 38.409ZM38.1539 36.0471L36.2731 36.0796V38.1304L38.1608 38.0979L38.1539 36.0471ZM48.3561 38.2725L46.3981 38.3065L46.4109 40.4336L48.363 40.411L48.3561 38.2725ZM43.5913 38.414L43.5843 40.4718L45.5913 40.4478L45.5759 38.4479L43.5913 38.414ZM43.3554 38.4097L41.2972 38.3744L41.3111 40.4959L43.3484 40.4718L43.3554 38.4097ZM38.3807 33.3648L40.4575 33.3294L40.4394 31.2787L38.3717 31.314L38.3807 33.3648ZM38.3887 35.731L40.4804 35.6949L40.4623 33.6441L38.3818 33.6802L38.3887 35.731ZM43.3633 36.0443L41.2818 36.0082L41.2951 38.059L43.3564 38.095L43.3633 36.0443ZM38.1448 33.6823L36.2715 33.7141V35.7649L38.1512 35.7324L38.1448 33.6823ZM38.3951 38.0972L40.4995 38.0604L40.4814 36.0096L38.3882 36.0457L38.3951 38.0972ZM38.1368 31.3161L36.2731 31.3487V33.3995L38.1454 33.3669L38.1368 31.3161ZM38.3711 30.9993L40.4372 30.9633L40.4181 28.776H38.3653L38.3711 30.9993Z" fill="#5498EA"/>
<g style="mix-blend-mode:overlay" opacity="0.3">
<path d="M35.8796 41.224L35.2246 41.5019L35.3263 27.0771H51.5596L50.9606 27.976V29.3026L38.8344 31.876L36.7135 41.224H35.8796Z" fill="black"/>
</g>
<g style="mix-blend-mode:overlay" opacity="0.3">
<path d="M43.6131 31.3154L44.2398 31.326L43.6104 32.152L43.6131 31.3154ZM45.5152 31.0326L45.5104 30.418L45.0482 31.0248L45.5152 31.0326ZM45.5343 33.3987L45.5178 31.348L44.8128 31.3352L43.6078 32.915V33.3676L45.5343 33.3987ZM43.6056 33.6816L43.5987 35.7324L44.8 35.7529L45.5455 34.7763L45.537 33.7156L43.6056 33.6816ZM41.2626 33.6406L41.2727 35.214L42.457 33.6583L41.2626 33.6406ZM40.4766 35.6914L40.4665 34.5352L39.5725 35.7069L40.4766 35.6914ZM43.3767 30.9958V30.7179L43.1674 30.9923L43.3767 30.9958ZM46.3656 33.5755V33.6958L46.4588 33.5741L46.3656 33.5755ZM43.3719 32.4589L43.3756 31.3084L42.9331 31.3006L41.3888 33.3273L42.6935 33.35L43.3719 32.4589ZM43.3719 33.2234L43.2654 33.3599H43.3687L43.3719 33.2234ZM46.3539 30.8968L48.3321 30.8628L48.3252 28.7725H46.7682L46.3422 29.3283L46.3539 30.8968ZM50.5175 40.3856V38.2393L48.5925 38.2725L48.6 40.4117L50.5175 40.3856ZM50.5175 33.5041L49.3135 33.5246L48.5787 34.4892L48.5824 35.5931L50.5164 35.5599L50.5175 33.5041ZM38.1603 38.4168L37.5048 38.4281L36.2715 40.0433V40.5595L37.2082 40.5489L38.1635 39.2965L38.1603 38.4168ZM50.5143 35.8767L48.5813 35.9099L48.5883 37.9607L50.5143 37.9274V35.8767ZM38.3733 31.3147L38.3791 32.99L39.6731 31.2928L38.3733 31.3147ZM44.4784 31.0177L45.5072 29.6677L45.5003 28.7753H44.8661L43.6189 30.4103V31.0029L44.4784 31.0177ZM38.1592 38.1V37.5682L37.7481 38.1071L38.1592 38.1ZM41.2802 36.0075L41.2935 38.0583L43.0193 38.088L43.3564 37.646L43.3617 36.0414L41.2802 36.0075ZM46.3656 33.2658L46.7032 33.2594L48.2895 31.1797L46.3533 31.2129L46.3656 33.2658ZM41.2355 29.2392L41.5896 28.7753H41.2301L41.2355 29.2392ZM38.3711 30.9986L39.9154 30.9717L40.4325 30.2936L40.4191 28.7753H39.1198L38.3669 29.7653L38.3711 30.9986ZM38.1358 31.0029L38.1326 30.0694L37.4116 31.0149L38.1358 31.0029ZM48.5648 30.8183L50.1229 28.7753H48.5574L48.5648 30.8183ZM38.1661 40.0518L37.7934 40.5397L38.1661 40.5348V40.0518ZM45.5743 38.4472H45.5594L44.0194 40.4676L45.5897 40.4492L45.5743 38.4472ZM41.2956 38.3765L41.3084 40.3361L42.7835 38.402L41.2956 38.3765ZM36.2715 33.4037L38.0857 33.3719L38.1432 33.2969L38.1368 31.3168L37.1698 31.3338L36.2715 32.5113V33.4037ZM50.5148 31.9512L49.5526 33.2135L50.5148 33.1965V31.9512ZM43.3697 33.6788L43.0316 33.6731L41.4873 35.6992L43.3639 35.7317L43.3697 33.6788ZM40.4995 38.0632L40.4905 37.0074L39.6742 38.0774L40.4995 38.0632ZM40.5208 40.5107L40.5022 38.3765L39.4324 38.3949L38.4004 39.7477V40.5362L40.5208 40.5107ZM38.3962 38.4126V38.9903L38.8429 38.4048L38.3962 38.4126ZM39.0884 38.088L40.4846 36.2515V36.0075L39.336 36.0273L38.3956 37.2606V38.0965L39.0884 38.088ZM48.3539 37.967L48.347 35.9163L47.4828 35.9311L46.3906 37.3561L46.3943 37.9925L48.3539 37.967ZM48.3619 40.4181L48.355 38.2796L46.397 38.3136L46.4098 40.4407L48.3619 40.4181ZM36.2741 35.7508L37.8466 33.6894L36.2741 33.7163V35.7508ZM48.3481 35.6002V34.7996L47.7267 35.6079L48.3481 35.6002ZM43.6003 36.0499L43.596 37.3405L44.5673 36.0676L43.6003 36.0499Z" fill="white"/>
</g>
<g style="mix-blend-mode:overlay" opacity="0.3">
<path d="M14.3105 57.9663L15.1391 59.0482L17.0519 59.3353L17.194 61.8727L17.7899 62.2298L19.4002 59.283H40.5363L40.8898 61.8727L41.4133 62.3366L43.063 58.8877L45.1839 58.5094V56.5279L36.6932 51.4639L14.3105 57.9663Z" fill="black"/>
</g>
<path d="M40.8927 57.3415V61.8737H40.4997L40.1855 57.1201L40.8927 57.3415Z" fill="#D0C1C3"/>
<g style="mix-blend-mode:overlay" opacity="0.3">
<path d="M40.8927 58.5111H40.2777L40.1855 57.1201L40.8927 57.3422V58.5111ZM40.8927 60.5803V60.2974L40.3916 60.2359L40.4145 60.5775L40.8927 60.5803Z" fill="black"/>
</g>
<path d="M16.8027 57.3415V61.8737H17.1952L17.5099 57.1201L16.8027 57.3415Z" fill="#D0C1C3"/>
<g style="mix-blend-mode:overlay" opacity="0.3">
<path d="M16.8027 57.3422L17.5099 57.1201L17.4178 58.5111H16.8027V57.3422ZM17.282 60.5803L17.3049 60.2387L16.8038 60.3003V60.5831L17.282 60.5803Z" fill="black"/>
</g>
<path d="M29.8489 56.9386V56.9209L28.8457 56.9294L27.8425 56.9209V56.9386L14.3105 57.0595V57.964H27.8425H29.8489H43.3803V57.0595L29.8489 56.9386Z" fill="#DBCFD1"/>
<path d="M15.652 56.9223L15.439 58.8175H14.998C14.998 58.8175 15.0124 56.8006 14.998 56.749L15.652 56.9223ZM25.6097 56.749C25.6241 56.8006 25.6097 58.8175 25.6097 58.8175H26.0507L26.2637 56.9223L25.6097 56.749ZM20.125 56.749L20.2102 58.8875H20.6085L20.6937 56.749H20.125ZM42.0481 56.9223L42.2611 58.8175H42.7025C42.7025 58.8175 42.6881 56.8006 42.7025 56.749L42.0481 56.9223ZM31.4374 56.9223L31.6504 58.8175H32.0919C32.0919 58.8175 32.0775 56.8006 32.0919 56.749L31.4374 56.9223ZM37.0069 56.749L37.0926 58.8875H37.4909L37.5761 56.749H37.0069Z" fill="#D0C1C3"/>
<path d="M41.2231 54.6631L36.6984 51.4639H29.8542H27.8477H21.0034L16.4788 54.6631L13.377 56.6792V57.3404H27.8477H29.8542H44.3249V56.6792L41.2231 54.6631Z" fill="#476FAF"/>
<g style="mix-blend-mode:overlay" opacity="0.2">
<path d="M27.8477 57.3404H29.8542H44.3249V56.6792L41.2231 54.6631L36.6984 51.4639H35.9284L34.464 55.9883L13.377 56.6792V57.3404H27.8477Z" fill="#004DC9"/>
</g>
<path opacity="0.3" d="M36.6984 51.4639H29.8542H27.8477H21.0034L16.4788 54.6631L13.377 56.6792V57.3404H19.8399L23.2373 52.3507L37.4082 51.966L36.6984 51.4639Z" fill="#5D9BFF"/>
<g style="mix-blend-mode:overlay" opacity="0.3">
<path d="M38.0439 85.9782L37.6962 60.2451H36.7798L20.8691 85.9782H38.0439Z" fill="black"/>
</g>
<path d="M37.3605 59.7764H20.1191V85.9776H37.3605V59.7764Z" fill="#DBCFD1"/>
<path d="M36.3139 85.9749V61.3584L21.2324 61.6101V85.9749H36.3139Z" fill="#476FAF"/>
<g style="mix-blend-mode:overlay" opacity="0.3">
<path d="M28.8858 85.976V61.5264L28.6504 61.5299V85.976H28.8858Z" fill="black"/>
</g>
<path d="M35.6281 66.5269L35.6521 69.7714L32.8139 69.7183L32.824 66.4746L35.6281 66.5269ZM32.8123 70.2133L32.8022 73.4571L35.6777 73.5102L35.6537 70.2657L32.8123 70.2133ZM32.455 73.4508L32.4651 70.207L29.3654 70.149L29.3856 73.3942L32.455 73.4508ZM32.8362 62.4607L32.8256 65.9802L35.6244 66.0319L35.5983 62.4607H32.8362ZM32.4768 66.4682L29.3425 66.4102L29.3622 69.6547L32.4667 69.712L32.4768 66.4682ZM32.4768 65.9732L32.488 62.46H29.3185L29.3393 65.9152L32.4768 65.9732ZM35.6819 74.0045L32.799 73.9507L32.7888 77.1952L35.7054 77.249L35.6819 74.0045ZM24.7582 65.9802L24.7475 62.4607H22.0137V66.0312L24.7582 65.9802ZM24.7949 77.6902L22.0137 77.7411V81.079L24.8056 81.0429L24.7949 77.6902ZM25.1421 77.6839L25.1522 81.0387L28.2706 80.9991L28.2434 77.6266L25.1421 77.6839ZM24.7832 73.9514L22.0142 74.0031V77.2468L24.7939 77.1959L24.7832 73.9514ZM32.7888 77.6902L32.7787 80.9432L35.7341 80.9057L35.7107 77.7454L32.7888 77.6902ZM32.4417 77.6839L29.4112 77.628L29.432 80.9842L32.4315 80.946L32.4417 77.6839ZM24.7949 84.933L22.0137 84.8807V81.4757L24.8056 81.5125L24.7949 84.933ZM25.1421 84.9394L25.1522 81.5167L28.2706 81.557L28.2434 84.9981L25.1421 84.9394ZM32.7888 84.933L32.7787 81.6157L35.7341 81.6539L35.7107 84.8779L32.7888 84.933ZM32.4417 84.9394L29.4112 84.9967L29.432 81.5719L32.4315 81.6108L32.4417 84.9394ZM25.1171 69.712L28.1779 69.6554L28.1518 66.4116L25.107 66.4682L25.1171 69.712ZM25.1288 73.4508L28.2088 73.3942L28.1822 70.1497L25.1187 70.207L25.1288 73.4508ZM32.4534 73.9458L29.3883 73.8892L29.4085 77.1337L32.4438 77.1896L32.4534 73.9458ZM24.7715 70.2141L22.0137 70.265V73.5087L24.7827 73.4578L24.7715 70.2141ZM25.1405 77.1896L28.2391 77.1323L28.2125 73.8892L25.1304 73.9458L25.1405 77.1896ZM24.7598 66.4753L22.0137 66.5262V69.7699L24.7699 69.719L24.7598 66.4753ZM25.1054 65.9746L28.1476 65.918L28.1193 62.4614H25.0953L25.1054 65.9746Z" fill="#5498EA"/>
<g style="mix-blend-mode:overlay" opacity="0.3">
<path d="M22.0832 85.9765L24.1844 65.3987L36.3105 62.7341V61.36L36.9091 60.4287H20.6757L20.5762 85.9765H22.0832Z" fill="black"/>
</g>
<g style="mix-blend-mode:overlay" opacity="0.3">
<path d="M33.2431 70.2215L32.8096 70.8098V70.2137L33.2431 70.2215ZM32.4331 65.9735L32.4779 65.9127L32.4837 64.1094L31.129 65.948L32.4331 65.9735ZM32.4661 69.7123L32.4757 66.704L30.2898 69.6741L32.4661 69.7123ZM26.5836 73.9171L25.2433 73.9419L25.1315 74.0946L25.1368 75.8823L26.5836 73.9171ZM24.7912 76.3519L24.7859 74.5642L22.822 77.2309L24.1623 77.2061L24.7912 76.3519ZM26.9532 73.4157L28.1955 71.7284L28.1827 70.1486H28.0347L25.6129 73.4376L26.9532 73.4157ZM29.7184 69.66L32.0753 66.46L30.7707 66.4353L29.3558 68.3595L29.3633 69.655L29.7184 69.66ZM29.9314 70.155L29.3702 70.9173L29.3856 73.3924L30.8867 73.42L32.4619 71.2808L32.4651 70.2052L29.9314 70.155ZM28.2706 80.9944V80.7908L28.1193 80.9966L28.2706 80.9944ZM24.7933 77.1913V77.1326L24.7497 77.192L24.7933 77.1913ZM28.1444 65.5513L28.1193 62.4561H27.9543L25.3711 65.9643L27.8739 65.9176L28.1444 65.5513ZM24.8056 81.5078L22.0137 81.4711V84.8782L22.4434 84.886L24.805 81.679L24.8056 81.5078ZM29.3883 73.8839L29.3979 75.4396L30.5273 73.91L29.3883 73.8839ZM25.107 66.4636L25.1171 69.6635L27.5064 66.4211L25.107 66.4636ZM35.6244 66.0272L35.5983 62.4589L33.0061 65.9792L35.6244 66.0272ZM35.0206 62.461H33.6989L32.833 63.6363L32.8277 65.4389L35.0206 62.461ZM28.2093 73.3945L28.2019 72.5091L27.541 73.4065L28.2093 73.3945ZM24.8061 81.0432L24.7955 77.6906L24.3812 77.6983L22.0142 80.9124V81.0786L24.8061 81.0432ZM22.0142 73.5084L22.2932 73.5034L24.7151 70.2144L22.2123 70.2611L22.0153 70.5284L22.0142 73.5084ZM29.3281 63.9503L30.4245 62.461H29.3191L29.3281 63.9503ZM24.7704 69.7187L24.7614 66.7973L22.5781 69.759L24.7704 69.7187ZM23.7933 77.7096L22.453 77.7344L22.0142 78.3298V80.1253L23.7933 77.7096ZM35.7112 77.745L32.7894 77.6913L32.7793 80.9442L35.4737 80.9096L35.732 80.556L35.7112 77.745ZM32.7793 81.6167L32.7883 84.5557L34.9316 81.6443L32.7793 81.6167ZM28.2711 81.5581L27.7141 81.551L25.2172 84.9454L28.2439 85.0027L28.2711 81.5581ZM32.4502 75.1193L30.9453 77.163L32.4438 77.1906L32.4502 75.1193ZM29.4325 81.5736L29.4117 84.9984L32.4422 84.9411L32.4321 81.6125L29.4325 81.5736ZM30.5864 77.651L29.4218 79.2329L29.4325 80.9859L32.4321 80.9478L32.4422 77.6856L30.5864 77.651ZM32.8229 66.4777L32.8128 69.7215L33.6014 69.7363L35.6303 66.9784L35.6271 66.5272L32.8229 66.4777ZM25.1427 77.6842L25.1528 81.039H25.28L27.7828 77.6368L25.1427 77.6842ZM28.1539 77.134L28.2386 77.0187L28.2131 73.8888L27.172 73.9079L25.1395 76.6659V77.1863L28.1539 77.134ZM35.6803 73.5105L35.6601 70.7596L33.6616 73.473L35.6803 73.5105ZM35.6841 74.0055L33.3022 73.961L32.799 74.6448L32.791 77.1962L35.7075 77.25L35.6841 74.0055Z" fill="white"/>
</g>
<g style="mix-blend-mode:overlay" opacity="0.3">
<path d="M7.20508 52.0434H8.72324V53.7922L44.5649 7.36248L79.0113 52.0434H80.4118L43.8082 2.80762L7.20508 52.0434Z" fill="black"/>
</g>
<path d="M44.0039 0.217773H43.8096H43.6157L6.00195 51.6493L6.34275 52.0666L43.8096 0.946863L81.2769 52.0666L81.6177 51.6493L44.0039 0.217773Z" fill="#2E2B47"/>
<g style="mix-blend-mode:overlay" opacity="0.1">
<path d="M78.8945 52.0431H80.4132L54.9846 17.8389L43.8096 50.7518L8.72461 84.9674V85.9794H38.6709H48.9482H78.8945V52.0431Z" fill="white"/>
</g>
<path d="M43.812 0.709961L6.24023 51.9357V52.8812H7.05336L43.812 3.02805L80.5711 52.8812H81.3842V51.9357L43.812 0.709961Z" fill="#DBCFD1"/>
<g style="mix-blend-mode:overlay" opacity="0.5">
<path d="M43.812 0.709961L6.24023 51.9357V52.1479L43.812 2.27704L81.3842 52.1479V51.9357L43.812 0.709961Z" fill="black"/>
</g>
<path d="M69.5983 27.0771L45.877 54.1723H47.1534V85.9792H69.5983H92.0438V54.1723H93.3202L69.5983 27.0771Z" fill="#104D88"/>
<g style="mix-blend-mode:overlay" opacity="0.3">
<path d="M61.2568 74.8293L60.7988 75.3158L61.9379 75.907L78.7527 76.1291L78.3804 60.2256H77.464L61.2568 74.8293Z" fill="black"/>
</g>
<path d="M78.0402 59.7764H60.7988V75.3192H78.0402V59.7764Z" fill="#DBCFD1"/>
<path d="M61.9121 61.5509V74.5557L76.9931 74.4164V61.3076L61.9121 61.5509Z" fill="#476FAF"/>
<g style="mix-blend-mode:overlay" opacity="0.3">
<path d="M67.0035 61.4671V74.5065H66.7676V61.4671H67.0035ZM72.0378 61.3857L71.8019 61.39L71.9286 74.4613H72.164L72.0378 61.3857Z" fill="black"/>
</g>
<path d="M71.5512 64.6779L71.5677 66.7287L69.6395 66.6954L69.6465 64.6446L71.5512 64.6779ZM69.6385 67.0115L69.6321 69.0623L71.5864 69.0955L71.5699 67.0448L69.6385 67.0115ZM69.3962 69.0623L69.4031 67.0115L67.2976 66.9755L67.3114 69.0262L69.3962 69.0623ZM69.655 62.1073L69.6475 64.3349L71.5486 64.3674L71.531 62.1045L69.655 62.1073ZM69.4111 64.6439L67.2811 64.6072L67.2949 66.6579L69.4031 66.6947L69.4111 64.6439ZM74.3634 64.1977L74.3565 62.1073H72.3723L72.3851 64.2288L74.3634 64.1977ZM69.4111 64.3307L69.4186 62.1073H67.2657L67.28 64.2939L69.4111 64.3307ZM71.5874 69.4131L69.63 69.3791L69.623 71.4299L71.6039 71.4638L71.5874 69.4131ZM74.6131 68.9258L76.5472 68.8926V66.8418L74.6062 66.8757L74.6131 68.9258ZM74.6051 66.5596L76.5472 66.5264V64.4756L74.5982 64.5089L74.6051 66.5596ZM74.3788 69.2426L72.4139 69.2766L72.4267 71.3274L74.3857 71.2934L74.3788 69.2426ZM74.6211 71.2934L76.5472 71.2602V69.2094L74.6142 69.2426L74.6211 71.2934ZM74.3708 66.8786L72.4006 66.9125L72.4133 68.9633L74.3788 68.9301L74.3708 66.8786ZM74.3628 64.5131L72.3851 64.5471L72.3979 66.5978L74.3682 66.5639L74.3628 64.5131ZM74.5971 64.1963L76.5472 64.1623V62.1116H74.5902L74.5971 64.1963ZM64.1681 64.3377L64.1606 62.1101H62.3038V64.3731L64.1681 64.3377ZM64.1926 71.7481L62.3038 71.7807V73.8923L64.2 73.8703L64.1926 71.7481ZM74.6222 71.6067L74.6296 73.7459L76.5466 73.7233V71.5735L74.6222 71.6067ZM64.4285 71.7432L64.4354 73.8647L66.5532 73.8392L66.5345 71.705L64.4285 71.7432ZM64.1846 69.3812L62.3038 69.4138V71.4646L64.1915 71.4327L64.1846 69.3812ZM74.3868 71.6109L72.4288 71.6442L72.4416 73.772L74.3937 73.7487L74.3868 71.6109ZM69.622 71.7474L69.6151 73.8053L71.622 73.7812L71.6061 71.7814L69.622 71.7474ZM69.3861 71.7432L67.328 71.7078L67.3418 73.8293L69.3792 73.8053L69.3861 71.7432ZM64.4114 66.699L66.4882 66.6629L66.4701 64.6121L64.4024 64.6482L64.4114 66.699ZM64.4194 69.0644L66.5111 69.0284L66.493 66.9776L64.4125 67.0136L64.4194 69.0644ZM69.3941 69.3777L67.3125 69.3416L67.3258 71.3924L69.3871 71.4278L69.3941 69.3777ZM64.1755 67.0158L62.3027 67.0483V69.0991L64.1825 69.0665L64.1755 67.0158ZM64.4264 71.4306L66.5308 71.3945L66.5127 69.3438L64.4194 69.3798L64.4264 71.4306ZM64.1676 64.6496L62.3038 64.6821V66.7329L64.1755 66.7004L64.1676 64.6496ZM64.4024 64.3328L66.4685 64.2974L66.4493 62.1094H64.3955L64.4024 64.3328Z" fill="#5498EA"/>
<g style="mix-blend-mode:overlay" opacity="0.3">
<path d="M61.9108 74.5522L61.2559 74.8301L61.357 60.4053H77.5904L76.9918 61.3041V62.6307L64.8657 65.2041L62.7447 74.5522H61.9108Z" fill="black"/>
</g>
<g style="mix-blend-mode:overlay" opacity="0.3">
<path d="M69.6477 64.6468L70.2745 64.6581L69.6451 65.4833L69.6477 64.6468ZM71.5498 64.3639L71.545 63.7501L71.0828 64.3561L71.5498 64.3639ZM71.569 66.7301L71.5525 64.6793L70.8474 64.6673L69.6424 66.2464V66.699L71.569 66.7301ZM69.6397 67.0129L69.6333 69.0637L70.8347 69.0842L71.5802 68.1076L71.5716 67.0469L69.6397 67.0129ZM67.2967 66.9726L67.3074 68.5454L68.4917 66.9896L67.2967 66.9726ZM66.5113 69.0234L66.5012 67.8672L65.6071 69.039L66.5113 69.0234ZM69.4113 64.3278V64.0499L69.202 64.3243L69.4113 64.3278ZM72.3997 66.9076V67.0285L72.4929 66.9062L72.3997 66.9076ZM69.4065 65.7917L69.4102 64.6411L68.9677 64.6333L67.4234 66.6594L68.7281 66.682L69.4065 65.7917ZM69.4065 66.5554L69.3 66.6919H69.4033L69.4065 66.5554ZM72.3885 64.2288L74.3667 64.1949L74.3598 62.1045H72.8033L72.3773 62.661L72.3885 64.2288ZM76.5521 73.7183V71.5685L74.6271 71.6018L74.6346 73.7409L76.5521 73.7183ZM76.5521 66.8362L75.3481 66.8574L74.6144 67.8191L74.6181 68.923L76.5521 68.8898V66.8362ZM64.1981 71.7425L63.5426 71.7538L62.3093 73.3704V73.8866L63.246 73.876L64.2013 72.6236L64.1981 71.7425ZM76.5521 69.2023L74.6191 69.2356L74.6261 71.2864L76.5521 71.2531V69.2023ZM64.4111 64.6411L64.4169 66.3157L65.7109 64.6185L64.4111 64.6411ZM70.5146 64.3469L71.5434 62.9976L71.5322 62.1066H70.898L69.6509 63.7423V64.3342L70.5146 64.3469ZM64.1981 71.4299V70.8974L63.787 71.437L64.1981 71.4299ZM67.3191 69.3367L67.3324 71.3875L69.0577 71.4172L69.3953 70.9745L69.4006 69.3699L67.3191 69.3367ZM72.4045 66.595L72.7421 66.5893L74.3284 64.5089L72.3917 64.5421L72.4045 66.595ZM67.2722 62.5705L67.6263 62.1066H67.269L67.2722 62.5705ZM64.4079 64.3299L65.9521 64.3031L66.4692 63.6249L66.4559 62.1066H65.1577L64.4047 63.0966L64.4079 64.3299ZM64.1725 64.3342L64.1693 63.4014L63.4483 64.3469L64.1725 64.3342ZM74.6016 64.1496L76.1602 62.1066H74.5947L74.6016 64.1496ZM64.2023 73.3831L63.8296 73.871L64.2023 73.8668V73.3831ZM71.6105 71.7785H71.5956L70.0561 73.7975L71.6265 73.7784L71.6105 71.7785ZM67.3324 71.7078L67.3452 73.6674L68.8202 71.7333L67.3324 71.7078ZM62.3082 66.735L64.1225 66.7039L64.18 66.6282L64.1731 64.6482L63.206 64.6652L62.3082 65.8426V66.735ZM76.5516 65.2832L75.5894 66.5448L76.5516 66.5285V65.2832ZM69.4022 67.0087L69.0641 67.003L67.5198 69.0298L69.3964 69.0616L69.4022 67.0087ZM66.532 71.3931L66.523 70.3366L65.7067 71.4073L66.532 71.3931ZM66.5533 73.8399L66.5347 71.7057L65.4649 71.7241L64.4329 73.0769V73.8654L66.5533 73.8399ZM64.4287 71.7418V72.3195L64.8749 71.734L64.4287 71.7418ZM65.1209 71.4172L66.5182 69.5842V69.3402L65.3696 69.36L64.4265 70.5926L64.4297 71.4285L65.1209 71.4172ZM74.3864 71.2963L74.3795 69.2455L73.5153 69.2603L72.4236 70.6916L72.4274 71.3323L74.3864 71.2963ZM74.3944 73.7473L74.3875 71.6095L72.4295 71.6428L72.4423 73.7706L74.3944 73.7473ZM62.3066 69.08L63.8791 67.0186L62.3066 67.0462V69.08ZM74.3806 68.9301V68.1296L73.7618 68.9407L74.3806 68.9301ZM69.6328 69.3791L69.628 70.6697L70.5998 69.3968L69.6328 69.3791Z" fill="white"/>
</g>
<g style="mix-blend-mode:overlay" opacity="0.3">
<path d="M55.0645 57.9663L55.8925 59.0482L57.8058 59.3353L57.9479 61.8727L58.5438 62.2298L60.1536 59.283H81.2896L81.6432 61.8727L82.1672 62.3366L83.8164 58.8877L85.9373 58.5094V56.5279L77.4466 51.4639L55.0645 57.9663Z" fill="black"/>
</g>
<path d="M81.6422 57.3415V61.8737H81.2497L80.9355 57.1201L81.6422 57.3415Z" fill="#D0C1C3"/>
<g style="mix-blend-mode:overlay" opacity="0.3">
<path d="M81.6422 58.5111H81.0271L80.9355 57.1201L81.6422 57.3422V58.5111ZM81.6422 60.5803V60.2974L81.1416 60.2359L81.164 60.5775L81.6422 60.5803Z" fill="black"/>
</g>
<path d="M57.5566 57.3415V61.8737H57.9496L58.2638 57.1201L57.5566 57.3415Z" fill="#D0C1C3"/>
<g style="mix-blend-mode:overlay" opacity="0.3">
<path d="M57.5566 57.3422L58.2638 57.1201L58.1717 58.5111H57.5566V57.3422ZM58.0359 60.5803L58.0583 60.2387L57.5572 60.3003V60.5831L58.0359 60.5803Z" fill="black"/>
</g>
<path d="M70.6023 56.9386V56.9209L69.5991 56.9294L68.5959 56.9209V56.9386L55.0645 57.0595V57.964H68.5959H70.6023H84.1343V57.0595L70.6023 56.9386Z" fill="#DBCFD1"/>
<path d="M56.4064 56.9223L56.1934 58.8175H55.752C55.752 58.8175 55.7663 56.8006 55.752 56.749L56.4064 56.9223ZM66.3642 56.749C66.3786 56.8006 66.3642 58.8175 66.3642 58.8175H66.8056L67.0186 56.9223L66.3642 56.749ZM60.8794 56.749L60.9646 58.8875H61.3635L61.4487 56.749H60.8794ZM82.8025 56.9223L83.0155 58.8175H83.4564C83.4564 58.8175 83.442 56.8006 83.4564 56.749L82.8025 56.9223ZM72.1919 56.9223L72.4049 58.8175H72.8458C72.8458 58.8175 72.8319 56.8006 72.8458 56.749L72.1919 56.9223ZM77.7618 56.749L77.8471 58.8875H78.2438L78.329 56.749H77.7618Z" fill="#D0C1C3"/>
<path d="M81.9692 54.6631L77.4445 51.4639H70.6002H68.5938H61.7501L57.2249 54.6631L54.123 56.6792V57.3404H68.5938H70.6002H85.071V56.6792L81.9692 54.6631Z" fill="#476FAF"/>
<g style="mix-blend-mode:overlay" opacity="0.2">
<path d="M68.5938 57.3404H70.6002H85.071V56.6792L81.9692 54.6631L77.4445 51.4639H76.6745L75.2106 55.9883L54.123 56.6792V57.3404H68.5938Z" fill="#004DC9"/>
</g>
<path opacity="0.3" d="M77.4445 51.4639H70.6002H68.5938H61.7501L57.2249 54.6631L54.123 56.6792V57.3404H60.586L63.9839 52.3507L78.1543 51.966L77.4445 51.4639Z" fill="#5D9BFF"/>
<g style="mix-blend-mode:overlay" opacity="0.3">
<path d="M45.877 54.1723H47.1534V55.1764L71.0387 31.1801L92.1758 54.1723H93.3202L69.5983 27.0771L45.877 54.1723Z" fill="black"/>
</g>
<path d="M69.9393 24.4365H69.599H69.2587L44.752 53.436L45.0922 53.8533L69.599 24.9931L94.1063 53.8533L94.4466 53.436L69.9393 24.4365Z" fill="#2E2B47"/>
<g style="mix-blend-mode:overlay" opacity="0.1">
<path d="M69.6232 71.4321L47.1543 80.6373V85.9785H69.5992H92.0447V54.1716H93.3211L81.6002 40.7842L69.6232 71.4321Z" fill="white"/>
</g>
<g style="mix-blend-mode:overlay" opacity="0.3">
<path d="M50.3031 85.9781L48.5517 51.1162L45.877 54.1712H47.1534V85.9781H50.3031Z" fill="white"/>
</g>
<g style="mix-blend-mode:overlay" opacity="0.2">
<path d="M88.8443 80.9022L8.72461 83.4544V85.979H38.6709H47.1547H48.9482H69.5997H78.8945H92.0452V54.172H93.3216L90.4578 50.9014L88.8443 80.9022Z" fill="black"/>
</g>
<path d="M69.6019 24.7529L44.9902 53.7192V54.6647H45.8018L69.6019 27.0739L93.4021 54.6647H94.2136V53.7192L69.6019 24.7529Z" fill="#DBCFD1"/>
<g style="mix-blend-mode:overlay" opacity="0.5">
<path d="M69.6019 24.7529L44.9902 53.7192V53.9314L69.6019 26.3285L94.2136 53.9314V53.7192L69.6019 24.7529Z" fill="black"/>
</g>
<g style="mix-blend-mode:overlay" opacity="0.3">
<path d="M12.6323 85.9749L9.97835 48.3076L7.20508 52.0386H8.72324V85.9749H12.6323Z" fill="white"/>
</g>
<path d="M125.116 85.96H8.89629L0.443359 86.8623V87.6444H133.569V86.8623L125.116 85.96Z" fill="#384259"/>
<g style="mix-blend-mode:overlay" opacity="0.3">
<path d="M125.116 85.96H8.89629L0.443359 86.8623H133.569L125.116 85.96Z" fill="white"/>
</g>
<path d="M44.9629 85.9615V84.9333L45.431 84.2607H92.9972L93.5026 84.987V85.9615H44.9629Z" fill="#2E2B47"/>
<g style="mix-blend-mode:overlay" opacity="0.3">
<path d="M44.9629 84.9333H93.5026L92.9972 84.2607H45.431L44.9629 84.9333Z" fill="white"/>
</g>
</g>
<defs>
<clipPath id="clip0_4_9791">
<rect width="133.125" height="87.4257" fill="white" transform="translate(0.443359 0.217773)"/>
</clipPath>
</defs>
</svg>
