<svg width="134" height="88" viewBox="0 0 134 88" fill="none" xmlns="http://www.w3.org/2000/svg">
<g clip-path="url(#clip0_4_9607)">
<path d="M35.3594 48.7162L24.3857 51.7236L28.998 76.7755L39.9716 73.768L35.3594 48.7162Z" fill="#F2F7FF"/>
<path d="M25.0142 55.7284L24.2568 51.6132L27.5722 50.7041L27.5975 50.8406C27.7908 51.8867 27.6391 52.9836 27.1752 53.8943C26.9503 54.3469 26.653 54.7396 26.3009 55.0488C25.9489 55.358 25.5493 55.5774 25.1261 55.6938L25.0142 55.7284ZM24.5313 51.8274L25.1874 55.3908C25.9359 55.146 26.578 54.5579 26.9797 53.7493C27.3917 52.9407 27.5403 51.9728 27.3959 51.0371L24.5313 51.8274Z" fill="#0E2549"/>
<path d="M28.2367 52.6162C28.2062 52.6203 28.1757 52.6094 28.1517 52.586C28.1278 52.5626 28.1124 52.5285 28.1091 52.4913C28.1057 52.4541 28.1146 52.4168 28.1338 52.3876C28.153 52.3584 28.1809 52.3397 28.2114 52.3356L31.914 51.3208C31.9287 51.3168 31.944 51.3163 31.9589 51.3194C31.9738 51.3226 31.988 51.3293 32.0008 51.3391C32.0136 51.349 32.0246 51.3618 32.0333 51.3769C32.042 51.392 32.0482 51.409 32.0516 51.427C32.0549 51.445 32.0553 51.4636 32.0527 51.4817C32.0501 51.4999 32.0446 51.5173 32.0366 51.5329C32.0285 51.5485 32.018 51.562 32.0056 51.5726C31.9932 51.5832 31.9793 51.5908 31.9646 51.5949L28.262 52.6096L28.2367 52.6162Z" fill="#0E2549"/>
<path d="M29.2795 71.4634C29.2533 71.4635 29.2278 71.4528 29.2074 71.4329C29.1869 71.413 29.1726 71.3851 29.1668 71.354L26.4217 56.4467C26.4172 56.4282 26.4159 56.4089 26.4178 56.3899C26.4198 56.3708 26.4248 56.3524 26.4328 56.3359C26.4408 56.3193 26.4514 56.305 26.4641 56.2936C26.4768 56.2823 26.4913 56.2743 26.5066 56.2701C26.522 56.2658 26.5379 56.2655 26.5533 56.269C26.5688 56.2726 26.5835 56.28 26.5965 56.2908C26.6095 56.3015 26.6206 56.3154 26.629 56.3316C26.6375 56.3478 26.6431 56.366 26.6455 56.3849L29.3914 71.2923C29.3981 71.3286 29.3927 71.3666 29.3765 71.3982C29.3602 71.4297 29.3345 71.4521 29.3048 71.4606L29.2795 71.4634Z" fill="#0E2549"/>
<path d="M29.0017 58.3865L20.0537 66.7002L32.8036 87.1275L41.7515 78.8139L29.0017 58.3865Z" fill="#F2F7FF"/>
<path d="M28.9615 62.4697C28.8177 62.4695 28.6741 62.4586 28.5314 62.437C28.0937 62.3787 27.67 62.2133 27.2858 61.9507C26.9016 61.6881 26.5648 61.3338 26.2953 60.9087L26.2256 60.7974L29.0213 58.2002L31.1148 61.555L31.0235 61.6401C30.4283 62.1826 29.7044 62.4738 28.9615 62.4697ZM26.5498 60.8489C27.0567 61.5848 27.7766 62.0538 28.5598 62.1583C29.3447 62.2795 30.1388 62.0448 30.7913 61.4989L28.9776 58.593L26.5498 60.8489Z" fill="#0E2549"/>
<path d="M21.9831 70.035L19.8896 66.6802L22.5933 64.1689L22.6631 64.2802C23.1963 65.1336 23.4331 66.2086 23.3223 67.2731C23.2726 67.799 23.1364 68.3073 22.922 68.7675C22.7076 69.2278 22.4193 69.6305 22.0744 69.9517L21.9831 70.035ZM20.2124 66.7335L22.0253 69.6394C22.6225 69.0369 23.0054 68.1759 23.0939 67.2366C23.1918 66.2937 22.9971 65.3403 22.5481 64.5636L20.2124 66.7335Z" fill="#0E2549"/>
<path d="M23.8062 65.5809C23.782 65.5811 23.7584 65.5719 23.7387 65.5548C23.7189 65.5377 23.7042 65.5134 23.6965 65.4854C23.6887 65.4574 23.6884 65.4272 23.6956 65.399C23.7028 65.3708 23.7171 65.3461 23.7364 65.3284L26.7559 62.5225C26.7803 62.5017 26.8104 62.4931 26.8398 62.4988C26.8692 62.5044 26.8957 62.5237 26.9137 62.5527C26.9316 62.5816 26.9397 62.618 26.9362 62.654C26.9326 62.6901 26.9178 62.7231 26.8947 62.7461L23.8752 65.5519C23.8555 65.5706 23.8312 65.5808 23.8062 65.5809Z" fill="#0E2549"/>
<path d="M38.1176 75.6669C38.0999 75.6667 38.0824 75.6617 38.0665 75.6521C38.0506 75.6426 38.0366 75.6287 38.0257 75.6117L30.4366 63.4531C30.4275 63.4385 30.4208 63.4217 30.4169 63.4039C30.413 63.3861 30.4121 63.3675 30.4141 63.3492C30.4162 63.3309 30.4211 63.3133 30.4287 63.2973C30.4363 63.2814 30.4464 63.2674 30.4585 63.2563C30.4705 63.2451 30.4842 63.2369 30.4988 63.2322C30.5135 63.2275 30.5287 63.2263 30.5437 63.2288C30.5587 63.2313 30.5731 63.2373 30.5862 63.2466C30.5992 63.2559 30.6107 63.2682 30.6198 63.2829L38.2089 75.4415C38.2219 75.4623 38.2298 75.487 38.2319 75.513C38.234 75.5391 38.23 75.5653 38.2206 75.5887C38.2111 75.6121 38.1964 75.6319 38.1782 75.6457C38.16 75.6595 38.1391 75.6668 38.1176 75.6669Z" fill="#0E2549"/>
<path d="M31.1864 82.1859C31.1686 82.186 31.1511 82.1811 31.1351 82.1715C31.1191 82.1619 31.1052 82.148 31.0944 82.1307L23.5054 69.9722C23.4956 69.9575 23.4884 69.9407 23.4841 69.9226C23.4797 69.9045 23.4785 69.8855 23.4803 69.8668C23.4821 69.8481 23.4871 69.83 23.4947 69.8136C23.5024 69.7973 23.5127 69.783 23.5251 69.7716C23.5374 69.7602 23.5514 69.752 23.5664 69.7474C23.5814 69.7428 23.597 69.7419 23.6123 69.7449C23.6275 69.7478 23.6422 69.7544 23.6553 69.7644C23.6684 69.7743 23.6797 69.7874 23.6886 69.8029L31.2776 81.9614C31.296 81.9911 31.304 82.0284 31.2998 82.0652C31.2957 82.1021 31.2797 82.1354 31.2554 82.1578C31.2356 82.1764 31.2113 82.1862 31.1864 82.1859Z" fill="#0E2549"/>
<path d="M32.2338 75.5041C33.4969 74.3306 33.8845 72.3598 33.0996 71.1023C32.3148 69.8448 30.6546 69.7768 29.3915 70.9503C28.1284 72.1239 27.7408 74.0946 28.5256 75.3521C29.3105 76.6096 30.9707 76.6777 32.2338 75.5041Z" fill="#D0E2FF"/>
<path d="M32.5643 71.6043C32.5459 71.5747 32.5186 71.5552 32.4884 71.5501C32.4583 71.5451 32.4276 71.5548 32.4033 71.5772L32.1473 71.8148C31.7203 71.2246 31.2274 71.2368 30.8917 71.5501C30.5176 71.8971 30.5023 72.3469 30.7545 73.1092L29.5471 74.2315C29.3271 73.7891 29.3524 73.3823 29.567 73.0157C29.5842 72.9869 29.5935 72.9522 29.5935 72.9165C29.5935 72.8809 29.5842 72.8462 29.567 72.8174C29.5542 72.7967 29.5375 72.7799 29.5185 72.7683C29.4994 72.7567 29.4784 72.7507 29.457 72.7507C29.4357 72.7507 29.4147 72.7567 29.3956 72.7683C29.3765 72.7799 29.3599 72.7967 29.347 72.8174C29.1171 73.198 29.0105 73.7527 29.3601 74.4074L28.9975 74.745C28.9854 74.7561 28.9753 74.77 28.9677 74.7859C28.9601 74.8019 28.9551 74.8195 28.9532 74.8377C28.9512 74.856 28.9521 74.8746 28.9561 74.8924C28.96 74.9102 28.9668 74.9268 28.976 74.9414C28.9868 74.9585 29.0006 74.9723 29.0164 74.9819C29.0322 74.9915 29.0496 74.9965 29.0672 74.9966C29.0925 74.9967 29.1171 74.9865 29.137 74.9676L29.4965 74.6337C29.9664 75.3314 30.5115 75.3539 30.9001 74.9938C31.2244 74.6917 31.4451 74.2708 31.0641 73.1775L32.0944 72.2207C32.3183 72.6453 32.2822 73.0044 32.1074 73.3065C32.0856 73.3424 32.0763 73.3874 32.0816 73.4316C32.0869 73.4758 32.1064 73.5156 32.1358 73.5422C32.1652 73.5689 32.202 73.5802 32.2383 73.5737C32.2745 73.5672 32.3071 73.5435 32.329 73.5076C32.5398 73.1578 32.6165 72.6285 32.2899 72.0383L32.5452 71.8017C32.5571 71.7903 32.567 71.7761 32.5744 71.76C32.5818 71.7439 32.5865 71.7262 32.5883 71.7079C32.5901 71.6895 32.5889 71.6709 32.5848 71.6532C32.5807 71.6354 32.5737 71.6188 32.5643 71.6043ZM31.0756 71.8148C31.3554 71.5548 31.6705 71.6118 31.9526 71.9962L30.9722 72.9072C30.7951 72.3404 30.8112 72.0598 31.0756 71.8148ZM30.71 74.731C30.4248 74.9966 30.0477 75.0031 29.6805 74.4597L30.8457 73.3776C31.094 74.1408 30.9998 74.4616 30.71 74.731Z" fill="#0E2549"/>
<path d="M107.125 24.1077L94.2764 44.4424L103.184 52.8207L116.033 32.486L107.125 24.1077Z" fill="#F2F7FF"/>
<path d="M107.049 28.1489C106.338 28.1518 105.646 27.8655 105.082 27.3352L104.991 27.2501L107.103 23.9111L109.795 26.442L109.725 26.5533C109.408 27.0502 109.003 27.4523 108.54 27.7288C108.076 28.0054 107.568 28.149 107.052 28.1489H107.049ZM105.315 27.1967C105.947 27.7432 106.728 27.97 107.495 27.8299C108.266 27.7001 108.97 27.2227 109.468 26.4915L107.143 24.3039L105.315 27.1967Z" fill="#0E2549"/>
<path d="M112.108 31.167C112.083 31.167 112.058 31.1569 112.037 31.138L109.032 28.3107C109.02 28.2994 109.01 28.2854 109.002 28.2693C108.995 28.2533 108.99 28.2357 108.988 28.2174C108.986 28.1991 108.987 28.1806 108.991 28.1628C108.995 28.145 109.002 28.1284 109.011 28.1138C109.021 28.0993 109.032 28.0871 109.045 28.078C109.058 28.0689 109.073 28.063 109.088 28.0607C109.103 28.0584 109.118 28.0597 109.133 28.0646C109.147 28.0694 109.161 28.0778 109.173 28.0891L112.178 30.9155C112.197 30.9333 112.211 30.9579 112.218 30.986C112.225 31.014 112.224 31.044 112.217 31.0717C112.209 31.0994 112.194 31.1236 112.175 31.1407C112.155 31.1578 112.132 31.167 112.108 31.167Z" fill="#0E2549"/>
<path d="M104.849 47.8317C104.827 47.8321 104.806 47.8249 104.788 47.8112C104.77 47.7975 104.755 47.7777 104.745 47.7541C104.736 47.7305 104.732 47.7041 104.734 47.678C104.736 47.6519 104.744 47.627 104.758 47.6063L112.404 35.5048C112.422 35.4753 112.45 35.4561 112.48 35.4513C112.51 35.4466 112.541 35.4568 112.565 35.4796C112.589 35.5024 112.605 35.536 112.609 35.573C112.613 35.61 112.605 35.6474 112.586 35.6769L104.939 47.7775C104.929 47.7944 104.915 47.8081 104.899 47.8175C104.884 47.8269 104.866 47.8318 104.849 47.8317Z" fill="#0E2549"/>
<path d="M97.8836 41.3584C97.8581 41.358 97.8333 41.3475 97.8131 41.3284C97.789 41.3057 97.7734 41.2723 97.7695 41.2354C97.7656 41.1986 97.7739 41.1614 97.7924 41.132L105.439 29.0352C105.448 29.0193 105.459 29.0059 105.472 28.9956C105.486 28.9853 105.5 28.9784 105.516 28.9754C105.531 28.9724 105.547 28.9732 105.562 28.978C105.578 28.9827 105.592 28.9912 105.604 29.0029C105.617 29.0146 105.627 29.0293 105.635 29.046C105.642 29.0628 105.647 29.0813 105.649 29.1003C105.65 29.1194 105.648 29.1386 105.644 29.1569C105.639 29.1751 105.631 29.1919 105.621 29.2063L97.9748 41.3069C97.9637 41.3233 97.9498 41.3364 97.934 41.3453C97.9182 41.3542 97.901 41.3586 97.8836 41.3584Z" fill="#0E2549"/>
<path d="M96.3343 13.0387L91.5967 38.0557L102.555 41.1449L107.293 16.1279L96.3343 13.0387Z" fill="#F2F7FF"/>
<path d="M106.648 20.1247L106.536 20.0929C105.67 19.8361 104.919 19.1805 104.441 18.2635C104.198 17.8153 104.032 17.312 103.952 16.7836C103.872 16.2552 103.88 15.7127 103.976 15.1883L104.002 15.0518L107.425 16.016L106.648 20.1247ZM104.177 15.3885C104.037 16.3347 104.202 17.3104 104.637 18.112C105.061 18.9265 105.716 19.5221 106.477 19.7852L107.15 16.2265L104.177 15.3885Z" fill="#0E2549"/>
<path d="M96.3033 17.1048C96.0584 17.1047 95.8144 17.0708 95.5758 17.0038L95.4639 16.972L96.2419 12.8643L99.5527 13.7995L99.5267 13.9361C99.3607 14.8302 98.952 15.6296 98.3669 16.2048C97.7818 16.7799 97.0546 17.0971 96.3033 17.1048ZM95.7406 16.7587C97.3059 17.1244 98.8529 15.917 99.2752 14.0062L96.4144 13.2L95.7406 16.7587Z" fill="#0E2549"/>
<path d="M103.224 16.9268C103.215 16.9281 103.206 16.9281 103.198 16.9268L99.5005 15.8849C99.4851 15.8817 99.4704 15.8746 99.4573 15.8642C99.4443 15.8537 99.4331 15.8402 99.4245 15.8243C99.4158 15.8085 99.4099 15.7906 99.4071 15.7719C99.4043 15.7532 99.4047 15.7339 99.4082 15.7154C99.4117 15.6968 99.4182 15.6793 99.4274 15.6639C99.4367 15.6486 99.4483 15.6356 99.4618 15.6259C99.4752 15.6163 99.4901 15.61 99.5056 15.6076C99.5211 15.6052 99.5368 15.6066 99.5518 15.6118L103.25 16.6537C103.28 16.6579 103.308 16.6768 103.327 16.7061C103.346 16.7353 103.355 16.7727 103.352 16.8099C103.348 16.8471 103.333 16.8811 103.309 16.9045C103.285 16.9278 103.254 16.9385 103.224 16.9343V16.9268Z" fill="#0E2549"/>
<path d="M102.318 35.7674C102.309 35.7688 102.3 35.7688 102.292 35.7674C102.277 35.7634 102.263 35.7558 102.251 35.7451C102.238 35.7344 102.228 35.7208 102.22 35.7052C102.212 35.6896 102.206 35.6721 102.204 35.6539C102.201 35.6357 102.202 35.6171 102.205 35.5991L105.024 20.7114C105.031 20.6751 105.049 20.6436 105.075 20.6238C105.101 20.6041 105.132 20.5977 105.162 20.6062C105.192 20.6146 105.218 20.6371 105.234 20.6688C105.25 20.7005 105.255 20.7387 105.248 20.775L102.431 35.6543C102.426 35.6863 102.412 35.7151 102.391 35.7358C102.37 35.7564 102.345 35.7676 102.318 35.7674Z" fill="#0E2549"/>
<path d="M93.7741 33.4231H93.748C93.7183 33.4147 93.6926 33.3922 93.6765 33.3606C93.6604 33.3291 93.6553 33.291 93.6622 33.2548L96.4808 18.3671C96.4835 18.3483 96.4893 18.3304 96.4978 18.3145C96.5064 18.2986 96.5175 18.2849 96.5305 18.2744C96.5435 18.2639 96.5581 18.2567 96.5735 18.2533C96.5888 18.2498 96.6046 18.2503 96.6198 18.2545C96.635 18.2588 96.6494 18.2668 96.662 18.278C96.6746 18.2893 96.6852 18.3035 96.6931 18.3199C96.701 18.3363 96.7062 18.3545 96.7081 18.3734C96.7101 18.3923 96.709 18.4115 96.7047 18.4298L93.886 33.3175C93.8797 33.3478 93.8652 33.3746 93.8449 33.3938C93.8247 33.4129 93.7997 33.4233 93.7741 33.4231Z" fill="#0E2549"/>
<path d="M98.5607 30.0902C97.013 29.6544 95.9958 28.0523 96.2871 26.5119C96.5784 24.9715 98.0693 24.0802 99.6163 24.5123C101.163 24.9444 102.181 26.5502 101.89 28.0906C101.599 29.631 100.108 30.5261 98.5607 30.0902Z" fill="#D0E2FF"/>
<path d="M101.153 27.7413L100.84 27.6478C100.94 26.8697 100.618 26.416 100.205 26.3001C99.7455 26.171 99.4535 26.4432 99.1323 27.1671L97.6536 26.7499C97.7923 26.2608 98.0644 26.0251 98.4332 25.9924C98.4696 25.9896 98.5036 25.9694 98.5277 25.9361C98.5519 25.9027 98.5642 25.8591 98.562 25.8147C98.5597 25.7703 98.5431 25.7288 98.5158 25.6993C98.4885 25.6698 98.4527 25.6548 98.4163 25.6575C98.0269 25.6819 97.6137 25.9381 97.4198 26.6863L96.9759 26.561C96.9612 26.5566 96.9459 26.5558 96.931 26.5587C96.916 26.5616 96.9017 26.5681 96.8888 26.5779C96.876 26.5876 96.8648 26.6005 96.8561 26.6155C96.8474 26.6306 96.8412 26.6477 96.8379 26.6658C96.831 26.702 96.8362 26.7401 96.8523 26.7716C96.8684 26.8032 96.8941 26.8257 96.9238 26.8341L97.3646 26.9585C97.2251 27.8461 97.5585 28.3717 98.0338 28.5054C98.4316 28.6177 98.8379 28.556 99.2848 27.4991L100.546 27.8545C100.422 28.3362 100.172 28.5326 99.8689 28.5606C99.8395 28.5634 99.8116 28.5775 99.7891 28.6008C99.7667 28.6242 99.7509 28.6556 99.744 28.6906C99.7391 28.7159 99.7391 28.7423 99.744 28.7676C99.7489 28.7929 99.7585 28.8165 99.7721 28.8365C99.7856 28.8565 99.8028 28.8724 99.8223 28.883C99.8418 28.8935 99.863 28.8984 99.8843 28.8973C100.239 28.8721 100.622 28.6055 100.786 27.9228L101.098 28.0107C101.106 28.0116 101.115 28.0116 101.124 28.0107C101.154 28.0148 101.185 28.0039 101.209 27.9805C101.233 27.9571 101.248 27.923 101.251 27.8858C101.255 27.8486 101.246 27.8113 101.227 27.7821C101.208 27.7529 101.18 27.7342 101.149 27.7301L101.153 27.7413ZM100.156 26.6461C100.498 26.7396 100.664 27.0754 100.602 27.5814L99.4013 27.2428C99.6428 26.7209 99.8314 26.5545 100.156 26.6461H100.156ZM98.0867 28.1659C97.7371 28.0724 97.4918 27.7179 97.6007 27.0268L99.0273 27.428C98.7007 28.1491 98.4378 28.266 98.0828 28.1659H98.0867Z" fill="#0E2549"/>
<path d="M102.399 87.3118H57.3428V27.8564L102.399 37.269V87.3118Z" fill="#D0E2FF"/>
<path d="M102.516 87.4525H57.2295V27.6885L102.516 37.1488V87.4525ZM57.4595 87.1719H102.286V37.3873L57.4595 28.0224V87.1719Z" fill="#1B2746"/>
<path d="M30.9364 35.2393L27.2568 39.4312H31.8731L30.9364 35.2393Z" fill="#D0E2FF"/>
<path d="M32.0193 39.5707H26.96L30.9913 34.9775L32.0193 39.5707ZM27.5441 39.2901H31.7181L30.8748 35.4994L27.5441 39.2901Z" fill="#1B2746"/>
<path d="M47.9132 17.5947L30.7061 36.3114V87.311H65.1204V36.3114L47.9132 17.5947Z" fill="#F5F5F5"/>
<path d="M65.2332 87.4508H30.5889V36.2474L30.6272 36.2062L47.911 17.4072L47.9877 17.4905L65.2355 36.2483L65.2332 87.4508ZM30.8188 87.1702H65.0032V36.3736L47.9087 17.7823L30.8142 36.3736L30.8188 87.1702Z" fill="#1B2746"/>
<path d="M27.7299 39.808H24.6514L47.9305 14.2394C47.9323 14.2374 47.9345 14.2361 47.9369 14.2356C47.9393 14.2351 47.9417 14.2354 47.944 14.2366C47.9462 14.2378 47.948 14.2398 47.9493 14.2423C47.9506 14.2448 47.9513 14.2477 47.9512 14.2507L47.9167 17.7888L27.7299 39.808Z" fill="#004DC9"/>
<path d="M27.7686 39.9481H24.3467L47.8489 14.1346C47.8673 14.1143 47.8902 14.1011 47.9147 14.0965C47.9391 14.0919 47.9642 14.0962 47.9867 14.1087C48.0093 14.1212 48.0283 14.1414 48.0416 14.167C48.0548 14.1925 48.0616 14.2222 48.0613 14.2524L48.026 17.8523L47.9884 17.8934L27.7686 39.9481ZM24.9461 39.6675H27.6843L47.7976 17.7251L47.829 14.5339L24.9461 39.6675Z" fill="#0E2549"/>
<path d="M48.126 14.5003L84.059 14.2197L107.586 39.8116H70.5742L48.0962 14.5966C48.0893 14.5892 48.0845 14.5794 48.0824 14.5686C48.0802 14.5578 48.0807 14.5464 48.084 14.5359C48.0872 14.5255 48.093 14.5165 48.1005 14.5102C48.108 14.5038 48.1169 14.5004 48.126 14.5003Z" fill="#ACCCFF"/>
<path d="M107.886 39.9458H70.5268L70.4939 39.9093L48.0158 14.6953C47.992 14.6687 47.9754 14.6341 47.9681 14.5958C47.9607 14.5576 47.963 14.5176 47.9746 14.4809C47.9862 14.4443 48.0065 14.4127 48.033 14.3904C48.0595 14.3681 48.0909 14.356 48.1231 14.3558L84.1005 14.0752L84.1334 14.1107L107.886 39.9458ZM70.6165 39.6652H107.282L84.0138 14.3502L48.3017 14.6307L70.6165 39.6652Z" fill="#1B2746"/>
<path d="M68.0111 39.801L71.1011 39.8141L47.9699 14.2343C47.9683 14.2328 47.9664 14.2319 47.9644 14.2316C47.9624 14.2312 47.9603 14.2316 47.9585 14.2325C47.9566 14.2335 47.955 14.235 47.9538 14.237C47.9525 14.2389 47.9517 14.2412 47.9515 14.2437L47.917 17.7884L68.0111 39.801Z" fill="#004DC9"/>
<path d="M71.3979 39.9559L67.9636 39.9409L67.9314 39.9053L47.7998 17.8497L47.8351 14.2424C47.8355 14.2128 47.8429 14.184 47.8563 14.1595C47.8698 14.1349 47.8887 14.1155 47.9109 14.1037C47.9331 14.0919 47.9577 14.0881 47.9816 14.0928C48.0055 14.0975 48.0278 14.1104 48.0459 14.1301L71.3979 39.9559ZM68.0518 39.6612L70.7992 39.6725L48.0627 14.5276L48.0313 17.7263L68.0518 39.6612Z" fill="#0E2549"/>
<path d="M65.0006 81.4346H30.8193V87.31H65.0006V81.4346Z" fill="#1E4583"/>
<path d="M102.279 81.4346H65.2334V87.31H102.279V81.4346Z" fill="#1E4583"/>
<path d="M73.7871 51.415H68.1865V61.5684H73.7871V51.415Z" fill="#004DC9"/>
<path d="M80.6035 51.415H75.0029V61.5684H80.6035V51.415Z" fill="#004DC9"/>
<path d="M73.7871 63.0439H68.1865V73.1973H73.7871V63.0439Z" fill="#004DC9"/>
<path d="M80.6035 63.0439H75.0029V73.1973H80.6035V63.0439Z" fill="#004DC9"/>
<path d="M91.3652 51.415H85.7646V61.5684H91.3652V51.415Z" fill="#004DC9"/>
<path d="M98.1816 51.415H92.5811V61.5684H98.1816V51.415Z" fill="#004DC9"/>
<path d="M91.3652 63.0439H85.7646V73.1973H91.3652V63.0439Z" fill="#004DC9"/>
<path d="M98.1816 63.0439H92.5811V73.1973H98.1816V63.0439Z" fill="#004DC9"/>
<path d="M55.3208 45.8838H40.4678V87.5755H55.3208V45.8838Z" fill="#004DC9"/>
<path d="M55.4399 87.7145H40.3584V45.7432H55.4399V87.7145ZM40.5861 87.4339H55.2099V46.0237H40.5884L40.5861 87.4339Z" fill="#0E2549"/>
<path d="M47.1243 48.04H42.4482V58.9603H47.1243V48.04Z" fill="#D0E2FF"/>
<path d="M53.3509 48.04H48.6748V58.9603H53.3509V48.04Z" fill="#D0E2FF"/>
<path d="M47.1243 60.8486H42.4482V71.7689H47.1243V60.8486Z" fill="#D0E2FF"/>
<path d="M53.3509 60.8486H48.6748V71.7689H53.3509V60.8486Z" fill="#D0E2FF"/>
<path d="M47.1243 73.6572H42.4482V84.5775H47.1243V73.6572Z" fill="#D0E2FF"/>
<path d="M53.3509 73.6572H48.6748V84.5775H53.3509V73.6572Z" fill="#D0E2FF"/>
<path d="M55.486 39.6092H39.9561C39.9532 37.3266 40.6289 35.1201 41.8579 33.399C42.045 33.1358 42.2444 32.8859 42.4551 32.6508C43.779 31.154 45.4906 30.2699 47.2929 30.1517C47.4339 30.1424 47.5773 30.1377 47.7206 30.1377C47.864 30.1377 48.0073 30.1424 48.1492 30.1517C49.9055 30.2672 51.5771 31.1098 52.8881 32.5404C53.1017 32.7719 53.3042 33.0183 53.4944 33.2783C54.7788 35.0143 55.4886 37.2706 55.486 39.6092Z" fill="#004DC9"/>
<path d="M53.4949 33.276L48.3075 39.6088H46.9484L41.8584 33.3986C42.0455 33.1353 42.2449 32.8855 42.4556 32.6503L47.2934 38.5529V30.1494H48.1496V38.32L52.8886 32.5381C53.1022 32.7696 53.3046 33.016 53.4949 33.276Z" fill="#D0E2FF"/>
<path d="M54.4962 66.5979C54.4963 66.8373 54.4383 67.0714 54.3295 67.2706C54.2207 67.4698 54.0659 67.6252 53.8848 67.7171C53.7036 67.8091 53.5042 67.8335 53.3117 67.7872C53.1191 67.741 52.9422 67.6262 52.8031 67.4573C52.6641 67.2884 52.5691 67.073 52.5303 66.8384C52.4915 66.6037 52.5106 66.3603 52.5851 66.1388C52.6597 65.9174 52.7863 65.7278 52.9491 65.5942C53.1118 65.4605 53.3034 65.3886 53.4996 65.3877C53.6303 65.387 53.7598 65.4177 53.8806 65.4782C54.0015 65.5387 54.1114 65.6277 54.204 65.7402C54.2966 65.8526 54.3701 65.9863 54.4202 66.1335C54.4704 66.2807 54.4962 66.4385 54.4962 66.5979Z" fill="#F9E5EF"/>
<path d="M53.4997 67.9442C53.2808 67.9441 53.0669 67.8647 52.8849 67.7162C52.703 67.5677 52.5613 67.3567 52.4776 67.1099C52.3939 66.8631 52.3721 66.5916 52.4149 66.3297C52.4577 66.0677 52.5632 65.8272 52.718 65.6384C52.8729 65.4496 53.0701 65.3211 53.2848 65.269C53.4995 65.217 53.722 65.2438 53.9243 65.3461C54.1265 65.4483 54.2993 65.6214 54.4209 65.8435C54.5425 66.0656 54.6074 66.3266 54.6074 66.5937C54.607 66.9519 54.4901 67.2953 54.2825 67.5485C54.0748 67.8017 53.7933 67.944 53.4997 67.9442ZM53.4997 65.5237C53.3263 65.5239 53.1568 65.5868 53.0127 65.7045C52.8686 65.8222 52.7563 65.9894 52.6901 66.1849C52.6238 66.3804 52.6065 66.5955 52.6405 66.803C52.6744 67.0105 52.758 67.2011 52.8806 67.3506C53.0033 67.5001 53.1596 67.602 53.3297 67.6432C53.4998 67.6844 53.6761 67.6631 53.8363 67.5821C53.9965 67.5011 54.1334 67.364 54.2297 67.188C54.326 67.0121 54.3774 66.8053 54.3774 66.5937C54.3764 66.3104 54.2835 66.0391 54.1191 65.8392C53.9546 65.6392 53.7319 65.5268 53.4997 65.5266V65.5237Z" fill="#1B2746"/>
<path d="M22.2334 83.7549L22.2311 85.6928H20.3116L20.1514 83.854L22.2334 83.7549Z" fill="white"/>
<path d="M22.3483 85.8344H20.2103L20.0264 83.7207L22.3506 83.6104L22.3483 85.8344ZM20.4173 85.5539H22.1183V83.9022L20.2786 83.9891L20.4173 85.5539Z" fill="#0E2549"/>
<path d="M22.3392 85.4033C22.3392 85.4033 25.2185 86.5182 25.3181 87.4375H20.1553V85.4033H22.3392Z" fill="#004DC9"/>
<path d="M15.7449 83.7804L15.692 85.6781H13.7441L13.6514 83.7393L15.7449 83.7804Z" fill="white"/>
<path d="M15.8094 85.8199H13.64L13.5342 83.5986L15.8691 83.6435L15.8094 85.8199ZM13.8584 85.5393H15.5871L15.633 83.9194L13.7802 83.8839L13.8584 85.5393Z" fill="#0E2549"/>
<path d="M15.8041 85.4424C15.8041 85.4424 18.6833 86.5572 18.783 87.4766H13.6201V85.4424H15.8041Z" fill="#004DC9"/>
<path d="M18.969 87.1314V87.6598H13.4834V87.0557L18.969 87.1314Z" fill="#0E2549"/>
<path d="M19.9951 87.0529V87.6169H25.4799V87.0127L19.9951 87.0529Z" fill="#0E2549"/>
<path d="M12.9678 53.0947L13.0475 62.2221L13.0943 67.6616L13.2376 84.1H16.4081L17.8263 67.3333L18.0524 64.6594L19.6392 84.1H22.6917L22.4441 59.5341L22.1068 55.0205L17.824 54.1179L16.1659 53.7681L12.9678 53.0947Z" fill="#0E2549"/>
<path d="M18.385 36.0361C18.385 36.0361 18.1612 38.9102 18.3497 39.2282C18.5383 39.5462 19.6253 40.1317 19.6253 40.1317L17.8024 46.673L13.9082 46.2138L13.6553 41.3504C13.6553 41.3504 15.4329 39.5836 15.5403 39.2207C15.6882 38.7185 15.689 36.0408 15.689 36.0408L18.385 36.0361Z" fill="white"/>
<path d="M17.8822 46.8244L13.8003 46.3408L13.5381 41.2903L13.5841 41.2445C14.4457 40.3887 15.3725 39.3805 15.433 39.1766C15.5488 38.7838 15.5749 36.7795 15.5749 36.0397C15.5749 36.0025 15.587 35.9668 15.6085 35.9405C15.6301 35.9142 15.6593 35.8994 15.6898 35.8994C15.7203 35.8994 15.7496 35.9142 15.7712 35.9405C15.7927 35.9668 15.8048 36.0025 15.8048 36.0397C15.8048 36.3203 15.8002 38.7614 15.6515 39.272C15.5442 39.6358 14.1605 41.0341 13.7773 41.4166L14.0195 46.093L17.7213 46.5279L19.4844 40.212C19.2 40.0539 18.4303 39.6068 18.2579 39.316C18.0593 38.9811 18.2188 36.715 18.2724 36.0285C18.2738 36.0101 18.2782 35.9922 18.2853 35.9758C18.2924 35.9594 18.302 35.9449 18.3137 35.9331C18.3254 35.9213 18.3388 35.9124 18.3533 35.907C18.3678 35.9015 18.383 35.8996 18.3981 35.9013C18.4132 35.903 18.4279 35.9083 18.4413 35.917C18.4547 35.9256 18.4666 35.9374 18.4763 35.9516C18.486 35.9659 18.4933 35.9823 18.4977 36C18.5022 36.0177 18.5038 36.0362 18.5024 36.0547C18.3951 37.4295 18.3445 38.9634 18.4449 39.1514C18.5691 39.3599 19.2651 39.7883 19.6714 40.0081L19.768 40.0604L17.8822 46.8244Z" fill="#0E2549"/>
<path d="M28.4673 42.5054C27.8717 42.916 25.5068 45.9659 25.5068 45.9659L27.204 46.9554C27.204 46.9554 28.58 43.8176 28.8238 43.7755C29.2837 43.7007 30.6635 43.7512 31.1135 43.3855C31.7889 42.8337 32.1384 42.1294 32.0579 41.9105C32.0142 41.7927 30.8422 42.6494 30.5854 42.6588C29.8594 42.6924 28.892 42.2164 28.4673 42.5054Z" fill="white"/>
<path d="M27.2645 47.1979L25.2568 46.0278L25.3964 45.8483C25.4929 45.7229 27.7834 42.7722 28.3913 42.3531C28.6895 42.1483 29.1579 42.2493 29.6562 42.3531C29.9587 42.4318 30.2668 42.475 30.5761 42.4822C30.6726 42.4822 31.0881 42.2278 31.3357 42.0772C31.8654 41.7555 31.9888 41.691 32.0939 41.7368C32.1144 41.7458 32.1332 41.7597 32.1493 41.7777C32.1653 41.7957 32.1783 41.8174 32.1874 41.8416C32.32 42.2035 31.8539 42.9976 31.1908 43.54C30.8329 43.8328 30.0257 43.8786 29.3771 43.9141C29.1648 43.9263 28.9808 43.9375 28.8597 43.9543C28.6711 44.133 27.9398 45.6491 27.3266 47.0407L27.2645 47.1979ZM25.7505 45.9165L27.1372 46.7246C28.4902 43.656 28.724 43.6176 28.8015 43.6045C28.9341 43.583 29.1334 43.5718 29.3649 43.5587C29.9114 43.5269 30.7386 43.4802 31.0276 43.2435C31.5013 42.8573 31.7803 42.413 31.8785 42.1614C31.7589 42.2269 31.5994 42.3232 31.4699 42.4027C31.0207 42.6749 30.737 42.8404 30.586 42.8451C30.2562 42.8385 29.9277 42.7937 29.6048 42.7114C29.1809 42.6178 28.7424 42.5243 28.5362 42.6674C28.1054 42.9639 26.5999 44.8279 25.7505 45.9165Z" fill="#0E2549"/>
<path d="M20.2169 39.8735C21.3943 40.3982 21.1099 48.0665 21.1099 48.0665C21.3016 48.9691 21.7546 53.797 21.7546 53.797L13.5025 55.8031L12.5297 49.7771C12.5297 49.7771 11.9165 39.6304 15.1529 39.0365C15.4595 38.9794 16.4109 39.52 17.4235 39.4003C17.8627 39.3488 18.0866 39.9876 18.305 39.0496C18.3081 39.0496 19.9608 39.7594 20.2169 39.8735Z" fill="#004DC9"/>
<path d="M18.3076 49.0663L19.0903 39.2197C19.6269 39.2197 21.9358 40.9893 21.9358 40.9893C21.9726 40.8957 23.9036 45.198 24.4363 46.8039C24.4977 46.9909 26.943 42.9833 26.9269 43.204C26.9269 43.204 29.1438 44.1299 29.1316 44.4806C29.1193 44.8314 26.3482 50.7619 24.4731 51.8422C24.1259 52.0423 22.1481 50.5001 22.0446 48.2058L22.2999 53.8624L22.7384 59.4338L18.5989 59.4413L18.4057 54.7275L18.3076 49.0663Z" fill="#0E2549"/>
<path d="M15.3611 38.8486L18.363 49.2779C18.3706 50.1093 18.491 53.4455 18.363 56.9799C18.3047 58.5932 18.228 59.8193 18.228 59.5332C18.228 59.4172 12.4903 59.4396 12.4903 59.4396L12.3132 57.0678C12.3132 57.0678 10.4014 55.4535 10.4014 50.8828C10.4014 45.7612 10.6313 44.0207 11.1886 41.4515C11.2699 41.083 14.2626 38.8486 15.3611 38.8486Z" fill="#0E2549"/>
<path d="M17.0452 30.4782C17.535 30.4651 18.7255 30.4146 18.8366 31.4705C18.9631 32.6742 18.9593 34.2483 18.9455 35.0788C18.9431 35.2373 18.8941 35.3895 18.8074 35.5076C18.7207 35.6257 18.6021 35.7019 18.4733 35.7223L15.4944 36.1899C15.3623 36.2106 15.2287 36.1713 15.1189 36.0793C15.0092 35.9873 14.9311 35.8492 14.8995 35.6914C14.6772 34.5925 14.2249 32.2608 14.2955 31.8877C14.5377 30.6157 16.2686 30.4978 17.0452 30.4782Z" fill="#0E2549"/>
<path d="M15.8057 36.9424C15.624 36.7638 15.4745 35.967 15.3595 35.0495C15.3577 35.0366 15.3534 35.0245 15.3468 35.0142C15.3403 35.0039 15.3317 34.9958 15.3219 34.9905C15.1111 34.8792 14.7961 34.6164 14.7562 34.1619C14.7217 33.7644 14.9655 33.8111 15.1625 33.9094C15.1706 33.9132 15.1794 33.9144 15.1881 33.9129C15.1967 33.9113 15.2049 33.907 15.2117 33.9003C15.2185 33.8937 15.2238 33.885 15.227 33.8751C15.2302 33.8652 15.2312 33.8544 15.23 33.8439C15.128 32.7318 15.0766 31.7507 15.0766 31.7507L18.619 31.1924C18.619 31.1924 18.7155 32.1838 18.7983 33.2986C18.7983 33.3482 18.9317 36.0193 18.875 36.2719C18.8352 36.4193 18.7582 36.5477 18.655 36.6385C18.655 36.6385 18.4518 36.9013 17.1648 37.1061L15.8057 36.9424Z" fill="white"/>
<path d="M17.1624 37.2424C17.1473 37.2436 17.1322 37.2411 17.1178 37.2352C17.1035 37.2292 17.0903 37.2198 17.079 37.2076C17.056 37.183 17.0421 37.1482 17.0401 37.111C17.0382 37.0738 17.0485 37.0372 17.0687 37.0092C17.0889 36.9813 17.1173 36.9642 17.1478 36.9619C18.3345 36.7748 18.5645 36.5457 18.5737 36.5363L18.5813 36.5279C18.6653 36.4546 18.7285 36.3513 18.7622 36.2323C18.8113 36.0041 18.6971 33.5013 18.6856 33.3096C18.6219 32.452 18.5491 31.6607 18.5192 31.3455L15.2015 31.8646C15.2199 32.1686 15.269 32.9589 15.3487 33.8203C15.3519 33.8557 15.3476 33.8914 15.3362 33.9242C15.3247 33.957 15.3066 33.9856 15.2835 34.0073C15.261 34.0284 15.2344 34.0418 15.2062 34.0463C15.1781 34.0507 15.1495 34.046 15.1233 34.0326C14.9784 33.9606 14.9095 33.9699 14.8934 33.9858C14.8773 34.0017 14.8673 34.0382 14.8765 34.1401C14.9133 34.5676 15.236 34.7827 15.3732 34.8556C15.401 34.87 15.4252 34.8929 15.4436 34.9221C15.462 34.9512 15.4739 34.9857 15.4782 35.0221C15.6599 36.4708 15.8217 36.7664 15.883 36.8272C15.8958 36.8382 15.9067 36.8524 15.9149 36.8688C15.923 36.8852 15.9284 36.9034 15.9305 36.9224C15.9327 36.9414 15.9317 36.9607 15.9275 36.9792C15.9233 36.9977 15.916 37.0149 15.9061 37.0299C15.8963 37.0448 15.884 37.0571 15.8701 37.066C15.8562 37.0749 15.8409 37.0802 15.8252 37.0817C15.8095 37.0831 15.7938 37.0806 15.7789 37.0743C15.7641 37.068 15.7505 37.0581 15.7389 37.0451C15.6224 36.931 15.4461 36.6046 15.2552 35.0979C15.0697 34.9931 14.6948 34.7172 14.6473 34.1691C14.6312 33.9821 14.6672 33.8418 14.7546 33.7614C14.842 33.6809 14.9577 33.6744 15.1103 33.7286C15.016 32.6774 14.9669 31.7645 14.9662 31.7524L14.9593 31.6214L18.7216 31.0322L18.7354 31.1725C18.7354 31.1828 18.8343 32.1789 18.9163 33.2825C18.9163 33.3077 19.0535 36.02 18.9853 36.3081C18.9394 36.4814 18.8504 36.6331 18.7308 36.7421C18.6702 36.8085 18.3774 37.0516 17.18 37.2387L17.1624 37.2424Z" fill="#0E2549"/>
<path d="M16.6498 34.1849C16.6015 34.1849 16.555 34.1626 16.5196 34.1225C16.4843 34.0825 16.4626 34.0276 16.4589 33.9689L16.4528 33.8753C16.4487 33.8133 16.465 33.7519 16.4981 33.7045C16.5311 33.6572 16.5782 33.6278 16.6291 33.6228C16.6799 33.6179 16.7303 33.6377 16.7691 33.6781C16.8079 33.7184 16.832 33.7759 16.836 33.8379L16.8414 33.9315C16.8454 33.9932 16.8292 34.0544 16.7963 34.1016C16.7634 34.1487 16.7165 34.178 16.6659 34.183L16.6498 34.1849Z" fill="#0E2549"/>
<path d="M18.2004 33.9944C18.1535 33.9943 18.1082 33.9732 18.0732 33.9351C18.0381 33.897 18.0158 33.8445 18.0103 33.7877L18.0004 33.682C17.9944 33.62 18.0088 33.5576 18.0405 33.5086C18.0722 33.4595 18.1186 33.4279 18.1694 33.4206C18.2202 33.4133 18.2713 33.4309 18.3115 33.4695C18.3517 33.5082 18.3776 33.5648 18.3836 33.6268L18.3936 33.7325C18.3967 33.763 18.3948 33.7939 18.3881 33.8235C18.3814 33.8531 18.3699 33.8807 18.3544 33.9049C18.3389 33.9291 18.3196 33.9493 18.2976 33.9643C18.2757 33.9793 18.2515 33.9889 18.2265 33.9925L18.2004 33.9944Z" fill="#0E2549"/>
<path d="M16.2077 33.473C16.1823 33.473 16.1575 33.4626 16.1374 33.4436C16.1173 33.4246 16.1029 33.398 16.0965 33.368C16.0901 33.3379 16.092 33.3061 16.102 33.2775C16.112 33.249 16.1295 33.2253 16.1517 33.2102C16.3685 33.0718 16.6201 33.0384 16.8562 33.1166C16.8716 33.121 16.8861 33.1291 16.8988 33.1406C16.9115 33.1521 16.9221 33.1666 16.93 33.1833C16.9379 33.2 16.9428 33.2185 16.9446 33.2376C16.9464 33.2568 16.9449 33.2762 16.9403 33.2946C16.9356 33.313 16.9279 33.3301 16.9176 33.3447C16.9073 33.3593 16.8947 33.3712 16.8805 33.3796C16.8663 33.388 16.8508 33.3927 16.835 33.3935C16.8192 33.3943 16.8035 33.3911 16.7888 33.3841C16.6122 33.3302 16.4256 33.3565 16.2637 33.458C16.2464 33.4688 16.2271 33.474 16.2077 33.473Z" fill="#0E2549"/>
<path d="M17.6523 35.1267C17.625 35.1268 17.5986 35.1151 17.5777 35.0937C17.5568 35.0723 17.5429 35.0425 17.5384 35.0096C17.5339 34.9768 17.5391 34.9431 17.553 34.9145C17.567 34.8859 17.5889 34.8643 17.6147 34.8536C17.688 34.8261 17.7549 34.7781 17.8102 34.7133C17.8102 34.6441 17.8102 34.6282 17.6316 34.2344L17.4783 33.894V33.8837C17.4132 33.7106 17.3778 33.5232 17.374 33.3328C17.3808 33.2792 17.3984 33.2284 17.4251 33.185C17.4519 33.1416 17.487 33.1069 17.5273 33.0841C17.7443 32.9241 18.1544 32.8474 18.4204 32.9905C18.4469 33.0064 18.4673 33.0342 18.4775 33.068C18.4877 33.1018 18.4869 33.1391 18.4752 33.1721C18.4634 33.2052 18.4417 33.2315 18.4146 33.2456C18.3874 33.2596 18.3568 33.2604 18.3292 33.2477C18.0831 33.1168 17.663 33.2664 17.6032 33.3656C17.6122 33.5045 17.6408 33.6406 17.6875 33.7677C17.7466 33.9015 17.7956 34.0109 17.837 34.1026C18.0294 34.5328 18.0494 34.5786 18.0425 34.7367C18.0325 34.9583 17.7734 35.0865 17.6937 35.1201C17.6804 35.1255 17.6663 35.1278 17.6523 35.1267Z" fill="#0E2549"/>
<path d="M14.0735 57.7177C14.0474 57.7178 14.0219 57.7079 14.0007 57.6894C13.9794 57.6709 13.9634 57.6447 13.955 57.6146C13.9465 57.5845 13.946 57.5519 13.9535 57.5214C13.961 57.4909 13.9762 57.464 13.9968 57.4446L16.2743 55.3337C16.2873 55.3214 16.3022 55.3124 16.3181 55.3071C16.334 55.3018 16.3506 55.3004 16.3669 55.303C16.3833 55.3056 16.399 55.312 16.4133 55.322C16.4276 55.332 16.4402 55.3454 16.4502 55.3613C16.4603 55.3772 16.4677 55.3953 16.472 55.4147C16.4763 55.4341 16.4774 55.4544 16.4753 55.4743C16.4732 55.4942 16.4679 55.5135 16.4598 55.5309C16.4516 55.5483 16.4406 55.5636 16.4276 55.5759L14.1509 57.6868C14.1286 57.7072 14.1014 57.718 14.0735 57.7177Z" fill="#A1C5E2"/>
<path d="M22.0933 57.2225C22.0736 57.2223 22.0542 57.2166 22.0366 57.2056L19.5836 55.6886C19.5677 55.6805 19.5534 55.6685 19.5415 55.6534C19.5297 55.6383 19.5205 55.6203 19.5145 55.6006C19.5086 55.581 19.506 55.56 19.507 55.5391C19.508 55.5182 19.5126 55.4977 19.5203 55.479C19.5281 55.4603 19.5389 55.4438 19.5522 55.4304C19.5654 55.4171 19.5808 55.4072 19.5973 55.4014C19.6138 55.3956 19.6311 55.3941 19.6481 55.3968C19.6652 55.3996 19.6816 55.4066 19.6963 55.4174L22.1493 56.9344C22.1787 56.9528 22.201 56.9846 22.2114 57.023C22.2217 57.0613 22.2192 57.1031 22.2045 57.1392C22.1941 57.1643 22.1782 57.1854 22.1586 57.2001C22.139 57.2148 22.1164 57.2225 22.0933 57.2225Z" fill="#A1C5E2"/>
<path d="M19.0276 38.9268L20.6734 41.1443L19.3396 41.799L20.1061 44.2541L18.3377 48.7715C18.3362 48.775 18.3338 48.7778 18.3308 48.7794C18.3279 48.781 18.3245 48.7812 18.3214 48.7801C18.3183 48.779 18.3156 48.7766 18.3138 48.7733C18.312 48.77 18.3113 48.766 18.3116 48.7621L19.0276 38.9268Z" fill="white"/>
<path d="M18.3269 48.9201C18.3152 48.9201 18.3036 48.9182 18.2924 48.9145C18.2632 48.9046 18.2379 48.8825 18.2208 48.852C18.2037 48.8216 18.1959 48.7848 18.1988 48.7481L18.9317 38.5947L20.8665 41.1957L19.4867 41.8738L20.2303 44.2559L18.4464 48.8266C18.4363 48.8549 18.4195 48.8788 18.3983 48.8955C18.377 48.9121 18.3521 48.9207 18.3269 48.9201ZM19.118 39.2588L18.4802 48.0896L19.9796 44.2475L19.19 41.7223L20.4756 41.0919L19.118 39.2588Z" fill="#0E2549"/>
<path d="M15.3584 38.8486L13.7686 41.7901L15.5623 41.9771L15.1599 44.5809L18.2039 48.7186C18.2083 48.724 18.214 48.7274 18.2201 48.7283C18.2262 48.7293 18.2325 48.7277 18.2378 48.7238C18.2431 48.7199 18.2472 48.714 18.2494 48.7069C18.2516 48.6999 18.2518 48.6921 18.2499 48.6849L15.3584 38.8486Z" fill="white"/>
<path d="M18.2262 48.8679C18.2062 48.868 18.1865 48.8629 18.1682 48.8529C18.15 48.8429 18.1337 48.8283 18.1205 48.8099L15.0396 44.6209L15.429 42.1012L13.5693 41.9039L15.393 38.5322L18.3612 48.6332C18.3725 48.6709 18.3727 48.7122 18.3618 48.7501C18.3509 48.788 18.3295 48.82 18.3014 48.8408C18.2788 48.8581 18.2528 48.8674 18.2262 48.8679ZM15.2857 44.5367L17.9932 48.217L15.3309 39.1551L13.9733 41.6654L15.7012 41.8524L15.2857 44.5367Z" fill="#0E2549"/>
<path d="M13.3912 59.8569C13.3597 59.8549 13.33 59.8386 13.308 59.811C13.2859 59.7835 13.2733 59.7468 13.2725 59.7083C13.2717 59.6699 13.2829 59.6325 13.3038 59.6037C13.3246 59.5748 13.3537 59.5567 13.3851 59.5529L18.1156 59.2873C18.1846 57.8441 18.2827 55.6481 18.288 55.5228L18.1876 48.7608C18.1873 48.7408 18.1902 48.7209 18.1963 48.7024C18.2023 48.6838 18.2112 48.6668 18.2226 48.6525C18.234 48.6381 18.2476 48.6267 18.2627 48.6188C18.2777 48.6109 18.2939 48.6067 18.3103 48.6064C18.3429 48.6062 18.3744 48.6217 18.3978 48.6495C18.4212 48.6773 18.4346 48.7153 18.4352 48.7552L18.5349 55.5284C18.5349 55.5527 18.4268 57.9657 18.3555 59.4369L18.3486 59.5744L13.3943 59.855L13.3912 59.8569Z" fill="#A1C5E2"/>
<path d="M17.642 53.2041C17.5774 53.2041 17.5143 53.1807 17.4606 53.1369C17.4069 53.0932 17.365 53.0309 17.3403 52.9581C17.3156 52.8853 17.3091 52.8052 17.3217 52.7279C17.3343 52.6506 17.3654 52.5796 17.4111 52.5239C17.4567 52.4682 17.5149 52.4303 17.5783 52.4149C17.6416 52.3995 17.7073 52.4074 17.767 52.4376C17.8266 52.4677 17.8776 52.5188 17.9135 52.5843C17.9494 52.6498 17.9685 52.7268 17.9685 52.8056C17.9685 52.9113 17.9341 53.0127 17.8729 53.0874C17.8117 53.1621 17.7286 53.2041 17.642 53.2041Z" fill="#A1C5E2"/>
<path d="M18.5986 59.5933C18.5814 59.5949 18.5641 59.5922 18.5479 59.5854C18.5316 59.5785 18.5166 59.5675 18.504 59.5533C18.4913 59.539 18.4812 59.5217 18.4743 59.5024C18.4674 59.4831 18.4639 59.4623 18.4639 59.4413C18.4639 59.4203 18.4674 59.3995 18.4743 59.3802C18.4812 59.361 18.4913 59.3437 18.504 59.3294C18.5166 59.3151 18.5316 59.3042 18.5479 59.2973C18.5641 59.2904 18.5814 59.2877 18.5986 59.2893L22.6001 59.2809L21.7845 46.231C21.7819 46.1909 21.7926 46.1511 21.8141 46.1205C21.8355 46.0899 21.8661 46.0709 21.8991 46.0678C21.932 46.0647 21.9646 46.0777 21.9897 46.1039C22.0148 46.1302 22.0303 46.1675 22.0328 46.2077L22.8715 59.5821L18.6009 59.5905L18.5986 59.5933Z" fill="#A1C5E2"/>
<path d="M14.4951 39.3319L15.451 38.4229L17.4288 39.403L16.7948 40.3261L14.4951 39.3319Z" fill="#004DC9"/>
<path d="M16.8294 40.4915L14.2568 39.3785L15.4312 38.2627L17.6159 39.3467L16.8294 40.4915ZM14.729 39.2859L16.7559 40.1622L17.2373 39.4608L15.4672 38.5835L14.729 39.2859Z" fill="#0E2549"/>
<path d="M19.6127 39.4336L18.945 38.5713L17.4287 39.4009L18.0006 40.252L19.6127 39.4336Z" fill="#004DC9"/>
<path d="M17.9665 40.4226L17.2451 39.3489L18.9737 38.4033L19.8108 39.4854L17.9665 40.4226ZM17.6131 39.4555L18.0354 40.084L19.4153 39.3825L18.9185 38.741L17.6131 39.4555Z" fill="#0E2549"/>
<path d="M16.7959 40.3264L17.4299 39.4033L18.06 40.3264L17.7848 40.723L18.5214 45.6444L18.2508 48.6878L17.229 45.2095L17.2558 40.7987L16.7959 40.3264Z" fill="#0E2549"/>
<path d="M14.9816 32.0657C14.9816 32.0657 17.7819 32.4174 18.6949 31.2847C19.2154 30.6385 18.5645 29.1486 18.0816 29.0522C17.7205 28.9802 17.3457 29.8192 16.967 29.8856C16.6749 29.937 15.9896 30.1512 15.6132 30.2672C14.8536 30.5028 14.586 31.5335 14.9816 32.0657Z" fill="#0E2549"/>
<path d="M12.392 55.0986L16.6786 57.4144L15.2183 61.0554L11.0029 58.7238L12.392 55.0986Z" fill="white"/>
<path d="M15.2737 61.2394L10.8506 58.7927L12.337 54.915L16.8352 57.3468L15.2737 61.2394ZM11.158 58.6543L15.1656 60.8709L16.524 57.4833L12.4496 55.2826L11.158 58.6543Z" fill="#0E2549"/>
<path d="M12.9186 55.8047C13.0006 56.6726 13.5158 58.2093 13.8929 58.8649C14.0784 59.1876 14.6978 60.3613 14.7645 60.6578C14.8044 60.8383 14.0593 60.3941 14.0248 60.3838L13.9788 60.7242C13.9788 60.7242 13.8308 60.8991 13.7005 60.8308C13.5886 60.7729 13.5326 60.5577 13.4246 60.525C13.3291 60.5412 13.2326 60.5465 13.1363 60.5409C13.0451 60.5128 12.9746 60.2884 12.9064 60.2201C12.8573 60.1696 12.681 60.2575 12.5997 60.1949C12.474 60.0939 12.5231 59.8787 12.4341 59.8048C12.3452 59.731 12.2241 59.8815 12.0831 59.7506C11.942 59.6197 12.5208 58.6217 12.51 58.3945C12.4717 57.5985 9.83242 53.1569 11.1394 50.1107C11.7289 48.7434 12.6411 52.8689 12.9186 55.8047Z" fill="white"/>
<path d="M13.7693 61.0275C13.7271 61.0276 13.6853 61.0171 13.6466 60.9967C13.5682 60.9483 13.5016 60.8758 13.4534 60.7862C13.4371 60.7593 13.4195 60.7337 13.4005 60.7095C13.3031 60.7307 13.2034 60.7329 13.1054 60.7161C12.992 60.6815 12.9237 60.5515 12.8685 60.4467C12.8586 60.428 12.8463 60.4046 12.8348 60.385H12.7995C12.7074 60.4101 12.611 60.3945 12.5274 60.341C12.4829 60.3015 12.4454 60.2514 12.4172 60.1937C12.389 60.1359 12.3707 60.0718 12.3634 60.0053C12.3634 59.9931 12.358 59.9781 12.3549 59.965H12.3404C12.2829 59.9839 12.2226 59.9867 12.1641 59.9733C12.1055 59.9599 12.0503 59.9305 12.0023 59.8874C11.8237 59.7219 11.9655 59.3927 12.1802 58.8932C12.2568 58.7221 12.3657 58.463 12.371 58.391C12.3634 58.2348 12.1809 57.784 11.9709 57.2621C11.281 55.559 10.0023 52.3865 11.0165 50.0203C11.1652 49.6733 11.34 49.6331 11.4611 49.6602C12.2054 49.8285 12.8762 53.7277 13.0709 55.7769C13.1522 56.6336 13.6604 58.13 14.0199 58.7548C14.1533 58.9858 14.834 60.2512 14.913 60.6029C14.9219 60.6414 14.9218 60.6822 14.9126 60.7206C14.9033 60.7589 14.8854 60.7934 14.8608 60.8199C14.7627 60.9228 14.6163 60.8882 14.1456 60.6328L14.1226 60.804L14.0874 60.8451C14.0026 60.9504 13.8898 61.0151 13.7693 61.0275ZM13.4289 60.3448C13.4406 60.3429 13.4525 60.3429 13.4642 60.3448C13.5566 60.3835 13.6353 60.4598 13.6872 60.5608C13.708 60.5992 13.7339 60.633 13.7639 60.6609C13.7785 60.6684 13.816 60.6487 13.8482 60.6235L13.9111 60.1558L14.0644 60.2035C14.1012 60.2182 14.1371 60.2364 14.1717 60.2578C14.3304 60.3448 14.4454 60.4037 14.5289 60.4448C14.3442 60.0212 13.9532 59.2729 13.7762 58.9652C13.3929 58.3031 12.8632 56.7533 12.7758 55.8218C12.4952 52.8513 11.7792 50.1016 11.4067 50.0184C11.3814 50.0128 11.33 50.0633 11.2771 50.1905C10.3327 52.3959 11.57 55.4608 12.2346 57.1115C12.5098 57.7933 12.6539 58.16 12.6646 58.3854C12.6715 58.5257 12.588 58.7258 12.4408 59.0691C12.3583 59.2497 12.2863 59.4372 12.2254 59.6302C12.2465 59.6289 12.2675 59.6258 12.2882 59.6209C12.3278 59.6072 12.3692 59.6036 12.4099 59.6102C12.4507 59.6168 12.4899 59.6334 12.5251 59.6592C12.5944 59.7264 12.6393 59.8242 12.6501 59.9314C12.6539 59.9703 12.6649 60.0077 12.6823 60.0408C12.7105 60.0417 12.7387 60.0395 12.7666 60.0343C12.8073 60.0218 12.8496 60.0199 12.8909 60.0286C12.9322 60.0373 12.9716 60.0564 13.0065 60.0848C13.0496 60.1348 13.0865 60.1921 13.1161 60.255C13.1358 60.2956 13.1584 60.3341 13.1836 60.37C13.2452 60.3702 13.3066 60.3649 13.3676 60.3541C13.3879 60.3505 13.4084 60.3486 13.4289 60.3485V60.3448Z" fill="#0E2549"/>
<path d="M12.1779 58.1357C12.1779 58.1357 10.1711 56.5514 9.83531 53.1629C9.49956 49.7744 10.7077 44.1104 10.7077 44.1104L13.1308 47.0219C13.1308 47.0219 12.5819 51.6187 12.7651 52.67C12.9484 53.7212 14.25 58.1357 14.25 58.1357H12.1779Z" fill="#0E2549"/>
<path d="M14.4124 58.2854H12.1787C12.1455 58.2854 12.1137 58.2694 12.0903 58.2408C12.0669 58.2122 12.0537 58.1734 12.0537 58.133C12.0537 58.0926 12.0669 58.0538 12.0903 58.0252C12.1137 57.9966 12.1455 57.9805 12.1787 57.9805H14.0874C13.8857 57.1471 13.6472 56.3275 13.373 55.5254C13.0142 54.4246 12.6754 53.3855 12.6064 52.3081C12.4985 50.3026 12.7334 48.2916 13.2963 46.4028C13.3108 46.3692 13.3351 46.3433 13.3644 46.3304C13.3937 46.3175 13.4259 46.3183 13.4546 46.3328C13.4834 46.3474 13.5067 46.3745 13.52 46.4089C13.5332 46.4433 13.5355 46.4825 13.5263 46.5188C12.9774 48.3635 12.7484 50.3273 12.854 52.2857C12.9169 53.3145 13.2373 54.2881 13.6006 55.4123C13.8712 56.2419 14.151 57.0958 14.3672 58.0937L14.4124 58.2854Z" fill="#A1C5E2"/>
<path d="M17.2464 35.4927C17.2219 35.6255 17.5423 36.0239 17.8175 35.9603C18.266 35.8668 18.3028 35.2776 18.2008 35.3327C18.075 35.4682 17.9213 35.5591 17.7562 35.5956C17.4634 35.6507 17.2602 35.3991 17.2464 35.4927Z" fill="#0E2549"/>
<path d="M18.0494 64.8089H18.0402C18.0071 64.8058 17.9764 64.7868 17.9549 64.7561C17.9333 64.7254 17.9226 64.6855 17.9252 64.6452L18.1858 60.5983C18.1871 60.5784 18.1915 60.559 18.1989 60.5412C18.2063 60.5234 18.2165 60.5076 18.229 60.4946C18.2414 60.4816 18.2558 60.4717 18.2713 60.4655C18.2869 60.4593 18.3033 60.4569 18.3196 60.4585C18.3359 60.46 18.3518 60.4654 18.3664 60.4745C18.381 60.4835 18.3939 60.4959 18.4046 60.5111C18.4152 60.5263 18.4233 60.5438 18.4284 60.5628C18.4335 60.5818 18.4354 60.6018 18.4342 60.6217L18.1735 64.6695C18.171 64.7076 18.1568 64.7431 18.1338 64.7689C18.1108 64.7947 18.0806 64.809 18.0494 64.8089Z" fill="#A1C5E2"/>
<path d="M110.261 83.5518L110.264 85.3942H112.301L112.47 83.6462L110.261 83.5518Z" fill="white"/>
<path d="M112.407 85.5427H110.136V83.3916L112.61 83.4973L112.407 85.5427ZM110.384 85.2378H112.186L112.327 83.7882L110.382 83.7049L110.384 85.2378Z" fill="#0E2549"/>
<path d="M110.175 85.1885C110.175 85.1885 107.15 86.3594 107.046 87.3246H112.469V85.1885H110.175Z" fill="#004DC9"/>
<path d="M116.194 83.5001L116.25 85.4632H118.263L118.359 83.458L116.194 83.5001Z" fill="white"/>
<path d="M118.377 85.6138H116.125L116.062 83.3495L118.487 83.3018L118.377 85.6138ZM116.367 85.3098H118.139L118.216 83.6113L116.313 83.6488L116.367 85.3098Z" fill="#0E2549"/>
<path d="M116.135 85.2471C116.135 85.2471 113.111 86.418 113.007 87.3832H118.43V85.2471H116.135Z" fill="#004DC9"/>
<path d="M112.812 87.018V87.5726H118.573V86.9385L112.812 87.018Z" fill="#0E2549"/>
<path d="M112.639 86.9229V87.5149H106.878V86.8799L112.639 86.9229Z" fill="#0E2549"/>
<path d="M115.5 83.8356H118.831L119.114 51.2666L109.515 53.2896L109.562 83.8113H112.768L113.792 63.5411L113.408 59.0911L115.5 83.8356Z" fill="#0E2549"/>
<path d="M113.028 34.0947C113.028 34.0947 113.257 36.9866 113.064 37.3065C112.87 37.6263 111.741 38.2913 111.741 38.2913L113.615 44.7999L117.534 44.3378L117.788 39.4426C117.788 39.4426 115.999 37.6656 115.891 37.299C115.742 36.7939 115.738 34.0947 115.738 34.0947H113.028Z" fill="white"/>
<path d="M113.539 44.9441L111.604 37.965L111.722 37.9304C112.188 37.792 112.86 37.4207 112.975 37.228C113.077 37.041 113.026 35.4959 112.918 34.107C112.916 34.0888 112.917 34.0701 112.92 34.0522C112.924 34.0342 112.931 34.0174 112.94 34.0028C112.949 33.9881 112.961 33.9759 112.974 33.967C112.987 33.958 113.002 33.9525 113.017 33.9508C113.032 33.9491 113.047 33.9511 113.062 33.9569C113.076 33.9626 113.089 33.9719 113.101 33.9842C113.112 33.9965 113.121 34.0115 113.127 34.0283C113.134 34.0451 113.137 34.0633 113.138 34.0818C113.192 34.772 113.352 37.0503 113.154 37.3861C112.977 37.6835 112.189 37.9604 111.851 38.067L113.69 44.656L117.43 44.2145L117.674 39.5036C117.291 39.121 115.895 37.7106 115.787 37.3449C115.634 36.824 115.634 34.2062 115.634 34.0949C115.634 34.0592 115.645 34.0249 115.666 33.9996C115.687 33.9744 115.715 33.9602 115.744 33.9602C115.773 33.9602 115.801 33.9744 115.822 33.9996C115.843 34.0249 115.854 34.0592 115.854 34.0949C115.854 34.8431 115.88 36.8577 115.998 37.2542C116.065 37.4815 117.128 38.6094 117.86 39.338L117.904 39.382V39.4512L117.644 44.4605L113.539 44.9441Z" fill="#0E2549"/>
<path d="M113.733 28.3778C113.244 28.4489 112.052 28.6032 112.062 29.6741C112.074 30.8956 112.259 32.4641 112.368 33.289C112.389 33.4466 112.455 33.5901 112.555 33.6931C112.655 33.7961 112.782 33.8519 112.912 33.8501L115.936 33.8052C116.07 33.8033 116.199 33.7412 116.298 33.6308C116.397 33.5204 116.459 33.3694 116.472 33.2067C116.567 32.0731 116.75 29.6723 116.636 29.3122C116.249 28.087 114.509 28.2656 113.733 28.3778Z" fill="#0E2549"/>
<path d="M115.709 34.6029C115.87 34.3934 115.928 33.5741 115.939 32.6388C115.94 32.6257 115.943 32.6128 115.948 32.6014C115.953 32.59 115.961 32.5804 115.97 32.5733C116.167 32.4265 116.451 32.1132 116.438 31.6502C116.427 31.249 116.19 31.3369 116.004 31.4688C115.997 31.4745 115.988 31.4775 115.979 31.4776C115.97 31.4777 115.961 31.4748 115.953 31.4693C115.945 31.4637 115.939 31.4557 115.934 31.4461C115.93 31.4365 115.928 31.4256 115.928 31.4145C115.902 30.2922 115.841 29.3018 115.841 29.3018L112.249 29.3551C112.249 29.3551 112.266 30.3596 112.312 31.4847C112.312 31.5352 112.491 34.2194 112.58 34.4607C112.637 34.6008 112.728 34.7156 112.842 34.789C112.842 34.789 113.072 35.0153 114.379 34.9966L115.709 34.6029Z" fill="white"/>
<path d="M114.225 35.1321C113.138 35.1321 112.845 34.9553 112.782 34.902C112.651 34.8148 112.545 34.6797 112.48 34.5157C112.378 34.2352 112.203 31.5163 112.202 31.4911C112.157 30.3762 112.14 29.368 112.14 29.3577V29.2212L115.947 29.165L115.955 29.2913C115.955 29.3016 116.012 30.2266 116.039 31.2947C116.186 31.2114 116.307 31.2011 116.399 31.2629C116.491 31.3246 116.545 31.4555 116.553 31.6454C116.568 32.1981 116.225 32.5367 116.054 32.6742C116.037 34.209 115.9 34.5634 115.796 34.6972C115.776 34.7232 115.748 34.7384 115.718 34.7392C115.689 34.7401 115.66 34.7267 115.639 34.7019C115.618 34.6771 115.605 34.6429 115.605 34.607C115.604 34.571 115.615 34.5362 115.635 34.5101C115.69 34.4391 115.818 34.1145 115.833 32.6396C115.833 32.6037 115.841 32.5684 115.855 32.5372C115.87 32.5059 115.891 32.4797 115.916 32.4609C116.045 32.3674 116.344 32.0934 116.331 31.6575C116.331 31.5593 116.31 31.5126 116.294 31.5023C116.279 31.492 116.202 31.4901 116.064 31.5883C116.04 31.6052 116.013 31.614 115.986 31.614C115.958 31.614 115.931 31.6052 115.907 31.5883C115.882 31.5714 115.861 31.5468 115.846 31.5172C115.832 31.4875 115.824 31.4537 115.823 31.4191C115.802 30.5418 115.761 29.7412 115.746 29.4391L112.373 29.4896C112.38 29.801 112.398 30.6072 112.433 31.4789C112.442 31.666 112.618 34.1912 112.692 34.4063C112.74 34.5203 112.816 34.6134 112.909 34.6729L112.922 34.6841C112.927 34.6841 113.182 34.8786 114.39 34.8618C114.405 34.8602 114.42 34.8626 114.435 34.8687C114.449 34.8747 114.463 34.8844 114.474 34.8971C114.485 34.9098 114.494 34.9253 114.501 34.9425C114.507 34.9596 114.51 34.9782 114.51 34.9969C114.51 35.0157 114.507 35.0343 114.501 35.0514C114.494 35.0686 114.485 35.084 114.474 35.0967C114.463 35.1094 114.449 35.1191 114.435 35.1252C114.42 35.1313 114.405 35.1336 114.39 35.1321H114.225Z" fill="#0E2549"/>
<path d="M114.621 32.0532C114.574 32.0533 114.527 32.0311 114.493 31.9911C114.458 31.9512 114.437 31.8964 114.434 31.8381L114.429 31.7446C114.426 31.6838 114.443 31.624 114.476 31.5784C114.509 31.5328 114.556 31.5051 114.605 31.5014C114.655 31.4977 114.704 31.5183 114.742 31.5586C114.779 31.5989 114.802 31.6557 114.805 31.7165L114.809 31.81C114.811 31.8401 114.808 31.8703 114.799 31.8989C114.791 31.9274 114.779 31.9537 114.763 31.9763C114.746 31.9989 114.726 32.0173 114.704 32.0305C114.682 32.0437 114.658 32.0514 114.633 32.0532H114.621Z" fill="#0E2549"/>
<path d="M112.968 32.0848C112.919 32.0848 112.872 32.0613 112.837 32.0194C112.802 31.9774 112.781 31.9203 112.78 31.8603V31.7537C112.782 31.6951 112.802 31.6396 112.836 31.5984C112.871 31.5572 112.916 31.5336 112.964 31.5323C113.013 31.531 113.059 31.5521 113.095 31.5913C113.131 31.6306 113.153 31.685 113.157 31.7434V31.8501C113.157 31.8802 113.153 31.9102 113.144 31.9384C113.135 31.9665 113.122 31.9923 113.105 32.0141C113.088 32.0359 113.067 32.0534 113.044 32.0655C113.022 32.0776 112.997 32.0842 112.973 32.0848H112.968Z" fill="#0E2549"/>
<path d="M114.344 31.3357C114.316 31.3356 114.288 31.3256 114.263 31.3069C114.239 31.2882 114.22 31.2616 114.207 31.2301C114.191 31.1859 114.19 31.1359 114.204 31.0906C114.217 31.0453 114.245 31.0081 114.28 30.9869C114.515 30.8644 114.78 30.855 115.021 30.9607C115.051 30.9836 115.074 31.0188 115.086 31.0603C115.097 31.1018 115.096 31.1469 115.084 31.1877C115.071 31.2286 115.046 31.2626 115.015 31.2838C114.984 31.305 114.947 31.3122 114.912 31.3039C114.748 31.2337 114.568 31.2394 114.407 31.3199C114.388 31.3305 114.366 31.3359 114.344 31.3357Z" fill="#0E2549"/>
<path d="M114.26 33.35C114.318 33.451 114.03 33.8055 113.695 33.7924C113.146 33.7709 112.971 33.3145 113.104 33.3454C113.289 33.4381 113.486 33.4894 113.686 33.4969C114.041 33.5025 114.222 33.2818 114.26 33.35Z" fill="#0E2549"/>
<path d="M113.664 33.0745H113.638C113.53 33.0473 113.274 32.9613 113.239 32.7406C113.213 32.5797 113.227 32.5311 113.371 32.0653L113.481 31.7071C113.512 31.576 113.525 31.4394 113.519 31.303C113.442 31.2179 113.022 31.1469 112.799 31.3143C112.785 31.326 112.769 31.334 112.752 31.3379C112.735 31.3419 112.717 31.3416 112.701 31.3371C112.684 31.3326 112.668 31.3241 112.654 31.3119C112.64 31.2998 112.628 31.2843 112.619 31.2664C112.61 31.2485 112.604 31.2286 112.602 31.2079C112.599 31.1872 112.6 31.166 112.605 31.1458C112.609 31.1255 112.617 31.1065 112.627 31.09C112.638 31.0735 112.651 31.0597 112.666 31.0496C112.918 30.8625 113.34 30.8681 113.577 30.9916C113.621 31.0083 113.662 31.0382 113.695 31.0787C113.728 31.1192 113.752 31.169 113.765 31.2236C113.804 31.4443 113.732 31.7613 113.724 31.7969V31.809C113.68 31.9549 113.642 32.0746 113.612 32.1738C113.486 32.5844 113.48 32.6087 113.489 32.6704C113.55 32.7213 113.619 32.7554 113.692 32.7705C113.722 32.7788 113.749 32.8003 113.767 32.8311C113.786 32.8619 113.794 32.8998 113.791 32.9376C113.788 32.9754 113.773 33.0105 113.75 33.0362C113.728 33.0619 113.698 33.0766 113.667 33.0773L113.664 33.0745Z" fill="#0E2549"/>
<path d="M117.693 56.6861C117.706 56.702 117.721 56.7143 117.738 56.7221C117.756 56.73 117.774 56.7331 117.792 56.7313C117.81 56.7295 117.828 56.7228 117.844 56.7117C117.86 56.7007 117.874 56.6855 117.884 56.6673C117.895 56.649 117.902 56.6282 117.905 56.6062C117.908 56.5842 117.908 56.5616 117.903 56.54C117.898 56.5185 117.89 56.4984 117.878 56.4813C117.866 56.4642 117.851 56.4505 117.835 56.4411L117.34 56.023L115.819 54.737C115.805 54.7241 115.79 54.7146 115.773 54.7093C115.757 54.7039 115.74 54.7027 115.723 54.7057C115.706 54.7088 115.69 54.716 115.675 54.7269C115.661 54.7379 115.648 54.7524 115.639 54.7694C115.629 54.7865 115.622 54.8058 115.619 54.8262C115.615 54.8466 115.615 54.8676 115.619 54.8879C115.622 54.9083 115.629 54.9275 115.639 54.9445C115.649 54.9615 115.662 54.9759 115.676 54.9867L117.149 56.2306L117.639 83.1282C117.639 83.1679 117.653 83.2055 117.676 83.2333C117.7 83.261 117.731 83.2766 117.763 83.2769C117.797 83.2756 117.828 83.2586 117.851 83.2293C117.874 83.2001 117.886 83.161 117.885 83.1207L117.402 56.4411L117.693 56.6861Z" fill="#A1C5E2"/>
<path d="M113.913 63.5128L113.308 59.1563V59.1348C113.31 59.1068 113.305 59.0789 113.294 59.0543L113.146 57.9937V55.345C113.147 55.3241 113.145 55.303 113.139 55.2832C113.134 55.2633 113.125 55.2451 113.113 55.2296C113.101 55.2142 113.087 55.2019 113.071 55.1934C113.055 55.185 113.038 55.1807 113.021 55.1807C113.004 55.1807 112.987 55.185 112.971 55.1934C112.955 55.2019 112.941 55.2142 112.929 55.2296C112.918 55.2451 112.909 55.2633 112.903 55.2832C112.897 55.303 112.895 55.3241 112.897 55.345V58.019L113.057 59.1741L111.984 83.1077C111.983 83.1277 111.985 83.1477 111.99 83.1667C111.996 83.1856 112.004 83.203 112.015 83.218C112.026 83.2329 112.039 83.2451 112.054 83.2538C112.068 83.2625 112.085 83.2675 112.101 83.2686H112.108C112.14 83.2686 112.17 83.2537 112.194 83.2269C112.217 83.2001 112.23 83.1634 112.232 83.1246L113.249 60.5321L113.671 63.5633C113.676 63.5986 113.691 63.6307 113.713 63.6539C113.736 63.677 113.764 63.6896 113.794 63.6896C113.8 63.6905 113.807 63.6905 113.814 63.6896C113.847 63.6821 113.875 63.6593 113.894 63.6261C113.912 63.593 113.919 63.5522 113.913 63.5128Z" fill="#A1C5E2"/>
<path d="M109.186 62.26H109.18C109.092 62.26 109.018 62.2179 108.88 61.8419C108.787 61.6605 108.025 60.1491 107.897 59.5776C107.814 59.2091 107.978 57.7922 108.015 57.4864L108.542 45.7627L110.891 46.7214L110.867 46.8944C110.289 50.9768 109.428 57.1721 109.425 57.5088C109.425 57.6725 109.685 58.1485 109.856 58.4628C110.148 58.9996 110.299 59.2905 110.267 59.5084C110.26 59.5563 110.244 59.6013 110.218 59.6382C110.192 59.6752 110.159 59.7028 110.121 59.7179C110.056 59.7432 109.891 59.8114 109.274 59.1352C109.239 59.3791 109.225 59.6267 109.232 59.8741C109.287 60.3043 109.458 61.7372 109.365 62.0926C109.354 62.1403 109.331 62.1824 109.299 62.2126C109.266 62.2428 109.227 62.2594 109.186 62.26ZM108.533 58.792C108.576 58.7917 108.618 58.8121 108.649 58.8487C108.68 58.8854 108.699 58.9355 108.7 58.9884C108.702 59.0864 108.699 59.1845 108.691 59.2821C108.669 59.4929 108.678 59.7068 108.715 59.9143C108.801 60.3468 108.906 60.7733 109.03 61.1919C109.003 60.8365 108.958 60.396 108.9 59.9368C108.86 59.6169 108.976 58.7826 108.991 58.6882L109.045 58.3141L109.275 58.5797C109.448 58.7811 109.629 58.9709 109.819 59.1483C109.742 59.0006 109.653 58.8285 109.579 58.6938C109.285 58.1541 109.093 57.781 109.092 57.5144C109.092 57.0907 110.283 48.6293 110.514 47.0019L108.856 46.3257L108.353 57.5312V57.5406C108.272 58.2149 108.178 59.2606 108.226 59.4729C108.267 59.6252 108.318 59.7731 108.379 59.9153C108.349 59.6965 108.344 59.4735 108.365 59.2531C108.371 59.1716 108.374 59.0898 108.373 59.008C108.372 58.9811 108.376 58.9542 108.383 58.9289C108.391 58.9036 108.403 58.8805 108.418 58.8607C108.433 58.841 108.451 58.8251 108.471 58.8139C108.491 58.8028 108.513 58.7966 108.535 58.7957L108.533 58.792Z" fill="#0E2549"/>
<path d="M119.655 62.0009C119.655 62.0009 120.498 60.3483 120.625 59.775C120.702 59.4243 120.502 57.7576 120.502 57.7576L119.987 46.2939L117.983 47.1104C117.983 47.1104 119.429 57.3236 119.428 57.7604C119.426 58.1972 118.538 59.4196 118.584 59.7245C118.63 60.0294 119.529 58.9763 119.529 58.9763C119.529 58.9763 119.657 59.8629 119.619 60.1575C119.551 60.6972 119.408 62.0028 119.481 62.2834C119.536 62.4966 119.931 61.2424 120.134 60.2146C120.216 59.7974 120.144 59.514 120.153 59.2494L119.655 62.0009Z" fill="white"/>
<path d="M119.501 62.513C119.46 62.5126 119.421 62.4961 119.389 62.4661C119.357 62.4361 119.333 62.3941 119.322 62.3465C119.229 61.9911 119.399 60.5573 119.456 60.1271C119.462 59.88 119.448 59.6328 119.413 59.3891C118.793 60.0616 118.632 59.9961 118.57 59.9709C118.532 59.9557 118.499 59.9281 118.473 59.8911C118.448 59.8541 118.431 59.8093 118.425 59.7614C118.392 59.5435 118.543 59.2535 118.835 58.7167C119.006 58.4015 119.265 57.9254 119.266 57.7618C119.266 57.426 118.402 51.2298 117.824 47.1483L117.8 46.9743L120.149 46.0166L120.676 57.7393C120.713 58.0452 120.877 59.4621 120.794 59.8306C120.666 60.403 119.903 61.9172 119.811 62.0958C119.673 62.4699 119.599 62.5092 119.512 62.513H119.501ZM119.642 58.5633L119.696 58.9374C119.71 59.0309 119.827 59.8661 119.788 60.186C119.729 60.6452 119.684 61.0857 119.657 61.4411C119.781 61.0226 119.886 60.5961 119.972 60.1636C120.01 59.956 120.018 59.7422 119.996 59.5313C119.988 59.434 119.985 59.3363 119.987 59.2386C119.988 59.2117 119.993 59.1852 120.002 59.1608C120.011 59.1363 120.024 59.1143 120.041 59.0961C120.057 59.0778 120.076 59.0636 120.096 59.0542C120.117 59.0449 120.139 59.0407 120.161 59.0417C120.183 59.0427 120.205 59.0491 120.225 59.0603C120.245 59.0716 120.263 59.0875 120.278 59.1073C120.293 59.1271 120.305 59.1502 120.312 59.1755C120.32 59.2007 120.323 59.2276 120.323 59.2545C120.322 59.336 120.325 59.4174 120.331 59.4986C120.352 59.719 120.347 59.942 120.316 60.1607C120.377 60.019 120.429 59.8714 120.47 59.7193C120.517 59.5061 120.424 58.4604 120.343 57.7861V57.7674L119.84 46.5721L118.182 47.2483C118.412 48.8776 119.606 57.3362 119.604 57.7599C119.604 58.0264 119.41 58.3996 119.117 58.9393C119.04 59.0749 118.95 59.246 118.877 59.3948C119.066 59.2173 119.248 59.0271 119.42 58.8252L119.642 58.5633Z" fill="#0E2549"/>
<path d="M116.757 42.7197L118.468 57.5279H121.092L120.749 45.2553L116.757 42.7197Z" fill="#004DC9"/>
<path d="M121.092 57.6985H118.346L116.882 43.3467C116.879 43.3027 116.89 43.2589 116.913 43.2246C116.935 43.1902 116.968 43.1679 117.004 43.1624C117.04 43.157 117.076 43.1688 117.105 43.1953C117.134 43.2218 117.153 43.261 117.159 43.3046L118.592 57.3581H121.092C121.129 57.3581 121.165 57.376 121.191 57.4079C121.217 57.4398 121.232 57.4831 121.232 57.5283C121.232 57.5734 121.217 57.6167 121.191 57.6486C121.165 57.6806 121.129 57.6985 121.092 57.6985Z" fill="#0E2549"/>
<path d="M120.726 45.5672C120.903 45.0546 119.983 40.1828 119.486 39.6553C118.841 38.9688 117.019 37.3957 116.425 37.2928C116.281 37.2675 116.357 35.9834 116.002 35.9703C115.312 35.9357 113.444 36.0227 112.912 35.9703C112.653 35.9451 112.699 37.1759 112.699 37.1759C112.699 37.1759 112.324 37.4471 112.037 37.622C111.568 37.9129 111.137 38.288 110.759 38.735C110.759 38.735 109.665 39.9041 109.098 41.5184C109.094 41.5296 109.088 41.5399 109.084 41.5502V41.5586C108.737 42.5621 108.445 43.907 108.333 45.7262L107.675 57.245H109.675L109.781 55.7121H119.025L118.219 47.5153L118.388 46.2153L120.726 45.5672Z" fill="#004DC9"/>
<path d="M116.749 29.0176C116.552 28.7118 116.151 28.6108 116.047 28.5892C116.047 28.2423 115.983 27.5548 115.511 27.6278C114.879 27.7213 114.821 26.8796 114.227 26.9731C113.634 27.0666 113.951 27.3107 113.34 27.5034C112.728 27.6961 112.431 27.2303 112.254 27.8775C112.077 28.5247 111.603 28.3508 111.386 28.7838C111.169 29.2168 111.232 29.7256 111.526 29.894C111.82 30.0623 111.36 30.4046 111.597 30.7656C111.834 31.1266 112.846 31.0958 113.024 30.5664C113.202 30.037 113.297 29.6751 113.673 29.6508C114.05 29.6265 114.504 29.8921 114.761 29.7957C114.991 29.7088 115.302 29.4011 115.461 29.4151C115.484 29.6021 115.55 30.0698 115.666 30.3204C115.812 30.6375 116.045 30.8769 115.961 31.3221C115.878 31.7673 116.824 31.2978 116.677 30.7778C116.376 29.706 117.133 29.6096 116.749 29.0176Z" fill="#0E2549"/>
<path d="M101.943 36.4467C101.943 36.4467 101.3 35.1374 102.15 34.4537C102.38 34.2666 102.442 33.4099 102.581 32.8356C102.685 32.4073 104.179 30.2664 106.242 30.9155C107.239 31.2307 107.915 31.602 108.285 32.7646C108.498 33.4361 108.362 33.8074 108.858 34.6099C109.221 35.1972 109.44 35.0111 109.612 35.3356C110.018 36.1044 109.799 37.3811 109.345 37.7449C108.892 38.1087 109.679 38.6652 109.345 39.3769C109.012 40.0887 107.383 40.2019 107.028 39.2479C106.673 38.2939 106.432 38.8345 105.824 38.8532C105.215 38.8719 104.555 39.3536 104.13 39.218C103.706 39.0823 103.634 38.5876 103.102 38.4333C102.849 38.3603 102.317 38.8018 102.092 38.7812C101.868 38.7606 101.268 37.2847 101.943 36.4467Z" fill="#0E2549"/>
<path d="M100.999 62.5518L101.726 86.2263H103.363L104.327 62.794L100.999 62.5518Z" fill="white"/>
<path d="M103.471 86.3678H101.614L101.61 86.2322L100.878 62.4033L104.446 62.6633L104.441 62.8027L103.471 86.3678ZM101.835 86.0873H103.252L104.206 62.9271L101.118 62.7026L101.835 86.0873Z" fill="#0E2549"/>
<path d="M101.557 85.3721C101.557 85.3721 98.9287 86.2288 98.9287 86.9237L98.9594 87.5363H103.323L103.389 85.9258C103.389 85.9258 101.793 86.2671 101.557 85.3721Z" fill="#D0E2FF"/>
<path d="M103.43 87.6787H98.8491L98.8115 86.9305C98.8115 86.1766 100.889 85.4424 101.525 85.2348L101.631 85.2002L101.664 85.3274C101.833 85.9662 102.95 85.8745 103.367 85.7857L103.509 85.7548L103.43 87.6787ZM99.0653 87.3981H103.211L103.265 86.0887C102.872 86.1486 101.789 86.244 101.488 85.5397C100.293 85.9409 99.0415 86.5685 99.0415 86.9239L99.0653 87.3981Z" fill="#1B2746"/>
<path d="M109.024 87.2275H104.354V87.5437H109.024V87.2275Z" fill="#0E2549"/>
<path d="M105.952 62.8068L106.417 86.3149L108.169 86.3551L109.252 62.3447L105.952 62.8068Z" fill="white"/>
<path d="M108.275 86.5L106.303 86.4551V86.3213L105.835 62.6842L109.375 62.1885L108.275 86.5ZM106.527 86.1801L108.06 86.2147L109.134 62.5055L106.073 62.9339L106.527 86.1801Z" fill="#0E2549"/>
<path d="M106.451 85.1533C106.451 85.1533 103.979 86.0091 103.979 86.7049L104.009 87.3175H108.111L108.173 85.7061C108.173 85.7061 106.672 86.0502 106.451 85.1533Z" fill="#D0E2FF"/>
<path d="M108.222 87.4618H103.901L103.866 86.7136C103.866 85.9429 105.994 85.1676 106.42 85.0189L106.529 84.9814L106.562 85.1133C106.716 85.7474 107.764 85.6576 108.154 85.5697L108.296 85.537L108.222 87.4618ZM104.118 87.1812H108.002L108.053 85.8718C107.675 85.9317 106.668 86.0205 106.384 85.3247C105.264 85.725 104.095 86.3535 104.095 86.7061L104.118 87.1812Z" fill="#1B2746"/>
<path d="M106.792 43.506L106.677 40.9424H104.398L103.729 43.9278L106.792 43.506Z" fill="white"/>
<path d="M106.729 36.5791C106.729 36.5791 106.62 39.832 106.722 40.0031C107.071 40.5886 108.102 41.104 108.338 41.1816C108.575 41.2592 104.486 43.1625 104.486 43.1625L102.522 41.9887L103.279 41.1563C103.279 41.1563 103.915 40.7663 104.199 40.4137C104.483 40.0611 104.614 36.7521 104.614 36.7521L106.729 36.5791Z" fill="white"/>
<path d="M104.48 43.3124L102.319 42.0217L103.214 41.0369L103.228 41.0285C103.234 41.0285 103.849 40.645 104.112 40.3139C104.266 40.1166 104.43 38.3433 104.496 36.743L104.5 36.6177L106.849 36.4307L106.844 36.5869C106.795 38.058 106.771 39.7172 106.821 39.9333C107.146 40.4645 108.105 40.9621 108.368 41.0481C108.394 41.0557 108.417 41.0734 108.434 41.0985C108.451 41.1236 108.461 41.1548 108.463 41.1875C108.468 41.3193 108.471 41.3932 106.462 42.3725C105.506 42.8401 104.536 43.29 104.526 43.2946L104.48 43.3124ZM102.726 41.9516L104.489 43.0075C105.696 42.4463 107.523 41.5653 108.092 41.2249C107.688 41.0378 106.929 40.5898 106.629 40.0838C106.548 39.9473 106.541 38.8184 106.608 36.7281L104.719 36.8815C104.686 37.6484 104.555 40.1549 104.277 40.5085C104 40.862 103.444 41.209 103.345 41.2707L102.726 41.9516Z" fill="#0E2549"/>
<path d="M106.696 37.1065C107.009 36.8531 107.558 36.3396 107.574 35.8393C107.589 35.3389 107.12 35.3969 106.977 35.4764C106.882 35.5287 106.977 33.025 106.977 33.025L103.807 32.8174C103.807 32.8174 103.337 34.9685 103.45 36.3527C103.564 37.7369 104.086 38.0998 104.914 38.1456C105.255 38.1718 105.595 38.0873 105.901 37.9006L106.696 37.1065Z" fill="white"/>
<path d="M105.016 38.2912C104.98 38.2912 104.939 38.2912 104.907 38.2912C103.897 38.237 103.441 37.6805 103.334 36.373C103.219 34.9813 103.674 32.876 103.694 32.7871L103.718 32.6768L107.101 32.8984L107.096 33.0378C107.06 33.9534 107.04 34.9616 107.06 35.3077C107.217 35.2614 107.381 35.2909 107.52 35.39C107.58 35.4407 107.628 35.5102 107.658 35.5912C107.689 35.6721 107.701 35.7615 107.693 35.8501C107.677 36.3814 107.179 36.8939 106.764 37.2297C106.738 37.2477 106.708 37.2533 106.68 37.2451C106.651 37.2369 106.626 37.2157 106.61 37.1858C106.594 37.1558 106.587 37.1195 106.592 37.0842C106.598 37.0488 106.614 37.0172 106.637 36.9959C107.153 36.5787 107.454 36.1541 107.464 35.8408C107.47 35.8 107.466 35.7579 107.454 35.7193C107.441 35.6808 107.42 35.6473 107.392 35.6229C107.29 35.5396 107.102 35.5705 107.03 35.6098L106.971 35.6425L106.911 35.5976C106.851 35.548 106.777 35.4873 106.864 33.1659L103.893 32.9667C103.801 33.4212 103.467 35.1767 103.562 36.3421C103.672 37.6739 104.162 37.9676 104.917 38.0087C105.238 38.0322 105.559 37.9529 105.847 37.7787C105.86 37.7692 105.875 37.7632 105.891 37.7611C105.906 37.7589 105.922 37.7606 105.937 37.766C105.952 37.7714 105.966 37.7805 105.978 37.7927C105.99 37.8048 105.999 37.8198 106.006 37.8367C106.013 37.8537 106.018 37.8722 106.019 37.8911C106.02 37.9101 106.018 37.9291 106.012 37.947C106.007 37.965 105.999 37.9814 105.989 37.9954C105.978 38.0094 105.965 38.0206 105.951 38.0284C105.661 38.2058 105.34 38.2959 105.016 38.2912Z" fill="#0E2549"/>
<path d="M102.308 50.2627L98.8584 62.3707C98.8584 62.3707 99.871 63.6736 100.432 63.7391C101.365 63.8494 102.857 63.6455 103.669 63.4454C104.205 63.3126 106.718 63.9186 107.661 63.8485C110.114 63.6614 110.953 62.3707 110.953 62.3707L108.673 52.1903L108.258 50.4376L102.308 50.2627Z" fill="#0E2549"/>
<path d="M107.791 64.0021C107.759 64.0005 107.729 63.9844 107.707 63.957C107.685 63.9296 107.672 63.893 107.671 63.8545C107.67 63.816 107.681 63.7784 107.702 63.7494C107.723 63.7204 107.752 63.7021 107.783 63.6982C109.869 63.5429 110.754 62.5758 110.944 62.3327L108.682 52.2317L108.268 50.4809C108.262 50.4612 108.259 50.4402 108.26 50.4192C108.261 50.3982 108.266 50.3777 108.273 50.3588C108.281 50.34 108.292 50.3234 108.305 50.3099C108.318 50.2964 108.334 50.2864 108.35 50.2805C108.367 50.2746 108.384 50.273 108.401 50.2757C108.418 50.2784 108.435 50.2853 108.449 50.2962C108.464 50.307 108.477 50.3214 108.487 50.3386C108.497 50.3557 108.504 50.3752 108.507 50.3958L108.922 52.1494L111.222 62.4056L111.183 62.4655C111.147 62.5206 110.286 63.8169 107.801 64.0012L107.791 64.0021Z" fill="#A1C5E2"/>
<path d="M101.819 53.3664C101.794 53.3667 101.77 53.3576 101.749 53.3403C101.728 53.3231 101.712 53.2986 101.703 53.27C101.694 53.2414 101.692 53.2101 101.698 53.1802C101.703 53.1504 101.716 53.1233 101.735 53.1027L103.07 51.6063C103.095 51.5814 103.127 51.569 103.159 51.5717C103.191 51.5743 103.221 51.5919 103.242 51.6207C103.264 51.6495 103.276 51.6874 103.275 51.7265C103.274 51.7656 103.262 51.8029 103.239 51.8307L101.904 53.3272C101.881 53.3525 101.851 53.3665 101.819 53.3664Z" fill="#A1C5E2"/>
<path d="M100.832 41.6411C99.4402 43.3246 100.022 56.7926 100.022 56.7926L101.823 56.8562L102.265 50.4028L108.256 50.4458L108.27 57.537H110C110 57.537 111.614 43.7371 109.97 41.6757C109.413 40.978 108.621 40.8873 108.349 40.8873C107.531 40.8873 106.017 41.2333 103.035 40.7002C102.548 40.6114 101.114 41.2988 100.832 41.6411Z" fill="#D0E2FF"/>
<path d="M110.103 57.6673H108.159L108.145 50.5752L102.374 50.534L101.932 56.994L99.9165 56.9229L99.9111 56.7938C99.8873 56.242 99.3423 43.251 100.754 41.5395C101.052 41.1775 102.525 40.4611 103.054 40.5565C105.344 40.9624 106.741 40.8502 107.666 40.7763C107.931 40.7548 108.163 40.7361 108.351 40.737C108.524 40.737 109.424 40.7791 110.054 41.5675C111.719 43.6551 110.182 56.9809 110.116 57.5467L110.103 57.6673ZM108.388 57.3868H109.903C110.057 56.025 111.397 43.6523 109.89 41.7677C109.325 41.0597 108.51 41.0195 108.352 41.0195C108.168 41.0195 107.944 41.0372 107.683 41.0578C106.748 41.1326 105.336 41.2449 103.023 40.8352C102.571 40.7548 101.163 41.4394 100.915 41.7396C99.6482 43.2782 100.081 55.2674 100.135 56.6516L101.72 56.7078L102.163 50.2544L108.372 50.2983L108.388 57.3868Z" fill="#1B2746"/>
<path d="M109.694 59.6335C109.756 59.3529 109.507 58.0089 109.507 58.0089L109.565 57.5244H108.726C108.744 57.6965 108.752 57.87 108.748 58.0435C108.748 58.3886 108.047 59.3529 108.082 59.5923C108.118 59.8317 108.828 59.0022 108.828 59.0022C108.828 59.0022 108.929 59.7008 108.9 59.9374C108.848 60.4282 108.823 60.9223 108.823 61.417C108.823 61.4393 108.829 61.461 108.84 61.4786C108.851 61.4962 108.867 61.5088 108.884 61.5142C108.902 61.5196 108.921 61.5175 108.937 61.5084C108.954 61.4993 108.968 61.4835 108.976 61.4638C109.193 60.9606 109.619 59.9664 109.694 59.6335Z" fill="white"/>
<path d="M108.905 61.6563C108.889 61.6561 108.873 61.6536 108.857 61.6488C108.814 61.6366 108.776 61.6072 108.749 61.5655C108.722 61.5237 108.707 61.472 108.707 61.4187C108.706 60.9162 108.732 60.4142 108.784 59.9157C108.789 59.7052 108.776 59.4947 108.746 59.2872C108.244 59.8381 108.116 59.7876 108.07 59.7689C108.044 59.7581 108.02 59.7386 108.001 59.7123C107.983 59.6861 107.971 59.6542 107.967 59.6202C107.943 59.4565 108.06 59.2302 108.289 58.8112C108.433 58.5456 108.632 58.1817 108.632 58.0461C108.634 57.8805 108.628 57.7148 108.611 57.5504L108.589 57.3877H109.696L109.62 58.0078C109.671 58.2884 109.865 59.3883 109.801 59.6735C109.725 60.0158 109.311 60.9829 109.072 61.5291C109.056 61.5667 109.032 61.5984 109.003 61.6208C108.974 61.6431 108.94 61.6554 108.905 61.6563ZM108.905 58.7223L108.943 58.9814C108.953 59.0553 109.045 59.7109 109.014 59.9588C108.969 60.3873 108.943 60.8185 108.937 61.2504C109.301 60.4152 109.535 59.8175 109.583 59.5996C109.62 59.4322 109.495 58.5886 109.394 58.0433L109.39 58.0181L109.433 57.6683H108.855C108.86 57.7618 108.865 57.8843 108.864 58.048C108.864 58.2519 108.71 58.5446 108.48 58.9664C108.404 59.1011 108.31 59.2807 108.251 59.4135C108.426 59.2579 108.592 59.0876 108.747 58.9038L108.905 58.7223Z" fill="#0E2549"/>
<path d="M100.286 58.893C100.224 58.6124 100.473 57.2694 100.473 57.2694L100.433 56.8018L101.257 56.8326C101.234 56.9869 101.226 57.1437 101.231 57.3003C101.231 57.6454 101.933 58.6096 101.898 58.8491C101.862 59.0885 101.152 58.2589 101.152 58.2589C101.152 58.2589 101.051 58.9585 101.08 59.1942C101.132 59.6849 101.157 60.1791 101.157 60.6738C101.157 60.696 101.151 60.7175 101.14 60.735C101.129 60.7525 101.113 60.7648 101.095 60.7701C101.078 60.7754 101.059 60.7733 101.042 60.7641C101.026 60.755 101.012 60.7393 101.004 60.7196C100.787 60.2211 100.359 59.2269 100.286 58.893Z" fill="white"/>
<path d="M101.076 60.9098C101.04 60.9097 101.006 60.8978 100.975 60.8754C100.945 60.853 100.921 60.8209 100.904 60.7826C100.665 60.2364 100.253 59.2693 100.176 58.927C100.112 58.6408 100.308 57.5334 100.358 57.2584L100.306 56.6533L101.405 56.6945L101.369 56.8647C101.35 57.0087 101.342 57.1547 101.347 57.3005C101.347 57.4361 101.546 57.8 101.69 58.0656C101.911 58.4724 102.036 58.7109 102.012 58.8746C102.007 58.9086 101.996 58.9405 101.977 58.9667C101.959 58.9929 101.935 59.0125 101.908 59.0233C101.863 59.0411 101.734 59.0916 101.232 58.5416C101.203 58.7491 101.19 58.9596 101.195 59.1701C101.247 59.6686 101.272 60.1706 101.271 60.6731C101.271 60.7271 101.256 60.7793 101.228 60.8211C101.2 60.8629 101.161 60.8919 101.118 60.9032C101.104 60.9071 101.09 60.9093 101.076 60.9098ZM100.398 58.8522C100.447 59.0701 100.68 59.6677 101.044 60.5029C101.038 60.0713 101.012 59.6404 100.967 59.2122C100.936 58.9634 101.028 58.3078 101.038 58.2339L101.076 57.9758L101.229 58.1572C101.385 58.3414 101.552 58.5121 101.727 58.6679C101.668 58.536 101.569 58.3555 101.497 58.2199C101.268 57.7972 101.114 57.5053 101.114 57.3005C101.114 57.1537 101.114 57.0433 101.123 56.9638L100.559 56.9433L100.588 57.2743V57.2968C100.486 57.8421 100.358 58.6847 100.399 58.8522H100.398Z" fill="#0E2549"/>
<path d="M104.136 35.4656H104.112C104.061 35.4574 104.015 35.4252 103.984 35.3759C103.953 35.3267 103.939 35.2644 103.946 35.2028L103.96 35.0775C103.963 35.0468 103.971 35.0171 103.984 34.9903C103.996 34.9635 104.013 34.9399 104.033 34.921C104.054 34.9021 104.077 34.8883 104.101 34.8802C104.126 34.8721 104.151 34.87 104.176 34.874C104.201 34.878 104.226 34.888 104.248 34.9035C104.27 34.9189 104.289 34.9395 104.304 34.964C104.32 34.9885 104.331 35.0166 104.338 35.0465C104.345 35.0764 104.346 35.1075 104.343 35.1383L104.329 35.2636C104.323 35.3202 104.299 35.3719 104.264 35.4091C104.228 35.4463 104.183 35.4664 104.136 35.4656Z" fill="#0E2549"/>
<path d="M105.546 35.5398C105.538 35.5407 105.529 35.5407 105.521 35.5398C105.496 35.5359 105.472 35.526 105.45 35.5107C105.428 35.4954 105.409 35.475 105.394 35.4507C105.379 35.4263 105.367 35.3986 105.361 35.3689C105.354 35.3393 105.353 35.3083 105.356 35.2779L105.37 35.1517C105.377 35.0897 105.403 35.0334 105.444 34.9952C105.484 34.9571 105.536 34.9402 105.587 34.9483C105.637 34.9563 105.683 34.9887 105.715 35.0382C105.746 35.0878 105.76 35.1505 105.753 35.2125L105.74 35.3387C105.734 35.3954 105.71 35.4472 105.675 35.4842C105.639 35.5213 105.593 35.5411 105.546 35.5398Z" fill="#0E2549"/>
<path d="M106.017 34.9335C105.995 34.9336 105.974 34.9264 105.956 34.9129C105.807 34.8068 105.631 34.7715 105.463 34.8138C105.448 34.8198 105.432 34.822 105.416 34.8203C105.4 34.8185 105.385 34.8128 105.371 34.8036C105.357 34.7944 105.345 34.7817 105.336 34.7665C105.326 34.7513 105.319 34.7339 105.315 34.7153C105.311 34.6966 105.31 34.6772 105.313 34.6582C105.316 34.6392 105.321 34.6211 105.33 34.6049C105.338 34.5887 105.349 34.5748 105.362 34.5641C105.376 34.5534 105.39 34.546 105.406 34.5426C105.635 34.4817 105.875 34.5288 106.077 34.6744C106.098 34.6906 106.115 34.7147 106.123 34.743C106.132 34.7714 106.134 34.8025 106.127 34.8317C106.12 34.8609 106.105 34.8866 106.086 34.905C106.066 34.9233 106.042 34.9334 106.017 34.9335Z" fill="#0E2549"/>
<path d="M104.6 36.2663C104.59 36.2661 104.58 36.2645 104.571 36.2616C104.499 36.2392 104.169 36.0334 104.187 35.7472C104.199 35.6493 104.234 35.5578 104.289 35.4844C104.339 35.4088 104.379 35.3238 104.407 35.2328C104.5 34.9298 104.484 34.84 104.474 34.8194C104.464 34.7988 104.448 34.7951 104.407 34.7783L104.378 34.7652C104.268 34.7156 104.015 34.7549 103.882 34.7923C103.852 34.8005 103.821 34.7939 103.795 34.774C103.769 34.7541 103.751 34.7225 103.744 34.6861C103.737 34.6498 103.743 34.6117 103.759 34.5802C103.775 34.5487 103.801 34.5264 103.831 34.5182C103.873 34.507 104.249 34.4079 104.459 34.5024L104.482 34.5126C104.524 34.5247 104.564 34.5477 104.598 34.5799C104.633 34.6122 104.661 34.653 104.682 34.6997C104.733 34.8334 104.716 35.028 104.624 35.331C104.587 35.4478 104.535 35.5567 104.47 35.6537C104.444 35.6867 104.425 35.7268 104.414 35.7706C104.414 35.8314 104.561 35.9632 104.627 35.9913C104.642 35.9959 104.656 36.0039 104.667 36.0149C104.679 36.0259 104.689 36.0396 104.697 36.0554C104.705 36.0711 104.709 36.0885 104.711 36.1065C104.713 36.1246 104.713 36.143 104.709 36.1606C104.702 36.1901 104.688 36.2164 104.669 36.2354C104.649 36.2545 104.625 36.2653 104.6 36.2663Z" fill="#0E2549"/>
<path d="M108.259 40.9776L107.243 39.9385L105.05 40.9168L105.714 41.9559L108.259 40.9776Z" fill="#D0E2FF"/>
<path d="M105.673 42.1154L104.862 40.8472L107.266 39.7744L108.493 41.0295L105.673 42.1154ZM105.238 40.9781L105.756 41.789L108.023 40.9136L107.218 40.0905L105.238 40.9781Z" fill="#1B2746"/>
<path d="M102.663 40.8494L103.42 39.9385L105.052 40.9168L104.399 41.8212L102.663 40.8494Z" fill="#D0E2FF"/>
<path d="M104.429 41.9888L102.464 40.8889L103.398 39.7666L105.237 40.8702L104.429 41.9888ZM102.862 40.8038L104.37 41.6456L104.866 40.9581L103.443 40.1042L102.862 40.8038Z" fill="#1B2746"/>
<path d="M108.273 52.5435C108.241 52.5422 108.21 52.5256 108.188 52.4972C108.166 52.4688 108.154 52.431 108.155 52.392L108.316 45.8619C108.315 45.8416 108.318 45.8213 108.324 45.8024C108.33 45.7834 108.339 45.7662 108.35 45.7518C108.362 45.7374 108.376 45.726 108.392 45.7185C108.407 45.711 108.424 45.7074 108.44 45.7081C108.457 45.7087 108.473 45.7135 108.488 45.7223C108.503 45.731 108.517 45.7433 108.528 45.7587C108.539 45.774 108.547 45.7919 108.552 45.8112C108.557 45.8306 108.559 45.851 108.557 45.8712L108.398 52.4004C108.397 52.4198 108.393 52.4389 108.387 52.4566C108.38 52.4743 108.371 52.4902 108.359 52.5035C108.348 52.5168 108.334 52.5272 108.319 52.534C108.304 52.5409 108.288 52.5441 108.273 52.5435Z" fill="#0E2549"/>
<path d="M104.104 36.4884C104.052 36.5576 104.299 37.1225 104.518 37.1225C105.067 37.1225 105.257 36.3649 105.132 36.4398C104.946 36.5487 104.742 36.6019 104.536 36.595C104.19 36.5642 104.163 36.4089 104.104 36.4884Z" fill="#0E2549"/>
<path d="M104.932 50.4792C104.917 50.4788 104.902 50.4748 104.888 50.4675C104.874 50.4601 104.862 50.4494 104.851 50.4361C104.841 50.4229 104.833 50.4072 104.827 50.39C104.822 50.3729 104.819 50.3545 104.819 50.3361L104.934 41.0769C104.935 41.04 104.947 41.0048 104.969 40.9789C104.99 40.953 105.019 40.9385 105.049 40.9385C105.064 40.9387 105.079 40.9426 105.093 40.9499C105.107 40.9571 105.12 40.9677 105.13 40.9809C105.141 40.9941 105.149 41.0097 105.155 41.0268C105.16 41.0439 105.163 41.0622 105.163 41.0806L105.048 50.3399C105.047 50.377 105.035 50.4124 105.013 50.4385C104.992 50.4646 104.962 50.4792 104.932 50.4792Z" fill="#0E2549"/>
<path d="M103.534 32.8193C103.534 32.8193 106.427 33.8285 106.936 35.5615C107.035 35.5127 107.141 35.4885 107.248 35.4904C107.328 35.4929 107.406 35.5256 107.471 35.584L107.382 32.708L103.534 32.8193Z" fill="#0E2549"/>
<path d="M110.004 57.6675H108.159V52.3991C108.159 52.3619 108.171 52.3262 108.193 52.2999C108.214 52.2736 108.244 52.2588 108.274 52.2588C108.305 52.2588 108.334 52.2736 108.355 52.2999C108.377 52.3262 108.389 52.3619 108.389 52.3991V57.3869H110.004C110.035 57.3869 110.064 57.4017 110.086 57.428C110.107 57.4543 110.119 57.49 110.119 57.5272C110.119 57.5644 110.107 57.6001 110.086 57.6264C110.064 57.6527 110.035 57.6675 110.004 57.6675Z" fill="#0E2549"/>
<path d="M107.869 53.3638C107.842 53.3647 107.815 53.3545 107.793 53.3348L106.113 51.8384C106.1 51.8267 106.089 51.8119 106.08 51.7949C106.071 51.7779 106.066 51.7589 106.063 51.7392C106.06 51.7195 106.061 51.6993 106.065 51.6799C106.069 51.6605 106.076 51.6422 106.085 51.6261C106.105 51.5935 106.134 51.5717 106.167 51.5654C106.2 51.559 106.233 51.5688 106.26 51.5924L107.94 53.0888C107.961 53.108 107.977 53.135 107.985 53.1659C107.993 53.1967 107.992 53.2299 107.984 53.2605C107.975 53.2911 107.959 53.3176 107.937 53.3361C107.916 53.3547 107.89 53.3644 107.863 53.3638H107.869Z" fill="#A1C5E2"/>
<path d="M102.267 50.5359H102.26C102.229 50.5334 102.201 50.5165 102.181 50.4886C102.16 50.4608 102.15 50.4243 102.152 50.3871L102.395 45.5237C102.397 45.4865 102.411 45.4517 102.434 45.427C102.445 45.4147 102.458 45.4053 102.473 45.3993C102.487 45.3933 102.502 45.3907 102.517 45.3919C102.532 45.393 102.547 45.3977 102.561 45.4058C102.574 45.4138 102.586 45.4251 102.596 45.4389C102.607 45.4527 102.614 45.4688 102.619 45.4862C102.624 45.5037 102.626 45.5221 102.625 45.5406L102.382 50.404C102.381 50.4399 102.368 50.4736 102.346 50.4981C102.324 50.5227 102.296 50.5362 102.267 50.5359Z" fill="#1B2746"/>
<path d="M91.8509 30.1348H66.6085C66.2218 30.1351 65.8507 29.9481 65.5768 29.615C65.3029 29.2818 65.1485 28.8297 65.1475 28.3578C65.1475 27.885 65.3014 27.4316 65.5754 27.0973C65.8494 26.763 66.221 26.5752 66.6085 26.5752H91.8509C92.2384 26.5752 92.61 26.763 92.884 27.0973C93.158 27.4316 93.312 27.885 93.312 28.3578C93.311 28.8297 93.1566 29.2818 92.8826 29.615C92.6087 29.9481 92.2377 30.1351 91.8509 30.1348Z" fill="#0E2549"/>
<path d="M124.664 73.8103C124.664 74.4241 124.515 75.0242 124.236 75.5346C123.956 76.0451 123.559 76.443 123.095 76.678C122.63 76.913 122.118 76.9746 121.625 76.855C121.131 76.7353 120.678 76.4398 120.322 76.0059C119.967 75.5719 119.724 75.019 119.626 74.417C119.528 73.815 119.578 73.191 119.771 72.6239C119.963 72.0568 120.289 71.5721 120.707 71.2311C121.126 70.89 121.618 70.708 122.121 70.708C122.455 70.7079 122.785 70.788 123.094 70.9439C123.402 71.0997 123.683 71.3282 123.919 71.6163C124.155 71.9044 124.343 72.2464 124.47 72.6229C124.598 72.9993 124.664 73.4028 124.664 73.8103Z" fill="#F2F7FF"/>
<path d="M132.883 84.448C132.883 85.0618 132.734 85.6618 132.454 86.1721C132.175 86.6825 131.777 87.0802 131.313 87.3151C130.848 87.5499 130.336 87.6113 129.843 87.4915C129.349 87.3717 128.896 87.076 128.541 86.6419C128.185 86.2079 127.943 85.6548 127.845 85.0528C127.747 84.4508 127.797 83.8268 127.99 83.2598C128.182 82.6927 128.508 82.2081 128.927 81.8673C129.345 81.5264 129.837 81.3445 130.34 81.3447C131.015 81.345 131.661 81.672 132.138 82.254C132.615 82.8359 132.883 83.6251 132.883 84.448Z" fill="#F2F7FF"/>
<path d="M132.236 70.5894L119.479 86.1533L120.628 87.554L133.384 71.9901L132.236 70.5894Z" fill="#F2F7FF"/>
<path d="M12.3218 77.0162C12.3218 70.7695 3.4518 71.4859 3.4518 67.7308C3.4518 66.0239 4.62695 64.9315 6.50198 64.9315C8.34864 64.9315 9.35591 65.6489 10.6146 66.8778L11.8457 65.2046C10.7166 63.8569 9.42874 62.8122 7.39963 62.612V58.1377H5.71854V62.6392C3.00949 62.9992 1.15746 64.9166 1.15746 67.7991C1.15746 73.739 10.0274 72.988 10.0274 77.221C10.0274 78.9625 8.85228 80.1568 6.66986 80.1568C4.57099 80.1568 2.86461 79.0991 1.46562 77.8355L0.374023 79.8155C1.66186 81.1398 3.65571 82.2696 5.71854 82.4782V87.4286H7.39733V82.4483C10.364 82.0667 12.3218 79.9717 12.3218 77.0162Z" fill="#F2F7FF"/>
<path d="M133.381 87.7152H1.91479C1.88429 87.7152 1.85505 87.7004 1.83348 87.6741C1.81192 87.6478 1.7998 87.6121 1.7998 87.5749C1.7998 87.5377 1.81192 87.502 1.83348 87.4757C1.85505 87.4494 1.88429 87.4346 1.91479 87.4346H133.381C133.412 87.4346 133.441 87.4494 133.463 87.4757C133.484 87.502 133.496 87.5377 133.496 87.5749C133.496 87.6121 133.484 87.6478 133.463 87.6741C133.441 87.7004 133.412 87.7152 133.381 87.7152Z" fill="#1B2746"/>
</g>
<defs>
<clipPath id="clip0_4_9607">
<rect width="133.125" height="87.4257" fill="white" transform="translate(0.374023 0.290039)"/>
</clipPath>
</defs>
</svg>
