<svg width="60" height="61" viewBox="0 0 60 61" fill="none" xmlns="http://www.w3.org/2000/svg">
<path d="M48.9978 7.59119C49.1068 7.67418 49.2158 7.75717 49.328 7.84268C49.9203 8.30424 50.4586 8.79504 50.977 9.33753C51.0731 9.43358 51.1691 9.52963 51.2681 9.62859C51.3641 9.72464 51.4602 9.82068 51.5591 9.91964C51.6172 9.97367 51.6753 10.0277 51.7351 10.0834C55.1594 13.34 57.101 18.5174 57.2762 23.1709C57.3929 28.5922 55.9051 34.0021 52.1485 38.0575C52.049 38.1613 51.9495 38.265 51.847 38.3718C51.6397 38.5909 51.4468 38.8081 51.2563 39.0408C50.8897 39.479 50.4852 39.8266 50.0456 40.1895C49.873 40.3338 49.873 40.3338 49.6968 40.4811C45.3079 44.081 39.6511 45.6742 34.0157 45.123C31.273 44.8067 28.7169 43.9284 26.2954 42.6344C26.2224 42.5957 26.1494 42.5569 26.0742 42.517C25.1441 42.0188 24.3003 41.4639 23.5013 40.7717C23.0763 40.9501 22.8098 41.2049 22.4889 41.5325C22.3864 41.6363 22.2839 41.74 22.1783 41.847C22.0722 41.9556 21.9661 42.0641 21.8568 42.176C21.6457 42.3911 21.4344 42.6059 21.2228 42.8204C21.1295 42.9159 21.0361 43.0113 20.9399 43.1097C20.651 43.3868 20.5315 43.4421 20.1323 43.493C19.7758 43.4494 19.7758 43.4494 19.5429 43.1947C19.4265 42.8673 19.4265 42.8673 19.5008 42.5927C19.6915 42.2227 19.9199 41.9851 20.2169 41.6935C20.2978 41.6133 20.2978 41.6133 20.3803 41.5315C20.5515 41.3623 20.7239 41.1943 20.8963 41.0263C21.0131 40.9113 21.1299 40.7961 21.2465 40.6809C21.5316 40.3999 21.8175 40.1197 22.1042 39.8403C21.9104 39.4262 21.6898 39.1794 21.3547 38.8652C20.6357 38.1586 20.0248 37.3905 19.4265 36.5804C19.3536 36.4831 19.3536 36.4831 19.2792 36.3839C17.0461 33.3668 15.5837 29.3626 15.5609 25.5871C15.5597 25.4508 15.5597 25.4508 15.5584 25.3116C15.5322 21.5658 15.5322 21.5658 15.9338 19.932C15.9569 19.8326 15.9801 19.7333 16.0039 19.6309C16.8431 16.0803 18.475 13.0397 20.8236 10.2689C20.8941 10.184 20.9646 10.099 21.0373 10.0115C21.5061 9.45782 22.0149 8.98828 22.5699 8.52257C22.6662 8.43658 22.7626 8.35058 22.8619 8.26198C30.0732 1.9646 41.4617 1.78168 48.9978 7.59119ZM35.7684 4.69063C33.7294 4.76148 31.7034 5.13961 29.7881 5.84485C29.6687 5.88872 29.6687 5.88872 29.5469 5.93347C26.9123 6.92091 24.7043 8.43651 22.6863 10.3853C22.5861 10.4796 22.4858 10.5738 22.3825 10.6709C19.0404 13.8885 17.0091 18.6848 16.8652 23.3083C16.8605 23.4468 16.8559 23.5853 16.8511 23.728C16.766 28.7997 18.5421 33.875 22.0634 37.5746C22.178 37.6928 22.293 37.8107 22.4083 37.9283C22.5583 38.0821 22.7048 38.2393 22.8509 38.3968C25.9357 41.6466 30.5572 43.5816 35.002 43.8225C35.4448 43.8338 35.8866 43.837 36.3296 43.835C36.4468 43.8346 36.4468 43.8346 36.5664 43.8343C40.7926 43.8126 44.9556 42.458 48.2993 39.8403C48.3975 39.7658 48.4956 39.6914 48.5967 39.6147C52.8495 36.2831 55.2061 31.5833 55.9204 26.2866C55.9545 25.9527 55.9727 25.6229 55.9832 25.2874C55.9892 25.1386 55.9952 24.9897 56.0014 24.8363C56.1463 19.5893 54.1829 14.6301 50.5905 10.8287C50.4875 10.7208 50.3846 10.6129 50.2785 10.5018C50.1923 10.4095 50.1062 10.3172 50.0174 10.2221C46.7224 6.78817 41.7779 4.84143 37.0671 4.67014C36.634 4.66309 36.2015 4.68038 35.7684 4.69063Z" fill="#FF6061"/>
<path d="M40.267 6.89196C40.3594 6.91323 40.4519 6.9345 40.5472 6.95642C43.4494 7.63741 46.1065 9.01298 48.2701 11.0668C48.4781 11.264 48.6864 11.4449 48.9113 11.6216C51.9949 14.2847 53.6975 18.6571 54.1213 22.609C54.1533 23.1601 54.1603 23.7088 54.1576 24.2608C54.157 24.408 54.1563 24.5552 54.1556 24.7069C54.0935 29.539 51.9758 34.0055 48.548 37.376C48.3172 37.587 48.0797 37.7828 47.8344 37.9768C47.7761 38.023 47.7179 38.0691 47.6578 38.1167C43.767 41.165 38.9845 42.5326 34.0556 41.9938C33.5203 41.9218 32.9935 41.821 32.4666 41.7023C32.3799 41.683 32.2931 41.6636 32.2038 41.6437C27.603 40.5765 23.663 37.6049 21.1673 33.6382C19.8715 31.4703 19.0445 29.0748 18.7288 26.5674C18.7094 26.419 18.7094 26.419 18.6896 26.2677C18.3437 23.1399 18.8156 19.8834 20.1258 17.0207C20.176 16.9095 20.176 16.9095 20.2271 16.796C20.992 15.1165 21.9815 13.6168 23.2529 12.2774C23.4501 12.0694 23.631 11.8612 23.8077 11.6362C25.9302 9.17849 29.2421 7.62865 32.3502 6.89196C32.4304 6.8729 32.5106 6.85384 32.5932 6.8342C35.0258 6.28887 37.8476 6.29819 40.267 6.89196ZM24.8992 12.4802C24.8108 12.5602 24.7224 12.6402 24.6313 12.7226C22.3675 14.8776 20.9405 17.8539 20.2423 20.8627C20.2149 20.9788 20.1876 21.095 20.1595 21.2147C19.364 25.2384 20.2319 29.6523 22.4543 33.0871C23.0723 34.0087 23.7895 34.8424 24.5499 35.6484C24.6762 35.7879 24.6762 35.7879 24.805 35.9303C27.4366 38.7267 31.5305 40.495 35.3507 40.6693C40.0286 40.7911 44.2077 39.4025 47.6734 36.1964C49.8949 34.0775 51.3888 31.4765 52.2294 28.532C52.2525 28.4515 52.2757 28.371 52.2995 28.2881C52.6535 26.9826 52.7668 25.6827 52.7606 24.3335C52.76 24.1858 52.7594 24.0381 52.7588 23.8859C52.7064 19.6601 50.9564 15.8867 48.0673 12.8295C47.9745 12.7279 47.8818 12.6263 47.7862 12.5216C44.9983 9.57784 40.9634 7.96859 36.9498 7.79742C32.3444 7.67274 28.2661 9.40915 24.8992 12.4802Z" fill="#FF6061"/>
<path d="M36.3678 14.1973C36.7753 14.2264 36.7753 14.2264 37.0082 14.4592C37.0396 14.7722 37.0183 15.0753 37.0082 15.3906C37.0787 15.3936 37.1492 15.3966 37.2219 15.3997C38.6076 15.4935 39.6667 16.0254 40.6186 17.0364C41.3368 17.8991 41.5889 18.6921 41.5837 19.8069C41.5486 20.0475 41.5486 20.0475 41.3158 20.2804C40.9083 20.3095 40.9083 20.3095 40.5008 20.2804C40.208 19.9875 40.2021 19.7959 40.1225 19.3926C39.8879 18.4266 39.5002 17.8671 38.6599 17.3334C38.1152 17.015 37.6372 16.8809 37.0082 16.6712C37.0082 18.938 37.0082 21.2047 37.0082 23.5402C37.2002 23.5786 37.3923 23.617 37.5903 23.6566C39.2342 24.3003 41.0199 25.2326 41.7815 26.9164C42.2218 27.9732 42.303 29.0539 41.9416 30.1472C41.6979 30.7388 41.397 31.2175 40.9665 31.6898C40.8964 31.7675 40.8264 31.8453 40.7541 31.9253C39.7892 32.8847 38.3735 33.5282 37.0082 33.5525C37.0154 33.6798 37.0226 33.8071 37.03 33.9382C37.0082 34.3675 37.0082 34.3675 36.8772 34.5931C36.56 34.7728 36.3179 34.7548 35.9603 34.7168C35.7275 34.4839 35.7275 34.4839 35.7048 34.2574C35.7123 34.0225 35.7199 33.7875 35.7275 33.5525C35.6597 33.5509 35.5918 33.5492 35.5219 33.5475C34.129 33.4665 32.915 32.8515 31.8856 31.9226C31.0943 31.0127 30.7308 30.1119 30.584 28.9302C30.611 28.5843 30.7104 28.4404 30.9542 28.1971C31.3689 28.1534 31.3689 28.1534 31.7691 28.1971C32.0838 28.5117 32.07 28.7571 32.1402 29.194C32.3361 30.1411 32.6678 30.7222 33.4332 31.3141C34.1614 31.7888 34.7102 31.9098 35.6111 32.1555C35.6495 29.6198 35.6879 27.0841 35.7275 24.4716C35.3817 24.3563 35.3817 24.3563 35.029 24.2387C33.6272 23.6261 32.1067 22.8249 31.4089 21.3946C31.0105 20.2644 30.9714 19.184 31.4199 18.0683C32.0875 16.7455 33.1864 15.9928 34.5633 15.507C34.9537 15.4312 35.3301 15.3924 35.7275 15.3906C35.7227 15.2417 35.7179 15.0928 35.7129 14.9395C35.7048 14.6857 35.7048 14.6857 35.7275 14.4592C35.9603 14.2264 35.9603 14.2264 36.3678 14.1973ZM33.4709 17.7432C32.9246 18.3489 32.6305 18.9309 32.5404 19.7419C32.6386 20.6908 33.1452 21.3177 33.8647 21.9103C34.4795 22.2176 35.0942 22.525 35.7275 22.8416C35.7275 20.8054 35.7275 18.7692 35.7275 16.6712C34.8948 16.6712 34.045 17.1845 33.4709 17.7432ZM37.0082 25.1701C37.0082 27.4753 37.0082 29.7804 37.0082 32.1555C38.172 32.01 39.1878 31.6414 39.9883 30.747C40.4986 30.0548 40.7067 29.3806 40.6682 28.5191C40.4941 27.4187 39.8567 26.7431 38.9873 26.1015C38.3342 25.7941 37.6811 25.4868 37.0082 25.1701Z" fill="#FF6061"/>
<path d="M20.2403 37.9767C20.4953 38.3592 20.5465 38.4643 20.4731 38.9081C20.2842 39.1478 20.1066 39.3427 19.8874 39.5507C19.8279 39.6093 19.7685 39.6679 19.7073 39.7283C19.5176 39.9147 19.326 40.099 19.1343 40.2833C19.0051 40.4095 18.8761 40.5359 18.7472 40.6624C18.4315 40.9717 18.1139 41.2792 17.7954 41.5858C17.9846 42.078 18.3525 42.393 18.7263 42.7477C18.8673 42.8846 19.0082 43.0216 19.149 43.1586C19.3703 43.3727 19.592 43.5862 19.8151 43.7984C20.0311 44.0044 20.2447 44.2127 20.4581 44.4213C20.5243 44.4832 20.5906 44.5451 20.6588 44.6089C21.1907 45.1339 21.5088 45.7391 21.5271 46.4996C21.324 47.9943 19.3005 49.4157 18.2861 50.4326C18.1932 50.5258 18.1003 50.6191 18.0045 50.7151C17.5138 51.2075 17.0228 51.6996 16.5316 52.1914C16.0259 52.6977 15.5214 53.205 15.0171 53.7126C14.627 54.1049 14.2362 54.4963 13.8452 54.8875C13.6588 55.0742 13.4727 55.2612 13.287 55.4485C13.0271 55.7104 12.7662 55.9711 12.505 56.2315C12.4294 56.3082 12.3538 56.3848 12.276 56.4638C11.6614 57.0729 10.9873 57.6014 10.1479 57.8559C10.0658 57.8817 9.98371 57.9075 9.89913 57.9341C8.33997 58.3484 6.7851 58.2031 5.34591 57.4807C3.93494 56.6529 3.09841 55.5046 2.64818 53.9471C2.30796 52.5225 2.47993 50.9779 3.15935 49.6831C4.06016 48.2453 5.42914 47.0642 6.62065 45.8721C6.80048 45.6918 6.9803 45.5116 7.16012 45.3314C7.53488 44.956 7.90987 44.5807 8.28501 44.2057C8.76542 43.7253 9.24501 43.2441 9.72441 42.7627C10.0946 42.3913 10.4652 42.0203 10.836 41.6496C11.0132 41.4723 11.1901 41.2949 11.3669 41.1172C11.6134 40.8696 11.8606 40.6226 12.1081 40.3759C12.1806 40.3028 12.253 40.2296 12.3277 40.1543C12.9328 39.5536 13.4201 39.1858 14.3027 39.1409C15.1409 39.2474 15.5758 39.6016 16.1655 40.1887C16.232 40.2549 16.2985 40.3211 16.367 40.3893C16.4157 40.4384 16.4645 40.4874 16.5148 40.538C16.9396 40.3598 17.2037 40.1058 17.523 39.7771C17.676 39.6215 17.676 39.6215 17.832 39.4627C17.9376 39.3541 18.0432 39.2455 18.1519 39.1336C18.3614 38.9183 18.5713 38.7035 18.7818 38.4892C18.8746 38.3938 18.9673 38.2983 19.0629 38.2C19.4607 37.839 19.742 37.8234 20.2403 37.9767ZM13.6458 40.8882C13.5665 40.9658 13.4872 41.0435 13.4055 41.1235C13.3203 41.2099 13.2351 41.2962 13.1474 41.3852C13.0562 41.4753 12.9651 41.5654 12.8712 41.6582C12.5695 41.9573 12.27 42.2585 11.9706 42.5599C11.7615 42.7686 11.5523 42.9773 11.343 43.1858C10.904 43.624 10.4661 44.0631 10.0289 44.5031C9.52534 45.0098 9.01971 45.5144 8.51295 46.018C8.02408 46.5039 7.53688 46.9914 7.05034 47.4796C6.84394 47.6864 6.63711 47.8928 6.42984 48.0987C6.13917 48.3879 5.85046 48.6789 5.56216 48.9704C5.47698 49.0544 5.39181 49.1384 5.30406 49.2249C4.29403 50.2559 3.90413 51.2978 3.89603 52.721C3.91696 53.7636 4.28823 54.7331 5.01347 55.4956C5.98991 56.327 7.1092 56.7965 8.39291 56.7535C9.86672 56.6034 10.8768 55.7753 11.8916 54.7586C12.0266 54.6253 12.0266 54.6253 12.1644 54.4893C12.4588 54.1982 12.7519 53.9058 13.0448 53.6133C13.2498 53.4094 13.4548 53.2056 13.6598 53.0018C14.0876 52.576 14.5148 52.1496 14.9415 51.7227C15.38 51.2841 15.8197 50.8467 16.2606 50.4106C16.7941 49.883 17.3258 49.3537 17.8563 48.823C18.0586 48.6211 18.2614 48.4198 18.4649 48.2191C18.7481 47.9393 19.029 47.6574 19.3094 47.3748C19.3942 47.292 19.479 47.2092 19.5663 47.1239C19.6799 47.0081 19.6799 47.0081 19.7957 46.89C19.8956 46.7904 19.8956 46.7904 19.9975 46.6889C20.1528 46.4736 20.1528 46.4736 20.0995 46.1757C19.9776 45.8021 19.7882 45.6143 19.5118 45.3357C19.4065 45.2286 19.3012 45.1214 19.1927 45.011C19.0768 44.8956 18.961 44.7803 18.845 44.6651C18.7265 44.5459 18.608 44.4267 18.4895 44.3074C18.2413 44.0579 17.9922 43.8094 17.7425 43.5614C17.4227 43.2436 17.1053 42.9235 16.7886 42.6026C16.5445 42.356 16.2991 42.1107 16.0532 41.8659C15.9356 41.7484 15.8185 41.6304 15.7018 41.512C15.5385 41.3467 15.3732 41.1835 15.2078 41.0204C15.1143 40.927 15.0209 40.8336 14.9245 40.7374C14.431 40.3763 14.061 40.4743 13.6458 40.8882Z" fill="#FF6061"/>
</svg>
