<svg width="134" height="142" viewBox="0 0 134 142" fill="none" xmlns="http://www.w3.org/2000/svg">
<g clip-path="url(#clip0_4_9885)">
<path d="M77.5119 25.6045H51.7593V117.232H77.5119V25.6045Z" fill="#6496C7"/>
<path d="M77.5137 29.6357H50.6577V33.8564H77.5137V29.6357Z" fill="#F0ECE8"/>
<path d="M77.5137 36.8428H50.6577V41.0635H77.5137V36.8428Z" fill="#F0ECE8"/>
<path d="M77.5137 44.0537H50.6577V48.2744H77.5137V44.0537Z" fill="#F0ECE8"/>
<path d="M77.5137 51.2607H50.6577V55.4814H77.5137V51.2607Z" fill="#F0ECE8"/>
<path d="M77.5137 58.4678H50.6577V62.6885H77.5137V58.4678Z" fill="#F0ECE8"/>
<path d="M77.5137 65.6748H50.6577V69.8955H77.5137V65.6748Z" fill="#F0ECE8"/>
<path d="M77.5137 72.8857H50.6577V77.1064H77.5137V72.8857Z" fill="#F0ECE8"/>
<path d="M77.5137 80.0967H50.6577V84.3174H77.5137V80.0967Z" fill="#F0ECE8"/>
<path d="M77.5137 87.3037H50.6577V91.5244H77.5137V87.3037Z" fill="#F0ECE8"/>
<path d="M77.5137 94.5146H50.6577V98.7354H77.5137V94.5146Z" fill="#F0ECE8"/>
<path d="M77.5137 101.722H50.6577V105.942H77.5137V101.722Z" fill="#F0ECE8"/>
<path d="M77.5137 108.933H50.6577V113.153H77.5137V108.933Z" fill="#F0ECE8"/>
<path d="M77.5097 117.233H95.6187L95.6187 25.6061H77.5097L77.5097 117.233Z" fill="white"/>
<path d="M77.5109 33.8545H96.396V29.6338H77.5109V33.8545Z" fill="#D4D1CD"/>
<path d="M77.5109 41.0654H96.396V36.8447H77.5109V41.0654Z" fill="#D4D1CD"/>
<path d="M77.5109 48.2725H96.396V44.0518H77.5109V48.2725Z" fill="#D4D1CD"/>
<path d="M77.5109 55.4834H96.396V51.2627H77.5109V55.4834Z" fill="#D4D1CD"/>
<path d="M77.5109 62.6865H96.396V58.4658H77.5109V62.6865Z" fill="#D4D1CD"/>
<path d="M77.5109 69.8975H96.396V65.6768H77.5109V69.8975Z" fill="#D4D1CD"/>
<path d="M77.5109 77.1084H96.396V72.8877H77.5109V77.1084Z" fill="#D4D1CD"/>
<path d="M77.5109 84.3154H96.396V80.0947H77.5109V84.3154Z" fill="#D4D1CD"/>
<path d="M77.5109 91.5264H96.396V87.3057H77.5109V91.5264Z" fill="#D4D1CD"/>
<path d="M77.5109 98.7334H96.396V94.5127H77.5109V98.7334Z" fill="#D4D1CD"/>
<path d="M77.5109 105.944H96.396V101.724H77.5109V105.944Z" fill="#D4D1CD"/>
<path d="M77.5109 113.151H96.396V108.931H77.5109V113.151Z" fill="#D4D1CD"/>
<path d="M77.5125 25.6025V6.94824L51.3921 16.2754V25.6025H77.5125Z" fill="#6496C7"/>
<path d="M95.6221 6.94824H77.5132V25.6025H95.6221V6.94824Z" fill="white"/>
<path d="M108.957 31.1396H83.2046V122.767H108.957V31.1396Z" fill="#6496C7"/>
<path d="M108.955 35.1748H82.0991V39.3955H108.955V35.1748Z" fill="#F0ECE8"/>
<path d="M108.955 42.3818H82.0991V46.6025H108.955V42.3818Z" fill="#F0ECE8"/>
<path d="M108.955 49.5889H82.0991V53.8096H108.955V49.5889Z" fill="#F0ECE8"/>
<path d="M108.955 56.7959H82.0991V61.0166H108.955V56.7959Z" fill="#F0ECE8"/>
<path d="M108.955 64.0068H82.0991V68.2275H108.955V64.0068Z" fill="#F0ECE8"/>
<path d="M108.955 71.2139H82.0991V75.4346H108.955V71.2139Z" fill="#F0ECE8"/>
<path d="M108.955 78.4248H82.0991V82.6455H108.955V78.4248Z" fill="#F0ECE8"/>
<path d="M108.955 85.6318H82.0991V89.8525H108.955V85.6318Z" fill="#F0ECE8"/>
<path d="M108.955 92.8428H82.0991V97.0635H108.955V92.8428Z" fill="#F0ECE8"/>
<path d="M108.955 100.054H82.0991V104.274H108.955V100.054Z" fill="#F0ECE8"/>
<path d="M108.955 107.257H82.0991V111.478H108.955V107.257Z" fill="#F0ECE8"/>
<path d="M108.955 114.468H82.0991V118.688H108.955V114.468Z" fill="#F0ECE8"/>
<path d="M108.959 122.765H127.068L127.068 31.1374H108.959L108.959 122.765Z" fill="white"/>
<path d="M108.956 39.3936H127.841V35.1728H108.956V39.3936Z" fill="#D4D1CD"/>
<path d="M108.956 46.6006H127.841V42.3799H108.956V46.6006Z" fill="#D4D1CD"/>
<path d="M108.956 53.8076H127.841V49.5869H108.956V53.8076Z" fill="#D4D1CD"/>
<path d="M108.956 61.0186H127.841V56.7979H108.956V61.0186Z" fill="#D4D1CD"/>
<path d="M108.956 68.2256H127.841V64.0049H108.956V68.2256Z" fill="#D4D1CD"/>
<path d="M108.956 75.4365H127.841V71.2158H108.956V75.4365Z" fill="#D4D1CD"/>
<path d="M108.956 82.6475H127.841V78.4268H108.956V82.6475Z" fill="#D4D1CD"/>
<path d="M108.956 89.8545H127.841V85.6338H108.956V89.8545Z" fill="#D4D1CD"/>
<path d="M108.956 97.0654H127.841V92.8447H108.956V97.0654Z" fill="#D4D1CD"/>
<path d="M108.956 104.269H127.841V100.048H108.956V104.269Z" fill="#D4D1CD"/>
<path d="M108.956 111.479H127.841V107.259H108.956V111.479Z" fill="#D4D1CD"/>
<path d="M108.956 118.687H127.841V114.466H108.956V118.687Z" fill="#D4D1CD"/>
<path d="M83.2046 31.1401V13.4248L108.957 25.312V31.1401H83.2046Z" fill="#6496C7"/>
<path d="M127.046 25.3115H108.958V31.1391H127.046V25.3115Z" fill="white"/>
<path d="M127.045 25.312L102.678 13.4248H83.2046L108.957 25.312H127.045Z" fill="#487298"/>
<path d="M43.2307 38.8936H21.9976V100.363H43.2307V38.8936Z" fill="#6496C7"/>
<path d="M56.4776 38.8936H43.2319V100.363H56.4776V38.8936Z" fill="white"/>
<path d="M26.866 41.4561H23.8999V44.1674H26.866V41.4561Z" fill="#F0ECE8"/>
<path d="M33.8426 41.4561H30.8765V44.1674H33.8426V41.4561Z" fill="#F0ECE8"/>
<path d="M41.073 41.4561H38.1069V44.1674H41.073V41.4561Z" fill="#F0ECE8"/>
<path d="M26.866 47.6865H23.8999V50.3979H26.866V47.6865Z" fill="#F0ECE8"/>
<path d="M33.8426 47.6865H30.8765V50.3979H33.8426V47.6865Z" fill="#F0ECE8"/>
<path d="M41.073 47.6865H38.1069V50.3979H41.073V47.6865Z" fill="#F0ECE8"/>
<path d="M26.866 53.9131H23.8999V56.6245H26.866V53.9131Z" fill="#F0ECE8"/>
<path d="M33.8426 53.9131H30.8765V56.6245H33.8426V53.9131Z" fill="#F0ECE8"/>
<path d="M41.073 53.9131H38.1069V56.6245H41.073V53.9131Z" fill="#F0ECE8"/>
<path d="M26.866 60.1475H23.8999V62.8588H26.866V60.1475Z" fill="#F0ECE8"/>
<path d="M33.8426 60.1475H30.8765V62.8588H33.8426V60.1475Z" fill="#F0ECE8"/>
<path d="M41.073 60.1475H38.1069V62.8588H41.073V60.1475Z" fill="#F0ECE8"/>
<path d="M26.866 66.374H23.8999V69.0854H26.866V66.374Z" fill="#F0ECE8"/>
<path d="M33.8426 66.374H30.8765V69.0854H33.8426V66.374Z" fill="#F0ECE8"/>
<path d="M41.073 66.374H38.1069V69.0854H41.073V66.374Z" fill="#F0ECE8"/>
<path d="M26.866 72.6045H23.8999V75.3159H26.866V72.6045Z" fill="#F0ECE8"/>
<path d="M33.8426 72.6045H30.8765V75.3159H33.8426V72.6045Z" fill="#F0ECE8"/>
<path d="M41.073 72.6045H38.1069V75.3159H41.073V72.6045Z" fill="#F0ECE8"/>
<path d="M26.866 78.8311H23.8999V81.5424H26.866V78.8311Z" fill="#F0ECE8"/>
<path d="M33.8426 78.8311H30.8765V81.5424H33.8426V78.8311Z" fill="#F0ECE8"/>
<path d="M41.073 78.8311H38.1069V81.5424H41.073V78.8311Z" fill="#F0ECE8"/>
<path d="M26.866 85.0615H23.8999V87.7729H26.866V85.0615Z" fill="#F0ECE8"/>
<path d="M33.8426 85.0615H30.8765V87.7729H33.8426V85.0615Z" fill="#F0ECE8"/>
<path d="M41.073 85.0615H38.1069V87.7729H41.073V85.0615Z" fill="#F0ECE8"/>
<path d="M26.866 91.2178H23.8999V98.4795H26.866V91.2178Z" fill="#F0ECE8"/>
<path d="M35.3926 91.2178H29.3257V98.4795H35.3926V91.2178Z" fill="#F0ECE8"/>
<path d="M41.073 91.2178H38.1069V98.4795H41.073V91.2178Z" fill="#F0ECE8"/>
<path d="M130.274 119.866H3.68115V128.821H130.274V119.866Z" fill="#696765"/>
<path d="M133.438 125.702H0.513184V131.943H133.438V125.702Z" fill="#82807E"/>
<path d="M81.7082 67.9482H76.4507V69.6298H81.7082V67.9482Z" fill="#D4D0CC"/>
<path d="M103.813 87.0303H86.8335V114.773H103.813V87.0303Z" fill="#004DC9"/>
<path d="M102.828 88.0342H87.8296V113.774H102.828V88.0342Z" fill="#FFF8EC"/>
<path d="M95.7492 88.0342H94.8452V113.774H95.7492V88.0342Z" fill="#004DC9"/>
<path d="M103.163 100.581H87.4897V101.228H103.163V100.581Z" fill="#004DC9"/>
<path d="M127.613 81.5654H9.15771V120.965H127.613V81.5654Z" fill="#F0ECE8"/>
<path d="M133.64 81.5655H3.43115L8.29449 71.3113L12.7753 61.8662H124.297L129.934 73.753L133.64 81.5655Z" fill="#87A3CF"/>
<path d="M16.4973 83.6865H11.2397V85.3681H16.4973V83.6865Z" fill="#D4D0CC"/>
<path d="M19.1926 112.933H13.9351V114.614H19.1926V112.933Z" fill="#D4D0CC"/>
<path d="M17.4192 111.054H12.1616V112.735H17.4192V111.054Z" fill="#D4D0CC"/>
<path d="M20.0793 96.7217H14.8218V98.4032H20.0793V96.7217Z" fill="#D4D0CC"/>
<path d="M18.3059 94.8428H13.0483V96.5243H18.3059V94.8428Z" fill="#D4D0CC"/>
<path d="M17.2192 80.1084C17.2192 80.1084 15.1602 108.895 29.3289 117.298C43.4976 125.702 34.1486 80.1084 34.1486 80.1084H17.2192Z" fill="#D6D2CE"/>
<path d="M109.889 81.5665H98.9077C100.888 77.7049 104.216 76.52 109.62 80.549C109.62 80.549 109.713 80.9167 109.889 81.5665Z" fill="#E0DCD8"/>
<path d="M127.613 119.845V120.969H97.8816C97.3687 117.266 93.9838 91.1614 98.9086 81.5693H109.89C111.085 85.9932 116.13 103.633 122.21 110.382C125.931 114.512 127.219 117.737 127.613 119.845Z" fill="#E0DCD8"/>
<path d="M123.306 106.421H118.048V108.102H123.306V106.421Z" fill="#D4D0CC"/>
<path d="M120.016 88.3467H103.037V116.09H120.016V88.3467Z" fill="#004DC9"/>
<path d="M119.027 89.3506H104.029V115.09H119.027V89.3506Z" fill="#FFF8EC"/>
<path d="M119.027 108.019V115.09H104.029V89.3506H107.109C107.159 90.3437 107.289 91.3334 107.499 92.3141C109.122 99.8907 114.968 104.223 119.027 108.019Z" fill="#F0ECE8"/>
<path d="M111.948 89.3506H111.044V115.09H111.948V89.3506Z" fill="#004DC9"/>
<path d="M119.366 101.894H103.693V102.541H119.366V101.894Z" fill="#004DC9"/>
<path d="M133.64 81.5692H106.027C99.3951 76.7553 88.5405 68.8272 88.5405 68.5042C88.5405 68.194 90.3713 64.4019 91.6093 61.8713C92.2428 60.577 92.7225 59.6123 92.7225 59.6123C92.7225 59.6123 93.2052 60.2183 96.2943 61.8713C97.2383 62.3774 98.424 62.9811 99.9154 63.6936C104.522 65.8994 121.105 71.0667 129.934 73.7581L133.64 81.5692Z" fill="#004DC9"/>
<path d="M45.6034 61.6162L45.5641 61.8664L42.5254 81.5662H3.43115L8.29449 71.312C23.021 71.8081 39.5907 61.8664 39.5907 61.8664L45.6034 61.6162Z" fill="#004DC9"/>
<path d="M33.5432 88.3467H16.564V116.09H33.5432V88.3467Z" fill="#004DC9"/>
<path d="M32.5545 89.3506H17.5562V115.09H32.5545V89.3506Z" fill="#FFF8EC"/>
<path d="M32.5551 112.923V115.09H17.5562V89.3506H19.9392C19.8119 94.9698 21.2227 105.756 32.5551 112.923Z" fill="#F0ECE8"/>
<path d="M25.4758 89.3506H24.5718V115.09H25.4758V89.3506Z" fill="#004DC9"/>
<path d="M32.8899 101.894H17.2163V102.541H32.8899V101.894Z" fill="#004DC9"/>
<path d="M125.284 59.6084L124.304 61.8674H12.7741L11.7944 59.6084H125.284Z" fill="#27A69B"/>
<path d="M125.284 59.6084L124.304 61.8674H12.7741L11.7944 59.6084H11.8529L13.4143 61.0121L41.6448 61.034L47.2393 59.6084L45.9718 61.0121H91.5727L90.1619 59.6084L96.527 60.7372L122.411 61.0121L124.572 59.6084H125.284Z" fill="#1A706A"/>
<path d="M74.9813 54.3209L68.5374 50.5264L28.3491 74.1895V122.681H108.725V74.1895L74.9813 54.3209Z" fill="#F0ECE8"/>
<path d="M76.3466 122.681H28.3491V74.189L68.5374 50.5264L74.9813 54.3204C72.7483 55.4435 57.2813 63.5238 52.9967 74.189C51.3546 78.2704 51.3528 82.7303 54.3558 87.324C63.8678 101.874 74.4136 116.841 76.3466 122.681Z" fill="#E0DCD8"/>
<path d="M93.7981 62.9951H88.5405V64.6766H93.7981V62.9951Z" fill="#D4D0CC"/>
<path d="M111.526 72.1869L109.244 74.5054L68.8001 50.6919L27.3345 75.1076L25.7822 73.5297L25.0522 72.7891L68.6021 46.9131L111.084 71.9267L111.526 72.1869Z" fill="#438BFF"/>
<path d="M79.4271 95.7276V122.684H54.814V95.7276C54.8135 95.6107 54.8246 95.494 54.8472 95.3784C55.0489 94.3124 56.1534 93.499 57.4861 93.499H76.7549C78.2297 93.499 79.4271 94.4961 79.4271 95.7276Z" fill="#FFF8EC"/>
<path d="M78.8989 95.9484V122.412H55.3374V95.9484C55.3369 95.8338 55.3474 95.7193 55.3688 95.6059C55.5619 94.5594 56.6191 93.7607 57.8952 93.7607H76.3411C77.7532 93.7607 78.8989 94.7397 78.8989 95.9484Z" fill="#004DC9"/>
<path d="M61.4435 95.8545H59.6686C59.3541 95.8545 59.0991 96.0517 59.0991 96.295V109.346C59.0991 109.589 59.3541 109.786 59.6686 109.786H61.4435C61.758 109.786 62.0129 109.589 62.0129 109.346V96.295C62.0129 96.0517 61.758 95.8545 61.4435 95.8545Z" fill="#F0ECE8"/>
<path d="M68.0099 95.8545H66.235C65.9205 95.8545 65.6655 96.0517 65.6655 96.295V109.346C65.6655 109.589 65.9205 109.786 66.235 109.786H68.0099C68.3244 109.786 68.5793 109.589 68.5793 109.346V96.295C68.5793 96.0517 68.3244 95.8545 68.0099 95.8545Z" fill="#F0ECE8"/>
<path d="M74.5763 95.8545H72.8014C72.4869 95.8545 72.2319 96.0517 72.2319 96.295V109.346C72.2319 109.589 72.4869 109.786 72.8014 109.786H74.5763C74.8908 109.786 75.1458 109.589 75.1458 109.346V96.295C75.1458 96.0517 74.8908 95.8545 74.5763 95.8545Z" fill="#F0ECE8"/>
<path d="M74.5765 112.397H59.6686C59.3541 112.397 59.0991 112.595 59.0991 112.838V118.001C59.0991 118.244 59.3541 118.441 59.6686 118.441H74.5765C74.8911 118.441 75.146 118.244 75.146 118.001V112.838C75.146 112.595 74.8911 112.397 74.5765 112.397Z" fill="#F0ECE8"/>
<path d="M55.2712 85.1982H78.6832C78.9681 85.1982 79.2414 85.2858 79.4429 85.4416C79.6444 85.5975 79.7576 85.8089 79.7576 86.0293V91.4996H54.1968V86.0293C54.1968 85.8089 54.31 85.5975 54.5115 85.4416C54.7129 85.2858 54.9862 85.1982 55.2712 85.1982Z" fill="#004DC9"/>
<path d="M79.7567 87.2338V91.5011H78.2604V87.8602C78.2593 87.3206 77.9811 86.8035 77.487 86.4225C76.9929 86.0415 76.3235 85.8279 75.6258 85.8286H55.258C55.1091 85.8282 54.9605 85.8383 54.814 85.8586C55.061 85.6513 55.3611 85.4859 55.6951 85.3729C56.029 85.2599 56.3897 85.2018 56.7542 85.2022H77.1221C77.8197 85.2015 78.4891 85.4152 78.9831 85.7961C79.4771 86.1771 79.7554 86.6942 79.7567 87.2338Z" fill="#3969B7"/>
<path d="M50.1369 87.0303H33.1577V114.773H50.1369V87.0303Z" fill="#004DC9"/>
<path d="M49.1443 88.0342H34.146V113.774H49.1443V88.0342Z" fill="#FFF8EC"/>
<path d="M49.1443 112.031V113.774H34.146V88.0342H35.395C35.395 88.1374 35.395 88.2421 35.395 88.3477C35.3163 101.433 44.2343 108.91 49.1443 112.031Z" fill="#F0ECE8"/>
<path d="M42.0969 88.0342H41.1929V113.774H42.0969V88.0342Z" fill="#004DC9"/>
<path d="M49.511 100.581H33.8374V101.228H49.511V100.581Z" fill="#004DC9"/>
<path d="M103.813 87.0303H86.8335V114.773H103.813V87.0303Z" fill="#004DC9"/>
<path d="M102.828 88.0342H87.8296V113.774H102.828V88.0342Z" fill="#FFF8EC"/>
<path d="M102.828 110.135V113.774H87.8296V88.0342H91.7508C91.6662 89.3685 91.6756 90.7054 91.7791 92.0389C92.0417 95.3796 92.5496 101.794 98.1485 106.898C99.5113 108.136 101.086 109.225 102.828 110.135Z" fill="#F0ECE8"/>
<path d="M95.7492 88.0342H94.8452V113.774H95.7492V88.0342Z" fill="#004DC9"/>
<path d="M103.163 100.581H87.4897V101.228H103.163V100.581Z" fill="#004DC9"/>
<path d="M111.526 72.1881L109.244 74.5065L68.8006 50.6931L27.3349 75.1088L25.7827 73.5309L27.469 73.3402L68.5761 49.042L107.042 72.3317L111.085 71.9279L111.526 72.1881Z" fill="#438BFF"/>
<path d="M54.3918 74.7686H49.1343V76.4501H54.3918V74.7686Z" fill="#D4D0CC"/>
<path d="M43.2278 77.9951H37.9702V79.6766H43.2278V77.9951Z" fill="#D4D0CC"/>
<path d="M120.017 83.4756H114.759V85.1571H120.017V83.4756Z" fill="#D4D0CC"/>
<path d="M127.612 95.7842H124.365V97.4667H127.612V95.7842Z" fill="#D4D0CC"/>
<path d="M67.302 61.9795H62.0444V63.661H67.302V61.9795Z" fill="#D4D0CC"/>
<path d="M72.9153 61.9795H67.6577V63.661H72.9153V61.9795Z" fill="#D4D0CC"/>
<path d="M69.3371 60.0732H64.0796V61.7548H69.3371V60.0732Z" fill="#D4D0CC"/>
<path d="M77.7629 71.2139H72.5054V72.8954H77.7629V71.2139Z" fill="#D4D0CC"/>
<path d="M80.3918 73.0654H75.1343V74.747H80.3918V73.0654Z" fill="#D4D0CC"/>
<path d="M98.7199 81.1982H93.4624V82.8798H98.7199V81.1982Z" fill="#D4D0CC"/>
<path d="M101.349 79.3467H96.0913V81.0282H101.349V79.3467Z" fill="#D4D0CC"/>
<path d="M32.2197 18.9646C31.2763 18.9646 30.403 19.2405 29.6939 19.7066C29.2085 19.2045 28.5976 18.783 27.8976 18.467C27.805 17.9183 27.5609 17.3915 27.1819 16.9222C26.8029 16.453 26.2978 16.0522 25.7009 15.7473C25.104 15.4423 24.4293 15.2402 23.7225 15.1547C23.0158 15.0692 22.2935 15.1023 21.6047 15.2518C20.9159 15.4013 20.2768 15.6636 19.7307 16.0209C19.1845 16.3783 18.7441 16.8223 18.4394 17.3229C18.1347 17.8236 17.9728 18.369 17.9647 18.9223C17.9565 19.4756 18.1024 20.0237 18.3923 20.5296C17.6632 20.3253 16.8722 20.2931 16.1194 20.4371C15.3667 20.581 14.6862 20.8947 14.1642 21.3382C13.4113 20.907 12.4997 20.6736 11.5628 20.6723C9.37532 20.6723 7.54141 21.9366 7.06787 23.6334H36.409C36.4718 23.3666 36.5033 23.0959 36.5031 22.8247C36.4994 20.6918 34.5837 18.9646 32.2197 18.9646Z" fill="#F0ECE8"/>
<path d="M40.7787 21.0342C38.989 21.0342 37.4854 22.1363 37.0562 23.629H44.503C44.0762 22.1363 42.5689 21.0342 40.7787 21.0342Z" fill="#F0ECE8"/>
<path d="M24.2607 30.3889C23.4024 30.3886 22.5606 30.5713 21.8278 30.9169C21.6722 28.44 19.1994 26.4717 16.1736 26.4717C13.6632 26.4717 11.5354 27.8245 10.7931 29.6992C10.3269 29.5601 9.83147 29.4891 9.33186 29.4899C7.17939 29.4899 5.43897 30.7742 5.43897 32.3634C5.43861 32.5068 5.45342 32.65 5.48325 32.7916H28.7827C27.998 31.3755 26.2693 30.3889 24.2607 30.3889Z" fill="#F0ECE8"/>
<path d="M64.1923 3.32162C63.3485 3.32024 62.5345 3.56286 61.9101 4.00184C61.7933 3.50224 61.5458 3.02634 61.1828 2.60332C60.8198 2.18031 60.349 1.81908 59.7991 1.54179C59.2493 1.2645 58.632 1.07698 57.9851 0.990727C57.3383 0.904474 56.6754 0.921304 56.0373 1.04019C55.3991 1.15907 54.7991 1.3775 54.2739 1.68209C53.7488 1.98668 53.3096 2.37101 52.9832 2.81153C52.6569 3.25205 52.4503 3.73948 52.3761 4.24393C52.3019 4.74839 52.3617 5.25925 52.5518 5.74521H67.5864C67.5182 5.08517 67.1311 4.46922 66.5021 4.02008C65.873 3.57093 65.0484 3.32155 64.1923 3.32162Z" fill="#F0ECE8"/>
</g>
<defs>
<clipPath id="clip0_4_9885">
<rect width="133.125" height="141.073" fill="white" transform="translate(0.513184 0.936523)"/>
</clipPath>
</defs>
</svg>
