<svg width="63" height="63" viewBox="0 0 63 63" fill="none" xmlns="http://www.w3.org/2000/svg">
<path d="M31.5 0C25.2699 0 19.1797 1.84744 13.9996 5.30871C8.8194 8.76997 4.78197 13.6896 2.39781 19.4455C0.0136485 25.2013 -0.610157 31.5349 0.605278 37.6453C1.82071 43.7557 4.8208 49.3685 9.22615 53.7739C13.6315 58.1792 19.2443 61.1793 25.3547 62.3947C31.4651 63.6102 37.7987 62.9864 43.5545 60.6022C49.3104 58.218 54.23 54.1806 57.6913 49.0005C61.1526 43.8203 63 37.7301 63 31.5C63 23.1457 59.6813 15.1335 53.7739 9.22614C47.8665 3.31874 39.8543 0 31.5 0ZM30.4185 3.61462C34.1768 3.46417 37.9269 4.07366 41.4441 5.40662C44.9613 6.73958 48.1734 8.76858 50.888 11.3722C53.6025 13.9757 55.7638 17.1003 57.2424 20.5588C58.721 24.0173 59.4865 27.7387 59.493 31.5C59.4979 35.1775 58.7771 38.8197 57.372 42.2182C55.967 45.6166 53.9052 48.7045 51.3048 51.3048C48.7045 53.9052 45.6166 55.9669 42.2182 57.372C38.8197 58.7771 35.1775 59.4978 31.5 59.493C24.192 59.4758 17.1813 56.5972 11.97 51.4738C6.75872 46.3503 3.76126 39.3896 3.61984 32.083C3.47843 24.7763 6.2043 17.7048 11.2135 12.3836C16.2226 7.06232 23.1166 3.91454 30.4185 3.61462ZM31.5 4.9875C31.3977 4.98818 31.2983 5.02208 31.2169 5.0841C31.1355 5.14611 31.0764 5.23289 31.0485 5.33137L28.7306 11.9621C28.7203 12.0467 28.7203 12.1322 28.7306 12.2167C28.7303 12.3464 28.762 12.4742 28.8229 12.5887C28.8838 12.7031 28.972 12.8008 29.0798 12.873C29.3855 13.0849 29.6384 13.3642 29.8192 13.6892C30 14.0143 30.1038 14.3766 30.1226 14.748C30.1413 15.1195 30.0746 15.4904 29.9275 15.832C29.7804 16.1737 29.5568 16.477 29.274 16.7186C28.5968 17.2996 28.0536 18.0205 27.682 18.8317C27.3103 19.6429 27.1191 20.5251 27.1215 21.4174V23.7878L15.3956 17.0573L13.9598 19.5589L27.0506 27.111V28.9275L25.4704 29.8384L12.4031 22.2784L10.9568 24.7826L22.5803 31.5L20.5275 32.6812C19.7568 33.1321 19.0931 33.7449 18.5823 34.4773C18.0715 35.2097 17.7259 36.0442 17.5691 36.9232C17.4999 37.29 17.3475 37.636 17.1237 37.9347C16.8998 38.2333 16.6105 38.4767 16.2779 38.646C15.9453 38.8154 15.5783 38.9062 15.2051 38.9115C14.8319 38.9168 14.4624 38.8365 14.1251 38.6768C14.0129 38.6183 13.8882 38.5878 13.7616 38.5878C13.635 38.5878 13.5103 38.6183 13.398 38.6768C13.32 38.7198 13.2499 38.7757 13.1906 38.8421L8.61789 44.1892C8.55397 44.2668 8.51526 44.362 8.50693 44.4622C8.49861 44.5624 8.52106 44.6627 8.5713 44.7497C8.62153 44.8368 8.69715 44.9064 8.78804 44.9494C8.87893 44.9923 8.98075 45.0064 9.07989 44.9899L15.9915 43.6958C16.0737 43.6748 16.153 43.6439 16.2278 43.6039C16.3404 43.5405 16.4358 43.4503 16.5054 43.3414C16.575 43.2324 16.6166 43.108 16.6268 42.9791C16.6632 42.6119 16.7827 42.2578 16.9763 41.9437C17.1699 41.6295 17.4325 41.3636 17.7442 41.166C18.0559 40.9684 18.4084 40.8444 18.7751 40.8034C19.1419 40.7623 19.5131 40.8053 19.8608 40.929C20.7 41.2229 21.5929 41.332 22.4782 41.2486C23.3636 41.1652 24.2204 40.8914 24.99 40.446L27.0375 39.2621V52.6601H29.9198V37.5506L31.4895 36.6476L33.0593 37.5506V52.6601H35.9468V39.2122L37.9943 40.3935C38.7639 40.8389 39.6207 41.1127 40.5061 41.1961C41.3914 41.2795 42.2843 41.1704 43.1235 40.8765C43.4717 40.7518 43.8437 40.7081 44.2112 40.7488C44.5788 40.7896 44.9322 40.9136 45.2446 41.1116C45.557 41.3095 45.82 41.5762 46.0138 41.8911C46.2076 42.2061 46.3269 42.5612 46.3628 42.9292C46.3672 43.0586 46.4057 43.1845 46.4744 43.2942C46.543 43.4039 46.6395 43.4935 46.7539 43.554C46.8286 43.5941 46.908 43.6249 46.9901 43.6459L53.9044 44.9374C54.0053 44.9609 54.1111 44.9513 54.2061 44.91C54.3012 44.8688 54.3805 44.7981 54.4322 44.7084C54.484 44.6186 54.5056 44.5146 54.4937 44.4117C54.4819 44.3088 54.4372 44.2124 54.3664 44.1367L54.3769 44.1892L49.7989 38.8421C49.7403 38.7791 49.6742 38.7236 49.602 38.6768C49.4887 38.617 49.3626 38.5857 49.2345 38.5857C49.1064 38.5857 48.9803 38.617 48.867 38.6768C48.5092 38.8441 48.1165 38.9231 47.7218 38.9071C47.3272 38.8911 46.9421 38.7806 46.599 38.5849C46.3018 38.4049 46.0465 38.1636 45.85 37.8771C45.6535 37.5905 45.5205 37.2653 45.4598 36.9232C45.2934 36.0457 44.94 35.2142 44.4236 34.4854C43.9073 33.7566 43.24 33.1475 42.4673 32.6996L40.4145 31.5184L52.059 24.8036L50.6179 22.2968L37.5454 29.8384L35.9651 28.9275V27.111L49.0508 19.5589L47.6149 17.0573L35.9625 23.7878V21.4147C35.9701 20.5264 35.7856 19.6468 35.4218 18.8363C35.058 18.0258 34.5234 17.3034 33.8546 16.7186C33.5707 16.4772 33.3463 16.1734 33.199 15.8309C33.0517 15.4885 32.9856 15.1167 33.0056 14.7444C33.0257 14.3722 33.1315 14.0097 33.3147 13.685C33.498 13.3604 33.7537 13.0825 34.062 12.873C34.1657 12.7978 34.2502 12.6991 34.3086 12.5851C34.367 12.4711 34.3976 12.3449 34.398 12.2167C34.4118 12.1324 34.4118 12.0464 34.398 11.9621L31.9725 5.32875C31.9417 5.22817 31.8788 5.14042 31.7935 5.07882C31.7083 5.01723 31.6052 4.98516 31.5 4.9875ZM31.5551 19.4565C31.9628 19.4701 32.3493 19.6413 32.6332 19.9341C32.9172 20.2269 33.0765 20.6184 33.0776 21.0263V25.4625L31.5105 26.3734L29.9408 25.4599V21.0263C29.9417 20.8167 29.9845 20.6095 30.0666 20.4167C30.1487 20.2239 30.2684 20.0495 30.4187 19.9035C30.5691 19.7576 30.747 19.6431 30.9421 19.5668C31.1373 19.4905 31.3457 19.4513 31.5551 19.4565ZM31.5105 29.4787L33.3139 30.5051V32.5553L31.5105 33.5816L29.7045 32.5579V30.5051L31.5105 29.4787ZM37.5454 33.1616L41.3779 35.385C41.7393 35.5923 42.0038 35.9345 42.1135 36.3364C42.2232 36.7384 42.1692 37.1674 41.9633 37.5296V37.5401C41.8597 37.7192 41.7219 37.8762 41.5577 38.002C41.3934 38.1279 41.206 38.2201 41.0061 38.2735C40.8062 38.3269 40.5978 38.3404 40.3927 38.3132C40.1876 38.286 39.9898 38.2186 39.8108 38.115L35.9651 35.8995V34.0725L37.5454 33.1616ZM25.4809 33.1721L27.0611 34.083V35.8995L23.2155 38.115C23.0369 38.2181 22.8398 38.285 22.6354 38.3119C22.431 38.3387 22.2233 38.3251 22.0241 38.2717C21.825 38.2183 21.6383 38.1263 21.4748 38.0007C21.3112 37.8752 21.174 37.7187 21.0709 37.5401C20.9678 37.3616 20.9009 37.1644 20.874 36.96C20.8471 36.7556 20.8608 36.5479 20.9142 36.3488C20.9675 36.1496 21.0596 35.9629 21.1852 35.7994C21.3107 35.6358 21.4672 35.4986 21.6458 35.3955L25.4809 33.1721Z" fill="#7F848D"/>
</svg>
