<svg width="32" height="35" viewBox="0 0 32 35" fill="none" xmlns="http://www.w3.org/2000/svg">
<path fill-rule="evenodd" clip-rule="evenodd" d="M23.3867 8.40885C22.7376 8.40885 22.1992 7.87052 22.1992 7.22135V5.28335C20.9737 5.24219 19.5345 5.24219 17.8451 5.24219H14.6784C12.9874 5.24219 11.5497 5.24219 10.3242 5.28335V7.22135C10.3242 7.87052 9.78589 8.40885 9.13672 8.40885C8.48755 8.40885 7.94922 7.87052 7.94922 7.22135V5.45435C6.45297 5.6491 5.42539 6.02435 4.70339 6.74635C3.75022 7.69952 3.40189 9.18469 3.27364 11.5755H29.2498C29.1216 9.18469 28.7716 7.69952 27.8201 6.74635C27.0981 6.02435 26.0705 5.6491 24.5742 5.45435V7.22135C24.5742 7.87052 24.0359 8.40885 23.3867 8.40885ZM29.3147 13.9505C29.3232 14.7876 29.3263 15.7112 29.3242 16.7214V18.3047C29.3242 18.9539 29.8626 19.4922 30.5117 19.4922C31.1609 19.4922 31.6992 18.9539 31.6992 18.3047V16.7214C31.6992 10.4197 31.6992 7.26885 29.4984 5.06802C28.2761 3.84569 26.7592 3.3026 24.5742 3.06035V1.67969C24.5742 1.03052 24.0359 0.492188 23.3867 0.492188C22.7376 0.492188 22.1992 1.03052 22.1992 1.67969V2.90677C20.9389 2.86719 19.4996 2.86719 17.8451 2.86719H14.6784C13.0222 2.86719 11.5846 2.86719 10.3242 2.90677V1.67969C10.3242 1.03052 9.78589 0.492188 9.13672 0.492188C8.48755 0.492188 7.94922 1.03052 7.94922 1.67969V3.06035C5.76422 3.3026 4.24739 3.84569 3.02505 5.06802C0.824219 7.26885 0.824219 10.4355 0.824219 16.7214V19.888C0.824219 26.1897 0.824219 29.3405 3.02505 31.5414C5.22589 33.7422 8.37672 33.7422 14.6784 33.7422C15.3276 33.7422 15.8659 33.2039 15.8659 32.5547C15.8659 31.9055 15.3276 31.3672 14.6784 31.3672C9.04172 31.3672 6.20755 31.3672 4.70339 29.863C3.19922 28.3589 3.19922 25.5247 3.19922 19.888V16.7214C3.19816 15.7122 3.2008 14.7886 3.20714 13.9505H29.3147ZM24.1784 34.5339C20.0301 34.5339 16.6576 31.1614 16.6576 27.013C16.6576 22.8647 20.0301 19.4922 24.1784 19.4922C28.3267 19.4922 31.6992 22.8647 31.6992 27.013C31.6992 31.1614 28.3267 34.5339 24.1784 34.5339ZM24.1784 21.8672C21.3442 21.8672 19.0326 24.1789 19.0326 27.013C19.0326 29.8472 21.3442 32.1589 24.1784 32.1589C27.0126 32.1589 29.3242 29.8472 29.3242 27.013C29.3242 24.1789 27.0126 21.8672 24.1784 21.8672ZM24.9226 29.4355C25.1601 29.673 25.4609 29.7839 25.7617 29.7839C26.0626 29.7839 26.3634 29.673 26.6009 29.4355C27.0601 28.9764 27.0601 28.2164 26.6009 27.7572L25.3659 26.5222V23.8464C25.3659 23.1972 24.8276 22.6589 24.1784 22.6589C23.5292 22.6589 22.9909 23.1972 22.9909 23.8464V27.013C22.9909 27.3297 23.1176 27.6305 23.3392 27.8522L24.9226 29.4355Z" fill="#004DC9"/>
</svg>
