<svg width="60" height="58" viewBox="0 0 60 58" fill="none" xmlns="http://www.w3.org/2000/svg">
<g filter="url(#filter0_d_4_9540)">
<path d="M11.5566 5.43666C11.6251 5.43596 11.6937 5.43525 11.7643 5.43453C11.9898 5.43255 12.2152 5.43213 12.4407 5.4319C12.5982 5.43123 12.7557 5.43052 12.9131 5.42979C13.2428 5.42854 13.5725 5.42815 13.9021 5.42827C14.3237 5.42829 14.7451 5.42543 15.1666 5.42182C15.4917 5.41949 15.8169 5.41907 16.142 5.41918C16.2974 5.41893 16.4527 5.41801 16.6081 5.41638C16.8258 5.41432 17.0433 5.41494 17.261 5.4162C17.3846 5.4159 17.5082 5.4156 17.6355 5.41529C18.0541 5.4786 18.2793 5.62201 18.6068 5.88622C18.9316 6.44538 18.9699 6.93435 18.9604 7.56271C18.9616 7.64321 18.9628 7.72371 18.9641 7.80665C18.9609 8.42815 18.8679 8.978 18.4103 9.43566C18.1876 9.55354 18.1876 9.55354 17.6637 9.65832C17.6983 10.4882 17.7329 11.318 17.7685 12.173C18.0386 11.9613 18.3088 11.7495 18.5871 11.5313C19.5101 10.8113 20.4485 10.1142 21.3935 9.42348C21.7322 9.17568 22.0704 8.92707 22.4084 8.6782C22.5753 8.55528 22.7424 8.43253 22.9097 8.30994C23.3092 8.01637 23.7058 7.71994 24.0971 7.41536C25.1698 6.58253 25.9685 6.0544 27.3694 6.04012C28.2027 6.17144 28.8662 6.62109 29.5301 7.11739C29.6102 7.17623 29.6903 7.23506 29.7729 7.29567C30.4967 7.82978 31.2114 8.37623 31.9254 8.92332C32.528 9.38466 33.1352 9.83869 33.7475 10.287C34.4522 10.8031 35.1495 11.3279 35.8431 11.8587C36.8643 12.6399 37.8969 13.4044 38.9342 14.1639C40.066 14.9927 41.1902 15.83 42.3043 16.6826C42.985 17.2027 43.6726 17.7125 44.3637 18.2186C45.0999 18.7591 45.8258 19.3127 46.551 19.8678C47.0271 20.2317 47.5049 20.5916 47.9911 20.9419C48.0766 21.004 48.1621 21.0661 48.2502 21.1301C48.3856 21.2283 48.5216 21.3257 48.6587 21.4216C49.2139 21.8369 49.6026 22.4921 49.7265 23.175C49.8172 24.2854 49.6702 25.0493 48.98 25.9255C48.3276 26.6136 47.6799 26.8719 46.7337 26.9012C46.0746 26.8799 45.5765 26.759 45.0114 26.4232C44.9423 26.3886 44.8731 26.354 44.8019 26.3184C44.5449 28.2329 44.5449 28.2329 44.958 30.0429C45.3408 30.4231 45.7842 30.6245 46.2783 30.8253C46.6704 31.028 46.9116 31.3762 47.107 31.767C47.1646 32.2921 47.1659 32.6992 46.9237 33.175C46.6182 33.5229 46.3941 33.7161 45.9544 33.8626C45.7909 33.8697 45.627 33.8715 45.4633 33.8691C45.3786 33.8682 45.2939 33.8673 45.2066 33.8663C45.11 33.8645 45.11 33.8645 45.0114 33.8626C44.9987 33.9246 44.986 33.9866 44.9729 34.0505C44.8786 34.4953 44.7804 34.913 44.5923 35.3295C44.6701 35.3555 44.7479 35.3814 44.828 35.4081C45.1422 35.5509 45.3131 35.6964 45.5353 35.9582C45.7182 36.5067 45.71 37.003 45.4829 37.5299C45.4311 37.6336 45.3792 37.7374 45.3258 37.8442C45.4518 37.8795 45.4518 37.8795 45.5803 37.9155C46.0568 38.0917 46.4731 38.3346 46.9106 38.5908C47.1078 38.7049 47.3051 38.8189 47.5024 38.933C47.6077 38.9941 47.713 39.0552 47.8216 39.1182C48.3498 39.4241 48.8797 39.7272 49.4097 40.0301C49.5962 40.1367 49.7825 40.2433 49.9689 40.35C50.9167 40.892 51.8686 41.4263 52.8246 41.9538C55.2626 43.3078 55.2626 43.3078 55.5558 44.2363C55.6783 44.9024 55.6317 45.5364 55.2799 46.1219C54.7574 46.709 54.2577 47.0136 53.4724 47.1042C52.3453 46.9915 51.6331 46.3549 50.7973 45.6512C50.3776 45.2985 49.9446 44.9677 49.5039 44.6419C48.8618 44.1652 48.2299 43.6778 47.6027 43.1819C47.0604 42.7533 46.5139 42.3303 45.9678 41.9066C45.8919 41.8477 45.8161 41.7888 45.7379 41.7281C45.671 41.6762 45.604 41.6242 45.5351 41.5707C45.2892 41.3782 45.0456 41.1829 44.8019 40.9877C44.8012 41.0659 44.8006 41.1441 44.8 41.2247C44.7939 41.9646 44.7863 42.7044 44.7772 43.4443C44.7725 43.8246 44.7684 44.2049 44.7656 44.5852C44.7628 44.9528 44.7586 45.3203 44.7533 45.6879C44.7507 45.8952 44.7497 46.1025 44.7487 46.3098C44.7342 47.2017 44.6645 47.958 44.0618 48.6628C43.9822 48.7609 43.9822 48.7609 43.901 48.8609C43.1158 49.4687 42.2563 49.5356 41.2957 49.5274C41.104 49.5283 41.104 49.5283 40.9084 49.5291C40.5563 49.5303 40.2044 49.5296 39.8523 49.5281C39.4716 49.527 39.0909 49.5282 38.7102 49.5292C37.9656 49.5306 37.221 49.5298 36.4763 49.5282C35.6086 49.5265 34.7408 49.5268 33.8731 49.5272C32.3247 49.5278 30.7763 49.5263 29.2279 49.5238C27.7263 49.5213 26.2247 49.5205 24.7232 49.5216C23.0866 49.5228 21.4501 49.523 19.8136 49.5215C19.639 49.5213 19.4645 49.5212 19.2899 49.521C19.1611 49.5209 19.1611 49.5209 19.0297 49.5208C18.4252 49.5203 17.8207 49.5205 17.2162 49.5209C16.4794 49.5214 15.7427 49.5208 15.0059 49.5187C14.6302 49.5177 14.2545 49.5172 13.8787 49.518C13.4712 49.5189 13.0636 49.5173 12.6561 49.5155C12.4786 49.5164 12.4786 49.5164 12.2975 49.5174C11.4987 49.511 10.7755 49.4229 10.1457 48.8789C10.0901 48.8331 10.0344 48.7874 9.9771 48.7402C9.47882 48.1363 9.32398 47.5467 9.3317 46.7773C9.33091 46.6889 9.33012 46.6005 9.32931 46.5094C9.3272 46.2151 9.32804 45.9209 9.32888 45.6266C9.32796 45.4149 9.32686 45.2032 9.32559 44.9914C9.32268 44.418 9.32232 43.8446 9.32242 43.2712C9.32209 42.6714 9.31941 42.0716 9.31697 41.4718C9.31273 40.3367 9.31059 39.2016 9.30922 38.0664C9.30756 36.7738 9.30353 35.4813 9.29931 34.1887C9.29068 31.5303 9.28501 28.872 9.28129 26.2136C9.22443 26.2502 9.16757 26.2868 9.10898 26.3245C9.03402 26.3722 8.95905 26.4199 8.88182 26.469C8.80767 26.5164 8.73351 26.5638 8.65711 26.6127C7.99414 26.9993 7.00061 26.9529 6.26968 26.7707C5.38069 26.4 4.86213 25.8588 4.45567 24.9947C4.14112 24.2071 4.17434 23.4461 4.47204 22.6568C5.01463 21.4159 6.30958 20.6839 7.36619 19.9137C8.2056 19.3004 9.02903 18.6658 9.85398 18.0332C10.1195 17.8312 10.1195 17.8312 10.3332 17.728C10.6058 17.5765 10.7682 17.4522 10.9578 17.2025C11.0839 16.6339 11.0702 16.0697 11.0626 15.4908C11.0633 15.3226 11.0645 15.1543 11.066 14.9861C11.069 14.5447 11.067 14.1035 11.0639 13.6621C11.0617 13.2112 11.0642 12.7603 11.0662 12.3093C11.0696 11.4256 11.0678 10.542 11.0626 9.65832C10.9467 9.62887 10.8309 9.59943 10.7116 9.56909C10.3291 9.44876 10.3291 9.44876 10.077 9.19991C9.83599 8.6518 9.849 8.15489 9.85759 7.56271C9.85597 7.45087 9.85435 7.33904 9.85268 7.22381C9.85588 6.57928 9.87294 6.15157 10.3291 5.67666C10.7443 5.46557 11.0943 5.43965 11.5566 5.43666ZM12.2151 9.65832C12.2151 11.8713 12.2151 14.0842 12.2151 16.3643C12.9415 15.88 13.6313 15.3867 14.3052 14.8361C14.6951 14.5216 15.0587 14.2472 15.5157 14.0386C15.9916 13.8052 16.3756 13.6074 16.6159 13.1161C16.8124 11.9654 16.6849 10.821 16.6159 9.65832C15.1637 9.65832 13.7114 9.65832 12.2151 9.65832ZM26.9892 12.9065C25.9513 13.6651 24.919 14.4303 23.8982 15.2117C23.1243 15.804 22.3443 16.3867 21.558 16.9624C20.9329 17.4213 20.3158 17.8899 19.7004 18.3616C18.9537 18.9337 18.199 19.4917 17.4339 20.0388C16.7275 20.546 16.0371 21.073 15.3469 21.6018C14.8274 21.9994 14.3064 22.3944 13.778 22.7801C13.6147 22.9008 13.4526 23.0232 13.2924 23.148C12.8698 23.4729 12.4749 23.7341 11.9822 23.94C11.3108 24.2573 10.8085 24.617 10.4339 25.2706C9.99407 26.7004 10.1744 28.3748 10.2076 29.849C10.2192 30.4592 10.2191 31.0694 10.2205 31.6796C10.2243 32.7032 10.2358 33.7265 10.2528 34.75C10.2766 36.1927 10.2859 37.6353 10.2927 39.0783C10.2979 40.0795 10.3066 41.0806 10.3159 42.0817C10.3182 42.324 10.3203 42.5663 10.3224 42.8087C10.3284 43.4988 10.3365 44.1889 10.3481 44.879C10.3514 45.0879 10.3539 45.2968 10.3557 45.5056C10.3583 45.791 10.3635 46.0762 10.3694 46.3615C10.3696 46.4439 10.3698 46.5263 10.37 46.6112C10.3859 47.1888 10.5121 47.5368 10.853 48.0079C11.2276 48.3081 11.5069 48.3614 11.9809 48.3601C12.1015 48.3605 12.2221 48.361 12.3464 48.3614C12.5435 48.3597 12.5435 48.3597 12.7445 48.358C12.885 48.3579 13.0254 48.3579 13.1659 48.3581C13.5465 48.3582 13.927 48.3564 14.3075 48.3542C14.7055 48.3522 15.1035 48.352 15.5015 48.3516C16.2548 48.3507 17.0081 48.3481 17.7614 48.3449C18.6191 48.3414 19.4769 48.3397 20.3346 48.3381C22.0988 48.3348 23.8629 48.3293 25.627 48.3223C25.6297 48.2086 25.6324 48.0948 25.6352 47.9777C25.6411 47.8262 25.6471 47.6748 25.6532 47.5233C25.6547 47.4486 25.6562 47.374 25.6577 47.297C25.6824 46.7597 25.8043 46.4475 26.1509 46.0171C26.6103 45.6253 27.1432 45.6306 27.7226 45.598C27.7266 45.4843 27.7305 45.3705 27.7345 45.2534C27.7414 45.1019 27.7484 44.9505 27.7554 44.799C27.7589 44.687 27.7589 44.687 27.7626 44.5727C27.7875 44.0785 27.8589 43.7138 28.1418 43.2928C28.6126 42.9112 28.9807 42.8122 29.5728 42.8165C29.6506 42.8154 29.7284 42.8143 29.8085 42.8132C30.0636 42.8102 30.3187 42.81 30.5738 42.8099C30.7515 42.8083 30.9291 42.8065 31.1067 42.8046C31.5729 42.8 32.039 42.7979 32.5051 42.7964C32.9813 42.7943 33.4575 42.7899 33.9338 42.7857C34.8671 42.7778 35.8004 42.7726 36.7338 42.7689C36.4584 42.4796 36.1858 42.2481 35.8505 42.0316C35.7596 41.9725 35.6687 41.9134 35.575 41.8525C35.4776 41.7898 35.3803 41.7272 35.2799 41.6626C35.0731 41.5279 34.8663 41.3932 34.6594 41.2584C34.334 41.0473 34.0085 40.8364 33.6826 40.6259C33.3676 40.4221 33.0533 40.2173 32.739 40.0123C32.6416 39.9499 32.5443 39.8874 32.444 39.8231C31.9716 39.5142 31.6282 39.2418 31.2852 38.7873C30.9532 38.7435 30.9532 38.7435 30.6565 38.7873C30.5873 38.9602 30.5182 39.133 30.4469 39.3112C30.2049 39.3112 29.9629 39.3112 29.7135 39.3112C29.6097 39.0518 29.6097 39.0518 29.5039 38.7873C28.9853 38.7873 28.4666 38.7873 27.9322 38.7873C28.298 39.2918 28.298 39.2918 28.6395 39.5207C28.8752 39.7303 28.8752 39.7303 28.9211 40.0053C28.8752 40.2542 28.8752 40.2542 28.6657 40.4638C28.1147 40.4472 27.7762 40.2121 27.369 39.8678C27.2833 39.8015 27.2833 39.8015 27.1959 39.7338C26.8977 39.486 26.7856 39.3586 26.7362 38.9686C26.7796 38.6825 26.7796 38.6825 26.8844 38.5777C27.1264 38.5777 27.3685 38.5777 27.6179 38.5777C27.6524 36.3647 27.687 34.1518 27.7226 31.8718C28.0069 31.7296 28.2308 31.7529 28.549 31.7518C28.7431 31.7508 28.7431 31.7508 28.9411 31.7497C29.0828 31.7496 29.2246 31.7495 29.3664 31.7494C29.5112 31.749 29.6561 31.7487 29.8009 31.7483C30.1046 31.7477 30.4084 31.7475 30.7121 31.7476C31.1018 31.7476 31.4915 31.7461 31.8812 31.7443C32.1803 31.7432 32.4795 31.743 32.7786 31.743C32.9223 31.7429 33.066 31.7424 33.2097 31.7416C33.4104 31.7406 33.6111 31.741 33.8118 31.7415C33.9261 31.7414 34.0404 31.7412 34.1582 31.7411C34.4286 31.767 34.4286 31.767 34.6382 31.9765C34.6815 32.2033 34.6815 32.2033 34.7036 32.4612C34.7154 32.5896 34.7154 32.5896 34.7274 32.7206C34.7325 32.7863 34.7376 32.8519 34.7429 32.9196C35.0265 32.5654 35.0265 32.5654 35.3091 32.2105C36.1628 31.1369 37.017 30.1098 38.0959 29.2523C38.0613 29.1464 38.0268 29.0405 37.9911 28.9314C37.8444 28.408 37.8209 27.9709 38.0042 27.4513C38.2932 27.0178 38.5578 26.8084 39.0676 26.6753C40.0175 26.5726 40.6809 27.1081 41.4236 27.6229C41.7606 27.8559 42.102 28.0821 42.4432 28.3087C42.6125 28.4214 42.7814 28.5347 42.9498 28.6486C43.026 28.7001 43.1021 28.7515 43.1806 28.8045C43.2823 28.8735 43.2823 28.8735 43.3861 28.9439C43.5282 29.0519 43.5282 29.0519 43.6493 29.0427C43.9255 26.9658 43.9255 26.9658 43.4996 24.9853C43.0947 24.5455 42.5787 24.3055 42.0438 24.0543C41.5399 23.7924 41.1124 23.4294 40.6696 23.0768C40.4834 22.9335 40.2969 22.7906 40.1101 22.6482C40.0186 22.5784 39.9272 22.5086 39.833 22.4367C39.4144 22.1195 38.9912 21.8088 38.5674 21.4985C37.8628 20.9824 37.1654 20.4577 36.4718 19.9268C35.4507 19.1456 34.4181 18.3812 33.3808 17.6216C32.2504 16.7939 31.1278 15.9576 30.0151 15.1063C29.3707 14.6142 28.7222 14.1279 28.0697 13.6465C27.985 13.5839 27.9004 13.5213 27.8131 13.4568C27.7353 13.3996 27.6575 13.3424 27.5773 13.2835C27.509 13.2332 27.4407 13.183 27.3704 13.1312C27.198 13.0045 27.198 13.0045 26.9892 12.9065ZM37.3669 31.3348C36.018 32.7551 34.219 35.1714 34.219 37.2156C34.3949 37.3785 34.3949 37.3785 34.6339 37.5269C34.7699 37.6171 34.7698 37.6171 34.9085 37.7091C35.0077 37.7733 35.1069 37.8375 35.2091 37.9036C35.3102 37.9701 35.4113 38.0366 35.5155 38.1051C35.73 38.2459 35.9448 38.3862 36.16 38.526C36.489 38.7398 36.8168 38.9552 37.1445 39.171C37.3528 39.3075 37.5612 39.4438 37.7697 39.5801C37.8678 39.6445 37.966 39.7089 38.0671 39.7752C38.2055 39.8649 38.2055 39.8649 38.3467 39.9565C38.4274 40.009 38.5082 40.0616 38.5913 40.1158C38.8384 40.2595 39.0857 40.3643 39.3533 40.4638C41.594 38.4343 43.3704 36.2368 44.0684 33.2339C43.1425 32.5411 42.1856 31.8981 41.223 31.258C40.9609 31.0837 40.6992 30.9088 40.4375 30.7339C40.2712 30.6231 40.1049 30.5123 39.9386 30.4016C39.8602 30.3492 39.7819 30.2968 39.7011 30.2428C38.763 29.6203 38.0812 30.6252 37.3669 31.3348ZM28.6657 32.8148C28.6657 34.4399 28.6657 36.0651 28.6657 37.7395C28.8386 37.7395 29.0114 37.7395 29.1896 37.7395C29.2242 37.4974 29.2587 37.2554 29.2944 37.006C29.5018 37.006 29.7093 37.006 29.923 37.006C30.0786 37.3691 30.0786 37.3691 30.2374 37.7395C30.5647 37.7908 30.8554 37.8125 31.1804 37.7395C31.3565 37.5427 31.4607 37.3425 31.5823 37.1087C31.7727 36.7849 31.9808 36.6974 32.333 36.5869C32.6182 36.5647 32.8842 36.572 33.1712 36.5869C33.9273 35.3939 33.6883 34.1706 33.5904 32.8148C31.9652 32.8148 30.3401 32.8148 28.6657 32.8148ZM44.0684 36.2725C44.0137 36.3765 43.959 36.4805 43.9026 36.5877C43.4451 37.4381 42.9586 38.2123 42.3349 38.9517C42.036 39.2925 42.036 39.2925 41.9728 39.7303C42.1802 39.7649 42.3877 39.7994 42.6015 39.8351C42.891 39.4114 43.1783 38.9864 43.4636 38.5599C43.5609 38.4149 43.6589 38.2704 43.7575 38.1263C43.899 37.9193 44.0383 37.7109 44.1773 37.5021C44.2219 37.4378 44.2665 37.3735 44.3125 37.3072C44.4505 37.1054 44.4505 37.1054 44.5923 36.7964C44.5521 36.5442 44.5521 36.5442 44.3827 36.3773C44.279 36.3427 44.1753 36.3082 44.0684 36.2725ZM43.5445 40.2542C43.4602 40.3385 43.3759 40.4228 43.2891 40.5096C42.9624 40.8362 42.8968 40.8738 42.4377 40.9222C41.875 40.9201 41.4977 40.6515 41.0298 40.359C40.6148 40.722 40.6148 40.722 40.1915 41.0924C40.2261 41.2308 40.2607 41.3691 40.2963 41.5116C40.4128 42.1654 40.4604 42.6069 40.0867 43.188C39.9573 43.4116 39.9573 43.4116 39.8772 43.6072C39.9118 43.6763 39.9463 43.7455 39.982 43.8167C40.0063 44.1184 40.0259 44.4183 40.0409 44.7205C40.0454 44.8045 40.0499 44.8885 40.0546 44.975C40.0657 45.1827 40.0763 45.3903 40.0867 45.598C40.1778 45.6046 40.2688 45.6112 40.3626 45.6181C41.4746 45.7362 41.4746 45.7362 41.8353 46.0761C42.2734 46.6893 42.2397 47.596 42.2871 48.3223C42.7309 48.2788 42.7309 48.2788 43.111 48.0653C43.1612 48.0031 43.2113 47.941 43.2629 47.877C43.3144 47.8159 43.3658 47.7549 43.4188 47.692C43.6809 47.2583 43.6621 46.7796 43.6612 46.2851C43.6612 46.1509 43.6612 46.0166 43.6611 45.8784C43.6606 45.7329 43.6601 45.5875 43.6595 45.4421C43.6593 45.2925 43.6592 45.1429 43.6591 44.9933C43.6587 44.6007 43.6576 44.2081 43.6565 43.8155C43.6554 43.4145 43.6549 43.0134 43.6544 42.6124C43.6533 41.8263 43.6515 41.0403 43.6493 40.2542C43.6147 40.2542 43.5801 40.2542 43.5445 40.2542ZM28.7705 44.2359C28.7705 44.6854 28.7705 45.1349 28.7705 45.598C32.159 45.598 35.5476 45.598 39.0389 45.598C39.0389 45.1485 39.0389 44.699 39.0389 44.2359C38.6076 43.8045 38.5429 43.7684 37.9739 43.7599C37.8448 43.7612 37.8448 43.7612 37.7132 43.7625C37.6218 43.7618 37.5305 43.761 37.4363 43.7603C37.1344 43.7584 36.8327 43.7597 36.5308 43.7611C36.3209 43.7608 36.1111 43.7604 35.9013 43.7599C35.4616 43.7592 35.0219 43.7601 34.5822 43.7621C34.0184 43.7645 33.4547 43.7631 32.8909 43.7606C32.4577 43.7591 32.0244 43.7596 31.5912 43.7606C31.3833 43.7609 31.1754 43.7606 30.9675 43.7596C30.677 43.7585 30.3867 43.7602 30.0962 43.7625C30.0102 43.7617 29.9241 43.7608 29.8355 43.7599C29.2665 43.7684 29.2018 43.8045 28.7705 44.2359Z" fill="#004DC9"/>
<path d="M28.4602 23.8797C28.5937 23.8787 28.7273 23.8777 28.8649 23.8766C29.0113 23.8767 29.1577 23.8768 29.3042 23.8769C29.4537 23.8765 29.6032 23.8761 29.7528 23.8756C30.0664 23.8748 30.3799 23.8748 30.6935 23.8754C31.0959 23.876 31.4983 23.8742 31.9007 23.8718C32.2095 23.8702 32.5184 23.8701 32.8272 23.8705C32.9756 23.8704 33.124 23.8699 33.2724 23.8688C33.4796 23.8675 33.6868 23.8684 33.894 23.8694C34.0711 23.8693 34.0711 23.8693 34.2517 23.8692C34.3436 23.8822 34.4354 23.8951 34.5301 23.9084C34.7735 24.2735 34.7666 24.4186 34.7684 24.8498C34.7694 24.9789 34.7704 25.1079 34.7714 25.2408C34.7714 25.3817 34.7713 25.5226 34.7712 25.6635C34.7716 25.808 34.772 25.9524 34.7725 26.0969C34.7733 26.3995 34.7733 26.7021 34.7727 27.0048C34.7721 27.3927 34.7739 27.7806 34.7763 28.1686C34.7779 28.4668 34.7779 28.7651 34.7776 29.0633C34.7777 29.2064 34.7782 29.3494 34.7793 29.4924C34.7806 29.6923 34.7797 29.8922 34.7786 30.0921C34.7787 30.2059 34.7788 30.3196 34.7788 30.4369C34.7396 30.7192 34.7396 30.7192 34.6199 30.9131C34.3378 31.0877 34.1175 31.0727 33.787 31.0725C33.6555 31.0732 33.524 31.0738 33.3886 31.0745C33.2451 31.0736 33.1015 31.0726 32.958 31.0716C32.8109 31.0715 32.6639 31.0716 32.5168 31.0717C32.2088 31.0717 31.9008 31.0706 31.5928 31.0687C31.1975 31.0664 30.8023 31.0663 30.4071 31.067C30.1036 31.0674 29.8 31.0667 29.4965 31.0656C29.3507 31.0652 29.2049 31.0651 29.0592 31.0653C28.8558 31.0653 28.6523 31.0638 28.4489 31.0623C28.2751 31.0616 28.2751 31.0616 28.0978 31.0608C27.8241 31.0335 27.8241 31.0335 27.6146 30.8239C27.588 30.5456 27.588 30.5456 27.5875 30.1879C27.5868 30.0543 27.5861 29.9208 27.5854 29.7832C27.5858 29.6367 27.5863 29.4903 27.5867 29.3439C27.5866 29.1944 27.5864 29.0448 27.5861 28.8953C27.5858 28.5817 27.5863 28.2681 27.5872 27.9546C27.5884 27.5522 27.5878 27.1498 27.5865 26.7474C27.5857 26.4385 27.586 26.1297 27.5865 25.8208C27.5867 25.6725 27.5865 25.5241 27.586 25.3757C27.5855 25.1685 27.5864 24.9613 27.5875 24.7541C27.5876 24.636 27.5878 24.518 27.588 24.3964C27.642 23.8307 27.976 23.8816 28.4602 23.8797ZM28.6624 24.9562C28.6624 26.616 28.6624 28.2757 28.6624 29.9857C30.2875 29.9857 31.9127 29.9857 33.587 29.9857C33.587 28.326 33.587 26.6663 33.587 24.9562C31.9619 24.9562 30.3368 24.9562 28.6624 24.9562Z" fill="#004DC9"/>
<path d="M20.4929 31.6212C20.6219 31.6202 20.7509 31.6192 20.8839 31.6182C21.0248 31.6187 21.1657 31.6194 21.3066 31.6201C21.451 31.6199 21.5955 31.6196 21.7399 31.6192C22.0426 31.6187 22.3452 31.6194 22.6479 31.6209C23.0358 31.6227 23.4237 31.6216 23.8116 31.6197C24.1099 31.6186 24.4081 31.619 24.7064 31.6198C24.8494 31.62 24.9925 31.6197 25.1355 31.619C25.3354 31.6182 25.5353 31.6196 25.7352 31.6212C25.9058 31.6215 25.9058 31.6215 26.0799 31.6219C26.3622 31.6618 26.3622 31.6618 26.5562 31.7817C26.7308 32.0637 26.7158 32.2841 26.7156 32.6145C26.7166 32.8117 26.7166 32.8117 26.7176 33.0129C26.7167 33.1564 26.7157 33.3 26.7146 33.4435C26.7146 33.5906 26.7146 33.7376 26.7148 33.8847C26.7148 34.1927 26.7137 34.5007 26.7118 34.8087C26.7094 35.2039 26.7094 35.5991 26.7101 35.9944C26.7104 36.2979 26.7097 36.6015 26.7087 36.905C26.7083 37.0508 26.7082 37.1965 26.7083 37.3423C26.7084 37.5457 26.7069 37.7492 26.7054 37.9526C26.7046 38.1264 26.7046 38.1264 26.7039 38.3037C26.6766 38.5773 26.6766 38.5773 26.467 38.7869C26.1886 38.8135 26.1886 38.8135 25.831 38.814C25.6306 38.815 25.6306 38.815 25.4262 38.816C25.2798 38.8157 25.1334 38.8152 24.987 38.8147C24.8374 38.8149 24.6879 38.8151 24.5383 38.8153C24.2248 38.8157 23.9112 38.8152 23.5976 38.8142C23.1952 38.813 22.7929 38.8137 22.3905 38.815C22.0816 38.8157 21.7728 38.8155 21.4639 38.815C21.3155 38.8148 21.1671 38.815 21.0187 38.8155C20.8115 38.816 20.6043 38.815 20.3971 38.814C20.2201 38.8138 20.2201 38.8138 20.0394 38.8135C19.7611 38.7869 19.7611 38.7869 19.5515 38.5773C19.5242 38.3037 19.5242 38.3037 19.5227 37.9526C19.5212 37.7559 19.5212 37.7559 19.5197 37.5552C19.5197 37.4115 19.5198 37.2677 19.52 37.1239C19.5196 36.977 19.5191 36.83 19.5186 36.6831C19.5178 36.3749 19.5179 36.0667 19.5184 35.7585C19.519 35.3634 19.5173 34.9683 19.5148 34.5732C19.5133 34.2696 19.5132 33.9661 19.5135 33.6625C19.5135 33.5169 19.5129 33.3712 19.5119 33.2255C19.5106 33.0219 19.5115 32.8182 19.5125 32.6145C19.5124 32.4986 19.5124 32.3826 19.5123 32.2632C19.5515 31.9762 19.5515 31.9762 19.6719 31.7817C19.9507 31.6094 20.1663 31.6219 20.4929 31.6212ZM20.5993 32.8144C20.5993 34.4396 20.5993 36.0647 20.5993 37.7391C22.259 37.7391 23.9188 37.7391 25.6288 37.7391C25.6288 36.114 25.6288 34.4888 25.6288 32.8144C23.969 32.8144 22.3093 32.8144 20.5993 32.8144Z" fill="#004DC9"/>
<path d="M20.3939 23.878C20.5275 23.8773 20.6611 23.8767 20.7987 23.876C20.9451 23.8764 21.0915 23.8768 21.2379 23.8773C21.3874 23.8771 21.537 23.8769 21.6865 23.8767C22.0001 23.8763 22.3137 23.8768 22.6273 23.8778C23.0297 23.879 23.432 23.8783 23.8344 23.877C24.1433 23.8763 24.4521 23.8765 24.761 23.8771C24.9094 23.8772 25.0578 23.877 25.2062 23.8765C25.4134 23.876 25.6206 23.877 25.8278 23.878C26.0048 23.8782 26.0048 23.8782 26.1854 23.8785C26.4638 23.9051 26.4638 23.9051 26.6734 24.1147C26.7007 24.393 26.7007 24.393 26.7022 24.7507C26.7032 24.8843 26.7042 25.0178 26.7052 25.1554C26.7052 25.3019 26.7051 25.4483 26.7049 25.5947C26.7053 25.7442 26.7058 25.8938 26.7063 26.0433C26.707 26.3569 26.707 26.6705 26.7065 26.984C26.7058 27.3865 26.7076 27.7888 26.7101 28.1912C26.7116 28.5001 26.7117 28.8089 26.7114 29.1178C26.7114 29.2662 26.712 29.4145 26.713 29.5629C26.7143 29.7701 26.7134 29.9773 26.7124 30.1846C26.7125 30.3026 26.7125 30.4206 26.7126 30.5422C26.6997 30.6341 26.6867 30.726 26.6734 30.8206C26.3083 31.064 26.1633 31.0571 25.732 31.0589C25.5385 31.0604 25.5385 31.0604 25.341 31.062C25.2001 31.0619 25.0592 31.0618 24.9183 31.0617C24.7739 31.0621 24.6294 31.0625 24.485 31.063C24.1823 31.0638 23.8797 31.0638 23.577 31.0632C23.1891 31.0626 22.8012 31.0644 22.4133 31.0668C22.115 31.0684 21.8168 31.0685 21.5185 31.0681C21.3755 31.0682 21.2324 31.0687 21.0894 31.0698C20.8895 31.0711 20.6896 31.0702 20.4897 31.0692C20.3759 31.0692 20.2622 31.0693 20.145 31.0694C19.8627 31.0302 19.8627 31.0302 19.6687 30.9104C19.4942 30.6283 19.5091 30.408 19.5093 30.0775C19.5083 29.8803 19.5083 29.8803 19.5073 29.6791C19.5082 29.5356 19.5092 29.392 19.5102 29.2485C19.5103 29.1014 19.5102 28.9544 19.5101 28.8073C19.5101 28.4993 19.5112 28.1913 19.5131 27.8833C19.5155 27.4881 19.5155 27.0929 19.5148 26.6976C19.5145 26.3941 19.5152 26.0905 19.5162 25.787C19.5166 25.6412 19.5167 25.4955 19.5165 25.3497C19.5165 25.1463 19.518 24.9428 19.5195 24.7394C19.52 24.6236 19.5205 24.5077 19.521 24.3883C19.5771 23.826 19.9135 23.8787 20.3939 23.878ZM20.5961 24.9529C20.5961 26.6126 20.5961 28.2723 20.5961 29.9824C22.2558 29.9824 23.9156 29.9824 25.6256 29.9824C25.6256 28.3226 25.6256 26.6629 25.6256 24.9529C23.9659 24.9529 22.3061 24.9529 20.5961 24.9529Z" fill="#004DC9"/>
<path d="M26.5313 41.1782C26.6413 41.1763 26.6413 41.1763 26.7535 41.1744C27.2552 41.173 27.666 41.2493 28.1423 41.4074C28.2143 41.7021 28.2143 41.7021 28.247 42.0361C28.1218 42.2125 28.1218 42.2125 27.9327 42.3505C27.5847 42.4041 27.2357 42.3712 26.8849 42.3505C26.7392 42.342 26.7392 42.342 26.5906 42.3333C25.868 42.2767 25.868 42.2767 25.6275 42.0361C25.6079 41.6629 25.6079 41.6629 25.6275 41.3027C25.8374 41.0928 26.2445 41.1785 26.5313 41.1782Z" fill="#004DC9"/>
</g>
<defs>
<filter id="filter0_d_4_9540" x="-0.898926" y="0.645508" width="61.6475" height="61.6475" filterUnits="userSpaceOnUse" color-interpolation-filters="sRGB">
<feFlood flood-opacity="0" result="BackgroundImageFix"/>
<feColorMatrix in="SourceAlpha" type="matrix" values="0 0 0 0 0 0 0 0 0 0 0 0 0 0 0 0 0 0 127 0" result="hardAlpha"/>
<feOffset dy="4"/>
<feGaussianBlur stdDeviation="2"/>
<feComposite in2="hardAlpha" operator="out"/>
<feColorMatrix type="matrix" values="0 0 0 0 0 0 0 0 0 0 0 0 0 0 0 0 0 0 0.25 0"/>
<feBlend mode="normal" in2="BackgroundImageFix" result="effect1_dropShadow_4_9540"/>
<feBlend mode="normal" in="SourceGraphic" in2="effect1_dropShadow_4_9540" result="shape"/>
</filter>
</defs>
</svg>
