<svg width="54" height="55" viewBox="0 0 54 55" fill="none" xmlns="http://www.w3.org/2000/svg">
<g clip-path="url(#clip0_4_9579)">
<path d="M34.3345 11.336C36.0953 12.6572 36.0953 12.6572 36.4301 13.3269C36.8763 13.2773 37.3034 13.2151 37.7399 13.1107C39.6274 12.7286 41.6404 13.1304 43.2469 14.1815C44.9548 15.3479 46.0834 16.9912 46.5218 19.0243C46.7745 20.7008 46.5117 22.2558 45.8604 23.8049C45.9823 23.7763 45.9823 23.7763 46.1068 23.7472C46.4785 23.6607 46.8505 23.5756 47.2225 23.4906C47.3504 23.4606 47.4783 23.4306 47.6101 23.3997C49.164 23.0469 49.164 23.0469 49.8224 23.281C50.4619 23.8657 50.5402 25.0304 50.719 25.8405C50.7531 25.9927 50.7872 26.145 50.8214 26.2972C50.9135 26.7086 51.0049 27.1202 51.096 27.5319C51.1724 27.8764 51.2491 28.2208 51.3258 28.5653C51.5067 29.3783 51.687 30.1915 51.867 31.0048C52.0521 31.8418 52.2386 32.6786 52.4257 33.5153C52.5867 34.2355 52.7468 34.9558 52.9062 35.6764C53.0013 36.1059 53.0967 36.5353 53.1929 36.9646C53.2834 37.3684 53.3729 37.7725 53.4615 38.1767C53.4941 38.3244 53.527 38.472 53.5604 38.6194C54.0222 40.6647 54.0222 40.6647 53.6272 41.3098C53.2921 41.6153 53.0501 41.6609 52.5945 41.6545C52.1433 41.5844 51.795 41.3289 51.4203 41.0806C51.3029 41.006 51.3029 41.006 51.1831 40.9299C50.7792 40.6721 50.3812 40.4054 49.9825 40.1396C49.8974 40.0828 49.8123 40.0261 49.7246 39.9676C49.6596 39.9243 49.5946 39.8809 49.5277 39.8363C49.5273 39.9441 49.5273 39.9441 49.5269 40.0541C49.5207 41.8031 49.5128 43.5521 49.503 45.3011C49.4983 46.1469 49.4941 46.9927 49.4914 47.8386C49.489 48.5758 49.4855 49.313 49.4807 50.0502C49.4782 50.4405 49.4762 50.8309 49.4755 51.2212C49.4748 51.657 49.4716 52.0927 49.4682 52.5285C49.4684 52.6579 49.4685 52.7873 49.4687 52.9207C49.4674 53.0395 49.466 53.1584 49.4647 53.2808C49.4642 53.3839 49.4637 53.4869 49.4632 53.5931C49.4151 53.9314 49.3097 54.1263 49.1086 54.4008C48.725 54.6565 48.4397 54.6402 47.9962 54.6384C47.8731 54.6391 47.8731 54.6391 47.7476 54.6398C47.4717 54.6411 47.1959 54.6409 46.9201 54.6408C46.7227 54.6414 46.5253 54.6421 46.3279 54.6429C45.791 54.6448 45.2541 54.6452 44.7172 54.6454C44.2693 54.6456 43.8215 54.6464 43.3736 54.6471C42.3171 54.6488 41.2605 54.6493 40.204 54.6492C39.1134 54.649 38.0229 54.6512 36.9323 54.6546C35.9966 54.6573 35.0609 54.6584 34.1253 54.6583C33.5661 54.6582 33.007 54.6588 32.4479 54.661C31.9221 54.6631 31.3963 54.6631 30.8705 54.6616C30.6774 54.6614 30.4843 54.6618 30.2912 54.6631C30.0278 54.6647 29.7645 54.6638 29.501 54.6621C29.4245 54.6632 29.3479 54.6643 29.2691 54.6654C28.7641 54.6585 28.507 54.5497 28.1525 54.1912C27.9083 53.7029 28.015 52.9761 28.011 52.4335C28.0093 52.2614 28.0064 52.0892 28.0024 51.9171C27.9967 51.6682 27.9944 51.4195 27.9929 51.1706C27.9905 51.0943 27.9881 51.018 27.9857 50.9393C27.9873 50.5315 28.0436 50.2684 28.2943 49.9534C28.5716 49.6857 28.5716 49.6857 28.8728 49.5743C29.299 49.5828 29.5634 49.6856 29.9338 49.8952C30.2481 50.4191 30.2481 50.4191 30.2481 52.4099C31.6312 52.4099 33.0143 52.4099 34.4393 52.4099C34.4369 51.8551 34.4344 51.3002 34.4319 50.7285C34.4309 50.3771 34.4299 50.0256 34.4291 49.6742C34.4278 49.1163 34.4263 48.5584 34.4235 48.0006C34.4212 47.5508 34.42 47.1011 34.4194 46.6513C34.419 46.4797 34.4183 46.3081 34.4171 46.1365C34.4156 45.8962 34.4154 45.6559 34.4155 45.4155C34.4151 45.2787 34.4146 45.1419 34.4141 45.001C34.4383 44.67 34.4522 44.4998 34.6489 44.2371C35.0527 43.9217 35.3633 43.8831 35.8684 43.8821C35.9699 43.8812 35.9699 43.8812 36.0735 43.8804C36.2961 43.879 36.5186 43.8799 36.7412 43.881C36.8966 43.8808 37.052 43.8805 37.2074 43.8801C37.5326 43.8796 37.8577 43.8803 38.1829 43.8817C38.599 43.8835 39.0151 43.8825 39.4312 43.8806C39.7519 43.8795 40.0726 43.8799 40.3934 43.8807C40.5468 43.8809 40.7002 43.8806 40.8535 43.8799C41.0682 43.8791 41.2828 43.8803 41.4975 43.8821C41.6194 43.8823 41.7414 43.8826 41.8671 43.8828C42.3228 43.9386 42.5788 44.1033 42.9046 44.4188C43.0857 44.7582 43.0689 45.0321 43.067 45.4155C43.067 45.4912 43.0671 45.5669 43.0671 45.6449C43.0669 45.8944 43.0645 46.1438 43.062 46.3933C43.0614 46.5665 43.061 46.7397 43.0606 46.913C43.0594 47.3684 43.0564 47.8239 43.0529 48.2793C43.0491 48.826 43.0477 49.3728 43.0458 49.9195C43.0428 50.7497 43.0368 51.5798 43.0313 52.4099C44.4144 52.4099 45.7975 52.4099 47.2225 52.4099C47.2225 48.1569 47.2225 43.9039 47.2225 39.522C41.621 39.522 36.0194 39.522 30.2481 39.522C30.2481 40.1789 30.2481 40.8359 30.2481 41.5128C29.9338 42.1415 29.9338 42.1415 29.6194 42.351C29.1382 42.4285 28.7786 42.4149 28.362 42.1546C27.9965 41.7661 28.0364 41.5006 28.0412 40.9758C28.0421 40.8415 28.043 40.7073 28.044 40.5689C28.0458 40.4137 28.0458 40.4137 28.0477 40.2554C27.9488 40.2908 27.85 40.3262 27.7481 40.3627C25.1332 41.2806 22.4278 41.2415 19.8654 40.145C19.6597 40.0431 19.4777 39.9272 19.2891 39.7966C18.9287 39.5478 18.6165 39.3492 18.1983 39.2076C17.6895 39.3066 17.2779 39.5127 16.8194 39.7467C14.9646 40.6093 12.3372 40.3568 10.4446 39.7315C9.48171 41.6646 8.8329 43.7086 8.34899 45.8088C8.32847 45.8971 8.30796 45.9854 8.28682 46.0764C7.77295 48.3496 7.57521 50.7279 7.56879 53.0553C7.55801 53.6743 7.5059 54.034 7.09162 54.5056C6.81907 54.6418 6.6156 54.6266 6.31037 54.6305C6.13093 54.6331 6.13093 54.6331 5.94787 54.6356C5.40001 54.6403 4.85217 54.6446 4.3043 54.647C4.01523 54.6484 3.72624 54.6513 3.4372 54.6556C3.02088 54.6618 2.60459 54.6636 2.18823 54.6652C2.05919 54.6676 1.93016 54.6699 1.79722 54.6724C0.796144 54.6699 0.796144 54.6699 0.408749 54.39C0.123839 54.0182 0.0976927 53.8312 0.0999845 53.3657C0.0996995 53.2953 0.0994146 53.2249 0.0991211 53.1524C0.0994326 52.92 0.104755 52.6881 0.110626 52.4558C0.112876 52.2916 0.11511 52.1275 0.117328 51.9633C0.2254 46.2877 1.43784 40.0792 4.19911 35.0802C4.48818 34.4304 4.22122 33.9176 4.00715 33.2744C3.14618 30.5646 3.38458 27.8174 4.67162 25.2834C4.93177 24.7836 5.18052 24.323 5.5854 23.9228C5.85394 23.6367 5.85394 23.6367 5.83712 23.3907C5.78283 23.137 5.70764 22.8981 5.6247 22.6523C5.2506 21.4307 5.2771 20.2517 5.31035 18.985C5.24644 18.9866 5.18253 18.9883 5.11668 18.99C4.82543 18.9965 4.5342 19.0006 4.2429 19.0046C4.14234 19.0073 4.04179 19.0099 3.93818 19.0126C2.99522 19.0224 2.99522 19.0224 2.58606 18.6707C2.30647 18.2513 2.28911 17.9065 2.3765 17.4133C2.60509 17.1245 2.78219 16.9485 3.10997 16.7846C3.30762 16.7757 3.50559 16.7734 3.70345 16.7744C3.87971 16.7749 3.87971 16.7749 4.05954 16.7754C4.18272 16.7763 4.3059 16.7772 4.43282 16.7781C4.55681 16.7785 4.6808 16.779 4.80855 16.7795C5.11553 16.7807 5.4225 16.7825 5.72948 16.7846C5.74898 16.7161 5.76848 16.6476 5.78857 16.577C6.16428 15.2864 6.76869 14.2647 7.61552 13.2221C7.68643 13.1325 7.75734 13.043 7.8304 12.9507C9.27071 11.2337 11.3192 10.222 13.4832 9.76432C13.577 9.74419 13.6707 9.72407 13.7673 9.70333C16.5975 9.34367 19.085 10.0188 21.4465 11.5456C21.5403 11.4808 21.5403 11.4808 21.636 11.4146C25.4914 8.84818 30.4762 8.64751 34.3345 11.336ZM22.2111 13.9273C21.8239 14.1413 21.4583 14.139 21.0274 14.0603C20.7402 13.919 20.5109 13.7298 20.2678 13.5233C18.5211 12.1519 16.5145 11.6561 14.3215 11.8599C12.7788 12.0664 11.4143 12.7412 10.235 13.746C10.1313 13.8216 10.0276 13.8973 9.92069 13.9752C9.22229 14.5688 8.73477 15.368 8.33364 16.1796C8.2775 16.2929 8.22137 16.4062 8.16354 16.5229C8.121 16.6093 8.07847 16.6956 8.03464 16.7846C8.14317 16.7855 8.14317 16.7855 8.25388 16.7865C9.00689 16.7932 9.75985 16.802 10.5128 16.8121C10.7938 16.8158 11.0748 16.8187 11.3559 16.8209C11.7598 16.8244 12.1637 16.8299 12.5676 16.8358C12.6933 16.8364 12.8189 16.8371 12.9484 16.8378C13.1245 16.8409 13.1245 16.8409 13.3042 16.8441C13.4073 16.8452 13.5104 16.8464 13.6166 16.8476C13.9527 16.8967 14.1526 17.0055 14.4262 17.2037C14.6064 17.5641 14.5711 17.9615 14.531 18.3563C14.3501 18.701 14.2751 18.7559 13.9023 18.8802C13.6951 18.8925 13.4875 18.8987 13.2799 18.9017C13.088 18.9049 13.088 18.9049 12.8922 18.9081C12.754 18.9098 12.6159 18.9116 12.4735 18.9134C12.3306 18.9155 12.1878 18.9177 12.0449 18.92C11.6692 18.9257 11.2936 18.9309 10.9179 18.936C10.5344 18.9412 10.1509 18.9471 9.76741 18.9529C9.01519 18.9641 8.26297 18.9748 7.51074 18.985C7.50516 19.3172 7.50183 19.6494 7.49887 19.9816C7.49649 20.1213 7.49649 20.1213 7.49405 20.2637C7.48761 21.2315 7.70195 22.0739 8.11323 22.9536C8.27843 23.3666 8.37428 23.6905 8.24421 24.1192C8.03626 24.4185 7.80488 24.6858 7.56477 24.9599C6.77456 25.8949 6.28476 26.9336 5.93904 28.1009C5.91324 28.1876 5.88744 28.2743 5.86086 28.3637C5.58691 29.4784 5.6197 30.7753 5.93904 31.873C6.27487 31.5772 6.49691 31.2038 6.73799 30.8317C7.48737 29.6926 8.31232 28.6229 9.18723 27.577C9.23185 27.5228 9.27647 27.4685 9.32245 27.4127C10.4601 26.0311 11.6967 24.7016 13.1091 23.597C13.3968 23.3713 13.6715 23.1336 13.9482 22.8946C15.3544 21.7246 16.8871 20.7302 18.4873 19.848C18.7105 19.7249 18.9325 19.5998 19.1545 19.4745C20.8091 18.5553 22.5749 17.8623 24.3607 17.243C24.5115 17.1891 24.5115 17.1891 24.6653 17.1341C25.6587 16.8017 26.5448 16.7514 27.5078 17.191C28.2563 17.5809 28.6233 18.1972 28.8859 18.985C28.9712 19.9938 28.8632 20.7273 28.2798 21.5558C28.0218 21.8429 27.7906 21.9902 27.4518 22.1742C27.3913 22.2077 27.3308 22.2412 27.2685 22.2756C27.1261 22.3543 26.9835 22.4325 26.8407 22.5104C26.4116 22.7447 25.9842 22.9818 25.557 23.2194C25.3203 23.351 25.0834 23.4821 24.8461 23.6125C24.6814 23.7039 24.6814 23.7039 24.5134 23.7971C24.4146 23.8516 24.3159 23.9061 24.2141 23.9622C23.9885 24.1023 23.8231 24.2368 23.6469 24.4336C23.7292 24.4692 23.8114 24.5049 23.8962 24.5416C24.7733 24.9463 25.4194 25.3828 25.8408 26.2738C26.1189 27.1697 26.0785 28.1483 25.6901 28.9981C25.2069 29.842 24.5668 30.2336 23.6469 30.5108C23.2235 30.6025 22.7969 30.6736 22.3699 30.7466C18.0979 31.5283 14.3384 33.7696 11.7519 37.2872C11.5785 37.5125 11.5785 37.5125 11.5972 37.7407C13.3836 38.2766 15.3979 38.1285 17.0556 37.2557C17.1626 37.1975 17.2695 37.1392 17.3797 37.0793C17.8539 36.8363 18.1887 36.7106 18.7169 36.8185C19.0287 36.9403 19.2534 37.1282 19.5097 37.3404C20.4073 37.9981 21.5104 38.4719 22.5991 38.6837C22.6961 38.7028 22.7931 38.7218 22.893 38.7414C25.0493 39.0446 27.1299 38.4983 28.8859 37.2168C30.4045 36.0051 31.3703 34.4728 31.9262 32.6208C32.0623 32.3255 32.1586 32.2349 32.4485 32.0825C32.7603 32.015 33.0748 31.9813 33.3915 31.945C34.2696 31.8285 34.9363 31.6085 35.6967 31.1395C35.6967 31.0704 35.6967 31.0012 35.6967 30.93C35.5312 30.7964 35.5312 30.7964 35.3127 30.6676C35.2304 30.6163 35.148 30.5651 35.0631 30.5123C34.9739 30.4578 34.8848 30.4033 34.7929 30.3471C34.6104 30.2335 34.4278 30.1199 34.2453 30.0062C34.0655 29.8949 33.8857 29.7838 33.7058 29.6726C33.4257 29.4991 33.1463 29.3244 32.8676 29.1487C32.6958 29.0417 32.6958 29.0417 32.5205 28.9326C32.1784 28.6859 31.9616 28.4997 31.8791 28.078C31.879 27.9991 31.8789 27.9202 31.8787 27.8389C31.8767 27.7601 31.8747 27.6812 31.8726 27.5999C31.9453 27.2746 32.0905 27.1619 32.3437 26.9483C32.6252 26.8451 32.6252 26.8451 32.9511 26.7729C33.0739 26.745 33.1966 26.7171 33.323 26.6883C33.5226 26.6454 33.5226 26.6454 33.7263 26.6016C33.8669 26.5703 34.0075 26.5388 34.148 26.5071C34.5939 26.4075 35.0404 26.3109 35.4871 26.2148C35.6319 26.1836 35.7766 26.1523 35.9214 26.121C36.2789 26.0439 36.6365 25.9671 36.9941 25.8904C37.2089 25.8444 37.4237 25.7982 37.6385 25.7521C37.7095 25.7368 37.7806 25.7216 37.8538 25.7058C37.997 25.6751 38.1403 25.6443 38.2836 25.6135C38.648 25.5352 39.0125 25.4578 39.3774 25.3818C39.7408 25.306 40.1038 25.2282 40.4664 25.1489C40.6665 25.1058 40.867 25.0649 41.0675 25.024C42.2457 24.7636 42.8895 24.2743 43.5732 23.2892C44.3263 22.0212 44.594 20.637 44.2756 19.1946C43.9134 17.8969 43.1455 16.7395 41.9966 16.0119C40.5542 15.2175 39.1368 15.0021 37.5422 15.4364C37.2511 15.5246 37.2511 15.5246 36.9344 15.7041C36.5321 15.8918 36.1304 15.9563 35.6967 15.8416C35.3287 15.5193 35.0339 15.1525 34.734 14.7676C33.3604 13.0845 31.4695 11.965 29.3051 11.6504C26.6637 11.4412 24.1257 11.9819 22.2111 13.9273ZM17.4649 22.9667C17.3452 23.0504 17.2254 23.1338 17.1055 23.2171C16.3227 23.7638 15.5749 24.341 14.8454 24.9575C14.7326 25.0507 14.6197 25.1439 14.5069 25.237C13.2268 26.3031 12.0048 27.4571 10.9746 28.7697C10.7425 29.0648 10.4991 29.3483 10.2547 29.6333C5.35394 35.5203 2.28025 43.9294 2.36995 51.5979C2.37211 51.8659 2.37428 52.1338 2.3765 52.4099C3.34467 52.4099 4.31284 52.4099 5.31035 52.4099C5.32818 52.1605 5.34601 51.911 5.36438 51.654C5.69435 47.1614 6.44795 42.7673 8.45377 38.6837C8.48596 38.6169 8.51816 38.5501 8.55133 38.4813C9.34166 36.8568 10.391 35.4113 11.655 34.1236C11.803 33.9724 11.9486 33.8189 12.0941 33.6653C13.1606 32.5601 14.3505 31.6901 15.6836 30.93C15.7832 30.8726 15.7832 30.8726 15.8849 30.8141C17.8429 29.6985 19.9258 29.0095 22.1493 28.6461C22.2256 28.6333 22.3019 28.6206 22.3805 28.6075C22.584 28.5748 22.788 28.5456 22.992 28.5167C23.408 28.3927 23.5872 28.2277 23.8565 27.8913C23.9377 27.4364 23.9091 27.2402 23.66 26.8501C23.1391 26.5062 22.5979 26.5799 21.9953 26.6839C21.6996 26.7496 21.4061 26.821 21.1125 26.8959C19.5921 27.2794 19.5921 27.2794 19.0038 27.0727C18.7602 26.9013 18.6361 26.7175 18.5712 26.4265C18.5446 25.9418 18.5963 25.6489 18.9122 25.2718C20.6219 23.5451 22.7843 22.3011 24.9067 21.1592C25.0121 21.1024 25.1174 21.0456 25.2259 20.9871C25.4315 20.8767 25.6375 20.7671 25.8439 20.6584C25.937 20.6086 26.0301 20.5589 26.126 20.5076C26.2089 20.4639 26.2917 20.4202 26.377 20.3752C26.611 20.2417 26.611 20.2417 26.7903 19.928C26.7818 19.5538 26.7818 19.5538 26.6856 19.1946C24.8984 18.0031 18.9478 21.8858 17.4649 22.9667ZM47.5575 25.6896C47.4022 25.724 47.4022 25.724 47.2437 25.759C47.0734 25.7973 47.0734 25.7973 46.8997 25.8362C46.7801 25.8628 46.6605 25.8894 46.5372 25.9168C46.1409 26.0049 45.7446 26.0935 45.3483 26.1821C45.0739 26.2432 44.7995 26.3043 44.5251 26.3653C43.876 26.5098 43.227 26.6546 42.578 26.7995C41.8392 26.9645 41.1003 27.1291 40.3613 27.2936C38.8413 27.6322 37.3213 27.9711 35.8015 28.3105C36.0782 28.5927 36.3382 28.8227 36.6737 29.0325C36.7628 29.0886 36.852 29.1448 36.9438 29.2027C37.0883 29.2927 37.0883 29.2927 37.2356 29.3845C37.4445 29.5159 37.6534 29.6474 37.8623 29.779C38.0256 29.8816 38.0256 29.8816 38.1923 29.9863C38.742 30.3328 39.2886 30.6839 39.8355 31.0347C40.9448 31.7453 42.0557 32.4532 43.1673 33.1599C43.646 33.4643 44.1245 33.7688 44.603 34.0734C44.7951 34.1956 44.9872 34.3179 45.1793 34.4401C46.3319 35.1736 46.3319 35.1736 46.6204 35.3572C46.8112 35.4786 47.002 35.6 47.1929 35.7214C47.693 36.0395 48.1929 36.3581 48.6923 36.6773C48.796 36.7435 48.8996 36.8097 49.0064 36.8779C49.2041 37.0041 49.4016 37.1304 49.5991 37.2569C50.0924 37.5716 50.5884 37.8748 51.0994 38.1598C50.9319 37.0218 50.6771 35.9047 50.4257 34.7831C50.38 34.578 50.3343 34.3729 50.2886 34.1678C50.1689 33.63 50.0487 33.0922 49.9284 32.5545C49.8073 32.0127 49.6865 31.4707 49.5658 30.9287C49.3877 30.1298 49.2094 29.3309 49.0308 28.532C48.8115 27.5503 48.5931 26.5683 48.3751 25.5862C48.0779 25.5862 47.8462 25.6252 47.5575 25.6896ZM37.6875 32.2921C37.6352 32.3378 37.583 32.3834 37.5291 32.4305C36.7777 33.0537 35.9288 33.583 34.9481 33.7275C34.1839 33.8166 34.1839 33.8166 33.5739 34.2347C33.344 34.6461 33.2055 35.0892 33.0561 35.5344C32.8811 35.9846 32.5908 36.3583 32.3122 36.7502C32.113 37.0248 32.113 37.0248 31.9246 37.4263C36.4888 37.4263 41.053 37.4263 45.7556 37.4263C45.3064 37.0667 45.3064 37.0667 44.8371 36.7502C44.7625 36.7035 44.6879 36.6568 44.6111 36.6086C44.5306 36.5586 44.4501 36.5086 44.3672 36.4571C44.1883 36.3451 44.0095 36.2329 43.8307 36.1207C43.7353 36.0609 43.64 36.0011 43.5417 35.9395C43.0096 35.6041 42.4803 35.2642 41.9508 34.9247C41.7289 34.7827 41.5071 34.6407 41.2852 34.4986C40.9534 34.2861 40.6215 34.0735 40.2899 33.8606C39.9749 33.6584 39.6596 33.4565 39.3443 33.2548C39.2026 33.1635 39.2026 33.1635 39.0579 33.0704C38.6106 32.7847 38.1687 32.5166 37.6875 32.2921ZM36.6397 46.1231C36.6397 48.1978 36.6397 50.2724 36.6397 52.4099C38.0228 52.4099 39.4059 52.4099 40.8309 52.4099C40.8309 50.3353 40.8309 48.2606 40.8309 46.1231C39.4478 46.1231 38.0647 46.1231 36.6397 46.1231Z" fill="#004DC9"/>
<path d="M51.601 1.03467C52.5435 1.38357 53.1656 1.95356 53.616 2.84909C53.9433 3.65959 53.9567 4.57872 53.6488 5.39656C53.2121 6.34418 52.653 6.9556 51.6701 7.361C51.2193 7.4845 50.8087 7.49036 50.3437 7.48986C50.2483 7.49057 50.153 7.49127 50.0548 7.492C49.741 7.49398 49.4272 7.4944 49.1133 7.49462C48.8947 7.4953 48.676 7.496 48.4573 7.49674C47.9996 7.49799 47.5418 7.49838 47.0841 7.49826C46.4976 7.49823 45.9111 7.5011 45.3245 7.5047C44.8732 7.50703 44.4219 7.50746 43.9705 7.50735C43.7543 7.5076 43.538 7.50852 43.3217 7.51014C43.0195 7.51219 42.7174 7.51159 42.4151 7.51033C42.3259 7.51151 42.2367 7.51268 42.1447 7.5139C41.7282 7.50947 41.5125 7.49066 41.1498 7.26837C40.8595 6.95634 40.7852 6.72843 40.728 6.30684C40.8414 5.9068 40.9342 5.66076 41.2603 5.39734C41.6659 5.214 42.037 5.2162 42.4735 5.22038C42.6088 5.21979 42.6088 5.21979 42.7468 5.21919C42.9421 5.21851 43.1374 5.21854 43.3327 5.2192C43.6419 5.22016 43.951 5.21909 44.2602 5.21746C45.139 5.21326 46.0179 5.21314 46.8967 5.21337C47.4347 5.21338 47.9727 5.21137 48.5107 5.2082C48.8152 5.20707 49.1195 5.20834 49.424 5.20965C49.6108 5.20872 49.7977 5.20766 49.9845 5.20647C50.1113 5.208 50.1113 5.208 50.2406 5.20956C50.6367 5.20449 50.8668 5.17023 51.2038 4.95453C51.4592 4.69002 51.5156 4.59795 51.5401 4.23088C51.5195 3.88087 51.4828 3.67758 51.3108 3.37299C51.0296 3.26032 51.0296 3.26032 50.7018 3.21582C50.1378 3.09746 49.8728 2.99626 49.5296 2.53474C49.3794 2.23443 49.3927 2.03044 49.4248 1.6965C49.9287 0.806287 50.643 0.7982 51.601 1.03467Z" fill="#004DC9"/>
<path d="M14.0317 44.4895C14.1776 44.4896 14.3234 44.4896 14.4693 44.4894C14.7741 44.4896 15.0789 44.4916 15.3837 44.4949C15.7736 44.499 16.1635 44.4995 16.5534 44.4987C16.8543 44.4984 17.1551 44.4997 17.456 44.5014C17.5997 44.5022 17.7435 44.5025 17.8872 44.5024C18.0883 44.5026 18.2894 44.5051 18.4904 44.5077C18.6618 44.509 18.6618 44.509 18.8365 44.5103C19.1869 44.5571 19.3851 44.6603 19.6698 44.866C19.9393 45.2253 19.932 45.5826 19.8794 46.0186C19.6924 46.33 19.4758 46.5871 19.1459 46.7521C18.9422 46.7632 18.7381 46.7677 18.5341 46.7689C18.4057 46.7699 18.2774 46.771 18.1451 46.772C18.0044 46.7725 17.8636 46.7729 17.7228 46.7733C17.5787 46.7739 17.4346 46.7745 17.2905 46.7752C16.9881 46.7763 16.6857 46.7769 16.3833 46.7772C15.9965 46.7778 15.6096 46.7803 15.2228 46.7833C14.925 46.7853 14.6272 46.7858 14.3293 46.786C14.1868 46.7863 14.0442 46.7871 13.9016 46.7885C13.7018 46.7903 13.5019 46.7899 13.302 46.7894C13.1884 46.7898 13.0748 46.7902 12.9577 46.7906C12.5 46.7334 12.2264 46.5553 11.9292 46.2085C11.7938 45.8701 11.7926 45.6487 11.8207 45.2917C12.236 44.3506 13.1522 44.478 14.0317 44.4895Z" fill="black"/>
<path d="M31.4912 5.23963C31.6171 5.23829 31.743 5.23694 31.8728 5.23556C32.009 5.23478 32.1452 5.23401 32.2855 5.23321C32.355 5.23279 32.4244 5.23236 32.496 5.23192C32.8636 5.22974 33.2312 5.22824 33.5988 5.22725C33.9775 5.22609 34.3562 5.22249 34.735 5.21833C35.027 5.21558 35.3191 5.21471 35.6111 5.21434C35.8183 5.21358 36.0255 5.21081 36.2327 5.20801C37.4089 5.21085 37.4089 5.21085 37.8991 5.6773C38.0981 5.99744 38.1086 6.18918 38.1086 6.56794C38.0036 6.9355 37.9053 7.11548 37.6045 7.35041C37.0705 7.60224 36.4441 7.5306 35.8653 7.52447C35.7171 7.52455 35.5689 7.52481 35.4207 7.52523C35.1109 7.52553 34.8012 7.524 34.4914 7.52111C34.0952 7.51754 33.699 7.51818 33.3027 7.52014C32.997 7.52125 32.6913 7.52031 32.3856 7.51873C32.2395 7.51819 32.0934 7.51824 31.9473 7.5189C31.743 7.51947 31.5386 7.51703 31.3343 7.51446C31.2182 7.51381 31.1022 7.51316 30.9826 7.5125C30.5962 7.446 30.4211 7.31374 30.1453 7.03945C30.0177 6.6567 29.9996 6.39426 30.0405 5.99164C30.4016 5.36565 30.8001 5.24606 31.4912 5.23963Z" fill="#004DC9"/>
<path d="M29.8287 45.0738C30.0849 45.3429 30.2318 45.5351 30.2679 45.9117C30.2433 46.3056 30.155 46.5228 29.9335 46.8551C29.5615 47.1031 29.3406 47.1342 28.902 47.1101C28.5682 47.0429 28.3824 46.8901 28.1522 46.6455C27.9827 46.3065 27.9869 45.9641 28.0474 45.5977C28.227 45.2498 28.4539 45.0185 28.8202 44.8643C29.2025 44.8643 29.4748 44.9258 29.8287 45.0738Z" fill="black"/>
</g>
<defs>
<clipPath id="clip0_4_9579">
<rect width="53.6476" height="53.6476" fill="white" transform="translate(0.177246 0.961914)"/>
</clipPath>
</defs>
</svg>
