<svg width="54" height="55" viewBox="0 0 54 55" fill="none" xmlns="http://www.w3.org/2000/svg">
<path d="M8.2177 13.0128C8.6072 13.4079 8.68942 13.6671 8.6912 14.2162C8.69266 14.3536 8.69412 14.491 8.69562 14.6325C8.69513 14.784 8.69459 14.9355 8.69402 15.087C8.69494 15.2471 8.69604 15.4072 8.69731 15.5673C8.70023 16.0013 8.70058 16.4353 8.70048 16.8693C8.70081 17.3231 8.70349 17.7769 8.70592 18.2307C8.71018 19.0897 8.71231 19.9488 8.71368 20.8078C8.71534 21.7859 8.71936 22.7641 8.72359 23.7422C8.73222 25.754 8.73758 27.7658 8.7416 29.7776C10.263 29.7776 11.7844 29.7776 13.3519 29.7776C13.3495 29.031 13.3471 28.2843 13.3446 27.515C13.3435 27.0413 13.3425 26.5676 13.3417 26.0939C13.3405 25.3425 13.339 24.591 13.3361 23.8395C13.3339 23.2335 13.3326 22.6275 13.3321 22.0215C13.3317 21.7906 13.3309 21.5596 13.3298 21.3287C13.3283 21.0047 13.3281 20.6806 13.3282 20.3566C13.3274 20.2616 13.3266 20.1667 13.3259 20.0688C13.3282 19.3601 13.3564 18.6065 13.8562 18.0553C13.9318 17.9682 13.9318 17.9682 14.0089 17.8793C14.4571 17.5049 14.9186 17.4915 15.485 17.4895C15.5985 17.4887 15.5985 17.4887 15.7144 17.4879C15.9637 17.4865 16.2129 17.4866 16.4622 17.4868C16.6361 17.4864 16.8101 17.4859 16.984 17.4854C17.3482 17.4847 17.7124 17.4847 18.0766 17.4852C18.5425 17.4858 19.0084 17.4841 19.4743 17.4816C19.8334 17.4801 20.1925 17.48 20.5516 17.4803C20.7233 17.4803 20.8951 17.4797 21.0668 17.4787C21.3073 17.4774 21.5477 17.4781 21.7882 17.4793C21.9931 17.4792 21.9931 17.4792 22.2022 17.4791C22.7632 17.5385 23.0938 17.7252 23.4894 18.1208C23.9589 18.7989 23.9648 19.4509 23.9586 20.2495C23.9586 20.3529 23.9586 20.4562 23.9586 20.5626C23.9585 20.9022 23.9569 21.2418 23.9552 21.5814C23.9548 21.8176 23.9545 22.0539 23.9543 22.2901C23.9535 22.9104 23.9515 23.5307 23.9492 24.151C23.9466 24.896 23.9457 25.641 23.9444 26.386C23.9424 27.5166 23.9384 28.6471 23.9348 29.7776C25.4908 29.7776 27.0467 29.7776 28.6499 29.7776C28.6477 29.2884 28.6455 28.7991 28.6432 28.2951C28.6363 26.6807 28.6316 25.0664 28.6282 23.4521C28.626 22.4731 28.6231 21.4941 28.6183 20.5151C28.6141 19.6618 28.6114 18.8086 28.6104 17.9553C28.6099 17.5035 28.6086 17.0516 28.6056 16.5998C28.6027 16.1745 28.6018 15.7493 28.6025 15.324C28.6024 15.1679 28.6015 15.0118 28.5999 14.8558C28.5978 14.6426 28.5986 14.4294 28.5995 14.2162C28.5991 14.0969 28.5987 13.9777 28.5983 13.8548C28.6621 13.4616 28.7838 13.2874 29.069 13.0128C29.6273 12.9241 29.6273 12.9241 29.9072 13.0128C30.2338 13.2811 30.4112 13.4387 30.4968 13.859C30.4968 13.9803 30.4969 14.1015 30.497 14.2265C30.4977 14.2944 30.4985 14.3623 30.4992 14.4322C30.5011 14.6589 30.4992 14.8855 30.4973 15.1122C30.4978 15.275 30.4986 15.4379 30.4995 15.6007C30.5015 16.0426 30.5001 16.4844 30.4981 16.9263C30.4964 17.3892 30.4973 17.8521 30.4978 18.315C30.4983 19.0927 30.4966 19.8704 30.4937 20.6481C30.4903 21.5461 30.4903 22.444 30.4921 23.342C30.4938 24.2067 30.4931 25.0715 30.4913 25.9362C30.4906 26.3037 30.4907 26.6712 30.4915 27.0387C30.4923 27.4721 30.491 27.9055 30.4881 28.3389C30.4874 28.4975 30.4874 28.6561 30.4882 28.8148C30.495 30.4468 30.495 30.4468 30.012 31.035C29.4615 31.4901 28.9865 31.6358 28.283 31.6247C28.1973 31.6254 28.1116 31.6262 28.0234 31.627C27.7383 31.6288 27.4533 31.6269 27.1682 31.625C26.963 31.6255 26.7578 31.6263 26.5525 31.6273C25.9966 31.6292 25.4407 31.6279 24.8848 31.6258C24.3023 31.6241 23.7198 31.625 23.1373 31.6255C22.1593 31.626 21.1812 31.6244 20.2032 31.6214C19.0733 31.6181 17.9434 31.6181 16.8134 31.6199C15.7254 31.6215 14.6374 31.6208 13.5493 31.619C13.0868 31.6183 12.6242 31.6184 12.1617 31.6192C11.6168 31.62 11.0719 31.6187 10.5269 31.6159C10.3272 31.6152 10.1275 31.6151 9.92783 31.6159C9.65465 31.6168 9.38161 31.6151 9.10844 31.6128C9.02991 31.6137 8.95139 31.6145 8.87048 31.6154C8.30278 31.6066 7.85083 31.4623 7.37946 31.1398C6.95189 30.6026 6.84258 30.2093 6.84084 29.534C6.84053 29.4665 6.84022 29.399 6.8399 29.3294C6.83899 29.1028 6.83883 28.8762 6.83867 28.6496C6.83819 28.4873 6.83766 28.325 6.8371 28.1627C6.83572 27.7215 6.83505 27.2803 6.83458 26.8391C6.83427 26.5635 6.83384 26.288 6.83338 26.0124C6.83194 25.1503 6.83093 24.2882 6.83053 23.4261C6.83006 22.4307 6.82822 21.4352 6.82518 20.4397C6.82292 19.6704 6.82186 18.9012 6.82172 18.1319C6.82161 17.6723 6.82099 17.2128 6.81912 16.7532C6.81739 16.3209 6.81717 15.8887 6.81809 15.4565C6.81817 15.2978 6.81771 15.1392 6.81668 14.9806C6.81535 14.764 6.81596 14.5475 6.81705 14.3308C6.81682 14.149 6.81682 14.149 6.81659 13.9636C6.86011 13.6038 6.95474 13.4065 7.1699 13.1175C7.49828 12.9533 7.86475 12.9235 8.2177 13.0128ZM15.1332 19.4044C15.1232 19.7265 15.1201 20.0463 15.1213 20.3685C15.1213 20.4697 15.1213 20.5709 15.1213 20.6751C15.1213 21.0113 15.1222 21.3475 15.123 21.6837C15.1232 21.9162 15.1233 22.1486 15.1234 22.381C15.1238 22.9941 15.1249 23.6071 15.126 24.2202C15.1273 24.9551 15.1278 25.6899 15.1284 26.4248C15.1294 27.5424 15.1314 28.66 15.1332 29.7776C17.4499 29.7776 19.7666 29.7776 22.1535 29.7776C22.1535 26.3199 22.1535 22.8621 22.1535 19.2996C21.0146 19.2974 19.8757 19.2953 18.7023 19.293C18.3422 19.2921 17.9821 19.2911 17.6111 19.2901C17.3277 19.2898 17.0444 19.2896 16.761 19.2893C16.6498 19.2889 16.6498 19.2889 16.5364 19.2885C16.3192 19.2878 16.1019 19.2876 15.8847 19.2877C15.7008 19.2873 15.7008 19.2873 15.5131 19.287C15.2458 19.2682 15.2458 19.2682 15.1332 19.4044Z" fill="#004DC9"/>
<path d="M43.4224 31.8738C44.6615 32.8924 45.3324 34.1368 45.5778 35.7163C45.7343 37.3211 45.3311 38.7624 44.4059 40.0774C44.1152 40.4298 43.7913 40.7185 43.4224 40.9897C43.9845 41.2244 44.5493 41.4395 45.1279 41.6302C45.2423 41.6681 45.3566 41.706 45.4744 41.7451C45.7079 41.8219 45.9418 41.8978 46.176 41.9726C47.6 42.449 48.7531 43.1867 49.48 44.5326C49.9616 45.6105 50.0742 46.6552 50.0629 47.8266C50.0641 47.9539 50.0653 48.0811 50.0665 48.2122C50.0639 49.0159 50.0516 49.7103 49.5025 50.3442C49.4303 50.4016 49.358 50.459 49.2836 50.5182C49.211 50.5775 49.1385 50.6368 49.0638 50.6978C48.6914 50.9706 48.4372 50.9579 47.9776 50.96C47.9065 50.9604 47.8355 50.9609 47.7623 50.9614C47.5231 50.9628 47.2839 50.9634 47.0446 50.964C46.8736 50.9649 46.7025 50.9657 46.5314 50.9666C45.9685 50.9694 45.4056 50.971 44.8427 50.9725C44.6489 50.973 44.4552 50.9736 44.2614 50.9742C43.4553 50.9764 42.6492 50.9784 41.8431 50.9796C40.6879 50.9813 39.5328 50.9848 38.3776 50.9907C37.5654 50.9948 36.7533 50.9968 35.9411 50.9974C35.456 50.9978 34.971 50.999 34.4859 51.0024C34.0292 51.0056 33.5726 51.0062 33.1159 51.005C32.9487 51.005 32.7814 51.0059 32.6141 51.0077C30.9475 51.0251 30.9475 51.0251 30.3248 50.4199C29.7441 49.6754 29.775 48.9981 29.77 48.0955C29.7688 47.9443 29.7667 47.7931 29.7636 47.642C29.7301 46.0185 30.0495 44.5493 31.1893 43.3211C32.1835 42.3984 33.5737 41.7709 34.9364 41.7686C35.2302 41.8523 35.3105 41.9854 35.4591 42.2471C35.5045 42.4566 35.5045 42.4566 35.5049 42.6662C35.507 42.7353 35.509 42.8045 35.5111 42.8757C35.4321 43.1941 35.2991 43.3034 35.04 43.5044C34.6824 43.6618 34.3087 43.7692 33.9359 43.8841C33.2042 44.1223 32.6027 44.4528 32.1781 45.1154C32.1288 45.1897 32.0795 45.264 32.0288 45.3405C31.6278 46.1276 31.6616 46.8733 31.6739 47.7415C31.6748 47.8681 31.6758 47.9947 31.6768 48.1252C31.6792 48.4361 31.6827 48.7469 31.687 49.0578C31.9754 49.202 32.206 49.1758 32.529 49.1759C32.7313 49.1763 32.7313 49.1763 32.9377 49.1768C33.088 49.1766 33.2383 49.1763 33.3886 49.1761C33.5463 49.1763 33.7039 49.1765 33.8616 49.1767C34.2904 49.1772 34.7193 49.177 35.1481 49.1766C35.5962 49.1764 36.0443 49.1766 36.4924 49.1768C37.245 49.177 37.9976 49.1767 38.7502 49.1762C39.6212 49.1757 40.4922 49.1758 41.3632 49.1764C42.1101 49.1769 42.8569 49.177 43.6038 49.1767C44.0503 49.1765 44.4968 49.1765 44.9433 49.1768C45.3629 49.1772 45.7826 49.1769 46.2023 49.1763C46.3567 49.1762 46.511 49.1762 46.6654 49.1765C46.8754 49.1768 47.0855 49.1763 47.2955 49.1759C47.4722 49.1758 47.4722 49.1758 47.6524 49.1758C47.9258 49.1813 47.9258 49.1813 48.1375 49.0578C48.1468 48.6605 48.1523 48.2633 48.1572 47.8659C48.1598 47.7547 48.1624 47.6436 48.1651 47.5291C48.1752 46.4366 47.9882 45.5602 47.2731 44.711C46.8818 44.3157 46.4312 44.1275 45.9154 43.9416C45.8421 43.9146 45.7687 43.8876 45.6931 43.8599C44.947 43.5879 44.1957 43.3313 43.4421 43.0809C43.2167 43.0058 42.9916 42.93 42.7665 42.8541C41.8179 42.5363 40.9084 42.2397 39.8992 42.2078C38.1651 42.0973 36.7686 41.508 35.5639 40.2562C34.5882 39.1295 34.1562 37.6962 34.1727 36.2201C34.2929 34.7116 34.8455 33.2239 35.983 32.1881C38.1727 30.4561 41.0982 30.3224 43.4224 31.8738ZM36.795 33.9956C36.132 34.8086 35.8969 35.8749 35.983 36.9033C36.1722 38.0018 36.5917 38.8874 37.4892 39.5686C38.4687 40.2216 39.4241 40.4689 40.613 40.3189C41.7686 40.0697 42.6432 39.4454 43.3176 38.475C43.8428 37.4367 43.9818 36.3403 43.632 35.2268C43.1805 34.0948 42.5316 33.3079 41.4062 32.8197C39.6828 32.2122 38.0223 32.6949 36.795 33.9956Z" fill="#004DC9"/>
<path d="M16.2849 33.0235C16.5525 33.1126 16.6688 33.1878 16.8415 33.4098C16.9474 33.7659 16.8876 34.0245 16.8088 34.3856C16.6144 34.6725 16.6144 34.6725 16.37 34.9422C15.5762 35.8681 14.6885 37.0948 14.7214 38.3709C15.0833 40.0947 16.2475 41.6216 17.6405 42.6567C18.7238 43.3536 19.8624 43.7333 21.1048 44.0254C21.103 43.9103 21.1013 43.7952 21.0995 43.6767C21.1057 43.2239 21.1968 42.9574 21.4322 42.5781C21.7628 42.3687 22.0946 42.3873 22.4669 42.4537C22.8471 42.6291 23.1833 42.8596 23.5278 43.0963C23.627 43.1622 23.7261 43.2282 23.8283 43.2962C24.1441 43.5069 24.4581 43.7203 24.7721 43.9337C24.9832 44.075 25.1944 44.216 25.4057 44.3569C27.8522 45.9944 27.8522 45.9944 28.0203 46.3306C28.0596 46.6777 28.0596 46.6777 28.0203 47.064C27.5919 47.5805 27.0324 47.9233 26.478 48.2927C26.38 48.3587 26.282 48.4247 26.181 48.4926C25.8689 48.7024 25.5563 48.9114 25.2436 49.1203C25.0333 49.2616 24.8231 49.403 24.6129 49.5444C24.4117 49.6795 24.2104 49.8146 24.0092 49.9496C23.915 50.0128 23.8207 50.076 23.7237 50.1411C23.6352 50.2002 23.5467 50.2593 23.4556 50.3203C23.3783 50.372 23.301 50.4237 23.2213 50.4769C22.6301 50.8607 22.3357 51.0195 21.6287 50.9409C21.3741 50.7581 21.2536 50.6246 21.131 50.3384C21.0911 49.9793 21.0988 49.6256 21.1048 49.2644C21.0247 49.2554 20.9446 49.2463 20.8621 49.237C18.8531 48.9735 17.1706 48.1991 15.6562 46.8545C15.5845 46.7914 15.5127 46.7283 15.4389 46.6633C13.7694 45.0988 12.7178 42.7466 12.6176 40.4629C12.6134 40.3856 12.6092 40.3083 12.6049 40.2287C12.5339 37.6733 13.4608 35.3532 15.1323 33.4426C15.5361 33.0798 15.7349 32.9532 16.2849 33.0235ZM15.0275 42.768C15.1323 42.9776 15.1323 42.9776 15.1323 42.9776L15.0275 42.768ZM15.1323 42.9776C15.3354 43.686 15.7363 44.1818 16.1801 44.7589C16.2622 44.8691 16.3443 44.9793 16.4289 45.0928C17.8617 46.6279 19.9096 47.4842 21.9966 47.5593C22.2738 47.5897 22.4437 47.6455 22.6765 47.7975C22.8075 48.0725 22.8075 48.0725 22.886 48.3214C23.261 48.2542 23.5137 48.0978 23.8274 47.8855C23.9254 47.8196 24.0233 47.7538 24.1242 47.686C24.2256 47.6169 24.327 47.5478 24.4316 47.4766C24.5861 47.3724 24.5861 47.3724 24.7438 47.266C24.9981 47.0944 25.252 46.9223 25.5056 46.7497C25.0912 46.3173 24.6337 46.0056 24.1369 45.6757C24.0514 45.6176 23.966 45.5595 23.878 45.4997C23.7958 45.4449 23.7136 45.39 23.6289 45.3335C23.5542 45.2835 23.4795 45.2335 23.4025 45.182C23.1925 45.0484 23.1925 45.0484 22.886 45.0732C22.8471 45.1964 22.8471 45.1964 22.8075 45.3221C22.6548 45.6426 22.5779 45.6792 22.2574 45.8067C20.0441 45.9942 17.6937 45.0648 16.0172 43.6601C15.8412 43.5085 15.6671 43.3549 15.4937 43.2003C15.2805 42.9661 15.2805 42.9661 15.1323 42.9776Z" fill="#004DC9"/>
<path d="M19.112 4.00068C19.6867 4.23944 20.2288 4.52949 20.7754 4.82583C20.9321 4.90894 21.0889 4.99188 21.2458 5.07463C21.6235 5.2743 22.0001 5.47591 22.3763 5.67822C22.7059 5.85497 23.0372 6.02853 23.3685 6.20209C23.5948 6.32073 23.8206 6.44015 24.0465 6.55962C24.7135 6.91123 25.3838 7.25651 26.0537 7.60251C27.0765 8.13079 28.0992 8.65926 29.1184 9.19447C29.6506 9.47365 30.1849 9.74791 30.7222 10.0174C30.8413 10.0777 30.9605 10.1381 31.0833 10.2003C31.3129 10.3165 31.5431 10.4316 31.774 10.5454C32.3595 10.8433 32.7975 11.0877 33.1526 11.6497C33.1683 12.1046 33.1235 12.2988 32.8186 12.6385C32.4618 12.8367 32.3001 12.8417 31.8952 12.8022C31.6177 12.6869 31.3649 12.5679 31.1016 12.4265C31.0265 12.3875 30.9514 12.3485 30.874 12.3083C30.6309 12.1816 30.3888 12.0532 30.1467 11.9247C29.9786 11.8367 29.8104 11.7488 29.6422 11.661C29.2385 11.45 28.8355 11.2376 28.4329 11.0246C28.1723 10.8868 27.9114 10.7498 27.6504 10.6129C27.424 10.494 27.1976 10.375 26.9716 10.2554C26.2316 9.86383 25.4878 9.47979 24.744 9.09563C23.8045 8.61035 22.8655 8.12419 21.928 7.63525C21.783 7.55997 21.783 7.55997 21.6351 7.48317C21.159 7.23544 20.6856 6.98396 20.2155 6.72497C20.1243 6.67531 20.0332 6.62565 19.9393 6.57448C19.7684 6.48117 19.5982 6.38668 19.4288 6.29078C19.3531 6.2497 19.2775 6.20861 19.1996 6.16628C19.1343 6.12984 19.069 6.09339 19.0017 6.05585C18.5395 5.91009 18.1477 6.14236 17.7381 6.35299C17.6714 6.38809 17.6048 6.42318 17.5362 6.45934C17.4303 6.51414 17.4303 6.51414 17.3223 6.57004C17.0934 6.68873 16.865 6.80834 16.6366 6.92798C16.4779 7.01049 16.3192 7.09295 16.1605 7.17535C15.7118 7.40852 15.2638 7.64279 14.816 7.87756C14.7144 7.93082 14.6128 7.98409 14.5081 8.03897C14.1953 8.20325 13.8827 8.36786 13.5704 8.53307C12.8267 8.92614 12.0794 9.31212 11.3321 9.69812C10.3926 10.1834 9.45364 10.6695 8.5161 11.1585C8.41936 11.2088 8.32263 11.259 8.22296 11.3108C7.74854 11.5578 7.27639 11.8081 6.80728 12.0651C6.71659 12.1143 6.62591 12.1635 6.53248 12.2142C6.36308 12.3062 6.19423 12.3994 6.02608 12.4938C5.58764 12.7311 5.26943 12.8733 4.7571 12.8022C4.39913 12.5954 4.26226 12.4685 4.12842 12.0753C4.12842 11.6728 4.18233 11.5383 4.44276 11.2305C5.016 10.82 5.6507 10.5051 6.27846 10.188C6.41961 10.1161 6.41961 10.1161 6.56361 10.0428C6.8628 9.89042 7.16226 9.73857 7.46174 9.58679C7.85327 9.38793 8.24468 9.18884 8.63602 8.98962C8.73262 8.94047 8.82921 8.89132 8.92873 8.84068C9.73046 8.43192 10.5271 8.01397 11.3227 7.59348C11.9698 7.25162 12.6201 6.91627 13.2705 6.5809C13.5314 6.44616 13.7922 6.31135 14.0531 6.17651C14.1173 6.14334 14.1815 6.11016 14.2476 6.07598C14.8829 5.74753 15.5177 5.41809 16.152 5.08778C16.2472 5.03829 16.3425 4.98881 16.4406 4.93782C16.5307 4.89087 16.6207 4.84392 16.7135 4.79554C16.7998 4.75093 16.886 4.70633 16.9749 4.66037C17.1424 4.56977 17.3072 4.47396 17.4689 4.37325C18.026 4.03015 18.4594 3.8389 19.112 4.00068Z" fill="#004DC9"/>
</svg>
