<svg width="36" height="36" viewBox="0 0 36 36" fill="none" xmlns="http://www.w3.org/2000/svg">
<path d="M18 8.5V27.5M22.75 14.0417C22.75 11.8567 20.6236 10.0833 18 10.0833C15.3764 10.0833 13.25 11.8567 13.25 14.0417C13.25 16.2267 15.3764 18 18 18C20.6236 18 22.75 19.7733 22.75 21.9583C22.75 24.1433 20.6236 25.9167 18 25.9167C15.3764 25.9167 13.25 24.1433 13.25 21.9583" stroke="#004DC9" stroke-width="2.375" stroke-linecap="round"/>
<path d="M10.0827 4.28258C12.4885 2.8904 15.2198 2.1595 17.9993 2.16408C26.7441 2.16408 33.8327 9.25267 33.8327 17.9974C33.8327 26.7422 26.7441 33.8308 17.9993 33.8308C9.2546 33.8308 2.16602 26.7422 2.16602 17.9974C2.16602 15.1142 2.9371 12.4083 4.28452 10.0808" stroke="#004DC9" stroke-width="2.375" stroke-linecap="round"/>
</svg>
