<svg width="1308" height="890" viewBox="0 0 1308 890" fill="none" xmlns="http://www.w3.org/2000/svg">
<g clip-path="url(#clip0_38_524)">
<rect width="1308" height="890" fill="white"/>
<g clip-path="url(#clip1_38_524)">
<path d="M369.084 878.073C369.084 877.753 368.964 877.446 368.924 877.126C368.964 877.473 369.018 877.78 369.084 878.073Z" fill="#BED5FA"/>
<path d="M369.405 879.327C369.569 879.856 369.77 880.373 370.005 880.875C369.766 880.375 369.565 879.857 369.405 879.327Z" fill="#BED5FA"/>
<path d="M0 723.961L758 623.505V604.521L0 692.143V723.961Z" fill="#BED5FA"/>
<path d="M746.924 562.177C746.396 555.259 743.364 548.771 738.396 543.927L732.258 539.404C727.945 537.048 723.093 535.852 718.178 535.936C712.601 535.955 707.164 537.687 702.605 540.899C700.851 537.579 698.368 534.699 695.343 532.474C692.318 530.249 688.828 528.737 685.136 528.051C685.422 526.734 685.605 525.395 685.683 524.049C686.087 517.012 683.688 510.101 679.011 504.825L673.606 500.169C669.746 497.659 665.298 496.197 660.701 495.927L653.922 496.381C649.295 497.302 644.998 499.438 641.471 502.571C637.193 506.369 634.255 511.445 633.09 517.045C631.295 516.516 629.447 516.19 627.579 516.071C621.659 515.696 615.815 517.558 611.204 521.288V575.131L607.201 575.558V575.838L509.782 585.43V406.103L421.704 411.84V594.075L296.074 606.388L297.595 363.186L460.926 120.384L611.204 324.431V311.531L461.059 101.907L461.393 101.467L460.792 101.547L460.405 101V101.64L196.306 138.594L41.5033 335.144H289.388L460.405 102.801V119.624L460.899 120.291L295.7 350.232L68.0601 348.805V588.018L70.8092 588.245C73.6117 577.959 82.3126 569.395 93.0554 567.874C92.9219 566.873 92.8419 565.859 92.8019 564.832C92.5007 556.009 95.7112 547.426 101.73 540.965C105.753 536.632 110.863 533.453 116.529 531.76L124.937 530.426C130.699 530.218 136.416 531.514 141.525 534.188L148.811 539.351C150.92 541.329 152.763 543.571 154.296 546.021C156.682 545.238 159.166 544.789 161.676 544.687C167.273 544.504 172.793 546.04 177.49 549.09C183.708 540.192 193.744 534.015 205.087 534.015C220.514 534.015 234.246 543.22 239.477 557.014C240.011 556.614 240.532 556.201 241.066 555.814C245.404 553.145 250.361 551.651 255.452 551.478L262.938 552.172C268.029 553.321 272.722 555.802 276.537 559.362C280.283 562.882 283.049 567.316 284.562 572.228C286.076 577.14 286.286 582.361 285.171 587.378C283.916 592.824 281.139 597.802 277.164 601.733L287.747 606.015L294.646 606.589L261.804 609.804C260.183 610.103 258.54 610.264 256.893 610.284L210.799 614.806L-0.0532227 636.552V647.505L757.947 564.045V561.137L746.924 562.177ZM489.764 493.859H495.102V536.55H489.764V493.859Z" fill="#BED5FA"/>
<path d="M392.345 412.547L334.961 416.949V472.794L392.345 467.578V412.547Z" fill="#BED5FA"/>
<path d="M392.345 530.733V473.328L334.961 478.544V536.456L392.345 530.733Z" fill="#BED5FA"/>
<path d="M533.803 511.482L580.51 506.466V456.238L533.803 460.481V511.482Z" fill="#BED5FA"/>
<path d="M580.51 401.087L533.803 404.943V454.731L580.51 450.488V401.087Z" fill="#BED5FA"/>
<path d="M392.345 261.436V360.265L439.053 355.996V258.021L392.345 261.436Z" fill="#BED5FA"/>
<path d="M531.134 345.937V253.792C531.134 253.792 504.577 254.979 489.764 256.38V349.779L531.134 345.937Z" fill="#BED5FA"/>
<path d="M444.391 291.626L484.426 288.038V244.227L444.391 246.748V291.626Z" fill="#BED5FA"/>
<path d="M484.426 293.788L444.391 297.376V364.494L484.426 360.705V293.788Z" fill="#BED5FA"/>
<path d="M402.941 472.367L402.421 466.67L392.345 467.578L334.961 472.794L327.795 473.448L328.315 479.144L334.961 478.544L392.345 473.327L402.941 472.367Z" fill="white"/>
<path d="M495.102 493.859H489.764V536.549H495.102V493.859Z" fill="white"/>
</g>
<rect opacity="0.95" width="1308" height="890" fill="#FFFDFD" fill-opacity="0.8"/>
</g>
<defs>
<clipPath id="clip0_38_524">
<rect width="1308" height="890" fill="white"/>
</clipPath>
<clipPath id="clip1_38_524">
<rect width="758" height="789" fill="white" transform="translate(0 101)"/>
</clipPath>
</defs>
</svg>
