<svg width="61" height="61" viewBox="0 0 61 61" fill="none" xmlns="http://www.w3.org/2000/svg">
<g clip-path="url(#clip0_4_10083)">
<path d="M51.2005 54.4279H17.6708C17.1768 54.4279 16.703 54.2317 16.3536 53.8823C16.0043 53.533 15.808 53.0592 15.808 52.5652V30.212C15.808 29.718 16.0043 29.2442 16.3536 28.8948C16.703 28.5455 17.1768 28.3492 17.6708 28.3492C18.1648 28.3492 18.6386 28.5455 18.988 28.8948C19.3373 29.2442 19.5336 29.718 19.5336 30.212V50.7024H49.3378V11.5844C49.3378 11.0903 49.1415 10.6165 48.7922 10.2672C48.4429 9.91787 47.969 9.72162 47.475 9.72162H13.9453C13.4512 9.72162 12.9774 9.52536 12.6281 9.17603C12.2788 8.82669 12.0825 8.35289 12.0825 7.85886C12.0825 7.36482 12.2788 6.89102 12.6281 6.54168C12.9774 6.19235 13.4512 5.99609 13.9453 5.99609H47.475C48.9571 5.99609 50.3785 6.58486 51.4265 7.63287C52.4745 8.68087 53.0633 10.1023 53.0633 11.5844V52.5652C53.0633 53.0592 52.867 53.533 52.5177 53.8823C52.1684 54.2317 51.6946 54.4279 51.2005 54.4279Z" fill="#FF6061"/>
<path d="M17.6737 32.0748H10.2226C9.72859 32.0748 9.25479 31.8785 8.90545 31.5292C8.55612 31.1798 8.35986 30.706 8.35986 30.212V11.5844C8.35986 10.1023 8.94863 8.68087 9.99664 7.63287C11.0446 6.58486 12.466 5.99609 13.9482 5.99609C15.4303 5.99609 16.8517 6.58486 17.8997 7.63287C18.9477 8.68087 19.5364 10.1023 19.5364 11.5844V30.212C19.5364 30.706 19.3402 31.1798 18.9908 31.5292C18.6415 31.8785 18.1677 32.0748 17.6737 32.0748ZM12.0854 28.3492H15.8109V11.5844C15.8109 11.0903 15.6147 10.6165 15.2653 10.2672C14.916 9.91787 14.4422 9.72162 13.9482 9.72162C13.4541 9.72162 12.9803 9.91787 12.631 10.2672C12.2816 10.6165 12.0854 11.0903 12.0854 11.5844V28.3492Z" fill="#FF6061"/>
<path d="M36.2976 35.7997H25.1211C24.627 35.7997 24.1532 35.6035 23.8039 35.2542C23.4546 34.9048 23.2583 34.431 23.2583 33.937C23.2583 33.4429 23.4546 32.9691 23.8039 32.6198C24.1532 32.2705 24.627 32.0742 25.1211 32.0742H36.2976C36.7917 32.0742 37.2655 32.2705 37.6148 32.6198C37.9641 32.9691 38.1604 33.4429 38.1604 33.937C38.1604 34.431 37.9641 34.9048 37.6148 35.2542C37.2655 35.6035 36.7917 35.7997 36.2976 35.7997Z" fill="#FF6061"/>
<path d="M43.7487 43.2529H25.1211C24.627 43.2529 24.1532 43.0566 23.8039 42.7073C23.4546 42.3579 23.2583 41.8841 23.2583 41.3901C23.2583 40.8961 23.4546 40.4223 23.8039 40.0729C24.1532 39.7236 24.627 39.5273 25.1211 39.5273H43.7487C44.2427 39.5273 44.7165 39.7236 45.0659 40.0729C45.4152 40.4223 45.6115 40.8961 45.6115 41.3901C45.6115 41.8841 45.4152 42.3579 45.0659 42.7073C44.7165 43.0566 44.2427 43.2529 43.7487 43.2529Z" fill="#FF6061"/>
<path d="M40.0232 28.3505H25.1211C24.627 28.3505 24.1532 28.1543 23.8039 27.8049C23.4546 27.4556 23.2583 26.9818 23.2583 26.4878C23.2583 25.9937 23.4546 25.5199 23.8039 25.1706C24.1532 24.8213 24.627 24.625 25.1211 24.625H40.0232C40.5172 24.625 40.991 24.8213 41.3403 25.1706C41.6897 25.5199 41.8859 25.9937 41.8859 26.4878C41.8859 26.9818 41.6897 27.4556 41.3403 27.8049C40.991 28.1543 40.5172 28.3505 40.0232 28.3505Z" fill="#FF6061"/>
<path d="M43.7487 15.3099H25.1211C24.627 15.3099 24.1532 15.1137 23.8039 14.7643C23.4546 14.415 23.2583 13.9412 23.2583 13.4471V7.85886C23.2583 7.36482 23.4546 6.89102 23.8039 6.54168C24.1532 6.19235 24.627 5.99609 25.1211 5.99609H43.7487C44.2427 5.99609 44.7165 6.19235 45.0659 6.54168C45.4152 6.89102 45.6115 7.36482 45.6115 7.85886V13.4471C45.6115 13.9412 45.4152 14.415 45.0659 14.7643C44.7165 15.1137 44.2427 15.3099 43.7487 15.3099ZM26.9838 11.5844H41.8859V9.72162H26.9838V11.5844Z" fill="#FF6061"/>
</g>
<defs>
<clipPath id="clip0_4_10083">
<rect width="59.6084" height="59.6084" fill="white" transform="translate(0.906738 0.40625)"/>
</clipPath>
</defs>
</svg>
