<svg width="368" height="143" viewBox="0 0 368 143" fill="none" xmlns="http://www.w3.org/2000/svg">
<g filter="url(#filter0_d_5_17749)">
<path d="M14 81.2091V31.4349C14 19.5966 24.9009 10 38.3462 10H334.287C345.173 10 354 17.7704 354 27.3559V125C354 115.415 345.174 102.644 334.287 102.644H38.3462C24.899 102.644 14 93.0475 14 81.2091Z" fill="url(#paint0_linear_5_17749)"/>
<path d="M38.3467 10.0596H334.287C345.148 10.0597 353.94 17.8099 353.94 27.3555V123.025C353.439 118.709 351.367 113.999 348.272 110.19C344.698 105.791 339.755 102.585 334.287 102.585H38.3467C24.925 102.585 14.0596 93.0076 14.0596 81.209V31.4346C14.0598 19.6361 24.927 10.0596 38.3467 10.0596Z" stroke="#EEAC25" stroke-width="0.118887"/>
</g>
<defs>
<filter id="filter0_d_5_17749" x="0" y="0" width="368" height="143" filterUnits="userSpaceOnUse" color-interpolation-filters="sRGB">
<feFlood flood-opacity="0" result="BackgroundImageFix"/>
<feColorMatrix in="SourceAlpha" type="matrix" values="0 0 0 0 0 0 0 0 0 0 0 0 0 0 0 0 0 0 127 0" result="hardAlpha"/>
<feOffset dy="4"/>
<feGaussianBlur stdDeviation="7"/>
<feComposite in2="hardAlpha" operator="out"/>
<feColorMatrix type="matrix" values="0 0 0 0 0 0 0 0 0 0 0 0 0 0 0 0 0 0 0.12 0"/>
<feBlend mode="normal" in2="BackgroundImageFix" result="effect1_dropShadow_5_17749"/>
<feBlend mode="normal" in="SourceGraphic" in2="effect1_dropShadow_5_17749" result="shape"/>
</filter>
<linearGradient id="paint0_linear_5_17749" x1="17.2075" y1="23.5" x2="354.052" y2="78.9577" gradientUnits="userSpaceOnUse">
<stop stop-color="#C2870F"/>
<stop offset="1" stop-color="#EECB83"/>
</linearGradient>
</defs>
</svg>
