<svg width="36" height="28" viewBox="0 0 36 28" fill="none" xmlns="http://www.w3.org/2000/svg">
<path d="M2.16602 10.8359L10.0827 1.33594M10.0827 1.33594L18.6548 9.9081C19.114 10.3673 19.342 10.5953 19.6318 10.7156C19.9231 10.8359 20.2477 10.8359 20.8937 10.8359H33.8327L27.816 3.61594C26.8819 2.49494 26.4148 1.93444 25.7767 1.63519C25.137 1.33594 24.4087 1.33594 22.9504 1.33594H10.0827Z" stroke="#004DC9" stroke-width="2.375" stroke-linecap="round" stroke-linejoin="round"/>
<path d="M16.4167 7.66927V26.6693M16.4167 26.6693H3.75V9.02619M16.4167 26.6693H32.25V9.2526M5.33333 6.8776V1.33594M10.096 14.0026H10.0818M10.0833 26.6693V20.3359M22.75 17.1693H25.9167" stroke="#004DC9" stroke-width="2.375" stroke-linecap="round" stroke-linejoin="round"/>
</svg>
