<svg width="30" height="34" viewBox="0 0 30 34" fill="none" xmlns="http://www.w3.org/2000/svg">
<path d="M0.757812 10.0867L14.1291 1.17249C14.3893 0.998892 14.695 0.90625 15.0078 0.90625C15.3206 0.90625 15.6264 0.998892 15.8866 1.17249L29.2578 10.0867V32.2533C29.2578 32.6732 29.091 33.076 28.7941 33.3729C28.4971 33.6698 28.0944 33.8367 27.6745 33.8367H2.34115C1.92122 33.8367 1.51849 33.6698 1.22156 33.3729C0.924627 33.076 0.757813 32.6732 0.757812 32.2533V10.0867ZM3.92448 11.7808V30.67H26.0911V11.7808L15.0078 4.3914L3.92448 11.7808ZM8.67448 24.3367H21.3411V27.5033H8.67448V24.3367ZM8.67448 19.5867H21.3411V22.7533H8.67448V19.5867ZM15.0078 16.42C14.168 16.42 13.3625 16.0864 12.7686 15.4925C12.1748 14.8986 11.8411 14.0932 11.8411 13.2533C11.8411 12.4135 12.1748 11.608 12.7686 11.0141C13.3625 10.4203 14.168 10.0867 15.0078 10.0867C15.8477 10.0867 16.6531 10.4203 17.247 11.0141C17.8408 11.608 18.1745 12.4135 18.1745 13.2533C18.1745 14.0932 17.8408 14.8986 17.247 15.4925C16.6531 16.0864 15.8477 16.42 15.0078 16.42Z" fill="#004DC9"/>
</svg>
