<svg width="801" height="515" viewBox="0 0 801 515" fill="none" xmlns="http://www.w3.org/2000/svg">
<g opacity="0.17" clip-path="url(#clip0_4_6195)">
<path d="M218.647 197.174L418.613 108.116L618.606 197.174L625.746 181.097L418.613 88.8438L211.48 181.097L218.647 197.174Z" fill="#9EC3FF"/>
<path d="M243.75 189.846L418.62 111.98L593.489 189.846V514.999H243.75V189.846Z" fill="#9EC3FF"/>
<path d="M593.482 233.734L589.805 235.372V254.644L593.482 253.006L793.475 342.065L800.641 325.987L593.482 233.734Z" fill="#9EC3FF"/>
<path d="M589.805 256.25V514.998H779.544V339.377L589.805 256.25Z" fill="#9EC3FF"/>
<path d="M244.687 233.73L248.391 235.368V254.64L244.687 253.002L44.7213 342.061L37.5547 325.983L244.687 233.73Z" fill="#9EC3FF"/>
<path d="M242.428 265.215V455.948H64.5251V343.215L242.428 265.215ZM248.306 256.25L58.5664 339.457V514.971H248.306V256.25Z" fill="#9EC3FF"/>
<path d="M565.274 92.1484H513.363V106.75H565.274V92.1484Z" fill="#9EC3FF"/>
<path d="M561.248 108.977V161.102L517.363 141.562V108.977H561.248Z" fill="#9EC3FF"/>
<path d="M366.381 348.426H343.352V360.021H366.381V348.426Z" fill="#EFEBE9"/>
<path d="M366.381 365.816H343.352V460.27H366.381V365.816Z" fill="#EFEBE9"/>
<path d="M337.662 348.426H314.633V360.021H337.662V348.426Z" fill="#EFEBE9"/>
<path d="M337.662 365.816H314.633V460.27H337.662V365.816Z" fill="#EFEBE9"/>
<path d="M366.381 203.777H343.352V215.373H366.381V203.777Z" fill="#EFEBE9"/>
<path d="M366.381 221.172H343.352V315.626H366.381V221.172Z" fill="#EFEBE9"/>
<path d="M337.662 203.777H314.633V215.373H337.662V203.777Z" fill="#EFEBE9"/>
<path d="M337.662 221.172H314.633V315.626H337.662V221.172Z" fill="#EFEBE9"/>
<path d="M444.487 203.777H421.457V215.373H444.487V203.777Z" fill="#EFEBE9"/>
<path d="M444.487 221.172H421.457V315.626H444.487V221.172Z" fill="#EFEBE9"/>
<path d="M415.772 203.777H392.742V215.373H415.772V203.777Z" fill="#EFEBE9"/>
<path d="M415.772 221.172H392.742V315.626H415.772V221.172Z" fill="#EFEBE9"/>
<path d="M522.623 203.777H499.566V215.373H522.623V203.777Z" fill="#EFEBE9"/>
<path d="M522.623 221.172H499.566V315.626H522.623V221.172Z" fill="#EFEBE9"/>
<path d="M493.904 203.777H470.848V215.373H493.904V203.777Z" fill="#EFEBE9"/>
<path d="M493.904 221.172H470.848V315.626H493.904V221.172Z" fill="#EFEBE9"/>
<path d="M524.099 348.426H501.043V360.021H524.099V348.426Z" fill="#EFEBE9"/>
<path d="M524.099 365.816H501.043V460.27H524.099V365.816Z" fill="#EFEBE9"/>
<path d="M495.385 348.426H472.328V360.021H495.385V348.426Z" fill="#EFEBE9"/>
<path d="M495.385 365.816H472.328V460.27H495.385V365.816Z" fill="#EFEBE9"/>
<path d="M659.674 348.426H636.645V360.021H659.674V348.426Z" fill="#EFEBE9"/>
<path d="M659.674 365.816H636.645V460.27H659.674V365.816Z" fill="#EFEBE9"/>
<path d="M630.982 348.426H607.926V360.021H630.982V348.426Z" fill="#EFEBE9"/>
<path d="M630.982 365.816H607.926V460.27H630.982V365.816Z" fill="#EFEBE9"/>
<path d="M746.963 348.426H723.934V360.021H746.963V348.426Z" fill="#EFEBE9"/>
<path d="M746.963 365.816H723.934V460.27H746.963V365.816Z" fill="#EFEBE9"/>
<path d="M718.244 348.426H695.215V360.021H718.244V348.426Z" fill="#EFEBE9"/>
<path d="M718.244 365.816H695.215V460.27H718.244V365.816Z" fill="#EFEBE9"/>
<path d="M380.77 348.209C385.61 343.009 391.47 338.861 397.983 336.026C404.497 333.19 411.525 331.727 418.629 331.727C425.733 331.727 432.761 333.19 439.275 336.026C445.788 338.861 451.648 343.009 456.488 348.209V513.093H380.77V348.209Z" fill="#EFEBE9"/>
<path d="M388.203 442.767C388.198 443.46 388.399 444.138 388.78 444.716C389.161 445.294 389.706 445.745 390.345 446.013C390.983 446.28 391.687 446.351 392.367 446.218C393.046 446.084 393.67 445.751 394.16 445.261C394.649 444.772 394.982 444.148 395.116 443.468C395.25 442.789 395.178 442.085 394.911 441.446C394.644 440.808 394.192 440.263 393.614 439.882C393.036 439.5 392.358 439.299 391.666 439.305C390.75 439.312 389.873 439.679 389.225 440.327C388.577 440.974 388.21 441.851 388.203 442.767Z" fill="#9EC3FF"/>
<path d="M458.961 175.434C458.961 164.755 454.719 154.515 447.168 146.964C439.618 139.414 429.377 135.172 418.699 135.172C408.021 135.172 397.78 139.414 390.23 146.964C382.679 154.515 378.438 164.755 378.438 175.434H458.961Z" fill="#EFEBE9"/>
<path d="M74.968 406.805H69.0898V473.854H74.968V406.805Z" fill="#9EC3FF"/>
<path d="M87.7688 406.805H81.8906V473.854H87.7688V406.805Z" fill="#9EC3FF"/>
<path d="M100.55 406.805H94.6719V473.854H100.55V406.805Z" fill="#9EC3FF"/>
<path d="M113.324 406.805H107.445V473.854H113.324V406.805Z" fill="#9EC3FF"/>
<path d="M126.097 406.805H120.219V473.854H126.097V406.805Z" fill="#9EC3FF"/>
<path d="M138.878 406.805H133V473.854H138.878V406.805Z" fill="#9EC3FF"/>
<path d="M151.656 406.805H145.777V473.854H151.656V406.805Z" fill="#9EC3FF"/>
<path d="M164.429 406.805H158.551V473.854H164.429V406.805Z" fill="#9EC3FF"/>
<path d="M177.23 406.805H171.352V473.854H177.23V406.805Z" fill="#9EC3FF"/>
<path d="M190.003 406.805H184.125V473.854H190.003V406.805Z" fill="#9EC3FF"/>
<path d="M202.781 406.805H196.902V473.854H202.781V406.805Z" fill="#9EC3FF"/>
<path d="M215.554 406.805H209.676V473.854H215.554V406.805Z" fill="#9EC3FF"/>
<path d="M228.339 406.805H222.461V473.854H228.339V406.805Z" fill="#9EC3FF"/>
<path d="M241.116 406.805H235.238V473.854H241.116V406.805Z" fill="#9EC3FF"/>
<path d="M243.203 412.199V406.32H60.8985V412.199H243.203Z" fill="#9EC3FF"/>
<path d="M155.544 159.598H0C3.78459 146.929 15.8631 136.246 28.5321 140.004C33.5782 122.235 53.4406 106.426 71.9073 107.338C81.1524 108.006 89.9269 111.673 96.8982 117.781C103.869 123.89 108.656 132.108 110.532 141.185C125.455 139.789 146.203 147.868 155.544 159.598Z" fill="#9EC3FF"/>
<path d="M782.174 140.002H626.684C635.085 130.956 647.083 124.327 658.893 127.896C667.079 116.65 679.668 101.27 692.874 96.9218C706.08 92.5736 722.399 95.714 730.451 107.121C735.014 104.759 744.301 106.262 748.542 109.188C750.645 110.692 752.312 112.726 753.372 115.084C754.433 117.441 754.85 120.038 754.581 122.609C763.144 119.951 779.49 131.601 782.174 140.002Z" fill="#9EC3FF"/>
<path d="M361.313 33.7094H202.172C209.607 25.2008 220.639 18.9468 231.697 21.1209C237.065 11.6997 246.299 2.3322 256.955 0.53385C262.313 -0.37499 267.806 -0.103745 273.049 1.32873C278.292 2.7612 283.16 5.3204 287.312 8.82774C297.78 4.37212 313.965 8.42507 318.555 18.8394C332.19 13.0954 354.388 20.8257 361.313 33.7094Z" fill="#9EC3FF"/>
</g>
<defs>
<clipPath id="clip0_4_6195">
<rect width="800.643" height="515" fill="white"/>
</clipPath>
</defs>
</svg>
