<svg width="61" height="62" viewBox="0 0 61 62" fill="none" xmlns="http://www.w3.org/2000/svg">
<g clip-path="url(#clip0_73_6104)">
<path d="M21.8388 24.4837L21.6233 24.2552C21.6101 24.0581 21.5654 23.8909 21.3085 23.924L21.3532 23.8859L21.3085 23.9223C21.3483 23.7435 21.2207 23.7468 21.1063 23.7352L20.997 23.6309C20.997 23.2185 20.7716 23.0198 20.3789 22.9784L20.3689 22.947C20.3727 22.903 20.3613 22.8592 20.3366 22.8227C20.3118 22.7862 20.2753 22.7593 20.2331 22.7466L20.2414 22.7615C20.253 22.6406 20.2414 22.5363 20.0906 22.5081L20.1071 22.523C20.0276 22.0262 20.3457 21.594 20.3739 21.1121L22.2961 19.2624C22.9026 19.2077 23.4743 19.2756 23.9532 19.7079C24.0128 19.7625 24.1487 19.7343 24.2481 19.7443C24.5945 20.3123 25.1976 20.6203 25.6185 21.1022C26.1116 21.6824 26.6395 22.2321 27.1994 22.7482L27.3386 22.8542L27.3286 22.8426L27.4629 22.9784L27.4546 22.9685C27.4546 23.1341 27.5308 23.2334 27.7098 23.2235C27.7098 23.3891 27.7794 23.4885 27.96 23.4818C27.96 23.6673 28.0495 23.7451 28.2268 23.7335C28.6609 24.4208 29.3718 24.8232 29.9485 25.3614C30.2799 25.6677 30.7555 25.5717 31.0686 25.2488C32.3694 23.9091 33.6023 22.5032 34.9445 21.2082C36.6712 19.5406 38.2205 17.7058 39.9522 16.0498C40.5139 15.5017 40.9812 14.8707 41.5761 14.3607C41.9738 14.0179 41.9075 13.6552 41.591 13.3572C40.8719 12.6616 40.1146 12.0075 39.3374 11.37C38.4028 10.6115 37.5312 9.78355 36.6049 8.9953C35.8244 8.33291 35.0125 7.70198 34.2386 7.02799C33.1416 6.07249 32.048 5.11533 30.9062 4.21282C30.5069 3.89487 30.1473 3.85347 29.7463 4.19792C28.361 5.39354 26.9492 6.55604 25.5373 7.72019C23.978 9.00689 22.4867 10.3698 20.9556 11.6946C19.7404 12.7444 18.5174 13.7839 17.2868 14.8128C16.8593 15.1705 16.4069 15.5 15.9611 15.8213C15.7872 15.9438 15.8286 16.1624 15.6877 16.2849C15.469 16.4307 15.5452 16.6575 15.5452 16.8529C15.5452 22.4391 15.5452 28.0242 15.5452 33.6082C15.5452 33.8003 15.4591 34.0338 15.7109 34.1546C15.8352 34.2209 15.8435 34.4262 16.0307 34.4179C16.0689 34.6249 16.2578 34.6001 16.397 34.6531L16.4119 34.7839C16.5941 34.9893 16.8361 34.9032 17.0532 34.9032C25.8909 34.9032 34.7286 34.9032 43.5663 34.9032C43.7833 34.9032 44.0253 34.9876 44.2092 34.7856C44.2092 34.7491 44.2092 34.7127 44.2092 34.6763C44.3832 34.6001 44.6317 34.6763 44.7179 34.4295C44.7293 34.4185 44.7435 34.4107 44.759 34.4072C44.7745 34.4037 44.7907 34.4046 44.8057 34.4097C44.9864 34.4097 45.0908 34.3368 45.0626 34.1381V34.1596C45.3261 33.9791 45.2067 33.7075 45.2067 33.4774C45.2067 30.3442 45.2067 27.2128 45.2067 24.0796C45.2067 23.3626 45.1554 22.6406 45.3062 21.9269L47.4206 19.7592C47.5366 19.7592 47.6476 19.7426 47.6377 19.5837L47.6228 19.5986C47.7885 19.5903 47.9177 19.5406 47.8448 19.3286L47.8779 19.3054C48.3088 19.4479 48.4347 19.7294 48.4331 20.1914C48.4181 25.5568 48.4331 30.9205 48.4331 36.2859C48.4728 37.0973 48.1016 37.6322 47.3444 37.9071C47.3029 37.9071 47.2615 37.8988 47.2201 37.8988H13.9014C13.7368 37.8726 13.5682 37.8986 13.4192 37.9733C12.4598 37.6306 12.1764 36.9003 12.1797 35.9431C12.1985 29.1602 12.2051 22.3773 12.1996 15.5944C12.1996 14.9436 12.3653 14.4352 12.9237 14.0576C13.7208 13.5161 14.3753 12.8041 15.1061 12.1831C18.0971 9.63782 21.0715 7.06774 24.0974 4.56555C25.423 3.4726 26.6294 2.23392 28.066 1.26683C28.3015 1.07711 28.5231 0.870683 28.7289 0.649146C29.6949 -0.250052 31.3023 -0.223557 32.1656 0.771689C32.618 1.29498 33.188 1.63611 33.6934 2.07329C33.9834 2.32334 34.2469 2.60486 34.522 2.87313C34.5435 3.11987 34.7142 3.13478 34.9048 3.11987C34.9528 3.42292 35.0903 3.61667 35.4367 3.5852H35.4251C35.4416 3.67132 35.4814 3.71437 35.5709 3.66469L35.6057 3.68953C35.6305 4.18633 35.9272 4.37345 36.3845 4.37676C36.3825 4.41066 36.3882 4.44456 36.4012 4.47594C36.4141 4.50733 36.434 4.53537 36.4594 4.55799C36.4847 4.5806 36.5148 4.5972 36.5475 4.60654C36.5802 4.61588 36.6145 4.61771 36.648 4.61191C36.648 4.78745 36.7308 4.87356 36.9115 4.85866H36.9032C36.9413 5.17495 37.1882 5.25609 37.4384 5.33392L37.4268 5.32399C37.4268 5.41672 37.4699 5.45978 37.566 5.43328C37.5378 5.61544 37.6638 5.61213 37.7847 5.61875C39.4087 6.94354 41.021 8.26832 42.5339 9.72228C44.0468 11.1762 45.7917 12.4066 47.3974 13.7794C48.0436 14.3325 48.09 14.5213 47.525 15.1257C47.0627 15.6225 46.5622 16.0829 46.0784 16.5598C46.0253 16.4903 45.9441 16.4356 45.8861 16.5151C45.853 16.5565 45.8994 16.6575 45.911 16.7321L45.8828 16.7536C45.616 16.6857 45.5962 16.8712 45.5763 17.055C45.4006 17.055 45.3211 17.1378 45.3211 17.3083C45.2867 17.3023 45.2513 17.3044 45.2179 17.3146C45.1845 17.3248 45.1539 17.3427 45.1287 17.3669C45.1035 17.3911 45.0844 17.4209 45.0729 17.4539C45.0614 17.4869 45.0579 17.5221 45.0626 17.5567C45.0079 17.5849 44.8223 17.4921 44.9433 17.6842C44.1429 18.5271 43.3541 19.3816 42.5422 20.2113C41.0674 21.7094 39.5628 23.1943 38.0283 24.6659C37.0656 25.5949 36.121 26.5487 35.2113 27.5456C34.596 28.2528 33.9315 28.9157 33.2228 29.5295C32.4457 30.1737 31.8972 31.0596 31.0968 31.7005C30.7654 31.5995 30.5649 31.9174 30.2583 31.9671C29.6767 32.0615 29.3403 31.6359 28.8813 31.4852C28.8697 31.0795 28.6129 30.9238 28.2566 30.8675C28.2798 30.7715 28.2367 30.7284 28.1423 30.7268L28.1588 30.7367C28.1456 30.6489 28.1041 30.6059 28.013 30.644L27.9898 30.6291C28.0428 30.4635 27.9235 30.4552 27.8125 30.4436C27.7628 30.1124 27.6352 29.8772 27.259 29.8739C27.2839 29.6818 27.2126 29.5957 27.0121 29.6553L26.9889 29.6305C26.9757 29.1999 26.7437 28.983 26.3261 28.9466C26.3029 28.7677 26.2863 28.5806 26.0212 28.6618L25.993 28.6319C25.9598 28.4016 25.8541 28.1879 25.6911 28.0217C25.5281 27.8556 25.3164 27.7457 25.0866 27.7079C24.9922 27.3038 24.8016 26.9958 24.3393 26.9594C24.3161 26.7772 24.2863 26.6017 24.0294 26.6713L24.0062 26.6497C24.0675 26.4841 23.9449 26.4841 23.8405 26.4643C23.8445 26.4311 23.8409 26.3974 23.83 26.3658C23.8191 26.3341 23.8011 26.3054 23.7776 26.2817C23.754 26.2579 23.7253 26.2398 23.6938 26.2287C23.6622 26.2176 23.6285 26.2138 23.5953 26.2175C23.6007 26.1664 23.5941 26.1148 23.5762 26.0667C23.5582 26.0185 23.5292 25.9753 23.4916 25.9402C23.454 25.9052 23.4087 25.8794 23.3594 25.8649C23.3101 25.8504 23.2581 25.8475 23.2075 25.8565C23.1843 25.3597 22.9241 25.0948 22.4303 25.0567L22.4187 25.0269C22.4337 24.9292 22.4022 24.8878 22.3027 24.9292L22.2713 24.9093C22.3309 24.694 22.2448 24.6327 22.0442 24.6924L22.0194 24.6642C22.0857 24.4854 21.9548 24.4953 21.8388 24.4837Z" fill="#004DC9"/>
<path d="M58.854 51.7197C58.2431 53.3415 57.5853 54.9422 56.8805 56.522C56.3535 57.0271 56.1779 57.6812 56.1099 58.3718C55.3063 58.9249 55.414 59.8622 55.1588 60.6421L55.1687 60.6338C55.0146 60.7299 54.7147 60.6256 54.7031 60.9087C54.6766 61.5811 54.4628 61.8013 53.7735 61.8576C53.2764 61.899 52.7594 61.7351 52.2722 61.9636H52.022C51.7204 61.4668 52.3037 61.0379 52.133 60.551C52.129 60.5458 52.1262 60.5399 52.1247 60.5335C52.1233 60.5272 52.1231 60.5205 52.1244 60.5141C52.1257 60.5077 52.1282 60.5017 52.132 60.4963C52.1358 60.491 52.1406 60.4865 52.1462 60.4832C52.2048 60.4613 52.2569 60.4249 52.2974 60.3774C52.338 60.3299 52.3658 60.2728 52.3782 60.2116C52.4926 59.4382 52.814 58.7361 53.1454 58.0406C53.2189 57.883 53.2556 57.7108 53.2528 57.5369C53.2499 57.3631 53.2075 57.1921 53.1289 57.0371C51.9402 54.1291 50.756 51.2207 49.5761 48.3117C49.3657 47.7917 49.1801 47.2601 48.9862 46.7335C48.915 46.5447 48.784 46.3195 49.1718 46.3427C49.3375 46.5083 49.5562 46.4437 49.7518 46.4454C50.5455 46.4454 51.3376 46.4454 52.1313 46.4454L54.9301 53.7897C55.9045 51.6849 56.4844 49.5686 57.366 47.5748L57.4439 47.4092L57.4339 47.4224C57.8283 47.2204 57.7388 46.7418 57.9857 46.4553C58.538 46.4297 59.0912 46.4352 59.6428 46.4719C60.067 46.5199 60.5575 46.2798 60.9154 46.7021L60.0869 48.6892C59.6047 48.9343 59.5285 49.3516 59.6163 49.8269L59.6279 49.8137C59.4837 49.86 59.4738 49.961 59.5169 50.0852C59.2087 50.2177 59.2087 50.4827 59.2335 50.7476V50.7808C58.8226 50.9861 58.8474 51.3554 58.854 51.7197Z" fill="#004DC9"/>
<path d="M24.6572 51.66C24.8876 52.0293 25.4543 52.0326 25.5869 52.5112C25.5869 52.6287 25.5869 52.743 25.7343 52.7827L25.7244 52.7712C25.7111 52.8871 25.7244 52.9914 25.8553 53.0328L25.8454 53.0229C26.0024 53.8645 25.9667 54.7307 25.741 55.5565H25.7542C25.4576 55.5946 25.451 55.8082 25.4675 56.0351C25.2946 56.1017 25.138 56.2044 25.0079 56.3363C24.8779 56.4682 24.7776 56.6264 24.7136 56.8002C24.1672 57.1025 23.5886 57.3425 22.9886 57.5155H19.3762C17.6744 57.2589 16.3736 56.3183 16.0703 54.404C16.8458 54.1622 17.6462 54.351 18.43 54.2798C18.57 54.2685 18.7108 54.2853 18.8442 54.3291C18.9777 54.3729 19.101 54.4428 19.2071 54.5348C19.7192 55.5499 21.078 55.7817 22.5826 55.3628C22.7483 55.5284 22.7069 55.3495 22.7284 55.2733C22.7631 55.2795 22.7987 55.2772 22.8323 55.2666C22.8658 55.256 22.8963 55.2375 22.9212 55.2127C22.9461 55.1878 22.9646 55.1573 22.9752 55.1238C22.9858 55.0902 22.9881 55.0546 22.9819 55.02C23.0742 54.9445 23.1474 54.8485 23.196 54.7396C23.2445 54.6308 23.2669 54.5122 23.2614 54.3931C23.256 54.2741 23.2227 54.158 23.1644 54.0541C23.1061 53.9502 23.0244 53.8613 22.9256 53.7945C22.3539 53.3524 21.6662 53.2034 20.9868 53.0676C19.7589 52.8208 18.5244 52.5906 17.4622 51.8852C16.8359 51.4695 16.5177 50.832 16.4001 50.0736C16.0687 47.9108 18.0886 46.4205 19.8484 46.3228H21.8667C22.3738 46.3873 22.8394 46.7152 23.3813 46.5612V46.5513C23.3581 46.7848 23.5288 46.7848 23.6912 46.8444C24.1289 46.9929 24.5276 47.2379 24.8578 47.5612C25.1879 47.8846 25.4411 48.278 25.5985 48.7123C25.7045 48.9955 25.6797 49.3019 25.3864 49.2836C24.4882 49.2323 23.4608 49.7026 22.7566 48.7256C22.7267 48.6702 22.6762 48.6289 22.616 48.6106C22.5558 48.5923 22.4908 48.5985 22.4351 48.6279L22.4633 48.6047L22.4301 48.6213C22.4931 48.252 22.2363 48.3331 22.0324 48.3381H22.001C21.9991 48.302 21.99 48.2666 21.9744 48.234C21.9588 48.2013 21.9369 48.1721 21.91 48.1479C21.883 48.1238 21.8516 48.1052 21.8174 48.0932C21.7833 48.0812 21.7471 48.0761 21.711 48.0781H20.1682C20.1324 48.074 20.0961 48.0772 20.0615 48.0875C20.027 48.0978 19.9948 48.115 19.9671 48.1381C19.9394 48.1611 19.9166 48.1896 19.9002 48.2217C19.8838 48.2538 19.8741 48.2889 19.8716 48.3248L19.8269 48.3348H19.7788L19.633 48.4788C19.6349 48.494 19.6336 48.5094 19.629 48.524C19.6244 48.5385 19.6167 48.552 19.6065 48.5633C19.5245 48.5736 19.4457 48.6021 19.3761 48.6466C19.3064 48.6911 19.2475 48.7506 19.2038 48.8206C19.16 48.8907 19.1323 48.9697 19.1229 49.0518C19.1134 49.1339 19.1224 49.217 19.1491 49.2952C19.2204 49.5834 19.0845 50.0471 19.6148 50.0769C19.9324 50.3573 20.3299 50.531 20.7515 50.5737C21.2089 50.9049 21.7739 50.8138 22.2793 50.9661C23.0018 51.1847 23.7326 51.3702 24.46 51.5706C24.4786 51.605 24.508 51.6323 24.5436 51.6485C24.5792 51.6646 24.6191 51.6687 24.6572 51.66Z" fill="#004DC9"/>
<path d="M3.16927 54.77C3.17586 54.7658 3.18323 54.763 3.19093 54.7617C3.19863 54.7605 3.20651 54.7608 3.21409 54.7626C3.22167 54.7645 3.22881 54.7679 3.23506 54.7725C3.24131 54.7772 3.24654 54.7831 3.25046 54.7898C3.41617 54.8875 3.58188 55.2105 3.74758 54.7981H3.99448C4.16019 54.9637 4.38555 54.8991 4.58606 54.8991C5.65984 54.8991 6.74025 54.8991 7.80906 54.8991C9.08003 54.8991 9.08003 54.8991 9.08003 56.1328C9.06758 56.2982 9.06758 56.4643 9.08003 56.6296C9.16619 57.2109 8.95906 57.4063 8.34595 57.398C5.57864 57.3649 2.80802 57.3848 0.0390625 57.3848V55.5168C0.204769 55.3197 0.135177 55.0813 0.136834 54.8544C0.136834 52.8087 0.136834 50.7625 0.136834 48.7157C0.136834 46.7285 0.146776 44.7413 0.136834 42.7641C0.136834 42.3683 0.24288 42.206 0.658804 42.2226C1.50391 42.259 2.35067 42.2557 3.19743 42.2673C3.19743 42.3799 3.19743 42.4909 3.19743 42.5985C2.87928 42.7045 2.99859 42.9744 2.99694 43.1781C2.99031 46.8345 2.99031 50.4915 2.99694 54.149C3.00522 54.3692 2.89917 54.6242 3.16927 54.77Z" fill="#004DC9"/>
<path d="M27.1553 47.7785C26.9714 46.3394 26.9714 46.3427 28.3617 46.3295C28.5572 46.3295 28.7809 46.4139 28.9367 46.2103C29.2118 45.5363 29.0162 44.8341 29.0461 44.1452C29.0626 43.7611 29.1422 43.5839 29.5664 43.6004C30.3485 43.6319 31.1323 43.617 31.9161 43.622C31.9758 44.4831 31.7819 45.3541 32.0255 46.2086C32.0378 46.2206 32.0463 46.2359 32.0499 46.2528C32.0534 46.2696 32.0518 46.2871 32.0454 46.303C32.0735 46.3941 32.0967 46.4967 32.2111 46.4934C32.2359 46.4934 32.2591 46.4057 32.284 46.3576H34.9999C34.9999 46.9952 34.9916 47.6344 35.0264 48.272C35.0496 48.7191 34.8607 48.8366 34.4464 48.8251C33.6859 48.8019 32.9236 48.8251 32.1613 48.8251L32.0454 48.9907C32.0508 49.0047 32.0517 49.0201 32.0478 49.0347C32.0439 49.0493 32.0355 49.0623 32.0238 49.0718C31.4819 49.3136 31.9426 49.6878 31.931 49.9842C31.883 51.1616 31.9095 52.3424 31.9095 53.5214C31.9095 53.8096 31.883 54.1093 32.1945 54.2815C32.3834 54.6127 32.7148 54.7468 33.023 54.9108C33.0943 55.1973 33.3346 55.1509 33.5351 55.1575C33.8665 55.1675 34.1979 55.237 34.5111 55.2205C34.9171 55.1973 34.8922 55.3861 34.8905 55.6477C34.8905 56.2654 34.8905 56.8831 34.8905 57.5024H34.7563C33.9422 57.326 33.0997 57.326 32.2856 57.5024C31.0379 57.5024 29.5631 56.6082 29.3029 55.55C29.2863 55.3463 29.2863 55.141 29.2515 54.9389C28.9417 53.1472 29.0063 51.3455 29.1306 49.5437C29.1703 48.9608 28.9847 48.7389 28.3749 48.8101C27.3807 48.9244 27.3476 48.8996 27.3111 47.9159C27.3128 47.8232 27.3128 47.8232 27.1553 47.7785Z" fill="#004DC9"/>
<path d="M40.8449 57.4908H40.2186C39.4878 57.2375 38.7272 57.4577 37.9915 57.3733C37.9915 52.4831 37.9915 47.5914 37.9766 42.7012C37.9766 42.1465 38.1903 41.9809 38.7007 41.971C39.4211 41.9651 40.1411 42.011 40.8549 42.1084L40.8449 57.4908Z" fill="#004DC9"/>
<path d="M13.7943 57.5157H13.733H13.6667C13.0503 57.2739 12.4057 57.4146 11.7793 57.4196C11.2342 57.4196 11.0287 57.307 11.0353 56.7059C11.0685 53.586 11.0751 50.4661 11.0353 47.3479C11.0353 46.7468 11.2441 46.5199 11.7611 46.4951C12.2781 46.4703 12.7752 46.457 13.2823 46.4669C13.6618 46.4669 13.8076 46.6971 13.7993 47.078C13.7794 47.906 13.7993 48.734 13.791 49.562C13.791 52.1873 13.791 54.812 13.791 57.4362C13.7935 57.4626 13.7946 57.4891 13.7943 57.5157Z" fill="#004DC9"/>
<path d="M13.8075 43.1184C14.1953 44.0441 13.7164 44.8754 12.7619 45.1056C12.4788 45.1947 12.1752 45.1961 11.8913 45.1095C11.6073 45.0229 11.3563 44.8524 11.1712 44.6204L11.0568 44.4647L11.0469 44.4167C11.0949 43.8007 10.9938 43.1648 11.2855 42.5802C11.708 42.5901 11.998 42.2142 12.4952 42.2821C13.1132 42.3699 13.39 42.8154 13.8075 43.1184Z" fill="#004DC9"/>
<path d="M44.3233 57.5057C44.0449 57.4692 44.1708 57.249 44.1708 57.1182C44.1509 52.1751 44.1459 47.2303 44.1211 42.2872C44.1211 41.8765 44.2338 41.7506 44.6447 41.7705C45.3266 41.802 46.0097 41.7987 46.6912 41.7606C47.1535 41.7357 47.2894 41.8914 47.2861 42.3567C47.2629 46.7616 47.2629 51.1682 47.253 55.5748C47.253 56.1329 47.2364 56.6909 47.2248 57.249C47.2248 57.3682 47.243 57.5106 47.0491 57.5007C47.0491 57.4576 47.0574 57.4129 47.0624 57.3699C47.0624 52.5223 47.0624 47.6746 47.0624 42.827C47.0624 42.3302 47.1303 41.9245 46.3764 41.999C45.697 42.0702 44.9944 41.8616 44.3133 42.0901C44.1575 42.269 44.2172 42.4842 44.2172 42.6846C44.2172 47.3512 44.2172 52.0177 44.2172 56.6843C44.2172 56.8847 44.1609 57.0999 44.3067 57.2804C44.3034 57.3085 44.3034 57.3369 44.3067 57.3649L44.3233 57.5057Z" fill="#004DC9"/>
<path d="M13.7951 49.5503C13.7951 48.7223 13.7835 47.8943 13.8034 47.0663C13.8117 46.6854 13.6659 46.4619 13.2864 46.4553C12.7793 46.4453 12.2706 46.4553 11.7652 46.4834C11.2598 46.5116 11.0311 46.7351 11.0394 47.3362C11.0792 50.4544 11.0725 53.5743 11.0394 56.6942C11.0394 57.2953 11.2383 57.4129 11.7834 57.4079C12.4098 57.4079 13.0544 57.2622 13.6708 57.504C12.8655 57.5139 12.0602 57.504 11.2565 57.5387C10.9466 57.5503 10.877 57.4377 10.877 57.1463C10.8604 53.6731 10.835 50.1994 10.8008 46.7252C10.8008 46.4155 10.8604 46.2913 11.2051 46.2963C12.0104 46.3079 12.8174 46.2863 13.6228 46.2483C13.9674 46.2317 14.0337 46.3725 14.0337 46.6821C14.0205 50.1597 14.0188 53.6372 14.0072 57.1049C14.0072 57.2589 14.1215 57.5122 13.7934 57.5073C13.7978 57.4788 13.8006 57.45 13.8017 57.4212C13.8954 57.2829 13.9316 57.1137 13.9028 56.9492C13.9028 54.6375 13.9028 52.3252 13.9028 50.0123C13.8995 49.8533 13.936 49.6811 13.7951 49.5503Z" fill="#004DC9"/>
<path d="M13.418 37.9751C13.5669 37.9004 13.7356 37.8743 13.9002 37.9006H47.2189C47.2603 37.9006 47.3017 37.9006 47.3431 37.9088C47.1559 38.1076 46.914 38.0181 46.6985 38.0181C35.8304 38.0181 24.9622 38.0181 14.0941 38.0181C13.8687 38.0198 13.6433 37.9883 13.418 37.9751Z" fill="#004DC9"/>
<path d="M40.8544 42.1148C40.1406 42.0175 39.4206 41.9715 38.7002 41.9774C38.1898 41.9873 37.9728 42.1529 37.9761 42.7077C37.996 47.5978 37.9893 52.4896 37.991 57.3797C37.9868 57.4188 37.9868 57.4582 37.991 57.4973C37.7176 57.3764 37.8634 57.1363 37.8617 56.9607C37.8269 52.1468 37.8104 47.3328 37.7656 42.5172C37.7656 41.9509 37.8452 41.6893 38.4947 41.782C39.2255 41.8813 39.9762 41.729 40.7136 41.8631C40.8793 41.8929 41.0019 41.8996 40.9439 42.1099L40.8544 42.1148Z" fill="#004DC9"/>
<path d="M15.7039 34.1663C15.4503 34.0455 15.5381 33.812 15.5381 33.6199C15.5381 28.0348 15.5381 22.4497 15.5381 16.8646C15.5381 16.6692 15.4619 16.4424 15.6807 16.2966C15.6807 22.0683 15.6768 27.8394 15.6691 33.6099C15.6674 33.7871 15.6923 33.9726 15.7039 34.1663Z" fill="#004DC9"/>
<path d="M48.4301 36.2858C48.4301 30.9204 48.4152 25.5567 48.4301 20.1913C48.4301 19.7293 48.3058 19.4478 47.875 19.3054C48.2926 19.1166 48.4898 19.2954 48.5378 19.7078C48.5445 19.8109 48.5445 19.9143 48.5378 20.0175C48.5378 25.2294 48.5378 30.4413 48.5378 35.6532C48.5378 35.8619 48.6522 36.107 48.4301 36.2858Z" fill="#004DC9"/>
<path d="M0.0429688 57.3864C2.81193 57.3864 5.58254 57.3666 8.34985 57.3997C8.96297 57.408 9.1701 57.2126 9.08393 56.6313C9.07148 56.4659 9.07148 56.2999 9.08393 56.1345C9.08393 54.9041 9.08393 54.9025 7.81296 54.9008C6.73918 54.9008 5.65876 54.9008 4.58996 54.9008C4.38945 54.9008 4.17238 54.967 3.99839 54.7998C5.61072 54.7998 7.22139 54.7998 8.83206 54.7766C9.1353 54.7766 9.22644 54.8727 9.21815 55.1641C9.19992 55.7834 9.18335 56.4061 9.21815 57.0238C9.23969 57.4345 9.11044 57.5371 8.70778 57.5355C5.98024 57.5173 3.25271 57.5355 0.525171 57.5222C0.361121 57.5156 0.147364 57.6282 0.0429688 57.3864Z" fill="#004DC9"/>
<path d="M3.19755 42.2804C2.35079 42.2688 1.50403 42.2721 0.658921 42.2357C0.242997 42.2191 0.133626 42.3814 0.136941 42.7772C0.153511 44.7644 0.136941 46.7516 0.136941 48.7288C0.136941 50.7756 0.136941 52.8219 0.136941 54.8675C0.136941 55.0878 0.209857 55.3263 0.0391791 55.5299C0.0259226 51.1935 0.0115597 46.8565 -0.00390625 42.5189C-0.00390625 42.2688 -0.00390866 42.09 0.345733 42.1032C1.27203 42.1363 2.20166 42.133 3.12796 42.143C3.15281 42.186 3.17601 42.2291 3.19921 42.2721L3.19755 42.2804Z" fill="#004DC9"/>
<path d="M40.8554 42.115H40.9515C40.9603 46.404 40.968 50.6919 40.9747 54.9787C40.9747 55.6808 40.9896 56.3813 40.9747 57.0818C40.9747 57.2225 41.084 57.4229 40.8438 57.4974L40.8554 42.115Z" fill="#004DC9"/>
<path d="M3.16744 54.7699C2.90065 54.6242 3.00173 54.3675 3.00173 54.1589C2.9951 50.5003 2.9951 46.8433 3.00173 43.188C3.00173 42.9843 2.88408 42.7144 3.20224 42.6084C3.20224 42.9396 3.19064 43.2857 3.18567 43.6235C3.07727 43.93 3.07377 44.2637 3.17572 44.5724C3.22542 44.8728 3.22542 45.1794 3.17572 45.4799L3.14258 45.5229L3.1691 45.571C3.16137 48.2205 3.15363 50.8751 3.1459 53.5346C3.14258 53.9469 3.15915 54.3576 3.16744 54.7699Z" fill="#004DC9"/>
<path d="M22.4336 48.6279C22.4892 48.5985 22.5542 48.5923 22.6145 48.6106C22.6747 48.6289 22.7252 48.6703 22.7551 48.7256C23.4593 49.7026 24.4867 49.2323 25.3848 49.2837C25.6781 49.3019 25.703 48.9955 25.5969 48.7124C25.4377 48.2777 25.1825 47.8845 24.8503 47.562C24.5181 47.2394 24.1174 46.9959 23.6781 46.8494C23.5123 46.7898 23.3466 46.7898 23.3682 46.5563C24.6392 46.8279 25.6284 47.7685 25.8273 48.8747C25.9068 49.3234 25.8389 49.5933 25.2804 49.5155C24.9506 49.4695 24.616 49.4695 24.2862 49.5155C23.461 49.6414 22.8048 49.441 22.4336 48.6279Z" fill="#004DC9"/>
<path d="M45.2905 21.9336C45.1397 22.644 45.191 23.366 45.191 24.0864C45.191 27.2195 45.191 30.351 45.191 33.4841C45.191 33.7143 45.3103 33.9809 45.0469 34.1663C45.0546 30.4183 45.0634 26.6708 45.0734 22.9239C45.0684 22.5745 44.9922 22.2118 45.2905 21.9336Z" fill="#004DC9"/>
<path d="M27.1543 47.7784C27.3117 47.8232 27.3117 47.8232 27.32 47.9109C27.3565 48.8946 27.3879 48.9194 28.3838 48.8052C28.9936 48.7339 29.1792 48.9558 29.1395 49.5388C29.0152 51.3405 28.9506 53.1422 29.2604 54.9339C29.2952 55.136 29.2952 55.3413 29.3118 55.545C28.9804 54.972 28.9555 54.3295 28.9423 53.7002C28.9141 52.2777 28.9174 50.8569 28.9423 49.4344C28.9423 49.0651 28.8528 48.9244 28.4601 48.9376C28.0359 48.9525 27.6001 49.0237 27.1792 48.883V48.8565C27.1792 48.7505 27.1792 48.6462 27.1792 48.5419C27.1847 48.5386 27.1892 48.534 27.1924 48.5285C27.1956 48.523 27.1972 48.5168 27.1972 48.5104C27.1972 48.504 27.1956 48.4978 27.1924 48.4922C27.1892 48.4867 27.1847 48.4821 27.1792 48.4789C27.1113 48.2514 27.1028 48.0102 27.1543 47.7784Z" fill="#004DC9"/>
<path d="M34.8949 57.4908C34.8949 56.8714 34.8949 56.2538 34.8949 55.6361C34.8949 55.3777 34.9214 55.1857 34.5154 55.2088C34.2039 55.2254 33.8675 55.1558 33.5394 55.1459C33.3389 55.1459 33.0986 55.1857 33.0273 54.8992C33.5646 55.0204 34.1175 55.0573 34.6662 55.0085C34.9976 54.9969 35.1501 55.0764 35.1335 55.4407C35.107 55.9905 35.1335 56.5436 35.1153 57.0967C35.1119 57.2474 35.2097 57.4974 34.8949 57.4908Z" fill="#004DC9"/>
<path d="M24.4585 51.554C23.7311 51.3537 23.0003 51.1682 22.2778 50.9496C21.7807 50.7972 21.2074 50.8916 20.75 50.5571C22.0541 50.6399 23.3052 50.9181 24.4585 51.554Z" fill="#004DC9"/>
<path d="M32.1968 54.2698C31.8853 54.1042 31.9118 53.7978 31.9118 53.5097C31.9118 52.3306 31.8853 51.1499 31.9334 49.9725C31.945 49.6761 31.4843 49.3101 32.0262 49.0601C32.0262 50.3103 32.0427 51.5622 32.0378 52.8125C32.0158 53.3035 32.0695 53.795 32.1968 54.2698Z" fill="#004DC9"/>
<path d="M19.375 57.5156H22.9874C21.8003 57.8021 20.5621 57.8021 19.375 57.5156Z" fill="#004DC9"/>
<path d="M31.9143 43.6219C31.1305 43.6219 30.3467 43.6318 29.5646 43.6004C29.1404 43.5838 29.0675 43.766 29.0443 44.1452C29.0144 44.8341 29.21 45.5362 28.9349 46.2102C28.9349 45.4319 28.92 44.6536 28.915 43.8769C28.915 43.7113 28.8885 43.4911 29.1172 43.501C30.0799 43.544 31.0526 43.3354 32.0054 43.6103C31.9748 43.6118 31.9443 43.6157 31.9143 43.6219Z" fill="#004DC9"/>
<path d="M52.2773 61.9686C52.7645 61.74 53.2799 61.904 53.7786 61.8626C54.468 61.8063 54.6817 61.586 54.7083 60.9137C54.7199 60.6305 55.0198 60.7348 55.1739 60.6388C54.7629 61.9868 54.7629 61.9868 53.3694 61.9868C53.0031 61.9868 52.6369 61.9752 52.2773 61.9686Z" fill="#004DC9"/>
<path d="M32.1641 48.8185C32.9263 48.8185 33.6886 48.8019 34.4492 48.8185C34.8618 48.8301 35.0523 48.7125 35.0291 48.2654C34.9943 47.6278 35.0092 46.9886 35.0026 46.3511C35.334 46.6823 35.1352 47.1062 35.1418 47.4805C35.1683 48.9377 35.1518 48.9394 33.7051 48.9377C33.1931 48.9377 32.6794 48.9261 32.1674 48.9212C32.1657 48.8914 32.1641 48.8549 32.1641 48.8185Z" fill="#004DC9"/>
<path d="M13.8111 43.1184C13.3935 42.8154 13.1168 42.3699 12.4987 42.2905C12.0016 42.2226 11.7116 42.5985 11.2891 42.5885C12.1309 41.7142 13.4747 41.9973 13.8111 43.1184Z" fill="#004DC9"/>
<path d="M28.8828 31.4769C29.3418 31.6243 29.6782 32.0532 30.2598 31.9588C30.5664 31.9091 30.7652 31.5912 31.0983 31.6922C30.3791 32.497 29.655 32.4275 28.8828 31.4769Z" fill="#004DC9"/>
<path d="M55.1562 60.6471C55.4114 59.8638 55.3037 58.9298 56.1074 58.3767C55.8508 59.1574 55.5327 59.9165 55.1562 60.6471Z" fill="#004DC9"/>
<path d="M32.2891 57.4973C33.1032 57.3209 33.9456 57.3209 34.7598 57.4973C33.9398 57.6065 33.109 57.6065 32.2891 57.4973Z" fill="#004DC9"/>
<path d="M24.2489 19.7592C24.1495 19.7493 24.0136 19.7774 23.9539 19.7228C23.4734 19.2906 22.9017 19.226 22.2969 19.2773C23.0293 18.86 23.5662 18.9925 24.2489 19.7592Z" fill="#004DC9"/>
<path d="M11.2907 42.5835C10.9991 43.1681 11.1002 43.804 11.0521 44.42C10.6246 43.7145 10.7025 43.1084 11.2907 42.5835Z" fill="#004DC9"/>
<path d="M19.2078 54.5348C19.1018 54.4428 18.9784 54.3729 18.8449 54.3291C18.7115 54.2853 18.5707 54.2685 18.4307 54.2797C17.6469 54.351 16.8465 54.1622 16.071 54.4039C15.9699 54.1291 16.1622 54.1506 16.3279 54.1506C17.1481 54.1506 17.9667 54.1688 18.7853 54.1506C19.1001 54.1257 19.1598 54.298 19.2078 54.5348Z" fill="#004DC9"/>
<path d="M60.9141 46.7036C60.5561 46.2813 60.0657 46.5214 59.6414 46.4734C59.0898 46.4367 58.5366 46.4312 57.9844 46.4569V46.3525C58.9057 46.3525 59.827 46.3525 60.7467 46.326C61.1311 46.3161 60.9804 46.5181 60.9141 46.7036Z" fill="#004DC9"/>
<path d="M56.1094 58.37C56.1773 57.6761 56.353 57.0253 56.8799 56.5203C56.67 57.1553 56.4125 57.7737 56.1094 58.37Z" fill="#004DC9"/>
<path d="M19.6127 50.0636C19.0825 50.0338 19.2183 49.5668 19.1471 49.282C19.1204 49.2038 19.1114 49.1206 19.1208 49.0385C19.1303 48.9564 19.1579 48.8775 19.2017 48.8074C19.2455 48.7373 19.3044 48.6778 19.374 48.6333C19.4437 48.5888 19.5224 48.5604 19.6044 48.55C19.2797 49.07 19.2598 49.5668 19.6127 50.0636Z" fill="#004DC9"/>
<path d="M25.7422 55.5566C25.9679 54.7308 26.0036 53.8645 25.8466 53.0229C26.2625 53.8857 26.1946 54.7286 25.7422 55.5566Z" fill="#004DC9"/>
<path d="M19.8672 48.3215C19.8696 48.2855 19.8794 48.2504 19.8958 48.2183C19.9122 48.1862 19.935 48.1578 19.9627 48.1347C19.9904 48.1116 20.0225 48.0944 20.0571 48.0841C20.0917 48.0738 20.128 48.0706 20.1638 48.0747H21.7065C21.7427 48.0727 21.7788 48.0779 21.813 48.0898C21.8471 48.1018 21.8786 48.1204 21.9055 48.1446C21.9325 48.1687 21.9544 48.198 21.97 48.2306C21.9856 48.2632 21.9946 48.2986 21.9965 48.3347C21.2999 48.1457 20.5661 48.1412 19.8672 48.3215Z" fill="#004DC9"/>
<path d="M52.1275 46.4587C51.3338 46.4587 50.5417 46.4587 49.7479 46.4587C49.5524 46.4587 49.337 46.5216 49.168 46.356L51.8955 46.3345C51.9933 46.3312 52.1109 46.313 52.1275 46.4587Z" fill="#004DC9"/>
<path d="M52.1298 60.5609C52.2955 61.0478 51.7172 61.4767 52.0188 61.9735C51.6542 62.048 51.4587 61.9851 51.6675 61.5628C51.8299 61.2316 51.9757 60.8954 52.1298 60.5609Z" fill="#004DC9"/>
<path d="M47.0632 57.3699C47.0632 57.413 47.0549 57.4577 47.05 57.5007H44.3241C44.3241 57.4544 44.3158 57.408 44.3125 57.3633L47.0632 57.3699Z" fill="#004DC9"/>
<path d="M31.9157 43.6219C31.9457 43.6157 31.9762 43.6119 32.0068 43.6104C32.0135 44.4759 32.0195 45.342 32.0251 46.2086C31.7815 45.3541 31.9754 44.4831 31.9157 43.6219Z" fill="#004DC9"/>
<path d="M23.37 46.5662C22.8282 46.7202 22.3625 46.4006 21.8555 46.3277C21.8555 46.2963 21.8555 46.2648 21.8555 46.2317C22.3758 46.2979 22.9094 46.2648 23.37 46.5662Z" fill="#004DC9"/>
<path d="M37.9953 57.4957C37.9912 57.4566 37.9912 57.4172 37.9953 57.3781C38.736 57.4625 39.4867 57.2423 40.2224 57.4957H37.9953Z" fill="#004DC9"/>
<path d="M59.6097 49.8352C59.5219 49.3549 59.5981 48.9426 60.0804 48.6975C59.987 49.1 59.828 49.4843 59.6097 49.8352Z" fill="#004DC9"/>
<path d="M20.3672 21.1138C20.3391 21.5957 20.0209 22.0212 20.1005 22.5247C19.8386 21.9881 19.9397 21.5195 20.3672 21.1138Z" fill="#004DC9"/>
<path d="M25.0859 27.7078C25.3174 27.7444 25.5309 27.8543 25.6953 28.0212C25.8596 28.1881 25.9661 28.4033 25.999 28.6351L25.0859 27.7078Z" fill="#004DC9"/>
<path d="M22.4336 25.0583C22.9307 25.0964 23.1876 25.3614 23.2108 25.8582C22.9144 25.6305 22.6526 25.3611 22.4336 25.0583Z" fill="#004DC9"/>
<path d="M36.3687 4.37009C35.9113 4.37009 35.6147 4.178 35.5898 3.68286C35.8533 3.91139 36.1731 4.07202 36.3687 4.37009Z" fill="#004DC9"/>
<path d="M21.8621 46.2317C21.8621 46.2648 21.8621 46.2963 21.8621 46.3277H19.8438C20.5033 46.1191 21.1843 46.1936 21.8621 46.2317Z" fill="#004DC9"/>
<path d="M57.9737 46.3525V46.4569C57.7268 46.7434 57.808 47.2219 57.4219 47.424C57.581 47.0563 57.513 46.5678 57.9737 46.3525Z" fill="#004DC9"/>
<path d="M24.7188 56.7902C24.7827 56.6164 24.8831 56.4583 25.0131 56.3264C25.1431 56.1944 25.2998 56.0917 25.4727 56.0251C25.3233 56.3636 25.0551 56.6357 24.7188 56.7902Z" fill="#004DC9"/>
<path d="M22.9141 53.798C23.0128 53.8647 23.0946 53.9536 23.1529 54.0575C23.2112 54.1614 23.2444 54.2775 23.2499 54.3966C23.2554 54.5156 23.2329 54.6342 23.1844 54.7431C23.1359 54.8519 23.0626 54.9479 22.9704 55.0234C23.0689 54.832 23.1156 54.6182 23.1057 54.4032C23.0958 54.1882 23.0297 53.9795 22.9141 53.798Z" fill="#004DC9"/>
<path d="M24.3438 26.9626C24.8061 26.9991 24.9966 27.3071 25.0911 27.7112C24.8011 27.5061 24.5483 27.2529 24.3438 26.9626Z" fill="#004DC9"/>
<path d="M58.8521 51.7197C58.8521 51.3587 58.8206 50.9894 59.2266 50.7957C59.1601 51.1242 59.0331 51.4375 58.8521 51.7197Z" fill="#004DC9"/>
<path d="M26.3281 28.9482C26.7474 28.9847 26.9794 29.2016 26.991 29.6322C26.77 29.4058 26.5491 29.1779 26.3281 28.9482Z" fill="#004DC9"/>
<path d="M28.2578 30.8658C28.6141 30.9221 28.8709 31.0778 28.8825 31.4835C28.6326 31.3245 28.4196 31.1139 28.2578 30.8658Z" fill="#004DC9"/>
<path d="M20.3711 22.98C20.7638 23.0214 20.9875 23.2201 20.9892 23.6324C20.7422 23.4577 20.5321 23.236 20.3711 22.98Z" fill="#004DC9"/>
<path d="M35.4225 3.58349C35.0762 3.62324 34.9387 3.4179 34.8906 3.11816C35.1015 3.23009 35.2836 3.38937 35.4225 3.58349Z" fill="#004DC9"/>
<path d="M27.2656 29.8739C27.6418 29.8739 27.7627 30.1206 27.8191 30.4436C27.5967 30.2945 27.4081 30.1004 27.2656 29.8739Z" fill="#004DC9"/>
<path d="M3.17555 44.5724C3.0736 44.2638 3.0771 43.93 3.1855 43.6235C3.24103 43.9377 3.23766 44.2595 3.17555 44.5724Z" fill="#004DC9"/>
<path d="M37.4259 5.31902C37.1756 5.24119 36.9287 5.15342 36.8906 4.84375C37.1097 4.94953 37.295 5.11408 37.4259 5.31902Z" fill="#004DC9"/>
<path d="M59.2363 50.7591C59.2115 50.4858 59.2115 50.2209 59.5197 50.0967C59.4853 50.3386 59.3876 50.5671 59.2363 50.7591Z" fill="#004DC9"/>
<path d="M25.4661 56.0252C25.4495 55.7983 25.4561 55.5847 25.7528 55.5466C25.7397 55.6416 25.7076 55.733 25.6584 55.8152C25.6091 55.8975 25.5437 55.9689 25.4661 56.0252Z" fill="#004DC9"/>
<path d="M22.0312 48.3383C22.2351 48.3383 22.4919 48.2522 22.4289 48.6215L22.0312 48.3383Z" fill="#004DC9"/>
<path d="M3.74712 54.7981C3.58141 55.2104 3.41571 54.8875 3.25 54.7898L3.74712 54.7981Z" fill="#004DC9"/>
<path d="M34.8984 3.12151C34.7078 3.13641 34.5372 3.12151 34.5156 2.87477C34.7012 2.86814 34.8006 2.99234 34.8984 3.12151Z" fill="#004DC9"/>
<path d="M23.2109 25.8632C23.2609 25.8544 23.3123 25.8572 23.3611 25.8713C23.4098 25.8855 23.4547 25.9107 23.4921 25.9449C23.5296 25.9792 23.5587 26.0216 23.5772 26.0689C23.5957 26.1161 23.603 26.167 23.5987 26.2176L23.2109 25.8632Z" fill="#004DC9"/>
<path d="M21.3008 23.9255C21.5576 23.8907 21.6024 24.058 21.6156 24.2567C21.4765 24.1847 21.3656 24.068 21.3008 23.9255Z" fill="#004DC9"/>
<path d="M26.0234 28.6667C26.2886 28.5856 26.3051 28.7727 26.3283 28.9515L26.0234 28.6667Z" fill="#004DC9"/>
<path d="M45.5703 17.0401C45.5902 16.8563 45.6101 16.6708 45.8769 16.7387L45.5703 17.0401Z" fill="#004DC9"/>
<path d="M45.9038 16.7172C45.8922 16.6426 45.8458 16.5416 45.8789 16.5002C45.9369 16.4207 46.0181 16.4754 46.0711 16.5449L45.9038 16.7172Z" fill="#004DC9"/>
<path d="M24.0352 26.6762C24.292 26.6067 24.3218 26.7822 24.345 26.9644L24.0352 26.6762Z" fill="#004DC9"/>
<path d="M27.9536 23.482C27.773 23.482 27.6984 23.3942 27.7034 23.2236L27.9536 23.482Z" fill="#004DC9"/>
<path d="M28.2124 23.7334C28.0351 23.745 27.939 23.6672 27.9456 23.4817L28.2124 23.7334Z" fill="#004DC9"/>
<path d="M22.0469 24.699C22.2474 24.6394 22.3335 24.699 22.2739 24.916L22.0469 24.699Z" fill="#004DC9"/>
<path d="M22.9762 55.0186C22.9823 55.0532 22.98 55.0888 22.9694 55.1223C22.9589 55.1559 22.9404 55.1864 22.9155 55.2112C22.8906 55.2361 22.8601 55.2546 22.8265 55.2652C22.7929 55.2757 22.7573 55.2781 22.7227 55.2719L22.9762 55.0186Z" fill="#004DC9"/>
<path d="M23.5938 26.2175C23.6281 26.2124 23.6633 26.2155 23.6962 26.2264C23.7292 26.2374 23.7592 26.2559 23.7837 26.2806C23.8082 26.3052 23.8266 26.3353 23.8373 26.3683C23.8481 26.4014 23.8509 26.4365 23.8456 26.4708L23.5938 26.2175Z" fill="#004DC9"/>
<path d="M27.0156 29.6571C27.2161 29.5975 27.2874 29.6836 27.2625 29.8757L27.0156 29.6571Z" fill="#004DC9"/>
<path d="M45.0498 34.1414C45.078 34.3401 44.9736 34.4129 44.793 34.4129C44.8775 34.3219 44.9636 34.2324 45.0498 34.1414Z" fill="#004DC9"/>
<path d="M45.0645 17.5318C45.0598 17.4972 45.0634 17.462 45.0748 17.429C45.0863 17.396 45.1055 17.3662 45.1306 17.342C45.1558 17.3178 45.1864 17.2998 45.2198 17.2897C45.2532 17.2795 45.2886 17.2773 45.323 17.2834C45.3021 17.3419 45.2678 17.3948 45.223 17.4379C45.1781 17.481 45.1239 17.5132 45.0645 17.5318Z" fill="#004DC9"/>
<path d="M32.2855 46.3576C32.2606 46.4056 32.2374 46.4934 32.2126 46.4934C32.0949 46.4934 32.0717 46.3941 32.0469 46.303L32.2855 46.3576Z" fill="#004DC9"/>
<path d="M36.6378 4.60856C36.6038 4.61551 36.5687 4.61454 36.5352 4.60572C36.5017 4.59691 36.4706 4.58049 36.4445 4.55774C36.4184 4.53499 36.3979 4.50652 36.3845 4.47456C36.3712 4.44259 36.3654 4.40797 36.3677 4.37341L36.6378 4.60856Z" fill="#004DC9"/>
<path d="M36.8963 4.85538C36.7157 4.87029 36.6328 4.78418 36.6328 4.60864C36.6926 4.62701 36.7475 4.65879 36.7931 4.70155C36.8388 4.74431 36.8741 4.79692 36.8963 4.85538Z" fill="#004DC9"/>
<path d="M45.3203 17.2886C45.3203 17.123 45.3999 17.0286 45.5755 17.0352L45.3203 17.2886Z" fill="#004DC9"/>
<path d="M47.8431 19.3286C47.9161 19.5406 47.7934 19.5903 47.6211 19.5985C47.6333 19.5389 47.66 19.4831 47.6987 19.4361C47.7374 19.3891 47.787 19.3522 47.8431 19.3286Z" fill="#004DC9"/>
<path d="M52.3745 60.2215C52.3621 60.2827 52.3343 60.3398 52.2937 60.3873C52.2531 60.4349 52.2011 60.4712 52.1425 60.4931C52.1346 60.4593 52.1348 60.424 52.143 60.3903C52.1513 60.3565 52.1673 60.3252 52.1899 60.2988C52.2125 60.2724 52.2409 60.2516 52.273 60.2382C52.305 60.2248 52.3398 60.219 52.3745 60.2215Z" fill="#004DC9"/>
<path d="M27.7083 23.2367C27.5294 23.2466 27.4515 23.1539 27.4532 22.9817L27.7083 23.2367Z" fill="#004DC9"/>
<path d="M47.639 19.5835C47.6489 19.7491 47.5379 19.7491 47.4219 19.759L47.639 19.5835Z" fill="#004DC9"/>
<path d="M59.5068 50.0935C59.4637 49.9693 59.4737 49.8683 59.6178 49.8219C59.6095 49.9229 59.6095 50.0306 59.5068 50.0935Z" fill="#004DC9"/>
<path d="M44.9542 17.6561C44.8333 17.464 45.0189 17.5567 45.0735 17.5286L44.9542 17.6561Z" fill="#004DC9"/>
<path d="M24.6571 51.66C24.618 51.6663 24.5779 51.6595 24.5431 51.6406C24.5084 51.6217 24.4808 51.5918 24.4648 51.5557C24.5527 51.5441 24.6289 51.554 24.6571 51.66Z" fill="#004DC9"/>
<path d="M25.7336 52.7828C25.5927 52.7431 25.5844 52.6288 25.5861 52.5112C25.7087 52.5626 25.7236 52.6719 25.7336 52.7828Z" fill="#004DC9"/>
<path d="M25.854 53.0329C25.7198 52.9915 25.7099 52.8872 25.7231 52.7712C25.8557 52.8143 25.8474 52.9269 25.854 53.0329Z" fill="#004DC9"/>
<path d="M37.7774 5.60393C37.6564 5.60393 37.5305 5.60393 37.5587 5.41846L37.7774 5.60393Z" fill="#004DC9"/>
<path d="M23.8398 26.4692C23.9509 26.4808 24.0735 26.4808 24.0056 26.6547L23.8398 26.4692Z" fill="#004DC9"/>
<path d="M27.8164 30.4402C27.9274 30.4518 28.0467 30.4567 27.9937 30.6257L27.8164 30.4402Z" fill="#004DC9"/>
<path d="M21.8359 24.4836C21.9486 24.4952 22.0828 24.4836 22.0215 24.6708L21.8359 24.4836Z" fill="#004DC9"/>
<path d="M22.7279 55.2668C22.7063 55.343 22.7527 55.5268 22.582 55.3563L22.7279 55.2668Z" fill="#004DC9"/>
<path d="M21.0977 23.7335C21.212 23.7451 21.3396 23.7335 21.2998 23.9206L21.0977 23.7335Z" fill="#004DC9"/>
<path d="M20.082 22.5098C20.2262 22.5379 20.2477 22.6422 20.2328 22.7631C20.1019 22.7284 20.0953 22.6174 20.082 22.5098Z" fill="#004DC9"/>
<path d="M3.20407 42.259C3.18087 42.2159 3.15767 42.1729 3.13281 42.1298C3.25378 42.1149 3.24218 42.1811 3.20407 42.259Z" fill="#004DC9"/>
<path d="M28.1445 30.7234C28.239 30.7234 28.2821 30.7681 28.2589 30.8641L28.1445 30.7234Z" fill="#004DC9"/>
<path d="M37.5533 5.41838C37.4571 5.44487 37.4174 5.40182 37.4141 5.30908L37.5533 5.41838Z" fill="#004DC9"/>
<path d="M35.5599 3.6581C35.4704 3.70778 35.4306 3.6581 35.4141 3.57861L35.5599 3.6581Z" fill="#004DC9"/>
<path d="M28.0156 30.6406C28.1068 30.6025 28.1482 30.6406 28.1614 30.7333L28.0156 30.6406Z" fill="#004DC9"/>
<path d="M22.3047 24.9356C22.4041 24.8942 22.4356 24.9356 22.4207 25.0333C22.3809 25.0019 22.3428 24.9688 22.3047 24.9356Z" fill="#004DC9"/>
<path d="M27.1577 48.479C27.1632 48.4822 27.1677 48.4868 27.1709 48.4923C27.1741 48.4978 27.1757 48.5041 27.1757 48.5105C27.1757 48.5168 27.1741 48.5231 27.1709 48.5286C27.1677 48.5341 27.1632 48.5387 27.1577 48.5419L27.1328 48.5088L27.1577 48.479Z" fill="#004DC9"/>
<path d="M27.3384 22.8608L27.1992 22.7549C27.2854 22.74 27.3218 22.7863 27.3384 22.8608Z" fill="#004DC9"/>
<path d="M20.2227 22.7483C20.2649 22.761 20.3014 22.7879 20.3262 22.8244C20.3509 22.8609 20.3623 22.9048 20.3585 22.9487C20.3183 22.9329 20.2837 22.9053 20.2595 22.8696C20.2352 22.8338 20.2224 22.7915 20.2227 22.7483Z" fill="#004DC9"/>
<path d="M11.0597 44.468L11.174 44.6237C11.1387 44.6172 11.1072 44.5975 11.0859 44.5685C11.0646 44.5396 11.0553 44.5036 11.0597 44.468Z" fill="#004DC9"/>
<path d="M27.1624 48.8564L27.1691 48.8833L27.1406 48.8749L27.1624 48.8564Z" fill="#004DC9"/>
<path d="M3.16323 45.5694L3.13672 45.523L3.16986 45.48L3.19637 45.528L3.16323 45.5694Z" fill="#004DC9"/>
<path d="M32.1662 48.8184C32.1662 48.8548 32.1662 48.8912 32.1662 48.9277L32.0469 48.979L32.1662 48.8184Z" fill="#004DC9"/>
<path d="M16.3906 34.6631L44.1979 34.6863C44.1979 34.7227 44.1979 34.7591 44.1979 34.7956H16.4089L16.3906 34.6631Z" fill="#004DC9"/>
<path d="M16.4062 34.7871H44.1953C44.0114 34.9891 43.7694 34.9047 43.5523 34.9047C34.7146 34.9047 25.8797 34.9047 17.0475 34.9047C16.8305 34.9063 16.5885 34.9941 16.4062 34.7871Z" fill="#004DC9"/>
<path d="M13.7969 49.5503C13.9377 49.6811 13.9013 49.8533 13.9029 50.0156C13.9029 52.3274 13.9029 54.6397 13.9029 56.9525C13.9317 57.117 13.8955 57.2862 13.8018 57.4245C13.8018 54.8003 13.8002 52.1756 13.7969 49.5503Z" fill="#004DC9"/>
<path d="M47.0657 57.3698H44.315C44.3117 57.3418 44.3117 57.3134 44.315 57.2854V42.0934C44.996 41.8649 45.6986 42.0735 46.378 42.0023C47.132 41.9245 47.0657 42.3335 47.0641 42.8303C47.0596 47.6757 47.0602 52.5222 47.0657 57.3698Z" fill="#004DC9"/>
<path d="M44.3232 42.0934V57.2837C44.1774 57.1032 44.2337 56.8879 44.2337 56.6876C44.2337 52.021 44.2337 47.3544 44.2337 42.6879C44.2204 42.4875 44.1575 42.2805 44.3232 42.0934Z" fill="#004DC9"/>
</g>
<defs>
<clipPath id="clip0_73_6104">
<rect width="61" height="62" fill="white"/>
</clipPath>
</defs>
</svg>
