<svg width="61" height="62" viewBox="0 0 61 62" fill="none" xmlns="http://www.w3.org/2000/svg">
<g clip-path="url(#clip0_161_232)">
<path d="M21.8388 24.4848L21.6233 24.2563C21.6101 24.0592 21.5654 23.892 21.3085 23.9251L21.3532 23.887L21.3085 23.9234C21.3483 23.7446 21.2207 23.7479 21.1063 23.7363L20.997 23.632C20.997 23.2196 20.7716 23.0209 20.3789 22.9795L20.3689 22.9481C20.3727 22.9041 20.3613 22.8603 20.3366 22.8238C20.3118 22.7873 20.2753 22.7604 20.2331 22.7477L20.2414 22.7626C20.253 22.6417 20.2414 22.5374 20.0906 22.5092L20.1071 22.5241C20.0276 22.0273 20.3457 21.5951 20.3739 21.1132L22.2961 19.2635C22.9026 19.2088 23.4743 19.2767 23.9532 19.709C24.0128 19.7636 24.1487 19.7354 24.2481 19.7454C24.5945 20.3134 25.1976 20.6214 25.6185 21.1033C26.1116 21.6835 26.6395 22.2332 27.1994 22.7493L27.3386 22.8553L27.3286 22.8437L27.4629 22.9795L27.4546 22.9696C27.4546 23.1352 27.5308 23.2345 27.7098 23.2246C27.7098 23.3902 27.7794 23.4896 27.96 23.4829C27.96 23.6684 28.0495 23.7462 28.2268 23.7346C28.6609 24.4219 29.3718 24.8243 29.9485 25.3625C30.2799 25.6688 30.7555 25.5728 31.0686 25.2499C32.3694 23.9102 33.6023 22.5043 34.9445 21.2093C36.6712 19.5417 38.2205 17.7069 39.9522 16.0509C40.5139 15.5028 40.9812 14.8718 41.5761 14.3618C41.9738 14.019 41.9075 13.6563 41.591 13.3583C40.8719 12.6627 40.1146 12.0086 39.3374 11.3711C38.4028 10.6126 37.5312 9.78465 36.6049 8.9964C35.8244 8.33401 35.0125 7.70308 34.2386 7.02909C33.1416 6.07359 32.048 5.11643 30.9062 4.21392C30.5069 3.89597 30.1473 3.85457 29.7463 4.19902C28.361 5.39464 26.9492 6.55714 25.5373 7.72129C23.978 9.00799 22.4867 10.3709 20.9556 11.6957C19.7404 12.7455 18.5174 13.7849 17.2868 14.8139C16.8593 15.1716 16.4069 15.5011 15.9611 15.8224C15.7872 15.9449 15.8286 16.1635 15.6877 16.286C15.469 16.4318 15.5452 16.6586 15.5452 16.854C15.5452 22.4402 15.5452 28.0253 15.5452 33.6093C15.5452 33.8014 15.4591 34.0349 15.7109 34.1557C15.8352 34.222 15.8435 34.4273 16.0307 34.419C16.0689 34.626 16.2578 34.6012 16.397 34.6542L16.4119 34.785C16.5941 34.9904 16.8361 34.9043 17.0532 34.9043C25.8909 34.9043 34.7286 34.9043 43.5663 34.9043C43.7833 34.9043 44.0253 34.9887 44.2092 34.7867C44.2092 34.7502 44.2092 34.7138 44.2092 34.6774C44.3832 34.6012 44.6317 34.6774 44.7179 34.4306C44.7293 34.4196 44.7435 34.4118 44.759 34.4083C44.7745 34.4048 44.7907 34.4057 44.8057 34.4108C44.9864 34.4108 45.0908 34.3379 45.0626 34.1392V34.1607C45.3261 33.9802 45.2067 33.7086 45.2067 33.4785C45.2067 30.3453 45.2067 27.2139 45.2067 24.0807C45.2067 23.3637 45.1554 22.6417 45.3062 21.928L47.4206 19.7603C47.5366 19.7603 47.6476 19.7437 47.6377 19.5848L47.6228 19.5997C47.7885 19.5914 47.9177 19.5417 47.8448 19.3297L47.8779 19.3065C48.3088 19.449 48.4347 19.7305 48.4331 20.1925C48.4181 25.5579 48.4331 30.9216 48.4331 36.287C48.4728 37.0984 48.1016 37.6333 47.3444 37.9082C47.3029 37.9082 47.2615 37.8999 47.2201 37.8999H13.9014C13.7368 37.8737 13.5682 37.8997 13.4192 37.9744C12.4598 37.6317 12.1764 36.9014 12.1797 35.9442C12.1985 29.1613 12.2051 22.3784 12.1996 15.5955C12.1996 14.9447 12.3653 14.4363 12.9237 14.0587C13.7208 13.5172 14.3753 12.8052 15.1061 12.1842C18.0971 9.63892 21.0715 7.06883 24.0974 4.56664C25.423 3.4737 26.6294 2.23502 28.066 1.26793C28.3015 1.07821 28.5231 0.871782 28.7289 0.650245C29.6949 -0.248954 31.3023 -0.222458 32.1656 0.772787C32.618 1.29608 33.188 1.63721 33.6934 2.07439C33.9834 2.32444 34.2469 2.60596 34.522 2.87423C34.5435 3.12097 34.7142 3.13588 34.9048 3.12097C34.9528 3.42402 35.0903 3.61777 35.4367 3.5863H35.4251C35.4416 3.67241 35.4814 3.71547 35.5709 3.66579L35.6057 3.69063C35.6305 4.18742 35.9272 4.37455 36.3845 4.37786C36.3825 4.41176 36.3882 4.44566 36.4012 4.47704C36.4141 4.50842 36.434 4.53647 36.4594 4.55909C36.4847 4.5817 36.5148 4.5983 36.5475 4.60764C36.5802 4.61698 36.6145 4.61881 36.648 4.61301C36.648 4.78855 36.7308 4.87466 36.9115 4.85975H36.9032C36.9413 5.17605 37.1882 5.25719 37.4384 5.33502L37.4268 5.32509C37.4268 5.41782 37.4699 5.46088 37.566 5.43438C37.5378 5.61654 37.6638 5.61323 37.7847 5.61985C39.4087 6.94464 41.021 8.26942 42.5339 9.72338C44.0468 11.1773 45.7917 12.4077 47.3974 13.7805C48.0436 14.3336 48.09 14.5224 47.525 15.1268C47.0627 15.6236 46.5622 16.084 46.0784 16.5609C46.0253 16.4914 45.9441 16.4367 45.8861 16.5162C45.853 16.5576 45.8994 16.6586 45.911 16.7332L45.8828 16.7547C45.616 16.6868 45.5962 16.8723 45.5763 17.0561C45.4006 17.0561 45.3211 17.1389 45.3211 17.3094C45.2867 17.3034 45.2513 17.3055 45.2179 17.3157C45.1845 17.3259 45.1539 17.3438 45.1287 17.368C45.1035 17.3922 45.0844 17.422 45.0729 17.455C45.0614 17.488 45.0579 17.5232 45.0626 17.5578C45.0079 17.586 44.8223 17.4932 44.9433 17.6853C44.1429 18.5282 43.3541 19.3827 42.5422 20.2124C41.0674 21.7105 39.5628 23.1953 38.0283 24.667C37.0656 25.596 36.121 26.5498 35.2113 27.5467C34.596 28.2539 33.9315 28.9168 33.2228 29.5306C32.4457 30.1748 31.8972 31.0607 31.0968 31.7016C30.7654 31.6006 30.5649 31.9185 30.2583 31.9682C29.6767 32.0626 29.3403 31.637 28.8813 31.4863C28.8697 31.0806 28.6129 30.9249 28.2566 30.8686C28.2798 30.7726 28.2367 30.7295 28.1423 30.7279L28.1588 30.7378C28.1456 30.65 28.1041 30.607 28.013 30.6451L27.9898 30.6302C28.0428 30.4646 27.9235 30.4563 27.8125 30.4447C27.7628 30.1135 27.6352 29.8783 27.259 29.875C27.2839 29.6829 27.2126 29.5968 27.0121 29.6564L26.9889 29.6316C26.9757 29.201 26.7437 28.9841 26.3261 28.9477C26.3029 28.7688 26.2863 28.5817 26.0212 28.6629L25.993 28.633C25.9598 28.4027 25.8541 28.189 25.6911 28.0228C25.5281 27.8567 25.3164 27.7468 25.0866 27.709C24.9922 27.3049 24.8016 26.9969 24.3393 26.9605C24.3161 26.7783 24.2863 26.6028 24.0294 26.6724L24.0062 26.6508C24.0675 26.4852 23.9449 26.4852 23.8405 26.4654C23.8445 26.4322 23.8409 26.3985 23.83 26.3669C23.8191 26.3352 23.8011 26.3065 23.7776 26.2828C23.754 26.259 23.7253 26.2409 23.6938 26.2298C23.6622 26.2187 23.6285 26.2149 23.5953 26.2186C23.6007 26.1675 23.5941 26.1159 23.5762 26.0678C23.5582 26.0196 23.5292 25.9764 23.4916 25.9413C23.454 25.9063 23.4087 25.8805 23.3594 25.866C23.3101 25.8515 23.2581 25.8486 23.2075 25.8576C23.1843 25.3608 22.9241 25.0959 22.4303 25.0578L22.4187 25.028C22.4337 24.9303 22.4022 24.8889 22.3027 24.9303L22.2713 24.9104C22.3309 24.6951 22.2448 24.6338 22.0442 24.6935L22.0194 24.6653C22.0857 24.4865 21.9548 24.4964 21.8388 24.4848Z" fill="#438BFF"/>
<path d="M58.854 51.7185C58.2431 53.3402 57.5853 54.941 56.8805 56.5208C56.3535 57.0259 56.1779 57.68 56.1099 58.3706C55.3063 58.9237 55.414 59.8609 55.1588 60.6409L55.1687 60.6326C55.0146 60.7287 54.7147 60.6243 54.7031 60.9075C54.6766 61.5799 54.4628 61.8001 53.7735 61.8564C53.2764 61.8978 52.7594 61.7339 52.2722 61.9624H52.022C51.7204 61.4656 52.3037 61.0367 52.133 60.5498C52.129 60.5446 52.1262 60.5387 52.1247 60.5323C52.1233 60.5259 52.1231 60.5193 52.1244 60.5129C52.1257 60.5065 52.1282 60.5004 52.132 60.4951C52.1358 60.4898 52.1406 60.4853 52.1462 60.4819C52.2048 60.4601 52.2569 60.4237 52.2974 60.3762C52.338 60.3287 52.3658 60.2716 52.3782 60.2104C52.4926 59.437 52.814 58.7349 53.1454 58.0394C53.2189 57.8818 53.2556 57.7095 53.2528 57.5357C53.2499 57.3618 53.2075 57.1909 53.1289 57.0358C51.9402 54.1279 50.756 51.2195 49.5761 48.3105C49.3657 47.7905 49.1801 47.2589 48.9862 46.7323C48.915 46.5435 48.784 46.3183 49.1718 46.3415C49.3375 46.5071 49.5562 46.4425 49.7518 46.4442C50.5455 46.4442 51.3376 46.4442 52.1313 46.4442L54.9301 53.7885C55.9045 51.6837 56.4844 49.5674 57.366 47.5735L57.4439 47.408L57.4339 47.4212C57.8283 47.2192 57.7388 46.7406 57.9857 46.4541C58.538 46.4284 59.0912 46.434 59.6428 46.4707C60.067 46.5187 60.5575 46.2786 60.9154 46.7008L60.0869 48.688C59.6047 48.9331 59.5285 49.3504 59.6163 49.8257L59.6279 49.8124C59.4837 49.8588 59.4738 49.9598 59.5169 50.084C59.2087 50.2165 59.2087 50.4815 59.2335 50.7464V50.7795C58.8226 50.9849 58.8474 51.3542 58.854 51.7185Z" fill="#438BFF"/>
<path d="M24.6572 51.6615C24.8876 52.0307 25.4543 52.034 25.5869 52.5126C25.5869 52.6302 25.5869 52.7445 25.7343 52.7842L25.7244 52.7726C25.7111 52.8885 25.7244 52.9929 25.8553 53.0343L25.8454 53.0243C26.0024 53.8659 25.9667 54.7321 25.741 55.558H25.7542C25.4576 55.5961 25.451 55.8097 25.4675 56.0366C25.2946 56.1031 25.138 56.2058 25.0079 56.3378C24.8779 56.4697 24.7776 56.6278 24.7136 56.8016C24.1672 57.104 23.5886 57.3439 22.9886 57.517H19.3762C17.6744 57.2603 16.3736 56.3197 16.0703 54.4054C16.8458 54.1636 17.6462 54.3524 18.43 54.2812C18.57 54.27 18.7108 54.2868 18.8442 54.3306C18.9777 54.3744 19.101 54.4443 19.2071 54.5362C19.7192 55.5514 21.078 55.7832 22.5826 55.3642C22.7483 55.5298 22.7069 55.351 22.7284 55.2748C22.7631 55.2809 22.7987 55.2786 22.8323 55.2681C22.8658 55.2575 22.8963 55.239 22.9212 55.2141C22.9461 55.1893 22.9646 55.1588 22.9752 55.1252C22.9858 55.0917 22.9881 55.0561 22.9819 55.0214C23.0742 54.9459 23.1474 54.8499 23.196 54.7411C23.2445 54.6323 23.2669 54.5136 23.2614 54.3946C23.256 54.2756 23.2227 54.1595 23.1644 54.0556C23.1061 53.9516 23.0244 53.8628 22.9256 53.796C22.3539 53.3539 21.6662 53.2048 20.9868 53.069C19.7589 52.8223 18.5244 52.5921 17.4622 51.8867C16.8359 51.471 16.5177 50.8335 16.4001 50.075C16.0687 47.9123 18.0886 46.4219 19.8484 46.3242H21.8667C22.3738 46.3888 22.8394 46.7167 23.3813 46.5627V46.5527C23.3581 46.7862 23.5288 46.7862 23.6912 46.8459C24.1289 46.9943 24.5276 47.2393 24.8578 47.5627C25.1879 47.886 25.4411 48.2794 25.5985 48.7138C25.7045 48.997 25.6797 49.3033 25.3864 49.2851C24.4882 49.2338 23.4608 49.7041 22.7566 48.727C22.7267 48.6717 22.6762 48.6304 22.616 48.6121C22.5558 48.5938 22.4908 48.6 22.4351 48.6293L22.4633 48.6062L22.4301 48.6227C22.4931 48.2534 22.2363 48.3346 22.0324 48.3395H22.001C21.9991 48.3034 21.99 48.268 21.9744 48.2354C21.9588 48.2028 21.9369 48.1736 21.91 48.1494C21.883 48.1253 21.8516 48.1067 21.8174 48.0947C21.7833 48.0827 21.7471 48.0775 21.711 48.0796H20.1682C20.1324 48.0754 20.0961 48.0786 20.0615 48.0889C20.027 48.0992 19.9948 48.1165 19.9671 48.1395C19.9394 48.1626 19.9166 48.191 19.9002 48.2231C19.8838 48.2552 19.8741 48.2903 19.8716 48.3263L19.8269 48.3362H19.7788L19.633 48.4803C19.6349 48.4955 19.6336 48.5109 19.629 48.5254C19.6244 48.54 19.6167 48.5534 19.6065 48.5648C19.5245 48.5751 19.4457 48.6035 19.3761 48.648C19.3064 48.6926 19.2475 48.752 19.2038 48.8221C19.16 48.8922 19.1323 48.9712 19.1229 49.0533C19.1134 49.1353 19.1224 49.2185 19.1491 49.2967C19.2204 49.5848 19.0845 50.0485 19.6148 50.0783C19.9324 50.3587 20.3299 50.5325 20.7515 50.5751C21.2089 50.9063 21.7739 50.8152 22.2793 50.9676C23.0018 51.1862 23.7326 51.3717 24.46 51.572C24.4786 51.6064 24.508 51.6338 24.5436 51.6499C24.5792 51.6661 24.6191 51.6701 24.6572 51.6615Z" fill="#438BFF"/>
<path d="M3.16927 54.7712C3.17586 54.767 3.18323 54.7642 3.19093 54.7629C3.19863 54.7617 3.20651 54.762 3.21409 54.7639C3.22167 54.7657 3.22881 54.7691 3.23506 54.7737C3.24131 54.7784 3.24654 54.7843 3.25046 54.7911C3.41617 54.8888 3.58188 55.2117 3.74758 54.7993H3.99448C4.16019 54.9649 4.38555 54.9003 4.58606 54.9003C5.65984 54.9003 6.74025 54.9003 7.80906 54.9003C9.08003 54.9003 9.08003 54.9003 9.08003 56.1341C9.06758 56.2994 9.06758 56.4655 9.08003 56.6309C9.16619 57.2121 8.95906 57.4075 8.34595 57.3992C5.57864 57.3661 2.80802 57.386 0.0390625 57.386V55.518C0.204769 55.321 0.135177 55.0825 0.136834 54.8556C0.136834 52.8099 0.136834 50.7637 0.136834 48.7169C0.136834 46.7297 0.146776 44.7426 0.136834 42.7653C0.136834 42.3695 0.24288 42.2072 0.658804 42.2238C1.50391 42.2602 2.35067 42.2569 3.19743 42.2685C3.19743 42.3811 3.19743 42.4921 3.19743 42.5997C2.87928 42.7057 2.99859 42.9756 2.99694 43.1793C2.99031 46.8357 2.99031 50.4927 2.99694 54.1502C3.00522 54.3704 2.89917 54.6255 3.16927 54.7712Z" fill="#438BFF"/>
<path d="M27.1553 47.7807C26.9714 46.3416 26.9714 46.3449 28.3617 46.3317C28.5572 46.3317 28.7809 46.4161 28.9367 46.2125C29.2118 45.5385 29.0162 44.8363 29.0461 44.1474C29.0626 43.7633 29.1422 43.5861 29.5664 43.6026C30.3485 43.6341 31.1323 43.6192 31.9161 43.6242C31.9758 44.4853 31.7819 45.3563 32.0255 46.2108C32.0378 46.2227 32.0463 46.2381 32.0499 46.2549C32.0534 46.2718 32.0518 46.2893 32.0454 46.3052C32.0735 46.3963 32.0967 46.4989 32.2111 46.4956C32.2359 46.4956 32.2591 46.4079 32.284 46.3598H34.9999C34.9999 46.9974 34.9916 47.6366 35.0264 48.2741C35.0496 48.7213 34.8607 48.8388 34.4464 48.8273C33.6859 48.8041 32.9236 48.8273 32.1613 48.8273L32.0454 48.9928C32.0508 49.0069 32.0517 49.0223 32.0478 49.0369C32.0439 49.0515 32.0355 49.0645 32.0238 49.074C31.4819 49.3158 31.9426 49.69 31.931 49.9864C31.883 51.1638 31.9095 52.3446 31.9095 53.5236C31.9095 53.8118 31.883 54.1115 32.1945 54.2837C32.3834 54.6149 32.7148 54.749 33.023 54.913C33.0943 55.1995 33.3346 55.1531 33.5351 55.1597C33.8665 55.1697 34.1979 55.2392 34.5111 55.2227C34.9171 55.1995 34.8922 55.3883 34.8905 55.6499C34.8905 56.2676 34.8905 56.8853 34.8905 57.5046H34.7563C33.9422 57.3282 33.0997 57.3282 32.2856 57.5046C31.0379 57.5046 29.5631 56.6104 29.3029 55.5522C29.2863 55.3485 29.2863 55.1432 29.2515 54.9411C28.9417 53.1494 29.0063 51.3477 29.1306 49.5459C29.1703 48.963 28.9847 48.7411 28.3749 48.8123C27.3807 48.9266 27.3476 48.9018 27.3111 47.9181C27.3128 47.8254 27.3128 47.8254 27.1553 47.7807Z" fill="#438BFF"/>
<path d="M40.8449 57.4891H40.2186C39.4878 57.2358 38.7272 57.456 37.9915 57.3715C37.9915 52.4814 37.9915 47.5897 37.9766 42.6995C37.9766 42.1448 38.1903 41.9792 38.7007 41.9692C39.4211 41.9634 40.1411 42.0093 40.8549 42.1067L40.8449 57.4891Z" fill="#438BFF"/>
<path d="M13.7943 57.5169H13.733H13.6667C13.0503 57.2751 12.4057 57.4159 11.7793 57.4208C11.2342 57.4208 11.0287 57.3082 11.0353 56.7071C11.0685 53.5872 11.0751 50.4674 11.0353 47.3491C11.0353 46.748 11.2441 46.5212 11.7611 46.4963C12.2781 46.4715 12.7752 46.4582 13.2823 46.4682C13.6618 46.4682 13.8076 46.6983 13.7993 47.0792C13.7794 47.9072 13.7993 48.7352 13.791 49.5632C13.791 52.1885 13.791 54.8132 13.791 57.4374C13.7935 57.4638 13.7946 57.4903 13.7943 57.5169Z" fill="#438BFF"/>
<path d="M13.8075 43.1179C14.1953 44.0436 13.7164 44.8749 12.7619 45.1051C12.4788 45.1942 12.1752 45.1956 11.8913 45.109C11.6073 45.0224 11.3563 44.8519 11.1712 44.6199L11.0568 44.4642L11.0469 44.4162C11.0949 43.8002 10.9938 43.1643 11.2855 42.5797C11.708 42.5897 11.998 42.2138 12.4952 42.2816C13.1132 42.3694 13.39 42.8149 13.8075 43.1179Z" fill="#438BFF"/>
<path d="M44.3233 57.5054C44.0449 57.469 44.1708 57.2487 44.1708 57.1179C44.1509 52.1748 44.1459 47.23 44.1211 42.2869C44.1211 41.8763 44.2338 41.7504 44.6447 41.7703C45.3266 41.8017 46.0097 41.7984 46.6912 41.7603C47.1535 41.7355 47.2894 41.8912 47.2861 42.3565C47.2629 46.7614 47.2629 51.168 47.253 55.5745C47.253 56.1326 47.2364 56.6907 47.2248 57.2487C47.2248 57.368 47.243 57.5104 47.0491 57.5005C47.0491 57.4574 47.0574 57.4127 47.0624 57.3696C47.0624 52.522 47.0624 47.6744 47.0624 42.8268C47.0624 42.33 47.1303 41.9243 46.3764 41.9988C45.697 42.07 44.9944 41.8614 44.3133 42.0899C44.1575 42.2687 44.2172 42.484 44.2172 42.6844C44.2172 47.3509 44.2172 52.0175 44.2172 56.6841C44.2172 56.8844 44.1609 57.0997 44.3067 57.2802C44.3034 57.3083 44.3034 57.3366 44.3067 57.3647L44.3233 57.5054Z" fill="#438BFF"/>
<path d="M13.7951 49.5494C13.7951 48.7214 13.7835 47.8934 13.8034 47.0655C13.8117 46.6846 13.6659 46.461 13.2864 46.4544C12.7793 46.4445 12.2706 46.4544 11.7652 46.4825C11.2598 46.5107 11.0311 46.7343 11.0394 47.3354C11.0792 50.4536 11.0725 53.5735 11.0394 56.6933C11.0394 57.2945 11.2383 57.412 11.7834 57.4071C12.4098 57.4071 13.0544 57.2613 13.6708 57.5031C12.8655 57.513 12.0602 57.5031 11.2565 57.5379C10.9466 57.5495 10.877 57.4369 10.877 57.1454C10.8604 53.6723 10.835 50.1986 10.8008 46.7243C10.8008 46.4147 10.8604 46.2905 11.2051 46.2954C12.0104 46.307 12.8174 46.2855 13.6228 46.2474C13.9674 46.2308 14.0337 46.3716 14.0337 46.6813C14.0205 50.1588 14.0188 53.6364 14.0072 57.104C14.0072 57.258 14.1215 57.5114 13.7934 57.5064C13.7978 57.4779 13.8006 57.4492 13.8017 57.4203C13.8954 57.282 13.9316 57.1128 13.9028 56.9484C13.9028 54.6366 13.9028 52.3243 13.9028 50.0114C13.8995 49.8525 13.936 49.6802 13.7951 49.5494Z" fill="#438BFF"/>
<path d="M13.418 37.9751C13.5669 37.9004 13.7356 37.8743 13.9002 37.9006H47.2189C47.2603 37.9006 47.3017 37.9006 47.3431 37.9088C47.1559 38.1076 46.914 38.0181 46.6985 38.0181C35.8304 38.0181 24.9622 38.0181 14.0941 38.0181C13.8687 38.0198 13.6433 37.9883 13.418 37.9751Z" fill="#438BFF"/>
<path d="M40.8544 42.1168C40.1406 42.0194 39.4206 41.9735 38.7002 41.9793C38.1898 41.9893 37.9728 42.1549 37.9761 42.7096C37.996 47.5997 37.9893 52.4915 37.991 57.3816C37.9868 57.4207 37.9868 57.4601 37.991 57.4992C37.7176 57.3783 37.8634 57.1382 37.8617 56.9627C37.8269 52.1487 37.8104 47.3348 37.7656 42.5192C37.7656 41.9528 37.8452 41.6912 38.4947 41.7839C39.2255 41.8833 39.9762 41.7309 40.7136 41.8651C40.8793 41.8949 41.0019 41.9015 40.9439 42.1118L40.8544 42.1168Z" fill="#438BFF"/>
<path d="M15.7039 34.1666C15.4503 34.0457 15.5381 33.8122 15.5381 33.6201C15.5381 28.035 15.5381 22.45 15.5381 16.8649C15.5381 16.6695 15.4619 16.4426 15.6807 16.2969C15.6807 22.0685 15.6768 27.8396 15.6691 33.6102C15.6674 33.7874 15.6923 33.9728 15.7039 34.1666Z" fill="#438BFF"/>
<path d="M48.4301 36.2861C48.4301 30.9207 48.4152 25.557 48.4301 20.1916C48.4301 19.7296 48.3058 19.448 47.875 19.3056C48.2926 19.1168 48.4898 19.2957 48.5378 19.708C48.5445 19.8111 48.5445 19.9146 48.5378 20.0177C48.5378 25.2296 48.5378 30.4416 48.5378 35.6535C48.5378 35.8621 48.6522 36.1072 48.4301 36.2861Z" fill="#438BFF"/>
<path d="M0.0429688 57.3872C2.81193 57.3872 5.58254 57.3673 8.34985 57.4004C8.96297 57.4087 9.1701 57.2133 9.08393 56.632C9.07148 56.4667 9.07148 56.3006 9.08393 56.1352C9.08393 54.9049 9.08393 54.9032 7.81296 54.9015C6.73918 54.9015 5.65876 54.9015 4.58996 54.9015C4.38945 54.9015 4.17238 54.9678 3.99839 54.8005C5.61072 54.8005 7.22139 54.8005 8.83206 54.7773C9.1353 54.7773 9.22644 54.8734 9.21815 55.1648C9.19992 55.7842 9.18335 56.4068 9.21815 57.0245C9.23969 57.4352 9.11044 57.5379 8.70778 57.5362C5.98024 57.518 3.25271 57.5362 0.525171 57.523C0.361121 57.5163 0.147364 57.6289 0.0429688 57.3872Z" fill="#438BFF"/>
<path d="M3.19755 42.2794C2.35079 42.2679 1.50403 42.2712 0.658921 42.2347C0.242997 42.2182 0.133626 42.3805 0.136941 42.7762C0.153511 44.7634 0.136941 46.7506 0.136941 48.7278C0.136941 50.7746 0.136941 52.8209 0.136941 54.8666C0.136941 55.0868 0.209857 55.3253 0.0391791 55.529C0.0259226 51.1925 0.0115597 46.8555 -0.00390625 42.5179C-0.00390625 42.2679 -0.00390866 42.089 0.345733 42.1023C1.27203 42.1354 2.20166 42.1321 3.12796 42.142C3.15281 42.1851 3.17601 42.2281 3.19921 42.2712L3.19755 42.2794Z" fill="#438BFF"/>
<path d="M40.8554 42.1172H40.9515C40.9603 46.4062 40.968 50.6941 40.9747 54.9809C40.9747 55.683 40.9896 56.3835 40.9747 57.084C40.9747 57.2247 41.084 57.4251 40.8438 57.4996L40.8554 42.1172Z" fill="#438BFF"/>
<path d="M3.16744 54.7709C2.90065 54.6252 3.00173 54.3685 3.00173 54.1599C2.9951 50.5012 2.9951 46.8443 3.00173 43.189C3.00173 42.9853 2.88408 42.7154 3.20224 42.6094C3.20224 42.9406 3.19064 43.2867 3.18567 43.6245C3.07727 43.931 3.07377 44.2647 3.17572 44.5734C3.22542 44.8738 3.22542 45.1804 3.17572 45.4809L3.14258 45.5239L3.1691 45.5719C3.16137 48.2215 3.15363 50.876 3.1459 53.5356C3.14258 53.9479 3.15915 54.3586 3.16744 54.7709Z" fill="#438BFF"/>
<path d="M22.4336 48.6263C22.4892 48.597 22.5542 48.5907 22.6145 48.609C22.6747 48.6273 22.7252 48.6687 22.7551 48.724C23.4593 49.7011 24.4867 49.2308 25.3848 49.2821C25.6781 49.3003 25.703 48.9939 25.5969 48.7108C25.4377 48.2761 25.1825 47.8829 24.8503 47.5604C24.5181 47.2378 24.1174 46.9943 23.6781 46.8478C23.5123 46.7882 23.3466 46.7882 23.3682 46.5547C24.6392 46.8263 25.6284 47.7669 25.8273 48.8731C25.9068 49.3218 25.8389 49.5918 25.2804 49.5139C24.9506 49.4679 24.616 49.4679 24.2862 49.5139C23.461 49.6398 22.8048 49.4394 22.4336 48.6263Z" fill="#438BFF"/>
<path d="M45.2905 21.9336C45.1397 22.644 45.191 23.366 45.191 24.0864C45.191 27.2195 45.191 30.351 45.191 33.4841C45.191 33.7143 45.3103 33.9809 45.0469 34.1663C45.0546 30.4183 45.0634 26.6708 45.0734 22.9239C45.0684 22.5745 44.9922 22.2118 45.2905 21.9336Z" fill="#438BFF"/>
<path d="M27.1543 47.7812C27.3117 47.826 27.3117 47.826 27.32 47.9137C27.3565 48.8974 27.3879 48.9222 28.3838 48.808C28.9936 48.7368 29.1792 48.9587 29.1395 49.5416C29.0152 51.3433 28.9506 53.145 29.2604 54.9368C29.2952 55.1388 29.2952 55.3441 29.3118 55.5478C28.9804 54.9748 28.9555 54.3323 28.9423 53.703C28.9141 52.2806 28.9174 50.8597 28.9423 49.4372C28.9423 49.0679 28.8528 48.9272 28.4601 48.9404C28.0359 48.9553 27.6001 49.0265 27.1792 48.8858V48.8593C27.1792 48.7533 27.1792 48.649 27.1792 48.5447C27.1847 48.5414 27.1892 48.5369 27.1924 48.5313C27.1956 48.5258 27.1972 48.5196 27.1972 48.5132C27.1972 48.5068 27.1956 48.5006 27.1924 48.4951C27.1892 48.4895 27.1847 48.4849 27.1792 48.4817C27.1113 48.2542 27.1028 48.013 27.1543 47.7812Z" fill="#438BFF"/>
<path d="M34.8949 57.4901C34.8949 56.8707 34.8949 56.253 34.8949 55.6353C34.8949 55.377 34.9214 55.1849 34.5154 55.2081C34.2039 55.2247 33.8675 55.1551 33.5394 55.1452C33.3389 55.1452 33.0986 55.1849 33.0273 54.8984C33.5646 55.0197 34.1175 55.0566 34.6662 55.0077C34.9976 54.9961 35.1501 55.0756 35.1335 55.4399C35.107 55.9897 35.1335 56.5428 35.1153 57.0959C35.1119 57.2466 35.2097 57.4967 34.8949 57.4901Z" fill="#438BFF"/>
<path d="M24.4585 51.5516C23.7311 51.3512 23.0003 51.1657 22.2778 50.9472C21.7807 50.7948 21.2074 50.8892 20.75 50.5547C22.0541 50.6375 23.3052 50.9157 24.4585 51.5516Z" fill="#438BFF"/>
<path d="M32.1968 54.2722C31.8853 54.1066 31.9118 53.8003 31.9118 53.5121C31.9118 52.3331 31.8853 51.1523 31.9334 49.9749C31.945 49.6785 31.4843 49.3126 32.0262 49.0625C32.0262 50.3128 32.0427 51.5647 32.0378 52.815C32.0158 53.306 32.0695 53.7975 32.1968 54.2722Z" fill="#438BFF"/>
<path d="M19.375 57.5156H22.9874C21.8003 57.8021 20.5621 57.8021 19.375 57.5156Z" fill="#438BFF"/>
<path d="M31.9143 43.6214C31.1305 43.6214 30.3467 43.6313 29.5646 43.5999C29.1404 43.5833 29.0675 43.7655 29.0443 44.1447C29.0144 44.8336 29.21 45.5357 28.9349 46.2097C28.9349 45.4314 28.92 44.6531 28.915 43.8764C28.915 43.7108 28.8885 43.4906 29.1172 43.5005C30.0799 43.5436 31.0526 43.3349 32.0054 43.6098C31.9748 43.6113 31.9443 43.6152 31.9143 43.6214Z" fill="#438BFF"/>
<path d="M52.2773 61.9704C52.7645 61.7419 53.2799 61.9058 53.7786 61.8644C54.468 61.8081 54.6817 61.5878 54.7083 60.9155C54.7199 60.6323 55.0198 60.7367 55.1739 60.6406C54.7629 61.9886 54.7629 61.9886 53.3694 61.9886C53.0031 61.9886 52.6369 61.977 52.2773 61.9704Z" fill="#438BFF"/>
<path d="M32.1641 48.819C32.9263 48.819 33.6886 48.8024 34.4492 48.819C34.8618 48.8306 35.0523 48.713 35.0291 48.2659C34.9943 47.6283 35.0092 46.9891 35.0026 46.3516C35.334 46.6828 35.1352 47.1067 35.1418 47.4809C35.1683 48.9382 35.1518 48.9399 33.7051 48.9382C33.1931 48.9382 32.6794 48.9266 32.1674 48.9216C32.1657 48.8918 32.1641 48.8554 32.1641 48.819Z" fill="#438BFF"/>
<path d="M13.8111 43.1182C13.3935 42.8152 13.1168 42.3697 12.4987 42.2902C12.0016 42.2223 11.7116 42.5982 11.2891 42.5883C12.1309 41.7139 13.4747 41.9971 13.8111 43.1182Z" fill="#438BFF"/>
<path d="M28.8828 31.4766C29.3418 31.6239 29.6782 32.0528 30.2598 31.9585C30.5664 31.9088 30.7652 31.5908 31.0983 31.6918C30.3791 32.4966 29.655 32.4271 28.8828 31.4766Z" fill="#438BFF"/>
<path d="M55.1562 60.6454C55.4114 59.8621 55.3037 58.9281 56.1074 58.375C55.8508 59.1557 55.5327 59.9148 55.1562 60.6454Z" fill="#438BFF"/>
<path d="M32.2891 57.4995C33.1032 57.3231 33.9456 57.3231 34.7598 57.4995C33.9398 57.6087 33.109 57.6087 32.2891 57.4995Z" fill="#438BFF"/>
<path d="M24.2489 19.758C24.1495 19.7481 24.0136 19.7762 23.9539 19.7216C23.4734 19.2894 22.9017 19.2248 22.2969 19.2761C23.0293 18.8588 23.5662 18.9913 24.2489 19.758Z" fill="#438BFF"/>
<path d="M11.2907 42.5859C10.9991 43.1705 11.1002 43.8064 11.0521 44.4224C10.6246 43.717 10.7025 43.1109 11.2907 42.5859Z" fill="#438BFF"/>
<path d="M19.2078 54.535C19.1018 54.443 18.9784 54.3731 18.8449 54.3293C18.7115 54.2856 18.5707 54.2688 18.4307 54.28C17.6469 54.3512 16.8465 54.1624 16.071 54.4042C15.9699 54.1293 16.1622 54.1508 16.3279 54.1508C17.1481 54.1508 17.9667 54.169 18.7853 54.1508C19.1001 54.126 19.1598 54.2982 19.2078 54.535Z" fill="#438BFF"/>
<path d="M60.9141 46.706C60.5561 46.2838 60.0657 46.5239 59.6414 46.4759C59.0898 46.4392 58.5366 46.4336 57.9844 46.4593V46.355C58.9057 46.355 59.827 46.355 60.7467 46.3285C61.1311 46.3185 60.9804 46.5206 60.9141 46.706Z" fill="#438BFF"/>
<path d="M56.1094 58.3693C56.1773 57.6754 56.353 57.0246 56.8799 56.5195C56.67 57.1546 56.4125 57.773 56.1094 58.3693Z" fill="#438BFF"/>
<path d="M19.6127 50.0643C19.0825 50.0345 19.2183 49.5676 19.1471 49.2827C19.1204 49.2045 19.1114 49.1214 19.1208 49.0393C19.1303 48.9572 19.1579 48.8782 19.2017 48.8081C19.2455 48.738 19.3044 48.6786 19.374 48.6341C19.4437 48.5895 19.5224 48.5611 19.6044 48.5508C19.2797 49.0708 19.2598 49.5676 19.6127 50.0643Z" fill="#438BFF"/>
<path d="M25.7422 55.5571C25.9679 54.7312 26.0036 53.865 25.8466 53.0234C26.2625 53.8862 26.1946 54.7291 25.7422 55.5571Z" fill="#438BFF"/>
<path d="M19.8672 48.3227C19.8696 48.2867 19.8794 48.2516 19.8958 48.2195C19.9122 48.1874 19.935 48.159 19.9627 48.1359C19.9904 48.1129 20.0225 48.0957 20.0571 48.0853C20.0917 48.075 20.128 48.0718 20.1638 48.076H21.7065C21.7427 48.0739 21.7788 48.0791 21.813 48.0911C21.8471 48.1031 21.8786 48.1217 21.9055 48.1458C21.9325 48.17 21.9544 48.1992 21.97 48.2318C21.9856 48.2644 21.9946 48.2998 21.9965 48.3359C21.2999 48.147 20.5661 48.1424 19.8672 48.3227Z" fill="#438BFF"/>
<path d="M52.1275 46.4587C51.3338 46.4587 50.5417 46.4587 49.7479 46.4587C49.5524 46.4587 49.337 46.5216 49.168 46.356L51.8955 46.3345C51.9933 46.3312 52.1109 46.313 52.1275 46.4587Z" fill="#438BFF"/>
<path d="M52.1298 60.5625C52.2955 61.0494 51.7172 61.4783 52.0188 61.9751C51.6542 62.0496 51.4587 61.9866 51.6675 61.5644C51.8299 61.2332 51.9757 60.897 52.1298 60.5625Z" fill="#438BFF"/>
<path d="M47.0632 57.3699C47.0632 57.413 47.0549 57.4577 47.05 57.5007H44.3241C44.3241 57.4544 44.3158 57.408 44.3125 57.3633L47.0632 57.3699Z" fill="#438BFF"/>
<path d="M31.9157 43.621C31.9457 43.6148 31.9762 43.6109 32.0068 43.6094C32.0135 44.4749 32.0195 45.341 32.0251 46.2076C31.7815 45.3531 31.9754 44.4821 31.9157 43.621Z" fill="#438BFF"/>
<path d="M23.37 46.565C22.8282 46.719 22.3625 46.3994 21.8555 46.3265C21.8555 46.2951 21.8555 46.2636 21.8555 46.2305C22.3758 46.2967 22.9094 46.2636 23.37 46.565Z" fill="#438BFF"/>
<path d="M37.9953 57.4937C37.9912 57.4546 37.9912 57.4152 37.9953 57.3761C38.736 57.4606 39.4867 57.2403 40.2224 57.4937H37.9953Z" fill="#438BFF"/>
<path d="M59.6097 49.833C59.5219 49.3527 59.5981 48.9404 60.0804 48.6953C59.987 49.0978 59.828 49.4821 59.6097 49.833Z" fill="#438BFF"/>
<path d="M20.3672 21.1133C20.3391 21.5952 20.0209 22.0208 20.1005 22.5242C19.8386 21.9876 19.9397 21.519 20.3672 21.1133Z" fill="#438BFF"/>
<path d="M25.0859 27.707C25.3174 27.7437 25.5309 27.8535 25.6953 28.0204C25.8596 28.1874 25.9661 28.4025 25.999 28.6344L25.0859 27.707Z" fill="#438BFF"/>
<path d="M22.4336 25.0586C22.9307 25.0967 23.1876 25.3616 23.2108 25.8584C22.9144 25.6308 22.6526 25.3613 22.4336 25.0586Z" fill="#438BFF"/>
<path d="M36.3687 4.37083C35.9113 4.37083 35.6147 4.17873 35.5898 3.68359C35.8533 3.91212 36.1731 4.07275 36.3687 4.37083Z" fill="#438BFF"/>
<path d="M21.8621 46.2322C21.8621 46.2653 21.8621 46.2968 21.8621 46.3282H19.8438C20.5033 46.1196 21.1843 46.1941 21.8621 46.2322Z" fill="#438BFF"/>
<path d="M57.9737 46.3516V46.4559C57.7268 46.7424 57.808 47.221 57.4219 47.423C57.581 47.0554 57.513 46.5668 57.9737 46.3516Z" fill="#438BFF"/>
<path d="M24.7188 56.7885C24.7827 56.6147 24.8831 56.4566 25.0131 56.3246C25.1431 56.1927 25.2998 56.09 25.4727 56.0234C25.3233 56.3619 25.0551 56.634 24.7188 56.7885Z" fill="#438BFF"/>
<path d="M22.9141 53.7969C23.0128 53.8636 23.0946 53.9525 23.1529 54.0564C23.2112 54.1604 23.2444 54.2764 23.2499 54.3955C23.2554 54.5145 23.2329 54.6331 23.1844 54.742C23.1359 54.8508 23.0626 54.9468 22.9704 55.0223C23.0689 54.8309 23.1156 54.6171 23.1057 54.4021C23.0958 54.1871 23.0297 53.9784 22.9141 53.7969Z" fill="#438BFF"/>
<path d="M24.3438 26.9609C24.8061 26.9974 24.9966 27.3054 25.0911 27.7094C24.8011 27.5044 24.5483 27.2512 24.3438 26.9609Z" fill="#438BFF"/>
<path d="M58.8521 51.7209C58.8521 51.3599 58.8206 50.9906 59.2266 50.7969C59.1601 51.1254 59.0331 51.4387 58.8521 51.7209Z" fill="#438BFF"/>
<path d="M26.3281 28.9492C26.7474 28.9857 26.9794 29.2026 26.991 29.6331C26.77 29.4068 26.5491 29.1788 26.3281 28.9492Z" fill="#438BFF"/>
<path d="M28.2578 30.8672C28.6141 30.9235 28.8709 31.0792 28.8825 31.4849C28.6326 31.3259 28.4196 31.1153 28.2578 30.8672Z" fill="#438BFF"/>
<path d="M20.3711 22.9805C20.7638 23.0219 20.9875 23.2206 20.9892 23.6329C20.7422 23.4582 20.5321 23.2365 20.3711 22.9805Z" fill="#438BFF"/>
<path d="M35.4225 3.58252C35.0762 3.62226 34.9387 3.41692 34.8906 3.11719C35.1015 3.22911 35.2836 3.38839 35.4225 3.58252Z" fill="#438BFF"/>
<path d="M27.2656 29.875C27.6418 29.875 27.7627 30.1217 27.8191 30.4447C27.5967 30.2956 27.4081 30.1015 27.2656 29.875Z" fill="#438BFF"/>
<path d="M3.17555 44.5739C3.0736 44.2652 3.0771 43.9315 3.1855 43.625C3.24103 43.9392 3.23766 44.2609 3.17555 44.5739Z" fill="#438BFF"/>
<path d="M37.4259 5.31902C37.1756 5.24119 36.9287 5.15342 36.8906 4.84375C37.1097 4.94953 37.295 5.11408 37.4259 5.31902Z" fill="#438BFF"/>
<path d="M59.2363 50.76C59.2115 50.4868 59.2115 50.2219 59.5197 50.0977C59.4853 50.3396 59.3876 50.5681 59.2363 50.76Z" fill="#438BFF"/>
<path d="M25.4661 56.0255C25.4495 55.7986 25.4561 55.585 25.7528 55.5469C25.7397 55.6418 25.7076 55.7332 25.6584 55.8155C25.6091 55.8977 25.5437 55.9691 25.4661 56.0255Z" fill="#438BFF"/>
<path d="M22.0312 48.3368C22.2351 48.3368 22.4919 48.2507 22.4289 48.62L22.0312 48.3368Z" fill="#438BFF"/>
<path d="M3.74712 54.7973C3.58141 55.2097 3.41571 54.8868 3.25 54.7891L3.74712 54.7973Z" fill="#438BFF"/>
<path d="M34.8984 3.12199C34.7078 3.1369 34.5372 3.122 34.5156 2.87525C34.7012 2.86863 34.8006 2.99283 34.8984 3.12199Z" fill="#438BFF"/>
<path d="M23.2109 25.8644C23.2609 25.8556 23.3123 25.8584 23.3611 25.8726C23.4098 25.8867 23.4547 25.9119 23.4921 25.9462C23.5296 25.9804 23.5587 26.0228 23.5772 26.0701C23.5957 26.1173 23.603 26.1682 23.5987 26.2188L23.2109 25.8644Z" fill="#438BFF"/>
<path d="M21.3008 23.9265C21.5576 23.8917 21.6024 24.059 21.6156 24.2577C21.4765 24.1856 21.3656 24.069 21.3008 23.9265Z" fill="#438BFF"/>
<path d="M26.0234 28.6679C26.2886 28.5868 26.3051 28.7739 26.3283 28.9528L26.0234 28.6679Z" fill="#438BFF"/>
<path d="M45.5703 17.0423C45.5902 16.8585 45.6101 16.673 45.8769 16.7409L45.5703 17.0423Z" fill="#438BFF"/>
<path d="M45.9038 16.7172C45.8922 16.6426 45.8458 16.5416 45.8789 16.5002C45.9369 16.4207 46.0181 16.4754 46.0711 16.5449L45.9038 16.7172Z" fill="#438BFF"/>
<path d="M24.0352 26.6757C24.292 26.6062 24.3218 26.7817 24.345 26.9639L24.0352 26.6757Z" fill="#438BFF"/>
<path d="M27.9536 23.481C27.773 23.481 27.6984 23.3932 27.7034 23.2227L27.9536 23.481Z" fill="#438BFF"/>
<path d="M28.2124 23.7322C28.0351 23.7438 27.939 23.6659 27.9456 23.4805L28.2124 23.7322Z" fill="#438BFF"/>
<path d="M22.0469 24.7015C22.2474 24.6419 22.3335 24.7015 22.2739 24.9184L22.0469 24.7015Z" fill="#438BFF"/>
<path d="M22.9762 55.0195C22.9823 55.0542 22.98 55.0898 22.9694 55.1233C22.9589 55.1569 22.9404 55.1874 22.9155 55.2122C22.8906 55.2371 22.8601 55.2556 22.8265 55.2662C22.7929 55.2767 22.7573 55.279 22.7227 55.2729L22.9762 55.0195Z" fill="#438BFF"/>
<path d="M23.5938 26.2172C23.6281 26.2121 23.6633 26.2152 23.6962 26.2262C23.7292 26.2371 23.7592 26.2557 23.7837 26.2804C23.8082 26.305 23.8266 26.3351 23.8373 26.3681C23.8481 26.4011 23.8509 26.4362 23.8456 26.4706L23.5938 26.2172Z" fill="#438BFF"/>
<path d="M27.0156 29.6593C27.2161 29.5997 27.2874 29.6858 27.2625 29.8779L27.0156 29.6593Z" fill="#438BFF"/>
<path d="M45.0498 34.1406C45.078 34.3393 44.9736 34.4122 44.793 34.4122C44.8775 34.3211 44.9636 34.2317 45.0498 34.1406Z" fill="#438BFF"/>
<path d="M45.0645 17.533C45.0598 17.4984 45.0634 17.4632 45.0748 17.4302C45.0863 17.3972 45.1055 17.3674 45.1306 17.3432C45.1558 17.319 45.1864 17.3011 45.2198 17.2909C45.2532 17.2807 45.2886 17.2786 45.323 17.2846C45.3021 17.3432 45.2678 17.3961 45.223 17.4392C45.1781 17.4822 45.1239 17.5144 45.0645 17.533Z" fill="#438BFF"/>
<path d="M32.2855 46.3593C32.2606 46.4074 32.2374 46.4951 32.2126 46.4951C32.0949 46.4951 32.0717 46.3958 32.0469 46.3047L32.2855 46.3593Z" fill="#438BFF"/>
<path d="M36.6378 4.61015C36.6038 4.6171 36.5687 4.61613 36.5352 4.60731C36.5017 4.5985 36.4706 4.58208 36.4445 4.55933C36.4184 4.53658 36.3979 4.50811 36.3845 4.47614C36.3712 4.44417 36.3654 4.40956 36.3677 4.375L36.6378 4.61015Z" fill="#438BFF"/>
<path d="M36.8963 4.85612C36.7157 4.87102 36.6328 4.78491 36.6328 4.60938C36.6926 4.62774 36.7475 4.65952 36.7931 4.70228C36.8388 4.74504 36.8741 4.79766 36.8963 4.85612Z" fill="#438BFF"/>
<path d="M45.3203 17.2888C45.3203 17.1233 45.3999 17.0289 45.5755 17.0355L45.3203 17.2888Z" fill="#438BFF"/>
<path d="M47.8431 19.3281C47.9161 19.5401 47.7934 19.5898 47.6211 19.5981C47.6333 19.5384 47.66 19.4826 47.6987 19.4356C47.7374 19.3886 47.787 19.3517 47.8431 19.3281Z" fill="#438BFF"/>
<path d="M52.3745 60.2193C52.3621 60.2805 52.3343 60.3376 52.2937 60.3851C52.2531 60.4327 52.2011 60.4691 52.1425 60.4909C52.1346 60.4571 52.1348 60.4218 52.143 60.3881C52.1513 60.3543 52.1673 60.323 52.1899 60.2966C52.2125 60.2702 52.2409 60.2494 52.273 60.236C52.305 60.2226 52.3398 60.2168 52.3745 60.2193Z" fill="#438BFF"/>
<path d="M27.7083 23.2355C27.5294 23.2454 27.4515 23.1527 27.4532 22.9805L27.7083 23.2355Z" fill="#438BFF"/>
<path d="M47.639 19.5859C47.6489 19.7515 47.5379 19.7515 47.4219 19.7615L47.639 19.5859Z" fill="#438BFF"/>
<path d="M59.5068 50.0919C59.4637 49.9677 59.4737 49.8667 59.6178 49.8203C59.6095 49.9213 59.6095 50.029 59.5068 50.0919Z" fill="#438BFF"/>
<path d="M44.9542 17.6549C44.8333 17.4628 45.0189 17.5555 45.0735 17.5273L44.9542 17.6549Z" fill="#438BFF"/>
<path d="M24.6571 51.6628C24.618 51.6691 24.5779 51.6623 24.5431 51.6434C24.5084 51.6245 24.4808 51.5946 24.4648 51.5585C24.5527 51.5469 24.6289 51.5568 24.6571 51.6628Z" fill="#438BFF"/>
<path d="M25.7336 52.7833C25.5927 52.7436 25.5844 52.6293 25.5861 52.5117C25.7087 52.5631 25.7236 52.6723 25.7336 52.7833Z" fill="#438BFF"/>
<path d="M25.854 53.0351C25.7198 52.9937 25.7099 52.8894 25.7231 52.7734C25.8557 52.8165 25.8474 52.9291 25.854 53.0351Z" fill="#438BFF"/>
<path d="M37.7774 5.60344C37.6564 5.60344 37.5305 5.60344 37.5587 5.41797L37.7774 5.60344Z" fill="#438BFF"/>
<path d="M23.8398 26.4688C23.9509 26.4803 24.0735 26.4803 24.0056 26.6542L23.8398 26.4688Z" fill="#438BFF"/>
<path d="M27.8164 30.4414C27.9274 30.453 28.0467 30.458 27.9937 30.6269L27.8164 30.4414Z" fill="#438BFF"/>
<path d="M21.8359 24.4844C21.9486 24.496 22.0828 24.4844 22.0215 24.6715L21.8359 24.4844Z" fill="#438BFF"/>
<path d="M22.7279 55.2656C22.7063 55.3418 22.7527 55.5256 22.582 55.355L22.7279 55.2656Z" fill="#438BFF"/>
<path d="M21.0977 23.7344C21.212 23.746 21.3396 23.7344 21.2998 23.9215L21.0977 23.7344Z" fill="#438BFF"/>
<path d="M20.082 22.5117C20.2262 22.5399 20.2477 22.6442 20.2328 22.7651C20.1019 22.7303 20.0953 22.6194 20.082 22.5117Z" fill="#438BFF"/>
<path d="M3.20407 42.2602C3.18087 42.2171 3.15767 42.1741 3.13281 42.131C3.25378 42.1161 3.24218 42.1824 3.20407 42.2602Z" fill="#438BFF"/>
<path d="M28.1445 30.7227C28.239 30.7227 28.2821 30.7674 28.2589 30.8634L28.1445 30.7227Z" fill="#438BFF"/>
<path d="M37.5533 5.41789C37.4571 5.44438 37.4174 5.40133 37.4141 5.30859L37.5533 5.41789Z" fill="#438BFF"/>
<path d="M35.5599 3.65761C35.4704 3.70729 35.4306 3.65761 35.4141 3.57812L35.5599 3.65761Z" fill="#438BFF"/>
<path d="M28.0156 30.6396C28.1068 30.6016 28.1482 30.6396 28.1614 30.7324L28.0156 30.6396Z" fill="#438BFF"/>
<path d="M22.3047 24.9378C22.4041 24.8964 22.4356 24.9378 22.4207 25.0355C22.3809 25.0041 22.3428 24.971 22.3047 24.9378Z" fill="#438BFF"/>
<path d="M27.1577 48.4766C27.1632 48.4798 27.1677 48.4844 27.1709 48.4899C27.1741 48.4954 27.1757 48.5017 27.1757 48.508C27.1757 48.5144 27.1741 48.5206 27.1709 48.5262C27.1677 48.5317 27.1632 48.5363 27.1577 48.5395L27.1328 48.5064L27.1577 48.4766Z" fill="#438BFF"/>
<path d="M27.3384 22.8627L27.1992 22.7567C27.2854 22.7418 27.3218 22.7882 27.3384 22.8627Z" fill="#438BFF"/>
<path d="M20.2227 22.75C20.2649 22.7628 20.3014 22.7896 20.3262 22.8261C20.3509 22.8626 20.3623 22.9065 20.3585 22.9504C20.3183 22.9346 20.2837 22.907 20.2595 22.8713C20.2352 22.8355 20.2224 22.7932 20.2227 22.75Z" fill="#438BFF"/>
<path d="M11.0597 44.4688L11.174 44.6244C11.1387 44.6179 11.1072 44.5982 11.0859 44.5693C11.0646 44.5403 11.0553 44.5044 11.0597 44.4688Z" fill="#438BFF"/>
<path d="M27.1624 48.8555L27.1691 48.8823L27.1406 48.8739L27.1624 48.8555Z" fill="#438BFF"/>
<path d="M3.16323 45.5699L3.13672 45.5235L3.16986 45.4805L3.19637 45.5285L3.16323 45.5699Z" fill="#438BFF"/>
<path d="M32.1662 48.8203C32.1662 48.8567 32.1662 48.8932 32.1662 48.9296L32.0469 48.9809L32.1662 48.8203Z" fill="#438BFF"/>
<path d="M16.3906 34.6641L44.1979 34.6872C44.1979 34.7237 44.1979 34.7601 44.1979 34.7965H16.4089L16.3906 34.6641Z" fill="#438BFF"/>
<path d="M16.4062 34.7891H44.1953C44.0114 34.9911 43.7694 34.9066 43.5523 34.9066C34.7146 34.9066 25.8797 34.9066 17.0475 34.9066C16.8305 34.9083 16.5885 34.9961 16.4062 34.7891Z" fill="#438BFF"/>
<path d="M13.7969 49.5508C13.9377 49.6816 13.9013 49.8538 13.9029 50.0161C13.9029 52.3279 13.9029 54.6402 13.9029 56.953C13.9317 57.1175 13.8955 57.2867 13.8018 57.425C13.8018 54.8008 13.8002 52.1761 13.7969 49.5508Z" fill="#438BFF"/>
<path d="M47.0657 57.3713H44.315C44.3117 57.3432 44.3117 57.3149 44.315 57.2868V42.0949C44.996 41.8663 45.6986 42.075 46.378 42.0038C47.132 41.9259 47.0657 42.335 47.0641 42.8318C47.0596 47.6772 47.0602 52.5237 47.0657 57.3713Z" fill="#438BFF"/>
<path d="M44.3232 42.0938V57.2841C44.1774 57.1036 44.2337 56.8883 44.2337 56.6879C44.2337 52.0214 44.2337 47.3548 44.2337 42.6882C44.2204 42.4879 44.1575 42.2809 44.3232 42.0938Z" fill="#438BFF"/>
</g>
<defs>
<clipPath id="clip0_161_232">
<rect width="61" height="62" fill="white"/>
</clipPath>
</defs>
</svg>
