<svg width="61" height="61" viewBox="0 0 61 61" fill="none" xmlns="http://www.w3.org/2000/svg">
<g clip-path="url(#clip0_4_10051)">
<path d="M32.0369 9.59847C32.1644 9.65309 32.1644 9.65309 32.2943 9.70881C34.3248 10.592 36.1671 11.7335 37.869 13.1498C37.9384 13.207 38.0077 13.2642 38.0792 13.3231C38.3238 13.5568 38.3238 13.5568 38.5435 13.8719C38.9261 14.3703 39.27 14.7543 39.8971 14.9103C40.7896 15.0256 41.6892 14.9926 42.5868 14.9757C42.8786 14.9751 43.1703 14.975 43.462 14.9756C44.1491 14.9756 44.836 14.9702 45.5231 14.9618C46.8277 14.9463 48.1324 14.9441 49.4372 14.9413C49.8652 14.9394 50.2932 14.9347 50.7213 14.9294C50.9831 14.9276 51.2449 14.9257 51.5068 14.9239C51.6257 14.9217 51.7446 14.9195 51.8671 14.9173C52.9037 14.9136 52.9037 14.9136 53.3423 15.3032C53.6188 15.7204 53.6039 16.0931 53.6031 16.5851C53.6034 16.7083 53.6034 16.7083 53.6037 16.8341C53.6041 17.1094 53.6028 17.3846 53.6016 17.6599C53.6015 17.8573 53.6015 18.0547 53.6017 18.252C53.6017 18.7879 53.6004 19.3238 53.5987 19.8597C53.5973 20.4196 53.5972 20.9796 53.5969 21.5396C53.5962 22.6001 53.5942 23.6606 53.5919 24.7211C53.5893 25.9284 53.588 27.1356 53.5869 28.3429C53.5844 30.8265 53.5803 33.31 53.5751 35.7936C53.6482 35.7925 53.7213 35.7915 53.7966 35.7904C54.5577 35.7801 55.3188 35.7731 56.08 35.768C56.364 35.7656 56.648 35.7625 56.932 35.7584C57.3403 35.7528 57.7486 35.7501 58.157 35.7481C58.2839 35.7457 58.4108 35.7433 58.5415 35.7408C59.4235 35.7405 59.4235 35.7405 59.8834 36.014C60.1889 36.3684 60.1847 36.584 60.158 37.0366C60.0446 37.5222 59.745 37.8171 59.4035 38.1657C59.263 38.3179 59.1227 38.4703 58.9824 38.6227C58.8789 38.733 58.8789 38.733 58.7733 38.8454C58.5193 39.1206 58.2841 39.4087 58.0501 39.701C57.5422 40.3278 57.0176 40.9391 56.4916 41.5506C55.7668 42.3934 55.0466 43.2398 54.3464 44.1032C53.8614 44.6996 53.3584 45.279 52.8533 45.8584C52.3966 46.3833 51.9533 46.9174 51.5155 47.4581C51.1985 47.8437 50.874 48.2221 50.5481 48.6001C50.1343 49.0803 49.7253 49.5631 49.3257 50.0553C48.8076 50.6929 48.276 51.3181 47.7376 51.9386C47.5325 52.1753 47.3338 52.4138 47.1373 52.658C46.787 53.0851 46.578 53.3355 46.0513 53.5262C45.4167 53.4674 45.1377 53.2269 44.7325 52.7649C44.507 52.49 44.2859 52.212 44.0652 51.9332C43.7894 51.5915 43.5008 51.2607 43.2135 50.9285C42.7996 50.4484 42.3906 49.9655 41.9911 49.4732C41.5803 48.968 41.1623 48.4695 40.7395 47.9743C40.6818 47.9064 40.6241 47.8385 40.5647 47.7685C40.2213 47.3679 39.8659 46.9892 39.488 46.6209C39.4003 46.7139 39.3127 46.807 39.2224 46.9028C37.8517 48.3307 36.3187 49.4823 34.5982 50.4628C34.5262 50.5043 34.4541 50.5459 34.3799 50.5886C31.6941 52.1227 28.804 52.9711 25.7501 53.3734C25.6401 53.3889 25.5301 53.4043 25.4168 53.4202C19.8386 54.0697 13.8127 52.3505 9.41598 48.8745C9.31803 48.7963 9.31803 48.7963 9.2181 48.7165C9.15445 48.6661 9.0908 48.6158 9.02522 48.5639C4.26202 44.7648 1.25297 39.2957 0.511299 33.2507C0.469621 32.8301 0.462882 32.4104 0.458656 31.988C0.456945 31.8462 0.456947 31.8462 0.455202 31.7016C0.435185 29.6115 0.452307 27.5909 0.952088 25.5484C0.977038 25.444 1.00199 25.3397 1.02769 25.2322C2.4918 19.2756 6.32779 14.1817 11.5466 10.9955C14.3418 9.32484 17.4155 8.39171 20.6275 7.96855C20.7375 7.95309 20.8475 7.93764 20.9609 7.92171C24.6576 7.49131 28.6291 8.12336 32.0369 9.59847ZM17.0184 10.7627C16.9293 10.7909 16.8401 10.8191 16.7482 10.8481C11.461 12.563 7.11913 16.3956 4.58183 21.3145C3.87003 22.7452 3.30608 24.2279 2.93127 25.7812C2.90844 25.8721 2.88561 25.9631 2.86209 26.0568C2.13534 29.0666 2.16862 32.5633 2.93127 35.5607C2.9556 35.6592 2.97994 35.7577 3.005 35.8591C4.33726 41.1033 7.82644 45.7549 12.4688 48.5287C12.9313 48.7973 13.401 49.051 13.875 49.2986C13.9447 49.3354 14.0144 49.3721 14.0862 49.41C18.804 51.8611 24.4785 52.0999 29.5121 50.5648C32.5311 49.5811 35.1729 47.9318 37.5088 45.8059C37.5769 45.7463 37.6451 45.6866 37.7153 45.6251C37.9381 45.4271 37.9381 45.4271 38.2073 45.1074C38.1561 44.6382 37.9044 44.3984 37.5888 44.0596C37.4981 43.9611 37.4073 43.8627 37.3137 43.7612C37.0718 43.5076 36.8267 43.2582 36.5774 43.0118C36.5079 43.0867 36.4385 43.1616 36.3669 43.2387C34.9356 44.7295 33.3026 45.9296 31.4548 46.8537C31.3341 46.9147 31.3341 46.9147 31.2109 46.9769C28.7076 48.2191 26.0658 48.7668 23.2834 48.7529C23.1933 48.7526 23.1032 48.7524 23.0104 48.7521C21.6845 48.7462 20.402 48.7052 19.114 48.3672C18.9774 48.3325 18.9774 48.3325 18.8379 48.2971C13.8538 47.0014 9.9908 43.9677 7.34806 39.57C5.81851 36.8794 5.09291 33.7876 5.10692 30.7074C5.10758 30.5546 5.10824 30.4018 5.10891 30.2444C5.17014 25.3165 7.27068 20.8597 10.7316 17.3988C11.1426 17.0266 11.57 16.6852 12.0122 16.351C12.0727 16.3045 12.1331 16.258 12.1953 16.2101C15.3638 13.7848 19.1442 12.5995 23.1161 12.5964C23.2048 12.5963 23.2935 12.5962 23.3849 12.5961C24.7084 12.598 25.9753 12.6539 27.2636 12.9747C27.3474 12.9941 27.4311 13.0134 27.5174 13.0334C31.5724 13.9805 35.242 16.4148 37.7226 19.7482C37.9143 19.998 38.0995 20.2083 38.3238 20.4258C38.3558 19.869 38.3788 19.3127 38.3941 18.7552C38.4005 18.5662 38.4092 18.3773 38.4204 18.1885C38.5121 17.0073 38.5121 17.0073 38.0606 15.9556C37.7526 15.6215 37.405 15.3448 37.0431 15.0703C36.9028 14.9492 36.7627 14.8278 36.6229 14.7061C36.2228 14.396 35.8208 14.0898 35.4132 13.7897C35.3485 13.7412 35.2838 13.6928 35.2171 13.6429C30.0823 9.84191 23.0629 8.84386 17.0184 10.7627ZM18.9976 14.9539C18.8688 14.9886 18.8688 14.9886 18.7374 15.0239C16.6073 15.6081 14.6154 16.655 12.9436 18.0973C12.7865 18.2324 12.7865 18.2324 12.6262 18.3702C12.3389 18.6236 12.0583 18.8826 11.7794 19.1451C11.7023 19.2148 11.6251 19.2844 11.5456 19.3561C9.80714 20.9891 8.61444 23.2075 7.82103 25.432C7.7769 25.5547 7.73278 25.6775 7.68732 25.804C6.35932 29.788 6.808 34.2682 8.66702 38.0078C9.49381 39.579 10.5514 40.923 11.7794 42.1968C11.8827 42.3092 11.8827 42.3092 11.9881 42.4238C14.3926 44.9707 18.2733 46.6839 21.7547 46.8776C22.2208 46.8891 22.6863 46.8927 23.1524 46.8901C23.2348 46.8898 23.3171 46.8895 23.402 46.8892C24.6404 46.8825 25.8319 46.8455 27.0308 46.5045C27.173 46.4641 27.173 46.4641 27.3181 46.4229C30.0693 45.6167 32.4329 44.3253 34.4818 42.3132C34.5701 42.2268 34.6583 42.1404 34.7492 42.0513C34.9334 41.8686 35.1154 41.6838 35.2968 41.4983C34.9448 40.9418 34.5469 40.4553 34.1107 39.963C33.9757 39.8088 33.8408 39.6544 33.706 39.5C33.64 39.4245 33.5741 39.3489 33.5062 39.2711C33.0819 38.7814 32.6726 38.2804 32.2698 37.7728C32.2132 37.7064 32.1566 37.6401 32.0983 37.5717C31.834 37.2366 31.7781 36.9933 31.8114 36.5794C31.9205 36.1428 31.9205 36.1428 32.2698 35.91C32.5416 35.8776 32.5416 35.8776 32.8652 35.8729C32.9864 35.8706 33.1075 35.8682 33.2324 35.8659C33.4283 35.8638 33.4283 35.8638 33.6282 35.8618C33.7621 35.8595 33.896 35.8573 34.0339 35.855C34.4621 35.848 34.8904 35.8426 35.3186 35.8372C35.6087 35.8328 35.8988 35.8282 36.1888 35.8236C36.9005 35.8124 37.6121 35.8025 38.3238 35.7936C38.3482 34.3897 38.3667 32.986 38.3781 31.582C38.3835 30.9298 38.3908 30.2778 38.4028 29.6257C38.4143 28.9946 38.4205 28.3637 38.4232 27.7325C38.4251 27.4935 38.4288 27.2545 38.4346 27.0156C38.4879 24.6921 37.7277 22.9702 36.3446 21.1243C36.2674 21.0214 36.1903 20.9184 36.1108 20.8123C33.8728 17.9632 30.8842 15.9079 27.38 14.9539C27.2523 14.9174 27.2523 14.9174 27.122 14.8802C24.5541 14.1704 21.5528 14.2265 18.9976 14.9539ZM40.303 16.9331C40.3013 18.3803 40.2996 19.8275 40.2979 21.3185C40.2956 22.2337 40.2931 23.149 40.29 24.0642C40.285 25.5178 40.2807 26.9715 40.2802 28.4251C40.2798 29.4837 40.2774 30.5422 40.2726 31.6008C40.2701 32.1614 40.2687 32.722 40.2696 33.2826C40.2705 33.8102 40.2687 34.3377 40.2648 34.8653C40.2638 35.059 40.2638 35.2527 40.2649 35.4464C40.2663 35.7109 40.2641 35.9751 40.261 36.2396C40.2605 36.4616 40.2605 36.4616 40.26 36.688C40.1672 37.1759 39.9856 37.3487 39.6044 37.6563C39.3576 37.7308 39.3576 37.7308 39.1108 37.7331C39.0177 37.7354 38.9245 37.7377 38.8284 37.74C38.6802 37.7393 38.6802 37.7393 38.5289 37.7386C38.4263 37.7404 38.3238 37.7422 38.2181 37.744C37.8919 37.749 37.5658 37.75 37.2396 37.7509C37.0179 37.7536 36.7962 37.7566 36.5745 37.7598C36.0321 37.7671 35.4899 37.7709 34.9475 37.7728C35.0976 38.0974 35.2602 38.3537 35.4973 38.6209C35.5595 38.6916 35.6216 38.7623 35.6856 38.8351C35.7518 38.9096 35.818 38.984 35.8862 39.0607C36.0246 39.2182 36.1628 39.3759 36.3009 39.5336C36.3685 39.6108 36.436 39.6879 36.5056 39.7674C36.7513 40.0511 36.9889 40.3407 37.225 40.6324C37.6177 41.117 38.019 41.593 38.4256 42.0658C38.4847 42.1345 38.5437 42.2031 38.6045 42.2738C38.6931 42.3769 38.6931 42.3769 38.7835 42.482C39.5106 43.3273 40.2327 44.1766 40.936 45.0419C41.4496 45.6727 41.9786 46.2894 42.5091 46.906C43.3379 47.8697 44.1556 48.8417 44.958 49.8275C45.2633 50.1997 45.576 50.5648 45.8912 50.9285C46.3341 50.497 46.7425 50.0462 47.1428 49.5751C47.2347 49.4674 47.2347 49.4674 47.3286 49.3575C47.7751 48.8328 48.2119 48.3008 48.6463 47.766C49.0764 47.2438 49.5189 46.7322 49.9601 46.2193C50.6872 45.374 51.4092 44.5246 52.1126 43.6594C52.6262 43.0286 53.1552 42.4119 53.6856 41.7952C55.2373 40.0228 55.2373 40.0228 56.6754 38.1611C56.7273 38.0882 56.7791 38.0153 56.8325 37.9403C56.8718 37.885 56.911 37.8297 56.9514 37.7728C56.8128 37.7704 56.6741 37.7681 56.5313 37.7658C56.0166 37.7569 55.502 37.7466 54.9873 37.7358C54.7646 37.7313 54.542 37.7273 54.3193 37.7236C53.999 37.7183 53.6789 37.7116 53.3587 37.7045C53.2592 37.7032 53.1597 37.7019 53.0573 37.7005C52.9641 37.6982 52.8709 37.6958 52.7748 37.6935C52.6931 37.6919 52.6115 37.6904 52.5273 37.6888C52.2527 37.6505 52.0646 37.5679 51.8288 37.4235C51.6576 37.081 51.6959 36.7761 51.694 36.3936C51.6934 36.3107 51.6928 36.2277 51.6922 36.1423C51.6904 35.8631 51.6894 35.5839 51.6885 35.3046C51.6874 35.105 51.6862 34.9054 51.685 34.7058C51.6818 34.1627 51.6794 33.6196 51.6771 33.0764C51.6745 32.5093 51.6713 31.9422 51.6682 31.375C51.6624 30.3005 51.6572 29.226 51.6521 28.1515C51.6453 26.6999 51.6376 25.2483 51.6299 23.7967C51.6179 21.5089 51.607 19.221 51.596 16.9331C47.8693 16.9331 44.1426 16.9331 40.303 16.9331Z" fill="#FF6061"/>
<path d="M23.6557 18.3268C24.0013 18.5838 24.1015 18.7326 24.2379 19.1417C24.2471 19.2972 24.2504 19.4531 24.2492 19.6088C24.2488 19.697 24.2485 19.7851 24.2481 19.876C24.2466 20.0132 24.2466 20.0132 24.2451 20.1532C24.2446 20.246 24.2441 20.3388 24.2435 20.4344C24.2422 20.6633 24.2401 20.8921 24.2379 21.1209C24.3771 21.1233 24.5164 21.1257 24.6599 21.1282C25.9031 21.2659 27.1649 22.0559 27.9434 23.0123C28.7135 24.0495 29.2823 25.2725 29.1276 26.5928C28.8786 27.1248 28.8786 27.1248 28.5455 27.2913C28.0507 27.3473 27.8199 27.3623 27.4231 27.0471C27.1043 26.6549 27.0516 26.4119 26.9811 25.9161C26.7881 24.8959 26.4296 24.3543 25.584 23.7623C25.1435 23.4791 24.7346 23.313 24.2379 23.1001C24.2763 25.3284 24.3147 27.5568 24.3543 29.8526C24.969 30.0447 25.5837 30.2368 26.217 30.4347C27.3772 30.9086 28.2 31.6603 28.7606 32.7877C29.3154 34.1305 29.2584 35.5977 28.7783 36.9544C28.1369 38.3566 26.9953 39.3917 25.5817 39.985C25.1142 40.1525 24.7376 40.2299 24.2379 40.2142C24.2439 40.4184 24.2439 40.4184 24.2501 40.6267C24.2534 40.807 24.2566 40.9872 24.2597 41.1674C24.2626 41.257 24.2655 41.3465 24.2685 41.4387C24.2756 41.9858 24.2371 42.3274 23.8886 42.7755C23.5904 43.0737 23.373 43.045 22.9654 43.062C22.5917 42.9788 22.4773 42.8587 22.2587 42.5427C22.1857 42.165 22.1776 41.7915 22.1713 41.4076C22.1662 41.2525 22.1662 41.2525 22.1609 41.0942C22.1527 40.8397 22.1465 40.5853 22.1422 40.3307C22.0394 40.3065 21.9366 40.2823 21.8307 40.2574C20.1768 39.8329 18.871 39.0215 17.9146 37.5729C17.4265 36.7123 17.209 35.729 17.2525 34.7424C17.393 34.3532 17.4761 34.2828 17.8346 34.0438C18.2794 33.9944 18.5666 34.0069 18.977 34.1894C19.264 34.5501 19.2821 34.7163 19.3408 35.1644C19.4674 36.1163 19.847 36.8543 20.5996 37.4637C21.1822 37.8432 21.1822 37.8432 22.2587 38.235C22.2587 36.0067 22.2587 33.7784 22.2587 31.4825C21.644 31.3289 21.0292 31.1752 20.3959 31.0168C19.1082 30.4305 18.1014 29.7466 17.5722 28.3896C17.114 26.8951 17.1244 25.3291 17.8346 23.9151C18.856 22.2834 20.3052 21.4341 22.1422 21.0045C22.1433 20.9399 22.1444 20.8754 22.1455 20.8088C22.1518 20.515 22.1615 20.2213 22.1713 19.9276C22.173 19.826 22.1746 19.7244 22.1764 19.6197C22.205 18.8695 22.205 18.8695 22.4679 18.4923C22.8665 18.2351 23.1973 18.2317 23.6557 18.3268ZM20.2517 24.0278C19.5133 24.8501 19.2317 25.6047 19.2317 26.7092C19.3251 27.5603 19.7008 28.1772 20.3595 28.7102C20.9286 29.1162 21.5538 29.3869 22.2587 29.3869C22.2587 27.3123 22.2587 25.2376 22.2587 23.1001C21.5343 23.1001 20.7861 23.5579 20.2517 24.0278ZM24.2379 31.9482C24.2379 34.0229 24.2379 36.0975 24.2379 38.235C25.2752 37.8893 26.0832 37.5472 26.6827 36.6051C27.2164 35.536 27.2842 34.7418 26.9128 33.6086C26.6438 32.9855 26.0896 32.627 25.5185 32.2975C24.8958 32.0416 24.8958 32.0416 24.2379 31.9482Z" fill="#FF6061"/>
</g>
<defs>
<clipPath id="clip0_4_10051">
<rect width="59.6084" height="59.6084" fill="white" transform="translate(0.485352 0.863281)"/>
</clipPath>
</defs>
</svg>
