<svg width="158" height="163" viewBox="0 0 158 163" fill="none" xmlns="http://www.w3.org/2000/svg">
<path d="M119.769 0L93.1353 8.88765V84.7762L97.9157 83.5797V26.2876L119.769 19.4504V0ZM139.539 37.1143L104.062 45.993V88.3835L90.8083 91.7006L86.9895 92.6568V50.2663L62.3671 56.4293C64.1341 57.7783 65.6809 59.4445 66.9811 61.3257C70.4469 66.3364 72.5434 72.8389 73.956 79.9082C76.4759 92.5228 76.7067 106.843 76.7303 117.599L158 97.2568C157.985 86.4165 157.805 71.573 155.34 59.2363C154.021 52.6316 152.021 46.8268 149.34 42.9501C146.723 39.1651 143.805 37.2069 139.539 37.1146L139.539 37.1143ZM51.8196 58.9744C47.253 58.9744 44.2353 60.7555 41.6068 64.1184C38.9776 67.4816 37.0067 72.55 35.6983 78.4443C35.4099 79.7546 35.1553 81.0721 34.9348 82.3955L66.7264 76.0294V76.0288C66.4288 74.9462 66.0994 73.8726 65.7386 72.8095L65.7331 72.7924L65.7195 72.7531C65.5585 72.284 65.39 71.8175 65.2141 71.3538L65.1629 71.2164C64.9881 70.7564 64.8052 70.2997 64.6142 69.8462C64.5985 69.8093 64.5817 69.7738 64.5664 69.7368C64.3976 69.3429 64.2218 68.952 64.0392 68.5643L63.906 68.2819C63.8482 68.1611 63.7897 68.0412 63.7305 67.9222C63.6343 67.7289 63.5361 67.5365 63.4358 67.3452C63.4061 67.2898 63.3778 67.2324 63.3487 67.1777C63.2165 66.9305 63.0803 66.6855 62.9404 66.4427C62.8994 66.3716 62.8584 66.3025 62.8174 66.2328C62.6727 65.9853 62.5233 65.7405 62.3695 65.4985C62.226 65.272 62.0784 65.0483 61.9266 64.8274C59.2455 60.9494 56.2585 58.9734 51.8196 58.9734V58.9744ZM60.7991 83.4926L30.8459 89.4901L45.8227 94.5951L60.7991 83.4926ZM68.6611 85.3201L46.8908 101.459L22.1133 93.014V116.374L70.4653 108.028C70.2734 100.688 69.8012 92.6954 68.6611 85.3208V85.3201ZM70.5595 114.254L57.8326 116.451L70.5817 118.047C70.5783 116.829 70.5715 115.553 70.5599 114.254L70.5595 114.254ZM114.306 114.535L104.062 117.099V162.899H114.306V114.535ZM37.0084 120.046L15.9682 123.679V121.418C11.0424 122.971 6.72914 125.143 3.8548 127.38C1.14264 129.493 0.0298489 131.607 0.00321563 132.331C-0.0104425 132.694 -0.000198963 132.841 0.444372 133.307C0.871187 133.753 1.84842 134.389 3.45359 134.951C30.6247 139.414 45.7984 132.334 63.3238 123.339L37.0084 120.046Z" fill="url(#paint0_linear_23_132)"/>
<defs>
<linearGradient id="paint0_linear_23_132" x1="101.5" y1="14" x2="106" y2="163" gradientUnits="userSpaceOnUse">
<stop stop-color="#3782FD"/>
<stop offset="0.963862" stop-color="#031D46"/>
</linearGradient>
</defs>
</svg>
