<svg width="107" height="109" viewBox="0 0 107 109" fill="none" xmlns="http://www.w3.org/2000/svg">
<g clip-path="url(#clip0_1_13958)">
<path d="M76.6447 0.774175C76.7843 0.770005 76.7843 0.770005 76.9268 0.765752C77.8952 0.758471 78.6677 1.06485 79.3737 1.75123C79.8237 2.4573 79.8375 3.05395 79.8362 3.86398C79.8376 3.99291 79.839 4.12185 79.8404 4.25469C79.8445 4.67907 79.8457 5.10342 79.8469 5.52782C79.8492 5.82277 79.8517 6.11772 79.8543 6.41267C79.8607 7.18765 79.8647 7.96262 79.8682 8.73762C79.8722 9.52897 79.8785 10.3203 79.8846 11.1116C79.8962 12.6634 79.9052 14.2151 79.9127 15.7669C79.9968 15.6595 80.0809 15.5521 80.1675 15.4414C80.6325 14.8716 81.1439 14.6189 81.8679 14.4971C82.9827 14.4386 84.1785 14.7363 85.0454 15.4636C85.2473 15.6921 85.4158 15.9102 85.5729 16.1711C85.6485 16.2923 85.6485 16.2923 85.7256 16.4159C85.8826 16.8113 85.8731 17.145 85.8677 17.5693C85.8668 17.7177 85.866 17.8661 85.8651 18.0189C85.8433 18.446 85.7869 18.8509 85.7077 19.2708C85.8249 19.3372 85.8249 19.3372 85.9446 19.405C86.9773 20.0338 87.6057 20.8188 87.9987 21.9661C88.2108 23.6218 87.7993 25.0652 87.2798 26.6235C87.1549 26.999 87.0356 27.3759 86.9169 27.7534C86.8391 27.9941 86.761 28.2348 86.6826 28.4754C86.6471 28.5874 86.6115 28.6994 86.5749 28.8148C86.4232 29.2635 86.3148 29.5785 85.9794 29.9194C85.5538 30.1271 85.2291 30.1101 84.7643 30.052C84.4358 29.8499 84.4358 29.8499 84.2252 29.5129C84.1708 28.712 84.2892 28.0934 84.5495 27.3404C84.6171 27.1345 84.6846 26.9285 84.7522 26.7226C84.8591 26.4034 84.9666 26.0844 85.0743 25.7655C85.1788 25.4543 85.2812 25.1424 85.3834 24.8304C85.4158 24.7368 85.4482 24.6433 85.4816 24.5469C85.7454 23.7395 85.8859 22.904 85.5308 22.1093C85.3019 21.8018 85.3019 21.8018 84.8991 21.5618C84.5074 22.7994 84.116 24.037 83.7247 25.2748C83.5428 25.8502 83.3608 26.4256 83.1787 27.001C83.1267 27.1656 83.1267 27.1656 83.0735 27.3336C83.0033 27.5555 82.933 27.7773 82.8625 27.9991C82.6819 28.5687 82.5036 29.1389 82.3291 29.7104C82.014 30.7366 81.6947 31.7522 81.2947 32.7489C79.4751 37.2929 79.7107 41.9157 79.785 46.7235C79.8102 48.3754 79.8248 50.0275 79.8317 51.6797C79.8347 52.2951 79.8428 52.9102 79.8552 53.5256C79.862 53.9059 79.865 54.2863 79.867 54.6667C79.8695 54.925 79.8769 55.1832 79.8844 55.4413C79.885 56.2332 79.8575 56.7455 79.3282 57.3591C79.1671 57.5143 79.0026 57.6661 78.8346 57.8137C78.6864 57.9632 78.5389 58.1132 78.3924 58.2643C78.1764 58.4772 77.9594 58.689 77.7423 58.9008C77.3676 59.2701 77.0107 59.6449 76.6699 60.0458C75.8599 60.9832 74.955 61.8353 74.0746 62.7058C72.8926 63.8732 72.8926 63.8732 71.7798 65.1057C71.3214 65.6308 70.8269 66.1214 70.336 66.6156C70.2313 66.7231 70.1266 66.8305 70.0188 66.9412C69.9162 67.0445 69.8136 67.1478 69.7079 67.2542C69.6165 67.3468 69.5252 67.4395 69.431 67.5349C68.644 68.1957 67.9595 68.2493 66.9743 68.2429C66.839 68.2437 66.7037 68.2444 66.5643 68.2451C66.1112 68.247 65.6581 68.2461 65.2049 68.2451C64.8799 68.2459 64.5549 68.2468 64.23 68.2479C63.439 68.2501 62.648 68.2504 61.857 68.2497C61.2139 68.2491 60.5708 68.2493 59.9277 68.25C59.8361 68.2501 59.7446 68.2502 59.6502 68.2503C59.4641 68.2505 59.278 68.2507 59.092 68.251C57.3475 68.2528 55.6031 68.2521 53.8587 68.2505C52.2638 68.2492 50.669 68.2509 49.0741 68.2542C47.4354 68.2574 45.7968 68.2587 44.1582 68.2578C43.2386 68.2574 42.3191 68.2577 41.3995 68.26C40.5347 68.2622 39.67 68.2616 38.8052 68.259C38.4879 68.2586 38.1706 68.259 37.8534 68.2604C37.42 68.2622 36.9867 68.2606 36.5534 68.2582C36.428 68.2595 36.3027 68.2608 36.1736 68.2621C35.2883 68.2522 34.5581 68.0717 33.8868 67.4661C33.2735 66.785 33.1139 66.084 33.1227 65.189C33.1236 65.0335 33.1245 64.878 33.1254 64.7178C33.1288 64.4773 33.1288 64.4773 33.1322 64.2319C33.1334 64.0685 33.1347 63.905 33.1359 63.7366C33.1391 63.3345 33.1435 62.9325 33.1491 62.5305C33.0248 62.5317 32.9006 62.5329 32.7726 62.5341C31.5989 62.545 30.4252 62.5532 29.2514 62.5585C28.648 62.5613 28.0447 62.5651 27.4413 62.5712C26.8585 62.5771 26.2757 62.5803 25.6928 62.5817C25.4711 62.5827 25.2493 62.5846 25.0275 62.5875C22.8642 62.6149 22.8642 62.6149 21.9635 61.9915C21.2332 61.2419 21.1149 60.5336 21.1243 59.5158C21.1243 59.4039 21.1242 59.2921 21.1242 59.1769C21.1244 58.8087 21.1265 58.4404 21.1286 58.0722C21.1291 57.8163 21.1295 57.5605 21.1298 57.3046C21.1308 56.6322 21.1334 55.9598 21.1364 55.2874C21.1392 54.6008 21.1404 53.9143 21.1418 53.2277C21.1447 51.8814 21.1493 50.5351 21.1549 49.1887C20.9849 49.1922 20.8148 49.1957 20.6396 49.1993C19.9827 49.2127 19.6432 48.9998 19.1587 48.5654C18.8982 48.0445 18.8828 47.5999 18.9987 47.0325C19.1595 46.7885 19.1595 46.7885 19.3801 46.55C19.5091 46.4101 19.5091 46.4101 19.6406 46.2674C20.2438 45.6409 20.8546 45.0225 21.4703 44.4082C21.6174 44.261 21.7646 44.1137 21.9117 43.9664C22.2185 43.6594 22.5256 43.3526 22.8329 43.0459C23.224 42.6555 23.6146 42.2646 24.005 41.8734C24.3082 41.5696 24.6118 41.2662 24.9155 40.9629C25.0595 40.8189 25.2034 40.6749 25.3473 40.5308C26.0535 39.8233 26.7636 39.1282 27.5231 38.4775C27.8831 38.1642 28.2204 37.8301 28.557 37.492C28.6263 37.4228 28.6956 37.3537 28.7671 37.2824C28.9113 37.1382 29.0555 36.9938 29.1994 36.8493C29.4192 36.6288 29.6397 36.4091 29.8602 36.1894C30.0014 36.0481 30.1426 35.9067 30.2837 35.7653C30.349 35.7003 30.4143 35.6353 30.4815 35.5683C30.7475 35.3005 30.992 35.0395 31.2109 34.7313C31.3971 34.4993 31.3971 34.4993 31.8519 34.3729C32.397 34.3635 32.5719 34.4761 33.0143 34.7688C33.0155 34.5102 33.0155 34.5102 33.0167 34.2464C33.0244 32.6223 33.0342 30.9982 33.0461 29.3742C33.0521 28.5392 33.0574 27.7043 33.061 26.8693C33.0645 26.0637 33.0699 25.258 33.0767 24.4524C33.079 24.1449 33.0805 23.8374 33.0814 23.5299C33.0827 23.0994 33.0864 22.6691 33.0908 22.2387C33.0905 22.0476 33.0905 22.0476 33.0902 21.8527C33.0996 21.2002 33.1199 20.7394 33.5534 20.2141C33.9427 20.0195 34.1998 20.0286 34.6315 20.0794C34.9937 20.3243 34.9937 20.3243 35.3053 20.7532C35.3884 21.2626 35.3567 21.7608 35.33 22.2748C35.3195 22.594 35.309 22.9133 35.2985 23.2326C35.2917 23.4019 35.2849 23.5713 35.2779 23.7457C35.2582 24.2795 35.2453 24.8133 35.2356 25.3473C35.2339 25.4379 35.2322 25.5285 35.2305 25.6219C35.227 25.8072 35.2236 25.9925 35.2202 26.1779C35.1973 27.4199 35.169 28.661 35.1145 29.9021C34.7318 34.6951 34.7318 34.6951 36.583 38.8885C37.3918 39.7301 38.303 40.4297 39.2653 41.0853C40.1498 41.7037 40.9048 42.5044 41.664 43.2659C41.7639 43.3656 41.8638 43.4653 41.9666 43.5681C42.1755 43.7769 42.3842 43.9858 42.5928 44.1949C42.9131 44.516 43.2341 44.8363 43.5552 45.1565C43.7587 45.3601 43.9622 45.5638 44.1656 45.7675C44.2618 45.8633 44.3579 45.9592 44.457 46.058C44.5452 46.1467 44.6335 46.2353 44.7244 46.3267C44.8412 46.4436 44.8412 46.4436 44.9603 46.5629C45.3437 46.9822 45.3303 47.3858 45.3259 47.9316C45.2445 48.4647 44.9943 48.691 44.6041 49.054C44.2334 49.1775 44.0166 49.2034 43.6355 49.1971C43.466 49.1944 43.2964 49.1916 43.1217 49.1887C43.1231 49.3953 43.1231 49.3953 43.1244 49.6061C43.1327 50.9068 43.1387 52.2074 43.1427 53.5081C43.1448 54.1767 43.1476 54.8453 43.1522 55.514C43.1566 56.1597 43.159 56.8054 43.1601 57.4512C43.1608 57.6971 43.1623 57.9429 43.1645 58.1888C43.1674 58.5342 43.1678 58.8796 43.1676 59.2251C43.1691 59.3258 43.1705 59.4265 43.172 59.5303C43.1669 60.4061 42.9725 61.1336 42.4142 61.8314C41.5513 62.5178 40.8073 62.5883 39.7405 62.57C39.6132 62.5694 39.4859 62.5689 39.3547 62.5683C38.9511 62.566 38.5475 62.561 38.1438 62.5558C37.8689 62.5538 37.5941 62.5519 37.3192 62.5503C36.6478 62.5458 35.9766 62.5389 35.3053 62.5305C35.3239 63.0668 35.344 63.6031 35.3643 64.1393C35.3696 64.2924 35.3749 64.4456 35.3803 64.6033C35.386 64.7488 35.3916 64.8943 35.3974 65.0442C35.4024 65.179 35.4073 65.3138 35.4124 65.4527C35.406 65.7596 35.406 65.7596 35.5749 65.8997C35.9786 65.9145 36.3793 65.9205 36.7831 65.921C36.9756 65.922 36.9756 65.922 37.172 65.923C37.6056 65.9251 38.0391 65.9262 38.4726 65.9273C38.782 65.9286 39.0914 65.93 39.4007 65.9314C40.2435 65.935 41.0864 65.9379 41.9292 65.9405C42.8089 65.9435 43.6886 65.9472 44.5683 65.9508C46.0458 65.9568 47.5232 65.9623 49.0007 65.9674C50.5228 65.9727 52.0449 65.9783 53.5669 65.9843C53.7076 65.9848 53.7076 65.9848 53.8511 65.9854C54.3214 65.9872 54.7917 65.9891 55.2621 65.9909C59.1665 66.0063 63.0708 66.0207 66.9752 66.0344C66.9737 65.9186 66.9722 65.8028 66.9707 65.6835C66.9572 64.5892 66.9469 63.4948 66.9403 62.4003C66.9368 61.8377 66.9321 61.2752 66.9244 60.7126C66.9171 60.1691 66.913 59.6257 66.9113 59.0821C66.9101 58.8754 66.9076 58.6686 66.904 58.4619C66.8709 56.5097 66.8709 56.5097 67.4637 55.7144C68.0332 55.1255 68.5862 54.8658 69.389 54.8327C69.541 54.833 69.693 54.8333 69.8497 54.8336C70.1122 54.8336 70.1122 54.8336 70.3801 54.8336C70.5654 54.8343 70.7508 54.835 70.9361 54.8357C71.1051 54.8359 71.2741 54.836 71.4482 54.8361C72.0798 54.8368 72.7114 54.8387 73.3429 54.8405C74.7549 54.8432 76.1669 54.846 77.6217 54.8489C77.6217 50.535 77.6217 46.2212 77.6217 41.7766C77.3549 41.8656 77.0881 41.9545 76.8131 42.0461C76.3583 42.063 76.3583 42.063 76.0045 42.0461C75.98 42.1535 75.9555 42.2609 75.9303 42.3715C75.4764 44.285 75.4764 44.285 74.7916 44.7415C74.2554 44.8231 74.044 44.7817 73.5872 44.4804C73.2497 43.9793 73.2663 43.7814 73.3608 43.2059C73.4218 42.9486 73.4927 42.6936 73.5693 42.4404C73.6896 42.0362 73.7991 41.6566 73.8483 41.2376C73.5788 40.8333 73.5788 40.8333 73.1745 40.5637C72.6428 39.8121 72.6917 39.0229 72.7702 38.1379C72.9222 37.4489 73.1366 36.7847 73.3571 36.1154C73.4196 35.9198 73.4819 35.7242 73.544 35.5285C73.7081 35.0129 73.8749 34.4983 74.0424 33.9838C74.1732 33.5811 74.3025 33.1779 74.4316 32.7746C74.4954 32.5752 74.5594 32.3758 74.6235 32.1764C74.7887 31.662 74.952 31.1472 75.1122 30.6312C75.4113 29.6736 75.7174 28.728 76.0961 27.7985C77.9359 23.2572 77.7228 18.5671 77.6732 13.7532C77.6615 12.5883 77.6602 11.4234 77.6596 10.2585C77.658 7.87183 77.6442 5.48542 77.6217 3.09888C77.4626 3.09697 77.3035 3.09506 77.1395 3.09309C76.9296 3.08677 76.7198 3.08027 76.5099 3.07361C76.4052 3.07283 76.3004 3.07205 76.1925 3.07124C75.6378 3.04991 75.4093 3.03768 74.9912 2.64615C74.748 2.21242 74.7186 1.97194 74.7916 1.48169C75.2241 0.719699 75.8453 0.780009 76.6447 0.774175ZM81.8514 16.8769C81.6462 17.1381 81.5563 17.3487 81.4568 17.6649C81.421 17.7761 81.3853 17.8874 81.3486 18.0021C81.3111 18.1232 81.2737 18.2442 81.2351 18.369C81.1948 18.496 81.1545 18.623 81.1129 18.7539C80.9811 19.1701 80.8512 19.5868 80.7213 20.0035C80.6312 20.2899 80.541 20.5762 80.4507 20.8625C80.2231 21.5858 79.9973 22.3095 79.7722 23.0335C79.6496 23.4279 79.5267 23.8221 79.4038 24.2164C79.1932 24.8922 78.9841 25.5684 78.7757 26.2449C78.7437 26.348 78.7118 26.4511 78.679 26.5574C78.59 26.8454 78.5019 27.1336 78.414 27.422C78.3648 27.5828 78.3155 27.7436 78.2648 27.9093C78.1435 28.2978 78.1435 28.2978 78.1608 28.7044C78.447 28.7947 78.7334 28.8844 79.0199 28.9739C79.2591 29.0489 79.2591 29.0489 79.5032 29.1255C79.8849 29.2558 79.8849 29.2558 80.1823 29.2434C80.5596 28.0437 80.9369 26.844 81.314 25.6442C81.4892 25.087 81.6645 24.5297 81.8397 23.9725C82.0093 23.4333 82.1788 22.8942 82.3483 22.355C82.4125 22.1507 82.4768 21.9464 82.541 21.7421C82.5717 21.6446 82.6024 21.5471 82.634 21.4466C82.664 21.3512 82.6941 21.2557 82.725 21.1574C82.8116 20.8815 82.8977 20.6055 82.9838 20.3295C83.0903 19.9887 83.1996 19.6493 83.3105 19.3099C83.3848 19.0796 83.3848 19.0796 83.4605 18.8447C83.5042 18.7117 83.5479 18.5786 83.5929 18.4415C83.6941 18.0252 83.7225 17.6761 83.6862 17.2493C83.2318 16.8499 82.3893 16.4648 81.8514 16.8769ZM77.487 30.7258C77.0855 31.6231 76.792 32.5486 76.5099 33.4885C76.4735 33.6094 76.4371 33.7303 76.3996 33.8548C76.2107 34.4371 76.2107 34.4371 76.1393 35.0383C76.4002 35.1289 76.6613 35.2186 76.9226 35.3079C77.068 35.3579 77.2134 35.4079 77.3633 35.4595C77.7526 35.5968 77.7526 35.5968 78.1608 35.5774C78.3389 35.0359 78.5153 34.4939 78.6914 33.9518C78.7417 33.799 78.792 33.6462 78.8438 33.4888C79.0838 32.7471 79.3026 32.0426 79.3737 31.2649C79.1099 31.1746 78.846 31.0848 78.5819 30.9954C78.435 30.9453 78.288 30.8953 78.1366 30.8438C77.7799 30.7125 77.7799 30.7125 77.487 30.7258ZM31.8625 37.253C31.7726 37.3435 31.6828 37.4341 31.5903 37.5273C31.4885 37.6295 31.3868 37.7317 31.282 37.837C31.1711 37.949 31.0602 38.061 30.946 38.1764C30.8321 38.2908 30.7181 38.4052 30.6008 38.5231C30.1115 39.0146 29.6231 39.5068 29.1346 39.999C28.7784 40.3575 28.4219 40.7157 28.0654 41.0738C27.9564 41.1839 27.8474 41.294 27.7351 41.4075C27.1707 41.9743 26.5954 42.5162 25.9891 43.0378C25.5881 43.3896 25.212 43.7647 24.8357 44.1424C24.7565 44.2215 24.6772 44.3006 24.5956 44.3821C24.4306 44.547 24.2657 44.7121 24.101 44.8774C23.8475 45.1316 23.5933 45.3851 23.3391 45.6385C23.1781 45.7995 23.0172 45.9606 22.8563 46.1218C22.7801 46.1977 22.7039 46.2736 22.6254 46.3519C22.2636 46.6439 22.2636 46.6439 22.0983 47.0325C28.7247 47.0325 35.3511 47.0325 42.1784 47.0325C41.6741 46.4441 41.1903 45.8912 40.6454 45.3479C40.5276 45.2298 40.4098 45.1116 40.2885 44.9899C40.0083 44.7165 39.718 44.4606 39.4198 44.2071C38.7418 43.6155 38.1098 42.9791 37.4764 42.3407C37.2598 42.1223 37.0427 41.9044 36.8256 41.6866C36.3662 41.2256 35.9073 40.7642 35.4485 40.3026C34.9133 39.7642 34.3778 39.226 33.8418 38.6884C33.6276 38.4733 33.4139 38.2579 33.2001 38.0424C33.0701 37.9119 32.9401 37.7815 32.8101 37.651C32.6963 37.5366 32.5826 37.4221 32.4654 37.3042C32.1599 36.9869 32.1599 36.9869 31.8625 37.253ZM75.4655 37.0598C74.9607 38.2418 74.9607 38.2418 75.0612 39.4856C75.2259 39.5579 75.3918 39.6276 75.5581 39.6962C75.6504 39.7353 75.7426 39.7743 75.8377 39.8146C76.2243 39.9111 76.4407 39.8999 76.8131 39.7551C77.008 39.4343 77.008 39.4343 77.1164 39.0392C77.1587 38.9091 77.2011 38.779 77.2448 38.6449C77.3321 38.3422 77.4142 38.0401 77.487 37.7336C77.2767 37.6459 77.066 37.559 76.8552 37.4725C76.738 37.4241 76.6207 37.3756 76.4999 37.3257C76.1552 37.2004 75.8264 37.1216 75.4655 37.0598ZM23.3112 49.1887C23.3112 52.8355 23.3112 56.4822 23.3112 60.2395C23.7119 60.4399 24.0744 60.3892 24.5209 60.3874C24.6133 60.3872 24.7056 60.3871 24.8008 60.3869C25.096 60.3861 25.3912 60.3844 25.6864 60.3827C25.8865 60.382 26.0865 60.3814 26.2865 60.3809C26.7772 60.3794 27.2678 60.377 27.7584 60.3743C27.7586 60.2832 27.7588 60.1921 27.759 60.0983C27.7617 59.1495 27.769 58.2007 27.779 57.2519C27.7821 56.8979 27.7841 56.5439 27.7848 56.19C27.786 55.6807 27.7916 55.1717 27.7979 54.6625C27.7974 54.5046 27.7969 54.3466 27.7963 54.1839C27.8182 52.9565 27.8182 52.9565 28.2108 52.46C28.6735 52.062 28.9961 52.0021 29.5858 51.9949C29.7721 51.9924 29.7721 51.9924 29.9621 51.9897C30.163 51.9882 30.163 51.9882 30.3679 51.9867C30.506 51.9856 30.6441 51.9845 30.7864 51.9834C31.0788 51.9815 31.3712 51.9801 31.6636 51.979C32.1099 51.9767 32.5561 51.9708 33.0025 51.9648C33.2866 51.9635 33.5708 51.9623 33.855 51.9614C33.9881 51.9591 34.1212 51.9567 34.2584 51.9543C35.0314 51.9567 35.5156 52.0154 36.1139 52.5579C36.383 52.9855 36.4194 53.3253 36.4264 53.8262C36.4291 53.9718 36.4318 54.1175 36.4345 54.2675C36.4361 54.424 36.4376 54.5803 36.4392 54.7415C36.4419 54.9023 36.4445 55.063 36.4472 55.2287C36.4552 55.7422 36.4615 56.2557 36.4677 56.7693C36.4728 57.1174 36.4781 57.4656 36.4835 57.8137C36.4964 58.6672 36.5079 59.5207 36.5182 60.3743C37.1082 60.3809 37.6983 60.3858 38.2883 60.3891C38.4891 60.3904 38.6899 60.3923 38.8907 60.3946C39.179 60.3979 39.4674 60.3994 39.7557 60.4006C39.9294 60.402 40.103 60.4034 40.2818 60.4049C40.7104 60.4185 40.7104 60.4185 40.9655 60.1047C40.9908 59.7557 40.9994 59.4212 40.9961 59.0721C40.9961 58.9097 40.9961 58.9097 40.9962 58.7441C40.996 58.3929 40.9939 58.0417 40.9918 57.6905C40.9914 57.4741 40.9911 57.2576 40.991 57.0411C40.9896 56.2374 40.9858 55.4336 40.9823 54.6299C40.9768 52.8343 40.9712 51.0387 40.9655 49.1887C35.1396 49.1887 29.3136 49.1887 23.3112 49.1887ZM29.9147 54.0403C29.9147 56.1305 29.9147 58.2207 29.9147 60.3743C31.3823 60.3743 32.8499 60.3743 34.362 60.3743C34.362 58.2841 34.362 56.1938 34.362 54.0403C32.8944 54.0403 31.4268 54.0403 29.9147 54.0403ZM69.1315 57.1399C69.1189 57.3715 69.1157 57.6036 69.1162 57.8356C69.1162 57.984 69.1162 58.1324 69.1162 58.2853C69.1169 58.4467 69.1176 58.6081 69.1183 58.7745C69.1185 58.9388 69.1187 59.1031 69.1189 59.2724C69.1197 59.7997 69.1214 60.3271 69.1231 60.8544C69.1237 61.2109 69.1244 61.5673 69.1249 61.9238C69.1264 62.7999 69.1287 63.6759 69.1315 64.552C69.5742 64.1923 69.9875 63.8541 70.3486 63.4107C70.7891 62.8947 71.2576 62.4147 71.7384 61.9367C71.8161 61.8594 71.8938 61.7821 71.9739 61.7025C72.2982 61.3806 72.6232 61.0594 72.9482 60.7381C74.1524 59.549 74.1524 59.549 75.2858 58.293C75.5094 58.032 75.7487 57.791 75.9961 57.5526C76.1361 57.4175 76.2746 57.2807 76.4088 57.1399C76.4088 57.0954 76.4088 57.051 76.4088 57.0051C75.3941 57.0017 74.3793 56.9994 73.3646 56.9977C73.0191 56.9971 72.6736 56.9961 72.3281 56.995C71.8327 56.9933 71.3373 56.9926 70.8419 56.992C70.6863 56.9913 70.5308 56.9906 70.3705 56.9899C70.2275 56.9899 70.0845 56.9898 69.9372 56.9898C69.8106 56.9895 69.684 56.9892 69.5536 56.9889C69.2685 56.973 69.2685 56.973 69.1315 57.1399Z" fill="#FF6061"/>
<path d="M44.044 8.73788C44.1543 8.73738 44.2646 8.73689 44.3782 8.73638C44.7498 8.73489 45.1214 8.73437 45.4931 8.73386C45.7587 8.73301 46.0243 8.73212 46.2899 8.73117C47.013 8.72883 47.7361 8.7274 48.4592 8.72629C48.9108 8.7256 49.3623 8.72478 49.8139 8.72393C51.226 8.72137 52.638 8.71945 54.0501 8.71833C55.6814 8.71701 57.3127 8.71346 58.944 8.70802C60.204 8.70396 61.464 8.70196 62.724 8.70151C63.4769 8.70119 64.2298 8.69998 64.9828 8.6966C65.6912 8.69346 66.3995 8.69289 67.1079 8.69427C67.3679 8.69434 67.6279 8.69348 67.8879 8.69164C68.2429 8.68926 68.5978 8.6902 68.9528 8.69198C69.0557 8.6905 69.1585 8.68902 69.2645 8.6875C69.9591 8.69588 70.3511 8.85763 70.8852 9.29677C71.5083 10.1051 71.5801 10.6986 71.5817 11.6957C71.5821 11.7974 71.5826 11.8991 71.583 12.0039C71.5837 12.2187 71.584 12.4336 71.584 12.6485C71.5843 12.975 71.5867 13.3015 71.5893 13.628C71.5897 13.8374 71.59 14.0468 71.5901 14.2563C71.5911 14.3529 71.592 14.4495 71.593 14.549C71.5894 15.3553 71.5053 16.0408 70.9863 16.6752C70.253 17.2751 69.6377 17.4425 68.7032 17.435C68.5397 17.436 68.5397 17.436 68.3729 17.4372C68.0088 17.4391 67.6448 17.4381 67.2808 17.4372C67.0193 17.4379 66.7578 17.4389 66.4963 17.44C65.7869 17.4424 65.0774 17.4422 64.368 17.4415C63.7755 17.441 63.1831 17.4419 62.5906 17.4427C61.1929 17.4446 59.7952 17.4444 58.3974 17.4428C56.9558 17.4413 55.5142 17.4432 54.0726 17.4468C52.8344 17.4498 51.5963 17.4507 50.3581 17.4499C49.6188 17.4494 48.8795 17.4497 48.1402 17.4521C47.445 17.4541 46.7498 17.4536 46.0546 17.4511C45.7996 17.4506 45.5447 17.451 45.2897 17.4524C44.9412 17.4542 44.5929 17.4526 44.2445 17.4503C44.0937 17.4522 44.0937 17.4522 43.9399 17.4542C43.1929 17.4437 42.7826 17.2536 42.1801 16.8436C41.5107 16.1214 41.4837 15.5257 41.4789 14.5753C41.4782 14.4581 41.4774 14.3409 41.4766 14.2202C41.4753 13.9723 41.4744 13.7243 41.4739 13.4763C41.4726 13.0983 41.4684 12.7204 41.4642 12.3424C41.4633 12.1012 41.4626 11.86 41.4621 11.6188C41.4604 11.5064 41.4587 11.3939 41.457 11.278C41.4599 10.5136 41.5746 9.92618 42.1175 9.34468C42.8088 8.81603 43.19 8.73767 44.044 8.73788ZM43.6625 10.914C43.6625 12.3371 43.6625 13.7602 43.6625 15.2265C46.9988 15.2296 50.335 15.232 53.6712 15.2334C55.2201 15.2341 56.7691 15.2351 58.318 15.2366C59.6675 15.238 61.0171 15.2388 62.3666 15.2391C63.0817 15.2393 63.7967 15.2397 64.5117 15.2407C65.1839 15.2416 65.8561 15.2419 66.5283 15.2417C66.7758 15.2417 67.0232 15.242 67.2707 15.2425C67.6071 15.2432 67.9434 15.243 68.2797 15.2427C68.379 15.2431 68.4782 15.2435 68.5804 15.2439C69.0299 15.2819 69.0299 15.2819 69.4028 15.0917C69.4028 13.713 69.4028 12.3344 69.4028 10.914C60.9085 10.914 52.4142 10.914 43.6625 10.914Z" fill="#FF6061"/>
<path d="M35.8225 0.769149C35.9502 0.768363 36.0779 0.767577 36.2094 0.766767C36.3486 0.767277 36.4877 0.767786 36.6311 0.768311C36.8541 0.767538 36.8541 0.767538 37.0817 0.766749C37.5808 0.765356 38.08 0.765895 38.5792 0.766429C38.9367 0.765844 39.2942 0.765154 39.6517 0.764342C40.5225 0.762624 41.3932 0.762383 42.264 0.762698C42.9717 0.762938 43.6793 0.762703 44.387 0.762129C44.4877 0.762048 44.5884 0.761968 44.6921 0.761886C44.8967 0.761722 45.1013 0.761559 45.3058 0.761395C47.2243 0.759929 49.1427 0.760221 51.0612 0.761042C52.8167 0.761739 54.5722 0.760221 56.3277 0.75766C58.13 0.75505 59.9324 0.753935 61.7347 0.754442C62.7467 0.7547 63.7586 0.754362 64.7706 0.752459C65.632 0.750856 66.4933 0.750662 67.3547 0.752296C67.7942 0.753091 68.2337 0.753016 68.6732 0.751622C69.1495 0.75022 69.6258 0.751296 70.1021 0.753012C70.2412 0.752018 70.3804 0.751024 70.5237 0.75C71.7052 0.758987 71.7052 0.758987 72.2338 1.20774C72.4284 1.59703 72.4193 1.85414 72.3685 2.28587C72.0952 2.67872 71.876 2.92217 71.3952 3.02169C71.0098 3.04684 70.6296 3.0492 70.2434 3.04493C70.0955 3.04596 69.9475 3.047 69.795 3.04806C69.2983 3.0507 68.8017 3.04855 68.3049 3.04642C67.9492 3.04734 67.5935 3.04853 67.2378 3.05005C66.4714 3.0528 65.7052 3.05311 64.9388 3.05178C63.8307 3.04986 62.7226 3.05178 61.6145 3.05466C59.8164 3.05925 58.0184 3.06093 56.2203 3.0607C54.4741 3.06048 52.7278 3.0613 50.9816 3.06373C50.874 3.06388 50.7663 3.06403 50.6554 3.06418C49.4813 3.06584 48.3072 3.06774 47.1331 3.06975C46.822 3.07028 46.5109 3.07081 46.1998 3.07134C45.9948 3.07169 45.7898 3.07204 45.5848 3.0724C44.2784 3.07466 42.972 3.07584 41.6656 3.07586C40.9182 3.07589 40.1708 3.07653 39.4234 3.0772C39.0753 3.07739 38.7272 3.07734 38.3791 3.07704C37.9062 3.07665 37.4333 3.07706 36.9603 3.07767C36.8207 3.07734 36.681 3.07702 36.5371 3.07668C36.3486 3.07716 36.3486 3.07716 36.1563 3.07765C36.047 3.07765 35.9377 3.07764 35.8251 3.07763C35.5751 3.06737 35.5751 3.06737 35.4427 3.22922C35.4294 3.40868 35.4254 3.58883 35.4251 3.76877C35.4245 3.88498 35.424 4.00118 35.4234 4.1209C35.4235 4.24937 35.4236 4.37783 35.4236 4.51019C35.4232 4.64473 35.4227 4.77927 35.4222 4.91789C35.4212 5.21115 35.4205 5.50441 35.42 5.79768C35.4191 6.26148 35.4169 6.72526 35.4144 7.18906C35.4074 8.50813 35.4009 9.82719 35.3988 11.1463C35.3975 11.9521 35.3935 12.7579 35.3879 13.5637C35.3862 13.8713 35.3855 14.1789 35.3858 14.4865C35.3861 14.9167 35.3832 15.3467 35.3794 15.7768C35.3803 15.9045 35.3812 16.0321 35.3821 16.1636C35.3697 17.0273 35.3697 17.0273 35.0503 17.4556C34.7544 17.6592 34.5882 17.7622 34.2299 17.7839C33.8605 17.6848 33.621 17.5729 33.3366 17.317C33.0452 16.7784 33.0955 16.2475 33.0994 15.6446C33.0987 15.5096 33.098 15.3745 33.0973 15.2354C33.0955 14.7885 33.0967 14.3416 33.098 13.8947C33.0978 13.5838 33.0974 13.2729 33.0969 12.962C33.0963 12.3099 33.0971 11.6578 33.099 11.0058C33.1013 10.1713 33.1 9.33696 33.0976 8.50254C33.0961 7.86019 33.0966 7.21784 33.0976 6.57548C33.0979 6.26794 33.0976 5.96039 33.0966 5.65284C33.0956 5.22191 33.0972 4.79105 33.0994 4.36012C33.0982 4.17062 33.0982 4.17062 33.0969 3.9773C33.1053 3.10506 33.2074 2.30955 33.7782 1.60888C33.855 1.54877 33.9318 1.48866 34.0109 1.42673C34.087 1.36454 34.163 1.30235 34.2414 1.23827C34.7536 0.910076 35.2163 0.769793 35.8225 0.769149Z" fill="#FF6061"/>
<path d="M54.7135 44.1986C55.2174 44.5916 55.3494 44.9416 55.4821 45.5568C55.5168 45.7131 55.5516 45.8695 55.5874 46.0305C55.6214 46.1932 55.6555 46.3558 55.6906 46.5233C55.7267 46.688 55.7628 46.8527 55.8001 47.0223C55.8889 47.4284 55.9758 47.8348 56.0612 48.2415C56.3816 48.2732 56.3816 48.2732 56.6823 47.8915C56.8241 47.7365 56.9652 47.5808 57.1056 47.4245C57.2156 47.3046 57.2156 47.3046 57.3278 47.1822C57.7018 46.7724 58.0558 46.3567 58.3943 45.9168C58.7565 45.5462 58.7565 45.5462 59.2366 45.3946C59.8777 45.4179 60.1567 45.5825 60.5916 46.05C60.753 46.2347 60.913 46.4206 61.0717 46.6075C62.0996 47.8301 62.0996 47.8301 63.5333 48.4158C63.9613 48.3667 64.1251 48.2335 64.4503 47.9552C64.8668 47.6129 65.2836 47.2882 65.7306 46.9865C65.8713 46.8914 65.8713 46.8914 66.0149 46.7944C66.6836 46.4003 67.2808 46.2627 68.0553 46.3548C68.6914 46.5515 69.0869 46.8226 69.5967 47.2477C70.1889 47.7215 70.5282 47.8614 71.2897 47.8373C71.5725 47.7464 71.8409 47.6371 72.1141 47.5209C72.5119 47.383 72.7837 47.4339 73.1764 47.5677C73.5843 47.8576 73.6985 48.007 73.7828 48.5027C73.6975 49.0252 73.56 49.2253 73.1764 49.5892C71.9318 50.2228 70.6738 50.313 69.3456 49.8856C68.6996 49.5846 68.1785 49.1184 67.651 48.6458C66.9569 48.8742 66.4528 49.3057 65.898 49.7616C65.0769 50.4175 64.2864 50.7742 63.2158 50.7389C61.6678 50.4728 60.4968 49.458 59.4303 48.3763C58.9985 48.801 58.5833 49.2356 58.1769 49.6847C56.3531 51.6949 56.3531 51.6949 55.6232 51.8213C55.2599 51.747 55.0259 51.672 54.7135 51.4759C54.5524 51.2127 54.5524 51.2127 54.4271 50.9032C54.3851 50.8024 54.343 50.7017 54.2997 50.5978C54.1582 50.2197 54.0302 49.8382 53.9049 49.4544C53.8528 49.5957 53.8007 49.7369 53.747 49.8824C53.6762 50.0683 53.6053 50.2541 53.5343 50.4399C53.5003 50.5329 53.4662 50.626 53.4311 50.7218C53.2267 51.2507 53.0679 51.6093 52.5573 51.8802C52.017 51.9722 51.8132 51.9228 51.3528 51.6191C51.0073 51.1062 51.0612 50.9149 51.143 50.3286C51.2545 49.7675 51.4437 49.244 51.646 48.7101C51.6894 48.5931 51.7328 48.4761 51.7775 48.3556C51.8689 48.1105 51.961 47.8657 52.0538 47.6211C52.1954 47.2467 52.3337 46.8711 52.4717 46.4954C52.5613 46.2565 52.651 46.0177 52.741 45.7789C52.782 45.6669 52.823 45.5549 52.8653 45.4395C53.2396 44.4663 53.5961 44.0589 54.7135 44.1986Z" fill="#FF6061"/>
<path d="M43.151 29.0201C43.2633 29.0192 43.3757 29.0182 43.4914 29.0172C43.8685 29.0149 44.2453 29.0173 44.6224 29.0198C44.8925 29.0191 45.1625 29.0181 45.4326 29.0168C46.1665 29.0143 46.9005 29.0161 47.6344 29.0187C48.4018 29.0209 49.1692 29.0198 49.9366 29.0191C51.2254 29.0185 52.5142 29.0206 53.803 29.0244C55.294 29.0287 56.7849 29.0287 58.2758 29.0264C59.7089 29.0242 61.142 29.0251 62.5751 29.0274C63.1855 29.0284 63.7959 29.0282 64.4063 29.0272C65.1248 29.0262 65.8434 29.0278 66.5619 29.0315C66.826 29.0324 67.09 29.0324 67.354 29.0315C67.7139 29.0303 68.0735 29.0324 68.4333 29.0354C68.5909 29.0338 68.5909 29.0338 68.7516 29.0321C69.2203 29.0393 69.4894 29.069 69.8721 29.3497C70.1772 29.787 70.1595 30.0669 70.0773 30.5872C69.709 31.076 69.5096 31.2434 68.8994 31.3451C68.6992 31.3484 68.4989 31.3481 68.2986 31.3448C68.1879 31.3457 68.0772 31.3465 67.9631 31.3474C67.5924 31.3495 67.2218 31.3467 66.8511 31.344C66.5852 31.3444 66.3193 31.3452 66.0535 31.3462C65.3314 31.3482 64.6095 31.3459 63.8875 31.3427C63.1322 31.34 62.377 31.3408 61.6217 31.3411C60.3533 31.3411 59.0849 31.3384 57.8165 31.3341C56.3496 31.3291 54.8829 31.3279 53.416 31.3289C52.0055 31.3297 50.5949 31.3283 49.1844 31.3257C48.5838 31.3245 47.9833 31.3242 47.3828 31.3244C46.6757 31.3245 45.9687 31.3226 45.2617 31.3191C45.002 31.3181 44.7424 31.3179 44.4828 31.3183C44.1286 31.3188 43.7746 31.3168 43.4204 31.3142C43.3175 31.3149 43.2145 31.3156 43.1084 31.3164C42.5077 31.3087 42.119 31.2293 41.6418 30.8568C41.4495 30.4722 41.4652 30.2052 41.507 29.7786C41.9231 29.0443 42.3645 29.0082 43.151 29.0201Z" fill="#FF6061"/>
<path d="M43.5069 23.0252C43.6157 23.0249 43.7245 23.0246 43.8367 23.0243C44.2026 23.0234 44.5685 23.0235 44.9344 23.0237C45.1963 23.0233 45.4582 23.0228 45.72 23.0223C46.4323 23.0211 47.1445 23.0208 47.8568 23.0207C48.4509 23.0206 49.045 23.0201 49.6392 23.0196C51.0407 23.0185 52.4422 23.0182 53.8437 23.0183C55.2905 23.0183 56.7372 23.0169 58.184 23.0148C59.4252 23.013 60.6664 23.0123 61.9076 23.0124C62.6494 23.0124 63.3911 23.012 64.1328 23.0106C64.8303 23.0093 65.5278 23.0093 66.2254 23.0103C66.4815 23.0104 66.7377 23.0101 66.9938 23.0093C67.3432 23.0083 67.6926 23.0089 68.042 23.0099C68.1944 23.0089 68.1944 23.0089 68.3499 23.0078C68.8926 23.0114 69.3281 23.0478 69.8072 23.3128C70.1415 23.8142 70.1392 24.0672 70.0767 24.6604C69.8731 24.9556 69.8731 24.9556 69.5377 25.1995C69.1521 25.2527 68.8183 25.2729 68.4328 25.2688C68.3204 25.2698 68.2081 25.2707 68.0923 25.2717C67.7153 25.2741 67.3384 25.2728 66.9613 25.2714C66.6913 25.2723 66.4212 25.2735 66.1511 25.2749C65.4172 25.2779 64.6833 25.2775 63.9493 25.2763C63.337 25.2756 62.7248 25.2766 62.1126 25.2776C60.6686 25.2799 59.2246 25.2794 57.7807 25.2772C56.2897 25.2749 54.7988 25.277 53.3079 25.2814C52.0288 25.285 50.7497 25.286 49.4706 25.2848C48.7062 25.2841 47.9418 25.2844 47.1774 25.2872C46.4589 25.2897 45.7404 25.2889 45.0218 25.2856C44.7578 25.2849 44.4937 25.2854 44.2297 25.2871C43.8698 25.2892 43.5102 25.2872 43.1504 25.2841C42.9928 25.2865 42.9928 25.2865 42.8321 25.289C42.3181 25.2801 42.0906 25.2409 41.7064 24.8878C41.4335 24.3936 41.4923 24.1182 41.6412 23.5823C42.1089 22.9444 42.7841 23.0237 43.5069 23.0252Z" fill="#FF6061"/>
<path d="M43.6705 34.5507C43.8209 34.55 43.9713 34.5492 44.1263 34.5485C44.6232 34.5469 45.12 34.5501 45.617 34.5536C45.9622 34.5539 46.3074 34.5538 46.6526 34.5536C47.376 34.5538 48.0993 34.5563 48.8226 34.5606C49.6585 34.5656 50.4944 34.5668 51.3303 34.5658C52.1351 34.565 52.9399 34.5664 53.7447 34.569C54.087 34.57 54.4292 34.5704 54.7714 34.5703C55.2492 34.5705 55.727 34.5734 56.2048 34.577C56.3467 34.5767 56.4886 34.5763 56.6349 34.5759C56.765 34.5774 56.8952 34.5789 57.0293 34.5805C57.1987 34.5812 57.1987 34.5812 57.3715 34.582C57.7545 34.6465 57.9381 34.7704 58.217 35.0379C58.3658 35.5734 58.4078 35.8587 58.1749 36.3687C57.9475 36.6551 57.9475 36.6551 57.678 36.7899C57.4729 36.8037 57.2673 36.8093 57.0617 36.8106C56.867 36.8124 56.867 36.8124 56.6684 36.8141C56.5255 36.8147 56.3826 36.8153 56.2354 36.8159C56.0853 36.817 55.9352 36.8181 55.7805 36.8192C55.282 36.8226 54.7836 36.8248 54.2851 36.8267C54.0303 36.8278 54.0303 36.8278 53.7703 36.8289C53.0564 36.8318 52.3426 36.8344 51.6287 36.8359C50.6057 36.8381 49.5828 36.8425 48.5599 36.8502C47.7538 36.8561 46.9478 36.8582 46.1417 36.8591C45.7988 36.86 45.456 36.862 45.1131 36.8653C44.6336 36.8695 44.1543 36.8695 43.6748 36.8685C43.4617 36.8718 43.4617 36.8718 43.2443 36.8752C42.2835 36.867 42.2835 36.867 41.7549 36.4733C41.5061 36.1161 41.5061 36.1161 41.4219 35.7118C41.6759 34.4924 42.6431 34.5378 43.6705 34.5507Z" fill="#FF6061"/>
</g>
<path d="M11.6543 104V89.7812H14.5059L18.4121 100.016C18.4902 100.224 18.5618 100.432 18.627 100.641C18.6921 100.842 18.7474 101.051 18.793 101.266H18.8613C18.9134 101.051 18.972 100.842 19.0371 100.641C19.1022 100.432 19.1738 100.224 19.252 100.016L23.1582 89.7812H26.0293V104H23.8711V94.0781C23.8711 93.8763 23.8743 93.6484 23.8809 93.3945C23.8874 93.1406 23.9036 92.9095 23.9297 92.7012H23.8613C23.8223 92.9095 23.7637 93.1406 23.6855 93.3945C23.6139 93.6484 23.5391 93.8763 23.4609 94.0781L19.6914 104H17.8066L14.0371 94.0781C13.959 93.8763 13.8809 93.6452 13.8027 93.3848C13.7311 93.1178 13.679 92.89 13.6465 92.7012H13.5684C13.5944 92.89 13.6107 93.1178 13.6172 93.3848C13.6237 93.6452 13.627 93.8763 13.627 94.0781V104H11.6543ZM28.3242 99.0977V98.7852C28.3242 97.2422 28.7702 95.9954 29.6621 95.0449C30.5605 94.0879 31.752 93.6094 33.2363 93.6094C34.7142 93.6094 35.9023 94.0879 36.8008 95.0449C37.6992 95.9954 38.1484 97.2422 38.1484 98.7852V99.0977C38.1484 100.647 37.6992 101.9 36.8008 102.857C35.9023 103.808 34.7142 104.283 33.2363 104.283C31.752 104.283 30.5605 103.808 29.6621 102.857C28.7702 101.9 28.3242 100.647 28.3242 99.0977ZM30.502 98.7363V99.1562C30.502 100.165 30.7331 100.992 31.1953 101.637C31.6576 102.281 32.3379 102.604 33.2363 102.604C34.1348 102.604 34.8151 102.281 35.2773 101.637C35.7396 100.992 35.9707 100.165 35.9707 99.1562V98.7363C35.9707 97.7272 35.7363 96.9036 35.2676 96.2656C34.8053 95.6211 34.1283 95.2988 33.2363 95.2988C32.3444 95.2988 31.6641 95.6211 31.1953 96.2656C30.7331 96.9036 30.502 97.7272 30.502 98.7363ZM40.2383 104V93.9023H42.2207L42.2891 95.1523H42.3379C42.5853 94.7357 42.9108 94.3776 43.3145 94.0781C43.7181 93.7721 44.1934 93.6191 44.7402 93.6191C44.877 93.6191 45.0202 93.6354 45.1699 93.668C45.3262 93.7005 45.4368 93.7298 45.502 93.7559V95.6504C45.3783 95.6178 45.2448 95.5951 45.1016 95.582C44.9583 95.569 44.8053 95.5625 44.6426 95.5625C44.1152 95.5625 43.653 95.709 43.2559 96.002C42.8587 96.2949 42.5658 96.6628 42.377 97.1055V104H40.2383ZM46.2539 95.5039V93.9023H52.1914V95.5039H46.2539ZM47.9629 101.305V94.752V94.4883V91.2852H50.082V101.246C50.082 101.741 50.1732 102.083 50.3555 102.271C50.5378 102.46 50.8112 102.555 51.1758 102.555C51.3451 102.555 51.5111 102.538 51.6738 102.506C51.8431 102.467 52.0091 102.415 52.1719 102.35V104C52.0091 104.072 51.791 104.137 51.5176 104.195C51.2507 104.254 50.9544 104.283 50.6289 104.283C49.8151 104.283 49.1673 104.046 48.6855 103.57C48.2038 103.095 47.9629 102.34 47.9629 101.305ZM53.8418 106.852L54.9258 105.367C55.1992 105.66 55.5996 105.927 56.127 106.168C56.6543 106.409 57.2402 106.529 57.8848 106.529C58.6986 106.529 59.3496 106.288 59.8379 105.807C60.3262 105.325 60.5703 104.615 60.5703 103.678V102.828C60.2839 103.238 59.8932 103.567 59.3984 103.814C58.9102 104.062 58.3177 104.186 57.6211 104.186C56.3385 104.186 55.3099 103.714 54.5352 102.77C53.7669 101.819 53.3828 100.598 53.3828 99.1074V98.7949C53.3828 97.304 53.7669 96.0833 54.5352 95.1328C55.3034 94.1823 56.332 93.707 57.6211 93.707C58.3047 93.707 58.9102 93.847 59.4375 94.127C59.9648 94.4069 60.3522 94.7552 60.5996 95.1719H60.6484L60.7168 93.9023H62.6895V103.629C62.6895 105.12 62.2533 106.262 61.3809 107.057C60.5085 107.857 59.3757 108.258 57.9824 108.258C57.1361 108.258 56.3548 108.124 55.6387 107.857C54.9225 107.59 54.3236 107.255 53.8418 106.852ZM55.5508 99.1465C55.5508 100.117 55.7624 100.921 56.1855 101.559C56.6087 102.19 57.2663 102.506 58.1582 102.506C58.7507 102.506 59.2552 102.343 59.6719 102.018C60.0885 101.686 60.388 101.308 60.5703 100.885V97.0176C60.3815 96.5814 60.0788 96.2005 59.6621 95.875C59.2454 95.543 58.7376 95.377 58.1387 95.377C57.2533 95.377 56.599 95.6992 56.1758 96.3438C55.7591 96.9818 55.5508 97.7858 55.5508 98.7559V99.1465ZM64.8281 101.041C64.8281 99.9863 65.2415 99.1758 66.0684 98.6094C66.8952 98.0365 67.9466 97.75 69.2227 97.75H71.4395V97.0664C71.4395 96.5 71.293 96.0475 71 95.709C70.707 95.3639 70.2057 95.1914 69.4961 95.1914C68.793 95.1914 68.2852 95.3346 67.9727 95.6211C67.6602 95.9076 67.5039 96.2526 67.5039 96.6562V96.7637L65.4043 96.7539V96.6465C65.4043 95.8066 65.7819 95.0938 66.5371 94.5078C67.2988 93.9154 68.3112 93.6191 69.5742 93.6191C70.8372 93.6191 71.8171 93.9056 72.5137 94.4785C73.2168 95.0449 73.5684 95.9108 73.5684 97.0762V101.676C73.5684 102.099 73.6009 102.496 73.666 102.867C73.7311 103.238 73.8255 103.564 73.9492 103.844V104H71.8789C71.7878 103.837 71.7064 103.632 71.6348 103.385C71.5697 103.131 71.5241 102.877 71.498 102.623C71.2767 103.033 70.8958 103.398 70.3555 103.717C69.8151 104.029 69.125 104.186 68.2852 104.186C67.3086 104.186 66.4883 103.919 65.8242 103.385C65.1602 102.851 64.8281 102.07 64.8281 101.041ZM66.957 100.895C66.957 101.428 67.1133 101.848 67.4258 102.154C67.7383 102.46 68.2201 102.613 68.8711 102.613C69.5417 102.613 70.1374 102.389 70.6582 101.939C71.179 101.484 71.4395 100.982 71.4395 100.436V99.1562H69.5156C68.6628 99.1562 68.0215 99.3092 67.5918 99.6152C67.1686 99.9212 66.957 100.348 66.957 100.895ZM76.1074 106.852L77.1914 105.367C77.4648 105.66 77.8652 105.927 78.3926 106.168C78.9199 106.409 79.5059 106.529 80.1504 106.529C80.9642 106.529 81.6152 106.288 82.1035 105.807C82.5918 105.325 82.8359 104.615 82.8359 103.678V102.828C82.5495 103.238 82.1589 103.567 81.6641 103.814C81.1758 104.062 80.5833 104.186 79.8867 104.186C78.6042 104.186 77.5755 103.714 76.8008 102.77C76.0326 101.819 75.6484 100.598 75.6484 99.1074V98.7949C75.6484 97.304 76.0326 96.0833 76.8008 95.1328C77.569 94.1823 78.5977 93.707 79.8867 93.707C80.5703 93.707 81.1758 93.847 81.7031 94.127C82.2305 94.4069 82.6178 94.7552 82.8652 95.1719H82.9141L82.9824 93.9023H84.9551V103.629C84.9551 105.12 84.5189 106.262 83.6465 107.057C82.7741 107.857 81.6413 108.258 80.248 108.258C79.4017 108.258 78.6204 108.124 77.9043 107.857C77.1882 107.59 76.5892 107.255 76.1074 106.852ZM77.8164 99.1465C77.8164 100.117 78.028 100.921 78.4512 101.559C78.8743 102.19 79.5319 102.506 80.4238 102.506C81.0163 102.506 81.5208 102.343 81.9375 102.018C82.3542 101.686 82.6536 101.308 82.8359 100.885V97.0176C82.6471 96.5814 82.3444 96.2005 81.9277 95.875C81.5111 95.543 81.0033 95.377 80.4043 95.377C79.5189 95.377 78.8646 95.6992 78.4414 96.3438C78.0247 96.9818 77.8164 97.7858 77.8164 98.7559V99.1465ZM87.0547 99.0977V98.7852C87.0547 97.2487 87.4876 96.002 88.3535 95.0449C89.2259 94.0879 90.3652 93.6094 91.7715 93.6094C93.1842 93.6094 94.2747 94.0586 95.043 94.957C95.8177 95.849 96.2051 97.0697 96.2051 98.6191V99.4297H88.3926V97.916H94.0859V97.7109C94.0859 97.0339 93.8906 96.4577 93.5 95.9824C93.1159 95.5007 92.5527 95.2598 91.8105 95.2598C90.9447 95.2598 90.2936 95.5885 89.8574 96.2461C89.4212 96.8971 89.2031 97.724 89.2031 98.7266V99.1465C89.2031 100.156 89.4342 100.989 89.8965 101.646C90.3587 102.298 91.0618 102.623 92.0059 102.623C92.6178 102.623 93.1419 102.486 93.5781 102.213C94.0208 101.933 94.3757 101.607 94.6426 101.236L96.0977 102.242C95.7786 102.776 95.2708 103.251 94.5742 103.668C93.8776 104.078 93.028 104.283 92.0254 104.283C90.4434 104.283 89.2194 103.805 88.3535 102.848C87.4876 101.891 87.0547 100.641 87.0547 99.0977Z" fill="#333333"/>
<defs>
<clipPath id="clip0_1_13958">
<rect width="69" height="69" fill="white" transform="translate(19)"/>
</clipPath>
</defs>
</svg>
