<svg width="55" height="51" viewBox="0 0 55 51" fill="none" xmlns="http://www.w3.org/2000/svg">
<path fill-rule="evenodd" clip-rule="evenodd" d="M6.5887 26.4284C4.69272 29.2738 3.6811 32.6166 3.68125 36.0359V39.1008C3.68125 39.5185 3.51531 39.9191 3.21994 40.2145C2.92457 40.5099 2.52397 40.6758 2.10625 40.6758C1.68853 40.6758 1.28793 40.5099 0.992557 40.2145C0.697187 39.9191 0.53125 39.5185 0.53125 39.1008V36.039C0.532209 31.9958 1.7302 28.0434 3.9742 24.6801L4.3144 24.1698C4.42919 23.9977 4.57675 23.8499 4.74866 23.7349C4.92057 23.6198 5.11345 23.5398 5.31631 23.4993C5.51916 23.4587 5.728 23.4586 5.93092 23.4988C6.13383 23.539 6.32684 23.6188 6.49893 23.7335C6.67101 23.8483 6.8188 23.9959 6.93385 24.1678C7.04891 24.3397 7.12898 24.5326 7.16949 24.7355C7.21 24.9383 7.21016 25.1471 7.16996 25.3501C7.12977 25.553 7.04999 25.746 6.9352 25.9181L6.5887 26.4284Z" fill="#7F848D"/>
<path fill-rule="evenodd" clip-rule="evenodd" d="M15.4729 21.3531C12.0394 21.3531 8.8359 23.0667 6.9333 25.9206L4.3125 24.1755C5.53751 22.3391 7.19666 20.8333 9.14288 19.7915C11.0891 18.7497 13.2623 18.2041 15.4698 18.2031H16.1628C16.5805 18.2031 16.9811 18.3691 17.2765 18.6644C17.5719 18.9598 17.7378 19.3604 17.7378 19.7781C17.7378 20.1958 17.5719 20.5964 17.2765 20.8918C16.9811 21.1872 16.5805 21.3531 16.1628 21.3531H15.4729ZM25.1687 26.3931C26.6492 28.617 27.4398 31.2252 27.4398 33.8964H30.5898C30.5884 30.605 29.6142 27.3874 27.7895 24.648L27.4744 24.1755C27.3629 23.9968 27.2165 23.8422 27.0441 23.7211C26.8717 23.5999 26.6768 23.5146 26.4708 23.4701C26.2648 23.4256 26.052 23.4229 25.845 23.4622C25.638 23.5015 25.4409 23.5819 25.2655 23.6987C25.0901 23.8155 24.94 23.9663 24.8239 24.1421C24.7078 24.318 24.6282 24.5154 24.5898 24.7226C24.5514 24.9298 24.555 25.1426 24.6003 25.3483C24.6456 25.5541 24.7318 25.7487 24.8537 25.9206L25.1687 26.3931Z" fill="#7F848D"/>
<path fill-rule="evenodd" clip-rule="evenodd" d="M16.3149 21.3531C19.7452 21.3531 22.9488 23.0667 24.8514 25.9206L27.4722 24.1755C26.2472 22.3391 24.588 20.8333 22.6418 19.7915C20.6956 18.7497 18.5224 18.2041 16.3149 18.2031H15.6219C15.415 18.2031 15.2102 18.2439 15.0191 18.323C14.8281 18.4022 14.6544 18.5182 14.5082 18.6644C14.3619 18.8107 14.2459 18.9843 14.1668 19.1754C14.0876 19.3665 14.0469 19.5713 14.0469 19.7781C14.0469 19.985 14.0876 20.1898 14.1668 20.3809C14.2459 20.5719 14.3619 20.7456 14.5082 20.8918C14.6544 21.0381 14.8281 21.1541 15.0191 21.2332C15.2102 21.3124 15.415 21.3531 15.6219 21.3531H16.3149Z" fill="#7F848D"/>
<path fill-rule="evenodd" clip-rule="evenodd" d="M15.6906 17.8406C16.6214 17.8406 17.543 17.6573 18.4029 17.3011C19.2628 16.9449 20.0441 16.4229 20.7022 15.7647C21.3604 15.1066 21.8824 14.3253 22.2386 13.4654C22.5948 12.6055 22.7781 11.6839 22.7781 10.7531C22.7781 9.82238 22.5948 8.90075 22.2386 8.04086C21.8824 7.18096 21.3604 6.39964 20.7022 5.74151C20.0441 5.08337 19.2628 4.56131 18.4029 4.20513C17.543 3.84895 16.6214 3.66563 15.6906 3.66563C13.8109 3.66563 12.0082 4.41234 10.679 5.74151C9.34984 7.07067 8.60313 8.8734 8.60313 10.7531C8.60313 12.6328 9.34984 14.4356 10.679 15.7647C12.0082 17.0939 13.8109 17.8406 15.6906 17.8406ZM15.6906 20.9906C18.4058 20.9906 21.0097 19.912 22.9296 17.9921C24.8495 16.0722 25.9281 13.4683 25.9281 10.7531C25.9281 8.03797 24.8495 5.43402 22.9296 3.51412C21.0097 1.59422 18.4058 0.515625 15.6906 0.515625C12.9755 0.515625 10.3715 1.59422 8.45162 3.51412C6.53172 5.43402 5.45313 8.03797 5.45312 10.7531C5.45313 13.4683 6.53172 16.0722 8.45162 17.9921C10.3715 19.912 12.9755 20.9906 15.6906 20.9906ZM29.1065 36.539C27.2088 39.385 26.196 42.729 26.1959 46.1497V49.4068C26.1959 49.8245 26.0299 50.2251 25.7346 50.5205C25.4392 50.8158 25.0386 50.9818 24.6209 50.9818C24.2032 50.9818 23.8026 50.8158 23.5072 50.5205C23.2118 50.2251 23.0459 49.8245 23.0459 49.4068V46.1497C23.0456 42.1082 24.2414 38.157 26.4825 34.7939L26.9015 34.1639C27.1337 33.8164 27.4945 33.5753 27.9045 33.4938C28.3145 33.4123 28.74 33.497 29.0876 33.7292C29.4351 33.9615 29.6762 34.3223 29.7577 34.7322C29.8392 35.1422 29.7545 35.5678 29.5223 35.9153L29.1065 36.539Z" fill="#7F848D"/>
<path fill-rule="evenodd" clip-rule="evenodd" d="M38.2809 31.2281C36.5481 31.2279 34.8421 31.6556 33.3145 32.4733C31.7868 33.291 30.4847 34.4733 29.5239 35.9153L26.9062 34.1671C28.1545 32.2942 29.8458 30.7586 31.8301 29.6964C33.8144 28.6342 36.0302 28.0783 38.2809 28.0781H38.9865C39.4042 28.0781 39.8048 28.2441 40.1002 28.5394C40.3956 28.8348 40.5615 29.2354 40.5615 29.6531C40.5615 30.0708 40.3956 30.4714 40.1002 30.7668C39.8048 31.0622 39.4042 31.2281 38.9865 31.2281H38.2809ZM48.32 36.539C50.2176 39.385 51.2304 42.729 51.2306 46.1497V49.4068C51.2306 49.8245 51.3965 50.2251 51.6919 50.5205C51.9872 50.8158 52.3878 50.9818 52.8056 50.9818C53.2233 50.9818 53.6239 50.8158 53.9192 50.5205C54.2146 50.2251 54.3806 49.8245 54.3806 49.4068V46.1497C54.3799 42.1079 53.183 38.1567 50.9407 34.7939L50.5218 34.1639C50.2895 33.8164 49.9288 33.5753 49.5188 33.4938C49.1088 33.4123 48.6832 33.497 48.3357 33.7292C47.9882 33.9615 47.7471 34.3223 47.6656 34.7322C47.5841 35.1422 47.6688 35.5678 47.901 35.9153L48.32 36.539Z" fill="#7F848D"/>
<path fill-rule="evenodd" clip-rule="evenodd" d="M39.1431 31.2281C40.8759 31.2279 42.5819 31.6556 44.1096 32.4733C45.6372 33.291 46.9393 34.4733 47.9001 35.9153L50.5209 34.1671C49.2724 32.2938 47.5805 30.7579 45.5957 29.6956C43.6108 28.6334 41.3943 28.0778 39.1431 28.0781H38.4344C38.0167 28.0781 37.6161 28.2441 37.3207 28.5394C37.0253 28.8348 36.8594 29.2354 36.8594 29.6531C36.8594 30.0708 37.0253 30.4714 37.3207 30.7668C37.6161 31.0622 38.0167 31.2281 38.4344 31.2281H39.1431Z" fill="#7F848D"/>
<path fill-rule="evenodd" clip-rule="evenodd" d="M38.5344 28.075C39.4651 28.075 40.3868 27.8917 41.2466 27.5355C42.1065 27.1793 42.8879 26.6573 43.546 25.9991C44.2041 25.341 44.7262 24.5597 45.0824 23.6998C45.4386 22.8399 45.6219 21.9182 45.6219 20.9875C45.6219 20.0568 45.4386 19.1351 45.0824 18.2752C44.7262 17.4153 44.2041 16.634 43.546 15.9759C42.8879 15.3177 42.1065 14.7957 41.2466 14.4395C40.3868 14.0833 39.4651 13.9 38.5344 13.9C36.6547 13.9 34.8519 14.6467 33.5228 15.9759C32.1936 17.305 31.4469 19.1078 31.4469 20.9875C31.4469 22.8672 32.1936 24.67 33.5228 25.9991C34.8519 27.3283 36.6547 28.075 38.5344 28.075ZM38.5344 31.225C41.2495 31.225 43.8535 30.1464 45.7734 28.2265C47.6933 26.3066 48.7719 23.7027 48.7719 20.9875C48.7719 18.2723 47.6933 15.6684 45.7734 13.7485C43.8535 11.8286 41.2495 10.75 38.5344 10.75C35.8192 10.75 33.2153 11.8286 31.2954 13.7485C29.3755 15.6684 28.2969 18.2723 28.2969 20.9875C28.2969 23.7027 29.3755 26.3066 31.2954 28.2265C33.2153 30.1464 35.8192 31.225 38.5344 31.225Z" fill="#7F848D"/>
</svg>
