<svg width="107" height="105" viewBox="0 0 107 105" fill="none" xmlns="http://www.w3.org/2000/svg">
<g clip-path="url(#clip0_1_13317)">
<path d="M40.6057 -0.0232136C40.7796 -0.0243641 40.7796 -0.0243641 40.9569 -0.0255378C41.0836 -0.0256968 41.2103 -0.0258558 41.3408 -0.0260197C41.4759 -0.0267053 41.611 -0.027391 41.7502 -0.0280974C42.2041 -0.0302177 42.6581 -0.0313657 43.112 -0.0325034C43.437 -0.0337887 43.7619 -0.0351217 44.0869 -0.0364989C45.0629 -0.040364 46.0389 -0.0430302 47.0148 -0.0453115C47.2906 -0.045958 47.5663 -0.0466295 47.842 -0.0473068C49.5549 -0.0514803 51.2678 -0.0550758 52.9807 -0.0573359C53.3772 -0.0578681 53.7738 -0.0584076 54.1703 -0.0589564C54.2689 -0.0590923 54.3674 -0.0592282 54.469 -0.0593682C56.0656 -0.0616602 57.6623 -0.0672008 59.2589 -0.0740532C60.8987 -0.0810332 62.5386 -0.0849553 64.1784 -0.0859327C65.0989 -0.0865607 66.0194 -0.0885449 66.9398 -0.0939842C67.8057 -0.0990949 68.6716 -0.100088 69.5375 -0.0982959C69.8552 -0.0983031 70.1729 -0.0996942 70.4906 -0.102575C70.9246 -0.1063 71.3584 -0.105026 71.7924 -0.102516C71.9179 -0.10478 72.0434 -0.107043 72.1727 -0.109375C73.0928 -0.0960941 73.5865 0.185125 74.2551 0.804221C74.4224 0.954638 74.4224 0.954638 74.5929 1.10809C74.6888 1.20387 74.7847 1.29964 74.8835 1.39831C74.9955 1.50958 75.1075 1.62084 75.2229 1.73548C75.4014 1.91477 75.4014 1.91477 75.5835 2.09769C75.7131 2.22689 75.8427 2.35603 75.9724 2.48512C76.3215 2.83309 76.6699 3.18189 77.018 3.5309C77.3836 3.89719 77.7499 4.26281 78.116 4.62854C78.7302 5.24216 79.3437 5.85635 79.9569 6.47086C80.6651 7.18055 81.3743 7.88926 82.084 8.59748C82.6948 9.20703 83.3051 9.8171 83.9149 10.4276C84.2785 10.7916 84.6422 11.1555 85.0065 11.5188C85.3486 11.8601 85.69 12.2021 86.0309 12.5446C86.2154 12.7296 86.4006 12.9139 86.5857 13.0983C86.6958 13.2091 86.806 13.32 86.9194 13.4343C87.0629 13.5779 87.0629 13.5779 87.2092 13.7243C87.731 14.3161 87.917 14.7447 87.9181 15.5376C87.9199 15.7971 87.9199 15.7971 87.9218 16.0619C87.9211 16.2536 87.9204 16.4454 87.9196 16.6371C87.9203 16.841 87.9211 17.0449 87.9221 17.2488C87.9243 17.8093 87.924 18.3699 87.9233 18.9304C87.9229 19.5349 87.9249 20.1394 87.9265 20.7439C87.9294 21.9285 87.93 23.1131 87.9297 24.2977C87.9296 25.261 87.9301 26.2242 87.9311 27.1874C87.9314 27.4648 87.9316 27.7422 87.9319 28.0196C87.9321 28.2267 87.9321 28.2267 87.9324 28.4379C87.9349 31.0504 87.9348 33.6629 87.9338 36.2753C87.9331 38.6636 87.9359 41.052 87.9404 43.4403C87.9449 45.8932 87.9469 48.3461 87.9463 50.799C87.946 52.1759 87.9467 53.5528 87.9501 54.9296C87.9529 56.1024 87.9534 57.2751 87.9508 58.4479C87.9496 59.0458 87.9494 59.6438 87.9522 60.2417C87.9548 60.7901 87.9541 61.3384 87.9511 61.8868C87.9505 62.0842 87.9511 62.2817 87.9529 62.4791C87.9704 64.4986 87.4218 66.0045 86.0361 67.469C85.0301 68.4187 83.718 69.0117 82.3405 69.0133C82.1737 69.0139 82.0069 69.0144 81.8351 69.0149C81.6497 69.0148 81.4643 69.0147 81.2789 69.0146C81.0822 69.0149 80.8854 69.0153 80.6887 69.0158C80.1473 69.0169 79.606 69.0171 79.0646 69.0172C78.481 69.0174 77.8973 69.0185 77.3136 69.0194C76.0366 69.0212 74.7596 69.022 73.4826 69.0226C72.6847 69.023 71.8868 69.0236 71.0889 69.0242C68.8786 69.0258 66.6683 69.0272 64.458 69.0276C64.3165 69.0277 64.175 69.0277 64.0292 69.0277C63.8873 69.0278 63.7455 69.0278 63.5993 69.0278C63.3119 69.0279 63.0245 69.0279 62.7371 69.028C62.5945 69.028 62.4519 69.0281 62.305 69.0281C59.9981 69.0286 57.6912 69.031 55.3842 69.0341C53.0142 69.0373 50.6441 69.039 48.274 69.0392C46.944 69.0393 45.614 69.04 44.2839 69.0425C43.1506 69.0446 42.0172 69.0452 40.8838 69.0441C40.3063 69.0436 39.7287 69.0437 39.1512 69.0456C38.6208 69.0474 38.0905 69.0472 37.5601 69.0456C37.3698 69.0453 37.1795 69.0457 36.9892 69.0469C35.1103 69.0579 33.2649 68.7917 31.4839 68.1786C31.3667 68.1387 31.2496 68.0988 31.1289 68.0577C28.5822 67.1528 26.4842 65.7219 24.5266 63.8745C24.4273 63.7839 24.3279 63.6932 24.2255 63.5997C21.849 61.3497 20.4027 58.3676 19.5403 55.2495C19.5144 55.1585 19.4885 55.0674 19.4619 54.9736C18.2556 50.5008 19.2951 45.4468 21.5186 41.4866C22.2713 40.1999 23.2367 39.0808 24.2571 37.9995C24.3478 37.9002 24.4385 37.8008 24.5319 37.6984C26.4262 35.6977 28.8934 34.31 31.4839 33.4259C31.6426 33.3713 31.6426 33.3713 31.8046 33.3155C32.5515 33.0767 33.3033 32.9307 34.0747 32.7987C34.1805 32.7803 34.2864 32.7619 34.3955 32.7429C34.6546 32.698 34.9139 32.6534 35.1731 32.6089C35.1732 32.4668 35.1733 32.3246 35.1733 32.1781C35.1753 28.7147 35.1811 25.2513 35.1909 21.7879C35.1956 20.113 35.199 18.4382 35.1995 16.7633C35.1999 15.3029 35.2027 13.8426 35.2082 12.3823C35.2111 11.6095 35.2128 10.8368 35.2117 10.064C35.2107 9.33556 35.2128 8.60721 35.2173 7.87881C35.2184 7.61247 35.2184 7.34611 35.2171 7.07977C35.2074 4.83566 35.5433 3.20786 37.1383 1.52227C38.0486 0.662854 39.3389 -0.018305 40.6057 -0.0232136ZM39.7551 4.98196C39.2982 5.66735 39.3314 6.34503 39.3337 7.1481C39.3335 7.257 39.3333 7.36589 39.3331 7.47808C39.3326 7.84257 39.333 8.20705 39.3334 8.57154C39.3332 8.83298 39.333 9.09442 39.3327 9.35587C39.3321 10.0656 39.3323 10.7753 39.3327 11.4849C39.3331 12.2268 39.3328 12.9687 39.3326 13.7105C39.3323 14.9558 39.3326 16.2011 39.3333 17.4464C39.334 18.8881 39.3338 20.3298 39.333 21.7715C39.3324 23.0081 39.3323 24.2446 39.3327 25.4811C39.3329 26.2203 39.3329 26.9594 39.3325 27.6985C39.3321 28.3927 39.3324 29.0869 39.3331 29.7812C39.3333 30.0367 39.3333 30.2922 39.333 30.5477C39.3326 30.8949 39.3331 31.2421 39.3337 31.5893C39.3334 31.6918 39.3331 31.7942 39.3328 31.8998C39.2932 32.3606 39.2932 32.3606 39.4856 32.7437C39.7128 32.7812 39.9402 32.8179 40.1681 32.8511C42.2062 33.1568 44.134 33.7995 45.9628 34.7483C46.1092 34.8239 46.1092 34.8239 46.2586 34.901C46.7105 35.147 47.1064 35.3817 47.4836 35.7364C48.7383 36.8746 49.9359 36.8197 51.5676 36.7955C51.8469 36.7959 52.1262 36.7967 52.4055 36.7981C53.1598 36.8003 53.9139 36.7952 54.6682 36.7888C55.4587 36.7834 56.2492 36.7853 57.0398 36.7865C58.5357 36.7878 60.0316 36.7833 61.5275 36.7764C64.2091 36.7642 66.8907 36.7619 69.5723 36.7617C70.5132 36.7614 71.454 36.7585 72.3949 36.7536C72.9792 36.7508 73.5635 36.7496 74.1478 36.7488C74.4189 36.748 74.6901 36.7466 74.9612 36.7443C75.3309 36.7414 75.7006 36.7409 76.0703 36.7411C76.2317 36.7388 76.2317 36.7388 76.3963 36.7366C77.0108 36.7398 77.4056 36.8097 77.8938 37.1909C78.2759 37.6847 78.3534 38.0549 78.3487 38.6734C78.3497 38.8096 78.3507 38.9458 78.3518 39.0861C78.2893 39.5473 78.1781 39.7883 77.8938 40.1558C77.3445 40.5715 76.8704 40.6185 76.2027 40.6138C76.1014 40.6147 76.0001 40.6156 75.8958 40.6165C75.557 40.619 75.2183 40.6187 74.8796 40.6183C74.6365 40.6196 74.3934 40.621 74.1504 40.6225C73.4908 40.6262 72.8312 40.6275 72.1717 40.6283C71.4823 40.6295 70.7929 40.6331 70.1035 40.6364C68.7981 40.6423 67.4927 40.6461 66.1874 40.6492C64.7012 40.6529 63.2151 40.6588 61.7289 40.6649C58.6719 40.6774 55.6149 40.6871 52.5579 40.6948C52.6306 40.8296 52.7034 40.9644 52.7783 41.1033C52.8754 41.284 52.9725 41.4648 53.0696 41.6456C53.1173 41.7339 53.1651 41.8223 53.2143 41.9134C54.235 43.8176 54.9209 45.7754 55.2599 47.9087C55.2991 48.385 55.2991 48.385 55.5227 48.7808C55.8009 48.7946 56.0796 48.7988 56.3581 48.7994C56.4464 48.7998 56.5346 48.8001 56.6255 48.8005C56.9234 48.8017 57.2212 48.8018 57.5191 48.802C57.7318 48.8027 57.9445 48.8034 58.1571 48.8041C58.6163 48.8056 59.0755 48.8068 59.5346 48.8076C60.2606 48.8091 60.9865 48.8118 61.7124 48.8148C63.7771 48.8231 65.8418 48.8304 67.9065 48.8349C69.0459 48.8373 70.1854 48.8412 71.3248 48.8467C71.9281 48.8496 72.5313 48.8517 73.1346 48.852C73.7023 48.8523 74.27 48.8544 74.8376 48.8579C75.046 48.8589 75.2543 48.8592 75.4627 48.8587C75.7472 48.8582 76.0316 48.8602 76.3162 48.8627C76.555 48.8634 76.555 48.8634 76.7986 48.8641C77.2664 48.9212 77.5172 49.0416 77.8938 49.3198C78.2759 49.8137 78.3534 50.1838 78.3487 50.8023C78.3497 50.9385 78.3507 51.0747 78.3518 51.215C78.2893 51.6762 78.1781 51.9173 77.8938 52.2847C77.3596 52.6794 76.9733 52.7402 76.3153 52.7427C76.1815 52.7441 76.1815 52.7441 76.045 52.7454C75.7472 52.7479 75.4495 52.7476 75.1518 52.7473C74.9379 52.7485 74.724 52.7499 74.5102 52.7514C73.9302 52.7551 73.3503 52.7564 72.7704 52.7572C72.164 52.7585 71.5577 52.762 70.9514 52.7653C69.8036 52.7712 68.6557 52.775 67.5079 52.7781C66.201 52.7818 64.8941 52.7877 63.5872 52.7938C60.899 52.8063 58.2109 52.816 55.5227 52.8238C55.4806 52.9907 55.4386 53.1576 55.3952 53.3297C55.3597 53.4705 55.3597 53.4705 55.3235 53.6142C55.257 53.8862 55.1959 54.1587 55.1374 54.4325C54.2404 58.5734 52.2064 61.7306 49.1887 64.6831C49.0998 64.7721 49.0109 64.861 48.9192 64.9527C53.0922 64.9588 57.2652 64.9636 61.4383 64.9664C61.931 64.9668 62.4237 64.9671 62.9164 64.9675C63.0636 64.9676 63.0636 64.9676 63.2137 64.9677C64.8017 64.9688 66.3898 64.971 67.9778 64.9735C69.6075 64.976 71.2371 64.9775 72.8667 64.978C73.8722 64.9784 74.8776 64.9796 75.8831 64.9818C76.6543 64.9833 77.4254 64.9835 78.1965 64.9831C78.5128 64.9832 78.829 64.9838 79.1452 64.9848C79.5769 64.9861 80.0086 64.9858 80.4402 64.9851C80.5654 64.9859 80.6906 64.9866 80.8196 64.9874C81.6976 64.9834 82.4351 64.9521 83.1244 64.3546C83.7478 63.6244 83.8404 63.0781 83.8401 62.139C83.8405 61.8997 83.8405 61.8997 83.8409 61.6555C83.8403 61.3934 83.8403 61.3934 83.8397 61.126C83.8398 60.9381 83.8399 60.7501 83.8401 60.5622C83.8404 60.0459 83.8398 59.5297 83.8391 59.0134C83.8386 58.4566 83.8388 57.8998 83.8389 57.343C83.8389 56.3784 83.8385 55.4137 83.8378 54.4491C83.8367 53.0544 83.8363 51.6596 83.8361 50.2649C83.8358 48.0021 83.835 45.7393 83.8337 43.4765C83.8324 41.2783 83.8315 39.0801 83.8309 36.882C83.8309 36.7465 83.8308 36.611 83.8308 36.4714C83.8306 35.7918 83.8305 35.1121 83.8303 34.4324C83.8289 28.7933 83.8265 23.1542 83.8235 17.5152C83.6714 17.5144 83.5192 17.5136 83.3625 17.5128C81.9288 17.5051 80.4951 17.4953 79.0615 17.4834C78.3244 17.4774 77.5874 17.4721 76.8503 17.4685C76.139 17.465 75.4277 17.4595 74.7164 17.4527C74.4451 17.4505 74.1737 17.4489 73.9023 17.4481C73.5222 17.4468 73.1422 17.443 72.7621 17.4387C72.6498 17.4389 72.5376 17.439 72.4219 17.4392C71.8032 17.4292 71.3791 17.3894 70.886 16.9761C70.397 16.3928 70.4222 15.8258 70.4234 15.1C70.4214 14.9204 70.4214 14.9204 70.4193 14.7372C70.4152 14.3427 70.414 13.9483 70.4127 13.5538C70.4105 13.2798 70.408 13.0058 70.4054 12.7318C70.399 12.0116 70.395 11.2913 70.3915 10.571C70.3875 9.83569 70.3812 9.10037 70.3751 8.36505C70.3635 6.92291 70.3544 5.48076 70.3469 4.0386C66.5854 4.0323 62.8239 4.02755 59.0624 4.02463C57.3158 4.02324 55.5693 4.02135 53.8228 4.01826C52.3006 4.01558 50.7784 4.01384 49.2562 4.01324C48.4502 4.01289 47.6441 4.01206 46.8381 4.0101C46.0794 4.00827 45.3207 4.00771 44.562 4.00811C44.2836 4.00804 44.0051 4.0075 43.7267 4.00647C43.3464 4.00512 42.9661 4.00545 42.5858 4.00618C42.4758 4.0054 42.3658 4.00461 42.2525 4.0038C41.2087 4.00925 40.4597 4.15657 39.7551 4.98196ZM74.3899 7.13821C74.3899 9.22842 74.3899 11.3186 74.3899 13.4722C76.4801 13.4722 78.5703 13.4722 80.7239 13.4722C80.0447 12.6787 80.0447 12.6787 79.3308 11.9269C79.2234 11.819 79.1159 11.7112 79.0053 11.6001C78.8919 11.487 78.7786 11.374 78.6619 11.2575C78.5437 11.1392 78.4255 11.0209 78.3037 10.899C78.0555 10.6507 77.8071 10.4025 77.5586 10.1545C77.3033 9.89977 77.0483 9.64483 76.7936 9.38951C76.4256 9.02073 76.0572 8.65241 75.6886 8.28424C75.5739 8.16929 75.4593 8.05433 75.3411 7.93589C75.2358 7.83102 75.1305 7.72614 75.022 7.61808C74.929 7.52516 74.8359 7.43224 74.7401 7.33651C74.557 7.12299 74.5569 7.12299 74.3899 7.13821ZM26.9524 41.2339C24.202 44.1838 23.1621 47.8258 23.2627 51.7814C23.3513 53.7703 23.9023 55.503 24.7962 57.271C24.8683 57.4136 24.9404 57.5563 25.0146 57.7032C26.8073 60.9832 30.0107 63.3991 33.5728 64.4557C37.4186 65.383 41.1579 64.8673 44.6067 62.9312C45.1837 62.5735 45.7074 62.1581 46.2239 61.7183C46.3394 61.6229 46.4549 61.5275 46.574 61.4293C49.1288 59.2377 50.9592 56.0569 51.345 52.689C51.6476 48.7135 50.8732 44.9942 48.2454 41.9077C48.15 41.7922 48.0546 41.6767 47.9564 41.5577C45.4702 38.6594 41.9923 37.023 38.2138 36.6687C33.8551 36.4776 29.9928 38.153 26.9524 41.2339Z" fill="#FF6061"/>
<path d="M31.2378 42.6424C31.3693 42.6366 31.5008 42.6309 31.6363 42.625C32.6508 42.8421 33.4332 43.772 34.1395 44.4901C34.2277 44.5787 34.3159 44.6673 34.4068 44.7586C34.6848 45.038 34.9617 45.3184 35.2387 45.5988C35.4285 45.7899 35.6184 45.981 35.8083 46.1721C36.2705 46.6372 36.7319 47.1033 37.1928 47.5697C37.5873 47.3919 37.8634 47.201 38.1659 46.8925C38.2473 46.8102 38.3287 46.7279 38.4126 46.6431C38.4991 46.5544 38.5856 46.4656 38.6747 46.3742C38.7651 46.2828 38.8554 46.1914 38.9485 46.0973C39.3345 45.7069 39.7189 45.3149 40.1034 44.9231C40.3847 44.637 40.6667 44.3516 40.9489 44.0664C41.0782 43.9337 41.0782 43.9337 41.2101 43.7983C42.2258 42.7716 42.2258 42.7716 42.9745 42.6597C43.8031 42.6587 44.3776 42.658 45.0092 43.2572C45.3595 43.7513 45.4774 44.1096 45.4893 44.7144C45.4979 44.9117 45.4979 44.9117 45.5067 45.1129C45.2896 46.1273 44.3597 46.9098 43.6415 47.6161C43.5529 47.7043 43.4643 47.7925 43.3731 47.8834C43.0936 48.1613 42.8133 48.4383 42.5329 48.7152C42.3417 48.9051 42.1506 49.0949 41.9596 49.2848C41.4944 49.7471 41.0284 50.2084 40.5619 50.6693C40.7398 51.0639 40.9307 51.34 41.2391 51.6424C41.3215 51.7238 41.4038 51.8053 41.4886 51.8892C41.5773 51.9757 41.666 52.0621 41.7574 52.1512C41.8488 52.2416 41.9402 52.332 42.0344 52.4251C42.4248 52.8111 42.8167 53.1955 43.2086 53.58C43.4947 53.8613 43.78 54.1433 44.0653 54.4254C44.1538 54.5116 44.2422 54.5978 44.3333 54.6867C45.3601 55.7023 45.3601 55.7023 45.4719 56.4511C45.473 57.2797 45.4737 57.8541 44.8744 58.4858C44.3803 58.836 44.022 58.954 43.4173 58.9659C43.22 58.9745 43.22 58.9745 43.0188 58.9832C42.0044 58.7661 41.2219 57.8363 40.5156 57.1181C40.4274 57.0295 40.3392 56.9409 40.2483 56.8496C39.9704 56.5702 39.6934 56.2898 39.4164 56.0094C39.2266 55.8183 39.0368 55.6272 38.8468 55.4362C38.3846 54.971 37.9232 54.505 37.4623 54.0385C37.0678 54.2163 36.7917 54.4073 36.4892 54.7157C36.4078 54.798 36.3264 54.8803 36.2425 54.9651C36.156 55.0539 36.0695 55.1426 35.9804 55.234C35.8449 55.3711 35.8449 55.3711 35.7066 55.5109C35.3206 55.9013 34.9362 56.2933 34.5517 56.6851C34.2704 56.9713 33.9884 57.2566 33.7063 57.5419C33.62 57.6303 33.5338 57.7188 33.445 57.8099C32.4293 58.8366 32.4293 58.8366 31.6806 58.9485C30.852 58.9496 30.2775 58.9502 29.6459 58.351C29.2956 57.8569 29.1777 57.4986 29.1658 56.8938C29.1601 56.7623 29.1543 56.6308 29.1484 56.4953C29.3655 55.4809 30.2954 54.6985 31.0136 53.9922C31.1022 53.904 31.1908 53.8157 31.282 53.7249C31.5615 53.4469 31.8418 53.1699 32.1222 52.893C32.3134 52.7032 32.5045 52.5133 32.6955 52.3234C33.1607 51.8612 33.6267 51.3998 34.0932 50.9389C33.9153 50.5444 33.7244 50.2682 33.416 49.9658C33.3336 49.8844 33.2513 49.803 33.1665 49.7191C33.0778 49.6326 32.9891 49.5461 32.8977 49.457C32.8063 49.3666 32.7149 49.2762 32.6207 49.1831C32.2303 48.7971 31.8384 48.4128 31.4465 48.0282C31.1604 47.747 30.8751 47.4649 30.5898 47.1828C30.5013 47.0966 30.4129 47.0104 30.3218 46.9216C29.295 45.9059 29.295 45.9059 29.1832 45.1571C29.1821 44.3285 29.1814 43.7541 29.7807 43.1225C30.2748 42.7722 30.6331 42.6543 31.2378 42.6424Z" fill="#FF6061"/>
<path d="M47.2143 24.4723C47.3419 24.4716 47.4696 24.4709 47.6012 24.4701C48.0293 24.4682 48.4573 24.4692 48.8855 24.4701C49.1923 24.4694 49.4991 24.4684 49.8059 24.4673C50.6396 24.4649 51.4732 24.4651 52.3068 24.4658C53.0025 24.4663 53.6981 24.4654 54.3937 24.4646C56.1284 24.4626 57.8631 24.4631 59.5978 24.4647C61.104 24.4661 62.6101 24.4643 64.1163 24.4611C65.6633 24.4578 67.2102 24.4566 68.7572 24.4574C69.6255 24.4579 70.4938 24.4576 71.3622 24.4552C72.1786 24.4532 72.995 24.4537 73.8115 24.4562C74.1113 24.4567 74.411 24.4563 74.7108 24.4549C75.1198 24.4531 75.5287 24.4547 75.9377 24.457C76.1159 24.4551 76.1159 24.4551 76.2978 24.4531C77.0285 24.4619 77.4463 24.577 78.0259 25.0637C78.5726 25.7675 78.5345 26.4994 78.4302 27.3547C78.1375 27.9727 77.8322 28.2808 77.2173 28.5676C76.7964 28.6263 76.3793 28.6227 75.9548 28.6198C75.8271 28.6205 75.6994 28.6213 75.5679 28.622C75.1398 28.6239 74.7117 28.623 74.2836 28.622C73.9768 28.6228 73.6699 28.6237 73.3631 28.6248C72.5295 28.6272 71.6959 28.6271 70.8622 28.6263C70.1666 28.6259 69.471 28.6267 68.7753 28.6275C67.0406 28.6295 65.306 28.629 63.5713 28.6274C62.0651 28.6261 60.5589 28.6278 59.0527 28.631C57.5058 28.6343 55.9588 28.6356 54.4119 28.6347C53.5435 28.6343 52.6752 28.6346 51.8069 28.6369C50.9904 28.639 50.174 28.6385 49.3575 28.6359C49.0578 28.6354 48.758 28.6359 48.4582 28.6373C48.0492 28.639 47.6404 28.6375 47.2314 28.6351C47.1125 28.6364 46.9937 28.6377 46.8713 28.639C46.1405 28.6303 45.7227 28.5151 45.1431 28.0285C44.5965 27.3247 44.6345 26.5928 44.7388 25.7375C45.2819 24.591 46.055 24.4645 47.2143 24.4723Z" fill="#FF6061"/>
</g>
<path d="M42.3965 104V89.7812H44.7109L50.5898 99.4492C50.7135 99.6445 50.8242 99.8398 50.9219 100.035C51.026 100.224 51.1139 100.41 51.1855 100.592H51.2637C51.2572 100.383 51.2507 100.165 51.2441 99.9375C51.2441 99.7096 51.2441 99.4915 51.2441 99.2832V89.7812H53.2656V104H50.9414L45.0723 94.3516C44.9486 94.1497 44.8379 93.9512 44.7402 93.7559C44.6426 93.5605 44.5514 93.375 44.4668 93.1992H44.4082C44.4147 93.4076 44.418 93.6289 44.418 93.8633C44.4245 94.0977 44.4277 94.319 44.4277 94.5273V104H42.3965ZM55.5703 99.0977V98.7852C55.5703 97.2422 56.0163 95.9954 56.9082 95.0449C57.8066 94.0879 58.998 93.6094 60.4824 93.6094C61.9603 93.6094 63.1484 94.0879 64.0469 95.0449C64.9453 95.9954 65.3945 97.2422 65.3945 98.7852V99.0977C65.3945 100.647 64.9453 101.9 64.0469 102.857C63.1484 103.808 61.9603 104.283 60.4824 104.283C58.998 104.283 57.8066 103.808 56.9082 102.857C56.0163 101.9 55.5703 100.647 55.5703 99.0977ZM57.748 98.7363V99.1562C57.748 100.165 57.9792 100.992 58.4414 101.637C58.9036 102.281 59.584 102.604 60.4824 102.604C61.3809 102.604 62.0612 102.281 62.5234 101.637C62.9857 100.992 63.2168 100.165 63.2168 99.1562V98.7363C63.2168 97.7272 62.9824 96.9036 62.5137 96.2656C62.0514 95.6211 61.3743 95.2988 60.4824 95.2988C59.5905 95.2988 58.9102 95.6211 58.4414 96.2656C57.9792 96.9036 57.748 97.7272 57.748 98.7363Z" fill="#FF6061"/>
<defs>
<clipPath id="clip0_1_13317">
<rect width="69" height="69" fill="white" transform="translate(19)"/>
</clipPath>
</defs>
</svg>
