<svg width="54" height="55" viewBox="0 0 54 55" fill="none" xmlns="http://www.w3.org/2000/svg">
<g clip-path="url(#clip0_4_9569)">
<path d="M3.03961 9.32354C3.19751 9.32102 3.19751 9.32102 3.3586 9.31844C3.83765 9.31377 4.31669 9.30949 4.79576 9.30707C5.04851 9.30533 5.30126 9.30247 5.55399 9.29847C5.91876 9.29274 6.28341 9.29044 6.64822 9.28891C6.81752 9.28534 6.81752 9.28534 6.99025 9.28171C7.77361 9.28392 7.77361 9.28392 8.18654 9.59276C8.45139 9.97401 8.45221 10.2148 8.42867 10.6662C8.34874 11.0556 8.17501 11.2179 7.8536 11.4394C7.35032 11.5865 6.82412 11.5658 6.304 11.5736C6.20548 11.5755 6.10696 11.5775 6.00546 11.5795C5.585 11.5877 5.16453 11.5948 4.74406 11.602C4.4367 11.6074 4.12936 11.6134 3.82201 11.6195C3.72673 11.6209 3.63144 11.6223 3.53326 11.6238C3.44477 11.6255 3.35628 11.6273 3.26511 11.6291C3.18735 11.6304 3.10959 11.6317 3.02947 11.633C2.80165 11.6423 2.80165 11.6423 2.5098 11.7537C2.27412 12.3444 2.27058 12.9076 2.27363 13.5371C2.2733 13.6411 2.27298 13.7452 2.27264 13.8525C2.27181 14.2003 2.27247 14.5482 2.27313 14.8961C2.27284 15.1459 2.27247 15.3956 2.27201 15.6454C2.27116 16.2528 2.27128 16.8603 2.27189 17.4677C2.27236 17.9615 2.27243 18.4554 2.2722 18.9492C2.27217 19.0195 2.27214 19.0899 2.2721 19.1624C2.27203 19.3053 2.27197 19.4482 2.2719 19.5912C2.2713 20.9306 2.27199 22.2701 2.27311 23.6095C2.27405 24.7581 2.27389 25.9067 2.27292 27.0554C2.2718 28.3901 2.27136 29.7249 2.272 31.0596C2.27207 31.202 2.27213 31.3444 2.2722 31.4868C2.27225 31.5919 2.27225 31.5919 2.2723 31.6991C2.27248 32.1922 2.27217 32.6852 2.27168 33.1783C2.27107 33.8422 2.27149 34.5062 2.27271 35.1701C2.27298 35.4138 2.2729 35.6575 2.27244 35.9011C2.27187 36.2337 2.27259 36.5663 2.27363 36.8989C2.27316 36.9953 2.2727 37.0918 2.27221 37.1911C2.27547 37.7258 2.31032 38.1827 2.5098 38.6823C3.00258 38.9045 3.44407 38.8976 3.97673 38.8918C4.00604 38.7917 4.03535 38.6917 4.06555 38.5885C4.5713 36.9291 5.45675 35.5727 6.95601 34.6286C8.48351 33.8474 10.2847 33.5448 11.9531 34.0392C12.16 34.1156 12.3654 34.1961 12.5687 34.2815C12.6583 34.3158 12.7478 34.3501 12.8401 34.3855C14.3024 35.0184 15.4459 36.3938 16.022 37.8448C16.1424 38.1904 16.2414 38.5397 16.3408 38.8918C18.7463 38.8967 21.1517 38.9004 23.5572 38.9027C24.6741 38.9038 25.791 38.9052 26.9079 38.9076C27.8814 38.9097 28.8549 38.9111 29.8284 38.9115C30.3439 38.9118 30.8593 38.9125 31.3747 38.914C31.86 38.9154 32.3453 38.9158 32.8307 38.9155C33.0086 38.9156 33.1866 38.916 33.3645 38.9168C33.6079 38.9179 33.8513 38.9176 34.0947 38.917C34.2308 38.9172 34.3668 38.9174 34.5071 38.9176C34.9215 38.8895 35.2402 38.8538 35.6204 38.6823C35.8892 38.1152 35.8596 37.5175 35.8566 36.8989C35.8569 36.7948 35.8572 36.6907 35.8576 36.5835C35.8584 36.2356 35.8577 35.8878 35.8571 35.5399C35.8574 35.2901 35.8577 35.0403 35.8582 34.7906C35.8591 34.1831 35.8589 33.5757 35.8583 32.9682C35.8578 32.4744 35.8578 31.9806 35.858 31.4868C35.8581 31.3813 35.8581 31.3813 35.8581 31.2736C35.8582 31.1307 35.8582 30.9877 35.8583 30.8448C35.8589 29.5054 35.8582 28.1659 35.8571 26.8265C35.8562 25.6778 35.8563 24.5292 35.8573 23.3806C35.8584 22.0458 35.8589 20.7111 35.8582 19.3764C35.8581 19.234 35.8581 19.0916 35.858 18.9492C35.858 18.8791 35.8579 18.809 35.8579 18.7369C35.8577 18.2438 35.858 17.7507 35.8585 17.2577C35.8591 16.5937 35.8587 15.9298 35.8575 15.2659C35.8572 15.0222 35.8573 14.7785 35.8578 14.5348C35.8583 14.2022 35.8576 13.8697 35.8566 13.5371C35.857 13.4406 35.8575 13.3442 35.858 13.2448C35.8547 12.7105 35.8197 12.2531 35.6204 11.7537C35.2519 11.6309 34.92 11.6335 34.5366 11.6338C34.4576 11.6334 34.3786 11.633 34.2973 11.6326C34.0318 11.6315 33.7664 11.6311 33.5009 11.6307C33.3109 11.6301 33.1209 11.6294 32.9309 11.6286C32.5213 11.6271 32.1117 11.6258 31.7021 11.6248C31.0545 11.6232 30.4068 11.6207 29.7592 11.618C27.9174 11.6106 26.0756 11.6043 24.2338 11.599C23.2169 11.596 22.2 11.5923 21.1831 11.5878C20.5393 11.585 19.8955 11.5831 19.2517 11.5819C18.851 11.581 18.4503 11.5791 18.0496 11.5771C17.8638 11.5763 17.678 11.5759 17.4923 11.5758C17.2385 11.5757 16.9848 11.5743 16.7311 11.5726C16.6577 11.5729 16.5843 11.5732 16.5087 11.5734C15.9579 11.5677 15.5118 11.4727 15.0442 11.1774C14.8156 10.8257 14.8188 10.5454 14.808 10.1333C14.9049 9.74255 15.0866 9.59475 15.3978 9.34375C15.6937 9.29229 15.9263 9.27314 16.2215 9.27793C16.3038 9.27719 16.386 9.27644 16.4708 9.27568C16.7463 9.27383 17.0216 9.27573 17.297 9.27762C17.4946 9.27709 17.6922 9.27632 17.8899 9.27535C18.4266 9.27341 18.9632 9.27477 19.4999 9.27683C20.062 9.27855 20.6241 9.27762 21.1862 9.27709C22.1308 9.27661 23.0753 9.27828 24.0198 9.28121C25.1104 9.28456 26.2009 9.28456 27.2915 9.28275C28.3415 9.28109 29.3916 9.2818 30.4416 9.28359C30.8879 9.2843 31.3342 9.2842 31.7805 9.28342C32.3069 9.28262 32.8333 9.2839 33.3598 9.28676C33.5524 9.28748 33.7451 9.2875 33.9378 9.28674C35.0907 9.28273 36.0192 9.3385 37.0088 9.98553C37.626 10.6309 38.0442 11.3416 38.0423 12.2425C38.0422 12.3641 38.0422 12.4858 38.0422 12.6111C38.0417 12.7424 38.0411 12.8737 38.0406 13.009C38.0404 13.2107 38.0404 13.2107 38.0401 13.4164C38.0397 13.7735 38.0387 14.1306 38.0376 14.4877C38.0365 14.8522 38.036 15.2167 38.0355 15.5813C38.0344 16.2962 38.0326 17.0112 38.0304 17.7262C38.0944 17.7255 38.1584 17.7248 38.2243 17.7241C38.8923 17.7171 39.5604 17.7124 40.2284 17.7089C40.4775 17.7073 40.7266 17.7052 40.9757 17.7025C41.3344 17.6986 41.693 17.6969 42.0517 17.6955C42.1625 17.6939 42.2733 17.6922 42.3875 17.6906C42.4923 17.6905 42.5972 17.6905 42.7052 17.6905C42.8424 17.6895 42.8424 17.6895 42.9823 17.6884C43.8718 17.8055 44.352 18.331 44.9581 18.9465C45.0508 19.039 45.1436 19.1316 45.2392 19.2269C45.4921 19.4797 45.7441 19.7333 45.9957 19.9874C46.2596 20.2536 46.5247 20.5186 46.7896 20.7837C47.2339 21.2287 47.6774 21.6745 48.1205 22.1208C48.689 22.6936 49.2588 23.2652 49.829 23.8364C50.3197 24.3279 50.8099 24.8199 51.3 25.3121C51.4051 25.4176 51.5102 25.5231 51.6154 25.6286C51.9608 25.9752 52.3057 26.3223 52.6504 26.6696C52.7377 26.7571 52.8249 26.8446 52.9148 26.9348C52.9943 27.015 53.0737 27.0952 53.1556 27.1779C53.2248 27.2475 53.2939 27.3171 53.3652 27.3888C53.6845 27.7341 53.7737 27.9453 53.7762 28.4055C53.7772 28.5118 53.7782 28.6182 53.7793 28.7278C53.7794 28.8444 53.7795 28.961 53.7795 29.0811C53.7804 29.204 53.7813 29.3268 53.7822 29.4534C53.7843 29.7905 53.7854 30.1276 53.7859 30.4646C53.7863 30.6753 53.787 30.8859 53.7877 31.0966C53.7903 31.8316 53.7916 32.5666 53.792 33.3016C53.7924 33.9865 53.7955 34.6714 53.7999 35.3563C53.8035 35.9445 53.8052 36.5327 53.8052 37.1209C53.8053 37.4721 53.8062 37.8233 53.8092 38.1745C53.812 38.5664 53.8115 38.9581 53.8102 39.35C53.8118 39.4662 53.8133 39.5823 53.8149 39.702C53.8074 40.4889 53.8074 40.4889 53.4959 40.9011C52.9393 41.2916 52.3192 41.2109 51.6629 41.2072C51.5636 41.2071 51.4643 41.2069 51.3621 41.2068C51.0461 41.2062 50.7301 41.2049 50.4141 41.2035C50.1994 41.203 49.9847 41.2025 49.7701 41.2021C49.2447 41.201 48.7194 41.1992 48.1941 41.197C48.1806 41.2684 48.1672 41.3399 48.1534 41.4135C48.1353 41.5074 48.1171 41.6014 48.0985 41.6982C48.0718 41.8378 48.0718 41.8378 48.0447 41.9802C47.9675 42.3194 47.8386 42.6055 47.6767 42.9128C47.6239 43.0152 47.5711 43.1175 47.5167 43.223C47.3728 43.4727 47.2163 43.693 47.0415 43.9213C47.1106 43.9228 47.1798 43.9243 47.2511 43.9259C47.5676 43.9338 47.8841 43.9439 48.2006 43.954C48.3094 43.9564 48.4182 43.9588 48.5303 43.9612C49.1562 43.983 49.6342 44.0336 50.1849 44.3404C50.4228 44.6243 50.4907 44.8069 50.5451 45.1721C50.4871 45.5781 50.3324 45.8025 50.0801 46.1217C49.768 46.2777 49.4852 46.2411 49.1368 46.2426C49.0604 46.243 48.984 46.2435 48.9053 46.244C48.648 46.2454 48.3907 46.246 48.1334 46.2467C47.9494 46.2475 47.7654 46.2484 47.5815 46.2493C46.9762 46.252 46.371 46.2536 45.7657 46.2551C45.5575 46.2557 45.3494 46.2562 45.1412 46.2568C44.2755 46.2591 43.4099 46.261 42.5442 46.2622C41.3024 46.2639 40.0608 46.2674 38.819 46.2734C37.9465 46.2774 37.074 46.2795 36.2015 46.28C35.6801 46.2804 35.1587 46.2817 34.6373 46.285C34.1468 46.2882 33.6564 46.2889 33.1659 46.2876C32.9858 46.2876 32.8058 46.2885 32.6257 46.2903C32.3799 46.2927 32.1343 46.2918 31.8885 46.2902C31.6821 46.2907 31.6821 46.2907 31.4716 46.2912C31.025 46.2101 30.873 46.0499 30.591 45.7026C30.4408 45.4022 30.4541 45.1982 30.4862 44.8643C30.6649 44.5068 30.7897 44.2914 31.154 44.1155C31.7126 43.984 32.2609 43.9884 32.8331 43.9827C32.9578 43.9807 33.0825 43.9786 33.211 43.9765C33.6081 43.9703 34.0052 43.9654 34.4023 43.9606C34.6721 43.9566 34.9418 43.9525 35.2115 43.9483C35.8717 43.9383 36.5319 43.9293 37.1921 43.9213C37.1487 43.8575 37.1054 43.7938 37.0607 43.7281C37.0039 43.6439 36.9471 43.5597 36.8885 43.473C36.8322 43.3898 36.7758 43.3066 36.7178 43.2208C36.5243 42.9168 36.3921 42.6092 36.2687 42.271C36.227 42.1592 36.1853 42.0473 36.1423 41.9321C36.0512 41.6521 35.9847 41.382 35.9348 41.0922C35.8169 41.1093 35.699 41.1263 35.5775 41.1439C34.7759 41.2321 33.9683 41.2107 33.163 41.2089C32.978 41.2089 32.7931 41.2089 32.6082 41.2089C32.1084 41.209 31.6086 41.2084 31.1088 41.2076C30.5856 41.207 30.0625 41.2069 29.5394 41.2068C28.5497 41.2065 27.56 41.2056 26.5704 41.2045C25.4432 41.2034 24.3161 41.2028 23.189 41.2023C20.8713 41.2012 18.5537 41.1993 16.236 41.197C16.222 41.3273 16.208 41.4576 16.1936 41.5919C16.1447 42.0471 15.9919 42.3947 15.7776 42.7949C15.7457 42.8576 15.7139 42.9202 15.681 42.9848C15.5068 43.3213 15.3142 43.6218 15.0835 43.9213C15.1671 43.9219 15.2508 43.9225 15.3371 43.9231C16.1279 43.9292 16.9187 43.9368 17.7095 43.946C18.116 43.9507 18.5225 43.9548 18.929 43.9576C19.3217 43.9603 19.7144 43.9646 20.107 43.9698C20.2565 43.9716 20.4059 43.9728 20.5553 43.9734C22.2155 43.9815 22.2155 43.9815 22.8307 44.5172C22.9955 44.876 23.0126 45.2149 22.942 45.5978C22.754 45.8922 22.6257 46.0703 22.3133 46.2265C22.0519 46.2376 21.7933 46.2424 21.5319 46.2426C21.4503 46.243 21.3688 46.2435 21.2848 46.244C21.0101 46.2454 20.7354 46.246 20.4607 46.2467C20.2643 46.2475 20.068 46.2484 19.8716 46.2493C19.2256 46.252 18.5795 46.2536 17.9334 46.2551C17.7112 46.2557 17.4891 46.2562 17.2669 46.2568C16.343 46.2591 15.419 46.261 14.4951 46.2622C13.1697 46.2639 11.8443 46.2674 10.5189 46.2734C9.58766 46.2774 8.65643 46.2795 7.72518 46.28C7.16863 46.2804 6.61211 46.2817 6.05557 46.285C5.53206 46.2882 5.0086 46.2889 4.48508 46.2876C4.29285 46.2876 4.10062 46.2885 3.90839 46.2903C3.64606 46.2927 3.38394 46.2918 3.12161 46.2902C3.04541 46.2916 2.9692 46.2931 2.89069 46.2946C2.48245 46.2882 2.31318 46.2369 1.9913 45.9769C1.69528 45.5991 1.70097 45.3681 1.72518 44.904C1.80511 44.5146 1.97884 44.3523 2.30024 44.1308C2.66772 44.036 3.02409 44.0077 3.40248 43.9929C3.50952 43.9885 3.61657 43.9841 3.72685 43.9796C3.83741 43.9755 3.94796 43.9714 4.06186 43.9671C4.17444 43.9626 4.28702 43.9581 4.40301 43.9534C4.68003 43.9423 4.95705 43.9316 5.23409 43.9213C5.16197 43.8165 5.16197 43.8165 5.08838 43.7097C4.57544 42.9392 4.08151 42.146 4.08151 41.197C3.88053 41.2035 3.88053 41.2035 3.67548 41.2101C2.66718 41.2038 1.84784 40.9885 1.04288 40.3588C0.269658 39.5562 0.0526296 38.761 0.0585269 37.6756C0.0578886 37.5649 0.0572505 37.4542 0.0565929 37.3402C0.0548508 36.9698 0.0553507 36.5995 0.0558536 36.2292C0.0550845 35.9634 0.0541848 35.6977 0.0531644 35.4319C0.0510773 34.7852 0.0504825 34.1386 0.0506695 33.492C0.0508066 32.9662 0.050407 32.4403 0.0496294 31.9145C0.0494095 31.7629 0.0491897 31.6112 0.0489701 31.4596C0.0488608 31.3841 0.0487514 31.3086 0.0486387 31.2309C0.0466593 29.8042 0.0467679 28.3775 0.047483 26.9508C0.048067 25.6469 0.0458857 24.343 0.0424157 23.0391C0.0388772 21.699 0.0372919 20.3588 0.0377758 19.0187C0.0380106 18.2669 0.0374666 17.515 0.0348531 16.7632C0.0324156 16.0559 0.0327167 15.3488 0.0348455 14.6416C0.0352028 14.3823 0.0346695 14.123 0.0331707 13.8638C0.0312627 13.5092 0.0326019 13.1548 0.0347364 12.8003C0.0334248 12.6982 0.0321131 12.5962 0.0307617 12.491C0.0418424 11.6296 0.357623 11.0348 0.800572 10.313C1.43745 9.6933 2.15444 9.33645 3.03961 9.32354ZM38.0304 19.9266C38.0304 25.0095 38.0304 30.0924 38.0304 35.3293C38.4107 35.0872 38.7911 34.8452 39.1829 34.5958C40.7822 33.8829 42.5543 33.6427 44.2325 34.2627C44.3296 34.3035 44.4267 34.3442 44.5267 34.3863C44.6163 34.4206 44.7058 34.4549 44.7981 34.4902C46.2389 35.1139 47.2925 36.4103 47.8715 37.8309C48.003 38.212 48.0963 38.6055 48.1941 38.9966C49.3351 38.9966 50.4762 38.9966 51.6518 38.9966C51.6518 36.3341 51.6518 33.6717 51.6518 30.9285C49.3934 30.9024 49.3934 30.9024 47.1349 30.8784C46.8498 30.8747 46.5648 30.871 46.2798 30.8671C46.171 30.8663 46.171 30.8663 46.0601 30.8654C43.3825 30.843 43.3825 30.843 42.3292 29.9065C41.3268 28.853 41.3202 27.6659 41.3195 26.2912C41.3179 26.1071 41.3162 25.923 41.3142 25.7389C41.3097 25.2576 41.3076 24.7764 41.306 24.2951C41.3039 23.8027 41.2995 23.3103 41.2953 22.8179C41.2875 21.8541 41.2824 20.8904 41.2786 19.9266C40.2066 19.9266 39.1347 19.9266 38.0304 19.9266ZM43.4789 20.7648C43.4668 21.6829 43.4575 22.601 43.4518 23.5192C43.4491 23.9456 43.4454 24.3719 43.4394 24.7983C43.4337 25.21 43.4306 25.6217 43.4292 26.0334C43.4283 26.1903 43.4264 26.3471 43.4235 26.5039C43.3682 27.447 43.3682 27.447 43.7048 28.2924C44.2147 28.6794 44.6882 28.7544 45.3185 28.7519C45.4527 28.7519 45.5869 28.7519 45.7252 28.7519C45.8701 28.7508 46.015 28.7497 46.1598 28.7486C46.3093 28.7482 46.4587 28.7479 46.6082 28.7477C46.9999 28.7469 47.3916 28.7448 47.7833 28.7425C48.1837 28.7404 48.584 28.7394 48.9844 28.7384C49.7688 28.7361 50.5531 28.7325 51.3375 28.7281C50.9265 28.1523 50.4872 27.6382 49.985 27.1407C49.9156 27.071 49.8462 27.0014 49.7747 26.9297C49.5478 26.7024 49.3201 26.4759 49.0925 26.2494C48.9338 26.0909 48.7752 25.9324 48.6167 25.7738C48.2858 25.443 47.9545 25.1126 47.623 24.7825C47.197 24.3583 46.7718 23.9335 46.3467 23.5084C46.02 23.1817 45.6931 22.8553 45.366 22.529C45.209 22.3723 45.052 22.2155 44.8951 22.0587C44.6769 21.8407 44.4584 21.6231 44.2397 21.4056C44.1418 21.3076 44.1418 21.3076 44.0419 21.2077C43.799 20.9064 43.799 20.9064 43.4789 20.7648ZM7.22492 37.3201C7.13199 37.413 7.03907 37.506 6.94332 37.6017C6.18875 38.5796 6.02925 39.6902 6.17712 40.8827C6.47415 41.9802 7.04537 42.8759 8.02182 43.4686C8.14602 43.5371 8.14602 43.5371 8.27273 43.6069C8.35012 43.6504 8.42751 43.6939 8.50725 43.7387C9.38754 44.1619 10.4206 44.1811 11.3547 43.9299C12.4291 43.5096 13.1631 42.9428 13.7213 41.9305C13.7648 41.8531 13.8083 41.7757 13.8531 41.6959C14.2774 40.8133 14.2904 39.7861 14.0479 38.8484C13.7828 38.1549 13.4155 37.6238 12.8831 37.1106C12.7901 37.0176 12.6972 36.9247 12.6015 36.829C10.9052 35.52 8.6705 35.8205 7.22492 37.3201ZM39.0033 37.4392C38.1988 38.5977 37.973 39.775 38.1761 41.1622C38.4632 42.1727 39.2014 43.0166 40.0756 43.5681C41.0707 44.1181 42.2122 44.2171 43.3132 43.934C44.0062 43.6678 44.5374 43.3012 45.0506 42.7687C45.1436 42.6758 45.2365 42.5828 45.3322 42.4871C46.0873 41.5086 46.2452 40.3992 46.0984 39.2062C45.8773 38.3567 45.4687 37.7155 44.8411 37.1106C44.7482 37.0176 44.6552 36.9247 44.5595 36.829C42.8911 35.5416 40.3412 35.7721 39.0033 37.4392Z" fill="#004DC9"/>
<path d="M20.1145 12.9089C20.6162 13.2039 21.0425 13.5729 21.4767 13.9567C21.6162 14.0788 21.7558 14.2009 21.8954 14.323C21.9655 14.3844 22.0355 14.4459 22.1078 14.5092C22.4216 14.7834 22.7381 15.0545 23.0549 15.3254C23.1758 15.4288 23.2967 15.5322 23.4176 15.6356C23.5073 15.7124 23.5073 15.7124 23.5988 15.7906C23.7859 15.9509 23.9726 16.1117 24.1592 16.2725C24.7181 16.7537 25.2781 17.2317 25.8512 17.696C26.3098 18.0681 26.748 18.4578 27.1843 18.8556C27.4564 19.0974 27.7356 19.3273 28.0189 19.5559C28.4316 19.8916 28.8378 20.2323 29.237 20.584C29.3311 20.6667 29.4252 20.7494 29.5222 20.8345C29.7614 21.0893 29.8684 21.2719 29.9639 21.6056C29.9426 22.1158 29.794 22.3937 29.44 22.7582C29.1256 22.863 29.1256 22.863 27.973 22.863C27.973 25.3872 27.973 27.9113 27.973 30.512C28.388 30.512 28.8029 30.512 29.2304 30.512C29.6397 30.7166 29.7237 30.8636 29.9115 31.2782C29.9777 31.7661 29.9128 31.9832 29.6495 32.398C29.127 32.6753 28.7351 32.7518 28.1367 32.7523C28.0617 32.7528 27.9867 32.7533 27.9094 32.7538C27.66 32.755 27.4106 32.754 27.1612 32.753C26.9816 32.7535 26.8021 32.754 26.6225 32.7547C26.136 32.7561 25.6496 32.7556 25.1632 32.7546C24.6535 32.7538 24.1439 32.7545 23.6342 32.755C22.7784 32.7556 21.9226 32.7548 21.0668 32.7533C20.0781 32.7516 19.0895 32.7522 18.1008 32.7539C17.2511 32.7553 16.4015 32.7555 15.5518 32.7547C15.0447 32.7542 14.5376 32.7542 14.0305 32.7552C13.5537 32.7561 13.0769 32.7555 12.6001 32.7537C12.4253 32.7533 12.2506 32.7534 12.0759 32.7541C11.8368 32.7549 11.5979 32.7538 11.3589 32.7523C11.2253 32.7522 11.0917 32.752 10.9541 32.7519C10.5107 32.7051 10.2391 32.6066 9.84604 32.398C9.58278 31.9832 9.51793 31.7661 9.58409 31.2782C9.77183 30.8636 9.85591 30.7166 10.2652 30.512C10.6801 30.512 11.095 30.512 11.5225 30.512C11.5225 27.9878 11.5225 25.4637 11.5225 22.863C11.1422 22.863 10.7618 22.863 10.3699 22.863C9.98293 22.7179 9.87841 22.5972 9.64958 22.254C9.50689 21.8497 9.49093 21.6956 9.63648 21.2913C10.0597 20.6684 10.6426 20.214 11.2266 19.7495C11.509 19.5209 11.7783 19.2836 12.0464 19.0385C12.3943 18.7218 12.7482 18.4177 13.1139 18.1217C13.7886 17.5752 14.4411 17.0044 15.0959 16.4344C15.5275 16.0597 15.9621 15.6886 16.3965 15.3172C16.647 15.1029 16.8969 14.8878 17.1463 14.6721C19.2699 12.8385 19.2699 12.8385 20.1145 12.9089ZM19.1846 15.8886C18.6953 16.3399 18.1896 16.7642 17.6714 17.1824C17.3958 17.4099 17.1304 17.6452 16.8663 17.8859C16.5083 18.2123 16.1428 18.5242 15.7661 18.829C15.0526 19.4069 14.3722 20.0133 13.7229 20.6626C17.6993 20.6626 21.6757 20.6626 25.7727 20.6626C24.9622 19.8522 24.1164 19.0996 23.2248 18.38C22.9491 18.1525 22.6838 17.9171 22.4197 17.6764C21.9681 17.2649 21.5003 16.8782 21.0252 16.4943C20.6657 16.198 20.3202 15.8878 19.9762 15.5738C19.6234 15.2727 19.4811 15.6126 19.1846 15.8886ZM13.6181 22.863C13.6181 25.3872 13.6181 27.9113 13.6181 30.512C14.4826 30.512 15.347 30.512 16.2376 30.512C16.2428 30.1462 16.2479 29.7804 16.2532 29.4036C16.2589 29.0495 16.2649 28.6955 16.2709 28.3414C16.2749 28.0953 16.2786 27.8491 16.2818 27.6029C16.2866 27.2492 16.2927 26.8955 16.299 26.5418C16.3009 26.3766 16.3009 26.3766 16.3027 26.208C16.3048 26.1053 16.3069 26.0025 16.309 25.8966C16.3104 25.8063 16.3118 25.7161 16.3132 25.6231C16.3457 25.35 16.3978 25.1863 16.552 24.9586C16.8636 24.7466 17.1213 24.7226 17.493 24.7219C17.5965 24.7213 17.7 24.7206 17.8066 24.7199C17.9177 24.7204 18.0289 24.7208 18.1433 24.7212C18.258 24.721 18.3727 24.7208 18.4909 24.7206C18.7333 24.7205 18.9757 24.7209 19.2181 24.7217C19.5892 24.7229 19.9603 24.7217 20.3314 24.7204C20.5669 24.7205 20.8024 24.7208 21.0379 24.7212C21.149 24.7208 21.2601 24.7204 21.3746 24.7199C21.5299 24.7209 21.5299 24.7209 21.6883 24.7219C21.8246 24.7222 21.8246 24.7222 21.9637 24.7224C22.2357 24.7518 22.3999 24.8105 22.6292 24.9586C22.8552 25.2976 22.8663 25.3975 22.8722 25.7896C22.8743 25.8944 22.8764 25.9993 22.8785 26.1073C22.8797 26.2203 22.8809 26.3333 22.8822 26.4497C22.8842 26.5655 22.8863 26.6814 22.8883 26.8007C22.8946 27.1712 22.8995 27.5416 22.9043 27.9121C22.9083 28.1631 22.9124 28.4141 22.9166 28.665C22.9268 29.2807 22.9352 29.8963 22.9436 30.512C23.9118 30.512 24.8799 30.512 25.8774 30.512C25.8774 27.9878 25.8774 25.4637 25.8774 22.863C21.8319 22.863 17.7863 22.863 13.6181 22.863ZM18.438 26.8447C18.438 28.0549 18.438 29.2651 18.438 30.512C19.1987 30.512 19.9594 30.512 20.7432 30.512C20.7432 29.3018 20.7432 28.0915 20.7432 26.8447C19.9825 26.8447 19.2218 26.8447 18.438 26.8447Z" fill="#004DC9"/>
<path d="M26.714 44.1331C27.0414 44.3296 27.0414 44.3296 27.2379 44.657C27.3291 45.0883 27.3621 45.5016 27.1253 45.889C26.8481 46.1548 26.5636 46.2655 26.1901 46.2942C25.8166 46.2655 25.5321 46.1548 25.2549 45.889C25.0181 45.5016 25.0511 45.0883 25.1423 44.657C25.5144 44.0368 26.0491 44.0023 26.714 44.1331Z" fill="#004DC9"/>
<path d="M11.9373 9.34371C12.396 9.58943 12.396 9.58943 12.566 9.86761C12.6855 10.392 12.6464 10.7815 12.3696 11.2429C11.9064 11.5207 11.521 11.5429 10.9943 11.4393C10.6669 11.2429 10.6669 11.2429 10.4704 10.9154C10.3792 10.4841 10.3462 10.0708 10.583 9.68342C10.9821 9.3007 11.4181 9.22008 11.9373 9.34371Z" fill="#004DC9"/>
</g>
<defs>
<clipPath id="clip0_4_9569">
<rect width="53.6476" height="53.6476" fill="white" transform="translate(0.101074 0.961914)"/>
</clipPath>
</defs>
</svg>
