<svg width="54" height="55" viewBox="0 0 54 55" fill="none" xmlns="http://www.w3.org/2000/svg">
<path d="M23.0209 6.07677C23.4286 6.3274 23.7644 6.65459 24.1075 6.98587C24.2961 7.16729 24.4868 7.34636 24.6778 7.52527C24.9826 7.81093 25.2868 8.09716 25.5905 8.38398C26.0261 8.79521 26.4627 9.20521 26.8999 9.61474C26.9686 9.6792 27.0374 9.74365 27.1083 9.81006C27.316 10.0047 27.5238 10.1994 27.7316 10.394C28.6631 11.2668 29.5938 12.1403 30.5231 13.0153C31.3029 13.7494 32.0843 14.4818 32.8658 15.2139C33.7973 16.0867 34.7281 16.9602 35.6574 17.8352C36.3678 18.5041 37.0796 19.1715 37.7917 19.8386C38.002 20.0357 38.2122 20.2329 38.4224 20.43C38.4923 20.4955 38.5621 20.561 38.6341 20.6285C38.7737 20.7595 38.9131 20.8905 39.0525 21.0217C39.4044 21.3526 39.7583 21.6806 40.1165 22.0046C40.1878 22.0696 40.259 22.1345 40.3324 22.2015C40.4668 22.3239 40.6019 22.4456 40.7379 22.5664C41.3186 23.0975 41.7115 23.6585 41.7971 24.4584C41.8213 25.2414 41.6895 25.9323 41.1643 26.5384C40.4591 27.1902 39.8155 27.401 38.8653 27.4205C38.5239 27.3685 38.5239 27.3685 37.5809 26.9494C37.5809 29.6464 37.5809 32.3434 37.5809 35.1222C38.6182 35.6409 39.6556 36.1595 40.7243 36.6939C41.1047 36.4519 41.485 36.2098 41.8769 35.9605C42.2314 35.7816 42.2314 35.7816 42.5187 35.6658C42.614 35.6262 42.7094 35.5866 42.8077 35.5458C44.6342 34.9347 46.6449 35.0621 48.3798 35.8688C50.1487 36.7713 51.2517 38.2104 51.9465 40.0359C52.1431 40.6928 52.1818 41.3496 52.1978 42.0312C52.201 42.1168 52.2042 42.2025 52.2076 42.2908C52.2076 42.7216 52.1735 42.9361 51.9391 43.3086C51.4918 43.5847 51.1793 43.5169 50.6785 43.3999C50.3076 43.2553 49.9615 43.0733 49.611 42.8854C49.4083 42.7807 49.2055 42.6759 49.0028 42.5713C48.6873 42.406 48.3721 42.2401 48.0572 42.0738C47.7508 41.9127 47.4433 41.7539 47.1356 41.5953C47.0426 41.5452 46.9495 41.4951 46.8537 41.4435C46.2666 41.1419 45.7869 40.9996 45.1251 41.0947C44.715 41.2463 44.6217 41.3728 44.4047 41.7561C44.2586 42.2352 44.2949 42.5227 44.474 42.9826C44.6329 43.2421 44.7753 43.3177 45.0457 43.4547C45.1388 43.5026 45.2319 43.5505 45.3278 43.5998C45.4803 43.6759 45.4803 43.6759 45.6359 43.7535C45.7407 43.8071 45.8456 43.8607 45.9536 43.916C46.5043 44.1965 47.0579 44.4712 47.6123 44.7445C47.8147 44.8443 48.017 44.9444 48.2192 45.0445C48.4808 45.1739 48.7429 45.3019 49.0054 45.4291C49.1249 45.4879 49.2444 45.5467 49.3675 45.6072C49.474 45.659 49.5804 45.7108 49.6901 45.7642C49.945 45.9146 49.945 45.9146 50.1546 46.2289C50.2365 46.9551 50.2365 46.9551 49.9581 47.3357C49.796 47.4621 49.796 47.4621 49.6307 47.5911C49.5198 47.6784 49.5198 47.6784 49.4068 47.7675C47.7941 48.9751 45.9194 49.2841 43.9497 49.0278C42.4666 48.7613 41.2478 48.021 40.2004 46.9624C40.135 46.9005 40.0697 46.8387 40.0023 46.7749C38.9055 45.6534 38.3031 43.9733 38.2947 42.4307C38.2997 42.2298 38.3056 42.0289 38.3144 41.8282C38.215 41.7958 38.1156 41.7633 38.0131 41.7299C37.6857 41.6186 37.6857 41.6186 37.4761 41.5138C37.4766 41.598 37.4771 41.6822 37.4775 41.7689C37.4817 42.5628 37.4849 43.3568 37.487 44.1507C37.4881 44.5589 37.4896 44.967 37.4919 45.3752C37.4942 45.7692 37.4955 46.1633 37.496 46.5573C37.4964 46.7075 37.4972 46.8577 37.4983 47.0078C37.4998 47.2185 37.4999 47.4292 37.4999 47.6399C37.5004 47.7597 37.5009 47.8795 37.5013 48.003C37.4755 48.3327 37.4209 48.5569 37.2666 48.8485C36.9266 49.0751 36.8345 49.0844 36.4421 49.0853C36.3363 49.086 36.2305 49.0867 36.1215 49.0875C36.005 49.0873 35.8884 49.087 35.7683 49.0867C35.583 49.0876 35.583 49.0876 35.3939 49.0884C35.0504 49.0897 34.7069 49.0901 34.3633 49.09C33.9931 49.0902 33.6228 49.0916 33.2525 49.0928C32.4426 49.0952 31.6328 49.096 30.8229 49.0965C30.3174 49.0969 29.8119 49.0975 29.3064 49.0983C27.9072 49.1003 26.508 49.1021 25.1089 49.1024C24.9745 49.1024 24.9745 49.1024 24.8375 49.1024C24.6559 49.1025 24.4743 49.1025 24.2928 49.1025C24.2026 49.1026 24.1125 49.1026 24.0196 49.1026C23.9294 49.1026 23.8391 49.1026 23.7462 49.1027C22.2833 49.103 20.8205 49.1059 19.3577 49.1098C17.8564 49.1138 16.3552 49.1158 14.8539 49.1158C14.0108 49.1159 13.1676 49.1168 12.3245 49.1198C11.6066 49.1224 10.8888 49.1231 10.171 49.1216C9.80462 49.1208 9.43832 49.1209 9.07196 49.1233C8.67499 49.1254 8.27816 49.1243 7.88119 49.1224C7.7651 49.1238 7.64902 49.1252 7.52942 49.1266C7.04221 49.1212 6.75516 49.1114 6.33728 48.8474C6.09185 48.4437 6.07362 48.1068 6.07981 47.6477C6.07894 47.5587 6.07806 47.4697 6.07716 47.3779C6.07486 47.0798 6.07629 46.7818 6.0777 46.4836C6.07681 46.2698 6.0757 46.0561 6.07437 45.8423C6.07142 45.2619 6.07168 44.6816 6.07252 44.1012C6.07284 43.4947 6.07022 42.8883 6.06791 42.2818C6.06398 41.1333 6.06271 39.9848 6.0624 38.8362C6.0619 37.5287 6.05846 36.2212 6.05476 34.9137C6.04721 32.224 6.04339 29.5343 6.04201 26.8446C5.97988 26.8939 5.91775 26.9432 5.85374 26.994C5.32701 27.3703 4.6832 27.4435 4.05119 27.3685C3.31791 27.2064 2.67145 26.9254 2.21303 26.3149C1.7907 25.5933 1.71779 24.8356 1.8508 24.0155C2.09534 23.2863 2.59025 22.8029 3.13436 22.2801C3.2104 22.205 3.28644 22.13 3.36479 22.0527C3.79603 21.6303 4.23838 21.2249 4.69737 20.8328C4.76075 20.7766 4.82413 20.7204 4.88943 20.6625C4.96143 20.6071 5.03344 20.5517 5.10763 20.4947C5.38617 20.1463 5.36706 19.8331 5.36242 19.4058C5.36317 19.3218 5.36392 19.2377 5.36469 19.1511C5.36671 18.8735 5.36584 18.5961 5.36503 18.3185C5.36607 18.1253 5.36732 17.9322 5.36878 17.7391C5.37217 17.2306 5.37326 16.7222 5.37369 16.2137C5.3746 15.4002 5.37833 14.5867 5.38334 13.7732C5.38466 13.4892 5.38458 13.2052 5.38436 12.9212C5.38505 12.7467 5.38579 12.5723 5.38657 12.3978C5.38614 12.319 5.38571 12.2402 5.38526 12.1591C5.38852 11.7362 5.4163 11.3961 5.62289 11.0227C5.94883 10.8054 6.02653 10.7861 6.39744 10.7811C6.53647 10.7786 6.53647 10.7786 6.6783 10.776C6.82811 10.7751 6.82811 10.7751 6.98094 10.7743C7.08391 10.7733 7.18688 10.7724 7.29297 10.7714C7.51087 10.7699 7.72878 10.769 7.94668 10.7686C8.27973 10.7673 8.61257 10.7622 8.94558 10.7569C9.15732 10.7559 9.36906 10.7551 9.58081 10.7546C9.68025 10.7526 9.7797 10.7505 9.88216 10.7484C10.3442 10.7516 10.5849 10.7681 10.9766 11.0297C11.2281 11.4169 11.2448 11.6616 11.2503 12.1217C11.2519 12.1954 11.2535 12.2691 11.2551 12.345C11.2596 12.5788 11.2606 12.8125 11.2614 13.0463C11.2638 13.2055 11.2665 13.3646 11.2694 13.5237C11.2759 13.9125 11.2793 14.3012 11.281 14.69C11.3689 14.6011 11.4568 14.5121 11.5474 14.4204C12.0773 13.8846 12.6076 13.3599 13.1818 12.8711C13.4701 12.6167 13.7357 12.3411 14.0053 12.0673C14.2739 11.8029 14.5579 11.5597 14.8436 11.3142C15.0619 11.1197 15.2672 10.9167 15.4722 10.7084C15.7405 10.436 16.0137 10.1779 16.3039 9.92908C16.6173 9.65989 16.911 9.37839 17.2011 9.08429C17.5558 8.7248 17.9224 8.39008 18.3058 8.06186C18.5194 7.87173 18.7178 7.67189 18.9169 7.46674C20.0332 6.33947 21.3827 5.34271 23.0209 6.07677ZM21.7591 12.0705C21.7139 12.1131 21.6687 12.1556 21.6222 12.1995C20.5857 13.1756 19.5482 14.1505 18.5092 15.124C18.1604 15.4508 17.8118 15.7777 17.4631 16.1046C17.3234 16.2356 17.1837 16.3665 17.044 16.4975C16.9748 16.5623 16.9056 16.6272 16.8344 16.694C11.1763 21.9985 11.1763 21.9985 10.9664 22.1952C10.8278 22.3252 10.6892 22.4551 10.5506 22.5851C10.1845 22.9284 9.81828 23.2715 9.45188 23.6144C9.3755 23.6859 9.29912 23.7574 9.22042 23.8311C9.07393 23.9683 8.9274 24.1054 8.78083 24.2425C8.71485 24.3042 8.64887 24.366 8.58089 24.4297C8.52297 24.4839 8.46505 24.5381 8.40538 24.5939C8.32471 24.6707 8.32471 24.6707 8.2424 24.749C8.18795 24.7859 8.13351 24.8227 8.07741 24.8608C7.83606 25.1881 7.88607 25.5532 7.89026 25.9444C7.88999 26.0352 7.88972 26.1259 7.88944 26.2194C7.88892 26.5257 7.89066 26.8319 7.89237 27.1381C7.89247 27.3606 7.89243 27.583 7.89226 27.8055C7.89219 28.4024 7.89401 28.9994 7.89622 29.5964C7.89801 30.1561 7.8981 30.7158 7.89832 31.2755C7.89997 32.9136 7.90436 34.5516 7.90841 36.1897C7.9149 39.8484 7.92138 43.5071 7.92806 47.2767C17.0911 47.2767 26.2542 47.2767 35.6949 47.2767C35.6949 45.0638 35.6949 42.8508 35.6949 40.5708C34.1207 39.7383 34.1207 39.7383 32.5298 38.9422C32.4314 38.8943 32.333 38.8463 32.2317 38.7969C31.9259 38.6479 31.6198 38.4993 31.3137 38.3508C31.0066 38.2014 30.6996 38.0519 30.3926 37.9024C30.1956 37.8065 29.9985 37.7108 29.8013 37.6153C29.3754 37.4087 28.9512 37.2001 28.532 36.9802C28.4303 36.9273 28.4303 36.9273 28.3265 36.8733C28.1511 36.7815 27.9766 36.6882 27.8021 36.5948C27.4994 36.4755 27.3965 36.4625 27.1029 36.5891C26.8929 36.7182 26.6858 36.852 26.4807 36.9886C24.9736 37.9561 23.1315 38.1826 21.3888 37.8385C19.9885 37.5223 18.8917 36.8777 17.8822 35.8557C17.8156 35.7914 17.749 35.7271 17.6804 35.6609C16.3446 34.2747 16.0512 32.4887 16.0796 30.6425C16.0851 30.3479 16.1106 30.1684 16.2057 29.8832C17.5377 29.5357 19.1062 30.7555 20.2539 31.3529C20.5161 31.4891 20.7791 31.6234 21.0424 31.7574C21.1213 31.7991 21.2003 31.8408 21.2816 31.8837C21.8068 32.1488 22.3157 32.3203 22.9117 32.2932C23.3226 32.0877 23.6291 31.8586 23.8547 31.4549C23.9802 31.0513 23.968 30.8536 23.8416 30.4464C23.4776 29.7912 22.8776 29.5301 22.2285 29.212C22.1429 29.1694 22.0572 29.1268 21.969 29.0829C21.6963 28.9474 21.4232 28.8128 21.15 28.6782C20.9677 28.5878 20.7853 28.4974 20.603 28.4069C20.2662 28.2397 19.9291 28.0729 19.5919 27.9065C19.5169 27.8693 19.4419 27.8322 19.3646 27.7939C19.2109 27.718 19.0568 27.6428 18.9024 27.5683C18.7899 27.5134 18.7899 27.5134 18.6751 27.4575C18.6082 27.4252 18.5413 27.3929 18.4723 27.3596C18.3013 27.2637 18.3013 27.2637 18.0918 27.0541C18.0086 26.3295 18.0086 26.3295 18.2882 25.9474C18.4503 25.821 18.4503 25.821 18.6157 25.692C18.6883 25.6338 18.761 25.5756 18.8359 25.5156C20.3111 24.3983 22.0969 24.0636 23.9099 24.2664C25.6798 24.5543 27.3081 25.45 28.3995 26.8904C29.1801 28.0421 29.7877 29.3379 29.6765 30.7542C29.6845 31.068 29.6845 31.068 29.8272 31.3501C30.3237 31.7341 30.8755 31.9703 31.4461 32.226C31.898 32.4349 32.3419 32.6577 32.786 32.8825C32.8708 32.9254 32.9556 32.9683 33.043 33.0125C33.2159 33.1 33.3888 33.1875 33.5617 33.275C33.9821 33.4873 34.4032 33.6982 34.8247 33.9082C34.9004 33.9462 34.976 33.9841 35.054 34.0232C35.3606 34.2042 35.3606 34.2042 35.6949 34.284C35.7315 33.1072 35.7593 31.9305 35.7763 30.7533C35.7845 30.2065 35.7955 29.6601 35.8134 29.1135C35.8306 28.5849 35.8399 28.0566 35.844 27.5278C35.8469 27.3271 35.8525 27.1265 35.861 26.926C35.9189 25.6819 35.9189 25.6819 35.3507 24.6183C35.0241 24.2941 34.6746 24.0082 34.3054 23.734C34.0749 23.5599 33.8682 23.3663 33.6619 23.1646C33.6 23.1065 33.538 23.0484 33.4742 22.9886C33.4139 22.932 33.3536 22.8754 33.2915 22.8171C33.1508 22.6851 33.0101 22.5532 32.8695 22.4213C32.7648 22.323 32.7648 22.323 32.6579 22.2228C32.3082 21.8947 31.9583 21.5668 31.6084 21.2388C31.4687 21.1078 31.329 20.9769 31.1893 20.8459C31.1202 20.7811 31.051 20.7162 30.9797 20.6494C25.3216 15.3449 25.3216 15.3449 25.1118 15.1482C24.973 15.0181 24.8341 14.8879 24.6952 14.7578C24.3324 14.4179 23.97 14.0775 23.6083 13.7364C23.4958 13.6305 23.4958 13.6305 23.3811 13.5225C23.2386 13.3883 23.0961 13.2539 22.9538 13.1194C22.5664 12.7549 22.1713 12.4067 21.7591 12.0705Z" fill="#004DC9"/>
</svg>
