<svg width="1440" height="551" viewBox="0 0 1440 551" fill="none" xmlns="http://www.w3.org/2000/svg">
<rect width="1440" height="551" fill="url(#paint0_linear_4_14902)"/>
<g opacity="0.14" clip-path="url(#clip0_4_14902)">
<path d="M502.744 222.68L702.799 130.682L902.881 222.68L910.024 206.072L702.799 110.773L495.574 206.072L502.744 222.68Z" fill="#9EC3FF"/>
<path d="M527.859 215.116L702.807 134.68L877.755 215.116V551.002H527.859V215.116Z" fill="#9EC3FF"/>
<path d="M877.745 260.445L874.066 262.137V282.045L877.745 280.353L1077.83 372.352L1085 355.743L877.745 260.445Z" fill="#9EC3FF"/>
<path d="M874.066 283.711V551H1063.89V369.582L874.066 283.711Z" fill="#9EC3FF"/>
<path d="M528.795 260.445L532.501 262.137V282.045L528.795 280.353L328.74 372.352L321.57 355.743L528.795 260.445Z" fill="#9EC3FF"/>
<path d="M526.537 292.972V490.001H348.555V373.547L526.537 292.972ZM532.418 283.711L342.594 369.665V550.973H532.418V283.711Z" fill="#9EC3FF"/>
<path d="M849.528 114.188H797.594V129.271H849.528V114.188Z" fill="#9EC3FF"/>
<path d="M845.499 131.57V185.416L801.594 165.231V131.57H845.499Z" fill="#9EC3FF"/>
<path d="M650.544 378.93H627.504V390.908H650.544V378.93Z" fill="#EFEBE9"/>
<path d="M650.544 396.891H627.504V494.462H650.544V396.891Z" fill="#EFEBE9"/>
<path d="M621.813 378.93H598.773V390.908H621.813V378.93Z" fill="#EFEBE9"/>
<path d="M621.813 396.891H598.773V494.462H621.813V396.891Z" fill="#EFEBE9"/>
<path d="M650.544 229.508H627.504V241.486H650.544V229.508Z" fill="#EFEBE9"/>
<path d="M650.544 247.469H627.504V345.04H650.544V247.469Z" fill="#EFEBE9"/>
<path d="M621.813 229.508H598.773V241.486H621.813V229.508Z" fill="#EFEBE9"/>
<path d="M621.813 247.469H598.773V345.04H621.813V247.469Z" fill="#EFEBE9"/>
<path d="M728.684 229.508H705.645V241.486H728.684V229.508Z" fill="#EFEBE9"/>
<path d="M728.684 247.469H705.645V345.04H728.684V247.469Z" fill="#EFEBE9"/>
<path d="M699.958 229.508H676.918V241.486H699.958V229.508Z" fill="#EFEBE9"/>
<path d="M699.958 247.469H676.918V345.04H699.958V247.469Z" fill="#EFEBE9"/>
<path d="M806.856 229.508H783.789V241.486H806.856V229.508Z" fill="#EFEBE9"/>
<path d="M806.856 247.469H783.789V345.04H806.856V247.469Z" fill="#EFEBE9"/>
<path d="M778.125 229.508H755.059V241.486H778.125V229.508Z" fill="#EFEBE9"/>
<path d="M778.125 247.469H755.059V345.04H778.125V247.469Z" fill="#EFEBE9"/>
<path d="M808.332 378.93H785.266V390.908H808.332V378.93Z" fill="#EFEBE9"/>
<path d="M808.332 396.891H785.266V494.462H808.332V396.891Z" fill="#EFEBE9"/>
<path d="M779.606 378.93H756.539V390.908H779.606V378.93Z" fill="#EFEBE9"/>
<path d="M779.606 396.891H756.539V494.462H779.606V396.891Z" fill="#EFEBE9"/>
<path d="M943.97 378.93H920.93V390.908H943.97V378.93Z" fill="#EFEBE9"/>
<path d="M943.97 396.891H920.93V494.462H943.97V396.891Z" fill="#EFEBE9"/>
<path d="M915.262 378.93H892.195V390.908H915.262V378.93Z" fill="#EFEBE9"/>
<path d="M915.262 396.891H892.195V494.462H915.262V396.891Z" fill="#EFEBE9"/>
<path d="M1031.3 378.93H1008.26V390.908H1031.3V378.93Z" fill="#EFEBE9"/>
<path d="M1031.3 396.891H1008.26V494.462H1031.3V396.891Z" fill="#EFEBE9"/>
<path d="M1002.56 378.93H979.523V390.908H1002.56V378.93Z" fill="#EFEBE9"/>
<path d="M1002.56 396.891H979.523V494.462H1002.56V396.891Z" fill="#EFEBE9"/>
<path d="M664.938 378.706C669.78 373.334 675.642 369.05 682.159 366.121C688.675 363.191 695.707 361.68 702.814 361.68C709.921 361.68 716.952 363.191 723.469 366.121C729.985 369.05 735.848 373.334 740.69 378.706V549.033H664.938V378.706Z" fill="#EFEBE9"/>
<path d="M672.375 476.382C672.37 477.097 672.571 477.797 672.952 478.394C673.334 478.991 673.879 479.458 674.518 479.734C675.157 480.01 675.861 480.084 676.54 479.946C677.22 479.808 677.844 479.464 678.334 478.958C678.824 478.452 679.157 477.807 679.291 477.106C679.425 476.404 679.353 475.677 679.086 475.017C678.818 474.357 678.367 473.795 677.789 473.401C677.21 473.007 676.532 472.799 675.839 472.805C674.923 472.812 674.046 473.191 673.397 473.86C672.749 474.53 672.382 475.435 672.375 476.382Z" fill="#9EC3FF"/>
<path d="M743.165 200.223C743.165 189.193 738.921 178.614 731.367 170.814C723.813 163.015 713.568 158.633 702.885 158.633C692.202 158.633 681.957 163.015 674.403 170.814C666.849 178.614 662.605 189.193 662.605 200.223H743.165Z" fill="#EFEBE9"/>
<path d="M359.002 439.234H353.121V508.497H359.002V439.234Z" fill="#9EC3FF"/>
<path d="M371.807 439.234H365.926V508.497H371.807V439.234Z" fill="#9EC3FF"/>
<path d="M384.596 439.234H378.715V508.497H384.596V439.234Z" fill="#9EC3FF"/>
<path d="M397.373 439.234H391.492V508.497H397.373V439.234Z" fill="#9EC3FF"/>
<path d="M410.154 439.234H404.273V508.497H410.154V439.234Z" fill="#9EC3FF"/>
<path d="M422.939 439.234H417.059V508.497H422.939V439.234Z" fill="#9EC3FF"/>
<path d="M435.725 439.234H429.844V508.497H435.725V439.234Z" fill="#9EC3FF"/>
<path d="M448.502 439.234H442.621V508.497H448.502V439.234Z" fill="#9EC3FF"/>
<path d="M461.311 439.234H455.43V508.497H461.311V439.234Z" fill="#9EC3FF"/>
<path d="M474.088 439.234H468.207V508.497H474.088V439.234Z" fill="#9EC3FF"/>
<path d="M486.869 439.234H480.988V508.497H486.869V439.234Z" fill="#9EC3FF"/>
<path d="M499.65 439.234H493.77V508.497H499.65V439.234Z" fill="#9EC3FF"/>
<path d="M512.439 439.234H506.559V508.497H512.439V439.234Z" fill="#9EC3FF"/>
<path d="M525.225 439.234H519.344V508.497H525.225V439.234Z" fill="#9EC3FF"/>
<path d="M527.312 444.807V438.734H344.927V444.807H527.312Z" fill="#9EC3FF"/>
<path d="M439.614 183.867H284C287.786 170.78 299.87 159.745 312.545 163.627C317.593 145.271 337.464 128.94 355.939 129.883C365.189 130.572 373.967 134.36 380.941 140.67C387.916 146.981 392.705 155.47 394.581 164.847C409.511 163.405 430.269 171.751 439.614 183.867Z" fill="#9EC3FF"/>
<path d="M1066.52 163.626H910.965C919.37 154.282 931.373 147.434 943.189 151.121C951.379 139.504 963.973 123.616 977.185 119.124C990.396 114.633 1006.72 117.877 1014.78 129.661C1019.34 127.221 1028.64 128.773 1032.88 131.796C1034.98 133.349 1036.65 135.451 1037.71 137.886C1038.77 140.321 1039.19 143.003 1038.92 145.659C1047.49 142.914 1063.84 154.948 1066.52 163.626Z" fill="#9EC3FF"/>
<path d="M645.473 53.8219H486.262C493.7 45.0324 504.737 38.572 515.8 40.8179C521.171 31.0856 530.408 21.4089 541.069 19.5512C546.43 18.6124 551.925 18.8926 557.17 20.3723C562.416 21.8521 567.285 24.4958 571.44 28.1189C581.912 23.5162 598.105 27.7029 602.697 38.461C616.338 32.5274 638.545 40.5129 645.473 53.8219Z" fill="#9EC3FF"/>
</g>
<defs>
<linearGradient id="paint0_linear_4_14902" x1="0" y1="275.986" x2="1440" y2="275.986" gradientUnits="userSpaceOnUse">
<stop stop-color="#184389"/>
<stop offset="1" stop-color="#061A3A"/>
</linearGradient>
<clipPath id="clip0_4_14902">
<rect width="801" height="532" fill="white" transform="translate(284 19)"/>
</clipPath>
</defs>
</svg>
