<svg width="156" height="155" viewBox="0 0 156 155" fill="none" xmlns="http://www.w3.org/2000/svg">
<path fill-rule="evenodd" clip-rule="evenodd" d="M116.14 6.54997C114.601 4.09048 112.333 2.17209 109.653 1.06184C106.972 -0.0484207 104.012 -0.295303 101.185 0.355561L81.1186 4.96509C79.0622 5.43778 76.9253 5.43778 74.8688 4.96509L54.8025 0.355561C51.9752 -0.295303 49.0153 -0.0484207 46.3348 1.06184C43.6544 2.17209 41.3868 4.09048 39.8476 6.54997L28.9104 24.0059C27.7944 25.7917 26.2878 27.2984 24.5021 28.4257L7.0473 39.3636C4.59222 40.9014 2.67677 43.1655 1.56682 45.8416C0.456876 48.5176 0.207496 51.4729 0.853296 54.2971L5.46253 74.387C5.93348 76.44 5.93348 78.5731 5.46253 80.6261L0.853296 100.705C0.204986 103.531 0.453111 106.488 1.56318 109.167C2.67324 111.845 4.5901 114.111 7.0473 115.65L24.5021 126.587C26.2878 127.704 27.7944 129.21 28.9216 130.996L39.8588 148.452C43.006 153.486 49.0103 155.975 54.8025 154.646L74.8688 150.037C76.9253 149.564 79.0622 149.564 81.1186 150.037L101.196 154.646C104.022 155.295 106.979 155.047 109.657 153.936C112.336 152.826 114.601 150.909 116.14 148.452L127.077 130.996C128.193 129.21 129.7 127.704 131.485 126.587L148.951 115.65C151.409 114.109 153.325 111.84 154.433 109.16C155.541 106.479 155.786 103.52 155.134 100.694L150.536 80.6261C150.063 78.5695 150.063 76.4325 150.536 74.3759L155.145 54.2971C155.795 51.4724 155.548 48.5155 154.44 45.8373C153.332 43.1591 151.418 40.8925 148.962 39.3524L131.497 28.4145C129.713 27.2964 128.206 25.7892 127.088 24.0059L116.14 6.54997ZM110.526 52.6118C111.216 51.3424 111.387 49.8547 111.003 48.4618C110.619 47.0688 109.71 45.8792 108.466 45.1432C107.223 44.4073 105.742 44.1823 104.337 44.5157C102.931 44.8491 101.709 45.7148 100.928 46.9308L71.7439 96.3297L54.1217 79.4542C53.5989 78.9173 52.9734 78.4913 52.2824 78.2015C51.5914 77.9116 50.8491 77.7639 50.0998 77.7672C49.3505 77.7705 48.6095 77.9246 47.9211 78.2205C47.2326 78.5163 46.6108 78.9478 46.0927 79.4892C45.5747 80.0305 45.1709 80.6707 44.9055 81.3715C44.6402 82.0723 44.5187 82.8194 44.5483 83.5681C44.5779 84.3169 44.758 85.0521 45.0778 85.7297C45.3977 86.4074 45.8507 87.0137 46.4099 87.5125L69.1101 109.265C69.7176 109.846 70.4486 110.283 71.2483 110.541C72.0481 110.8 72.896 110.875 73.7287 110.76C74.5614 110.645 75.3575 110.344 76.0573 109.878C76.7572 109.413 77.3428 108.795 77.7705 108.071L110.526 52.6118Z" fill="url(#paint0_linear_23_195)"/>
<defs>
<linearGradient id="paint0_linear_23_195" x1="42.5" y1="12.5" x2="181" y2="208.5" gradientUnits="userSpaceOnUse">
<stop stop-color="#4A8CF5"/>
<stop offset="1" stop-color="#002663"/>
</linearGradient>
</defs>
</svg>
