<svg width="60" height="61" viewBox="0 0 60 61" fill="none" xmlns="http://www.w3.org/2000/svg">
<g clip-path="url(#clip0_4_10059)">
<path d="M29.5462 17.7406C29.8338 17.7416 30.1212 17.7382 30.4089 17.7345C31.9723 17.7275 33.4964 17.9356 34.9002 18.673C34.9763 18.7122 35.0524 18.7514 35.1308 18.7917C36.8197 19.7083 38.0959 21.3068 38.7058 23.1239C39.1232 24.5787 39.1851 26.077 38.9459 27.572C39.0342 27.5998 39.1224 27.6276 39.2133 27.6562C39.5799 27.8294 39.694 27.9811 39.9064 28.3215C39.9647 28.4126 40.0229 28.5037 40.0829 28.5976C40.5825 29.4845 40.484 30.9367 40.2334 31.9074C40.1027 32.3362 39.9374 32.7482 39.7609 33.1603C39.7162 33.2691 39.6715 33.3779 39.6254 33.49C39.2679 34.2815 38.7355 34.969 38.0641 35.5238C37.808 35.829 37.7112 36.1936 37.5852 36.5657C37.0924 37.946 36.3932 39.1694 35.5697 40.3785C38.3813 42.1501 41.267 43.8682 44.4033 45.0063C46.6711 45.8358 48.1771 47.5557 49.213 49.6923C50.049 51.4968 50.4636 53.4324 50.7046 55.3971C50.7199 55.5153 50.7352 55.6336 50.751 55.7554C50.8342 56.5424 50.8397 57.335 50.8502 58.1257C50.8527 58.2376 50.8552 58.3494 50.8577 58.4647C50.8605 59.0514 50.8584 59.4621 50.4718 59.9375C50.2683 60.141 49.9859 60.0689 49.7093 60.0693C49.5681 60.0697 49.427 60.0702 49.2816 60.0706C49.1229 60.0705 48.9642 60.0704 48.8056 60.0703C48.6386 60.0706 48.4717 60.071 48.3047 60.0714C47.8437 60.0723 47.3827 60.0725 46.9217 60.0726C46.4254 60.0728 45.929 60.0737 45.4327 60.0745C44.3464 60.0761 43.2602 60.0768 42.1739 60.0773C41.4962 60.0776 40.8185 60.0781 40.1407 60.0786C38.2659 60.08 36.3911 60.0812 34.5164 60.0816C34.3963 60.0816 34.2762 60.0817 34.1525 60.0817C33.9719 60.0817 33.9719 60.0817 33.7877 60.0818C33.5437 60.0818 33.2998 60.0819 33.0558 60.0819C32.9348 60.082 32.8138 60.082 32.6892 60.082C30.7275 60.0825 28.7658 60.0845 26.8041 60.0872C24.7922 60.09 22.7802 60.0914 20.7683 60.0916C19.6378 60.0917 18.5073 60.0923 17.3769 60.0944C16.4144 60.0962 15.4519 60.0968 14.4895 60.0959C13.998 60.0954 13.5066 60.0955 13.0152 60.0972C12.5658 60.0986 12.1164 60.0985 11.667 60.0971C11.504 60.0969 11.3409 60.0972 11.1779 60.0982C10.9571 60.0995 10.7364 60.0985 10.5157 60.0973C10.3928 60.0973 10.2699 60.0974 10.1433 60.0975C9.84027 60.054 9.84027 60.054 9.6307 59.8984C8.74895 58.6755 9.34911 55.1869 9.55097 53.768C9.81027 52.1724 10.2354 50.5395 11.0045 49.1102C11.0898 48.9432 11.0898 48.9432 11.1769 48.7728C12.2612 46.769 13.8036 45.639 15.8942 44.8026C18.3783 43.7978 20.7236 42.615 22.996 41.1935C23.0702 41.1471 23.1443 41.1007 23.2207 41.053C23.5745 40.8309 23.9267 40.6065 24.2767 40.3785C24.2371 40.3218 24.1974 40.2651 24.1566 40.2066C23.3511 39.0284 22.6947 37.8947 22.2393 36.5439C21.9872 35.8042 21.7873 35.3267 21.1314 34.8653C20.1105 34.0192 19.6177 32.321 19.4165 31.052C19.3305 30.0735 19.3725 28.9756 19.969 28.1541C20.0671 28.085 20.0671 28.085 20.1671 28.0145C20.6331 27.6862 20.6331 27.6862 20.8445 27.175C20.8517 26.8387 20.8367 26.5105 20.8131 26.175C20.8047 25.9341 20.7976 25.6932 20.7917 25.4523C20.7889 25.3362 20.7861 25.2201 20.7831 25.1005C20.7883 23.1343 21.7781 21.374 23.0906 19.9755C24.8729 18.2766 27.1606 17.7282 29.5462 17.7406ZM23.9533 21.976C23.1021 23.0179 22.7523 24.2496 22.7386 25.5719C22.7354 25.7488 22.732 25.9257 22.7286 26.1027C22.7238 26.3799 22.7195 26.657 22.7165 26.9343C22.7132 27.203 22.7079 27.4716 22.7022 27.7403C22.7019 27.8233 22.7015 27.9062 22.7011 27.9917C22.6868 28.5635 22.6868 28.5635 22.4909 28.839C22.2975 28.9691 22.2975 28.9691 21.9409 29.1365C21.5667 29.3355 21.5144 29.4048 21.3661 29.7841C21.2383 31.1258 21.7296 32.4398 22.5303 33.5096C22.8207 33.7848 22.8207 33.7848 23.1125 33.9753C23.5984 34.3654 23.7248 34.8162 23.891 35.3942C24.4492 37.1734 25.2584 38.6196 26.6051 39.9128C26.7127 40.0218 26.7127 40.0218 26.8225 40.133C27.782 41.0419 28.994 41.3561 30.2788 41.3417C31.6839 41.2302 32.8747 40.3755 33.8233 39.3771C34.9501 38.0259 35.7439 36.4039 36.1009 34.6811C36.1754 34.3455 36.1754 34.3455 36.2682 34.0917C36.5957 33.9389 36.5957 33.9389 36.9668 33.8589C37.8755 33.1406 38.2787 31.8148 38.4802 30.7154C38.5273 30.2658 38.5188 29.886 38.3565 29.4566C38.0572 29.1187 37.7322 29.0145 37.316 28.8527C37.1444 28.5095 37.1814 28.1607 37.1791 27.7844C37.1764 27.6117 37.1736 27.4389 37.1707 27.2662C37.1667 26.9955 37.1632 26.7248 37.1616 26.4541C37.1482 24.5335 36.7885 22.8855 35.4387 21.438C33.8259 19.9192 32.0324 19.6183 29.9014 19.6044C29.7604 19.6032 29.6194 19.602 29.4741 19.6007C27.2249 19.6226 25.4814 20.3136 23.9533 21.976ZM24.8442 42.285C24.7676 42.333 24.6909 42.381 24.6118 42.4305C24.4181 42.5548 24.2304 42.6885 24.0438 42.8234C24.0438 42.9002 24.0438 42.9771 24.0438 43.0563C25.6041 43.9526 27.1777 44.7966 28.8317 45.5084C28.9537 45.5628 28.9537 45.5628 29.0782 45.6183C29.6856 45.8718 30.0578 45.8809 30.6676 45.6507C30.922 45.5459 31.172 45.4339 31.4221 45.3192C31.5594 45.2571 31.5594 45.2571 31.6994 45.1937C33.818 44.2468 33.818 44.2468 35.8025 43.0563C35.8025 42.9794 35.8025 42.9026 35.8025 42.8234C35.5467 42.6254 35.294 42.4468 35.0239 42.2704C34.9511 42.2195 34.8782 42.1686 34.8032 42.1162C34.5611 41.9507 34.5611 41.9507 34.1726 41.7756C33.779 41.86 33.5019 42.0559 33.1757 42.285C31.7992 43.1678 30.1119 43.3635 28.5334 43.0417C27.6674 42.8247 26.8281 42.4722 26.1144 41.9284C25.6454 41.5835 25.2612 42.0158 24.8442 42.285ZM37.6653 43.9876C37.6056 44.033 37.5458 44.0783 37.4843 44.125C35.8587 45.3127 34.025 46.1938 32.1934 47.0146C32.1109 47.0519 32.0284 47.0892 31.9434 47.1277C31.7124 47.2309 31.4804 47.3308 31.2475 47.4294C31.1175 47.4848 30.9876 47.5401 30.8537 47.5972C29.7711 47.906 28.992 47.6069 27.9877 47.1602C27.8561 47.1029 27.7245 47.0457 27.589 46.9867C25.8499 46.2182 24.085 45.404 22.5658 44.2473C22.2175 44.0613 22.0913 44.1164 21.7154 44.2205C21.508 44.3166 21.3043 44.4206 21.1037 44.5302C20.9862 44.5933 20.8686 44.6565 20.7475 44.7216C20.6227 44.7891 20.4979 44.8567 20.3692 44.9263C19.4493 45.4156 18.5337 45.87 17.5605 46.2433C15.1453 47.1748 13.5728 48.232 12.4452 50.6528C11.3931 53.0333 11.3538 55.6348 11.3538 58.1912C23.7248 58.1912 36.0959 58.1912 48.8419 58.1912C48.8669 56.5556 48.8669 56.5556 48.7109 54.9532C48.6956 54.8582 48.6803 54.7633 48.6646 54.6654C48.1842 51.8805 47.2349 49.1108 44.8835 47.3639C44.2408 46.9964 43.5562 46.7356 42.8661 46.473C41.2379 45.8483 39.7123 45.0723 38.1762 44.2521C38.0069 44.162 37.8368 44.0734 37.6653 43.9876Z" fill="#FF6061"/>
<path d="M7.2743 13.8338C7.6084 13.9563 7.90186 14.1302 8.20569 14.3141C8.29448 14.3656 8.38328 14.4171 8.47477 14.4701C8.66959 14.5834 8.86386 14.6977 9.05765 14.8127C9.38457 15.0068 9.7129 15.1982 10.0416 15.3892C10.5128 15.6631 10.9834 15.9378 11.4537 16.2132C12.1519 16.6215 12.8521 17.0262 13.5539 17.4284C13.6587 17.4887 13.7635 17.549 13.8714 17.6111C13.967 17.6658 14.0625 17.7204 14.161 17.7767C14.245 17.8249 14.329 17.8731 14.4156 17.9227C14.5896 18.0341 14.5896 18.0341 14.7254 18.025C14.6845 17.9074 14.6437 17.7897 14.6017 17.6685C14.4736 17.2099 14.4775 16.8596 14.6089 16.3951C14.8563 16.1041 14.8563 16.1041 15.191 15.9294C15.6058 15.9222 15.6058 15.9222 16.006 16.0459C16.4121 16.4665 16.5818 16.8694 16.7505 17.4243C16.7733 17.4993 16.7962 17.5744 16.8198 17.6517C16.8675 17.8095 16.9145 17.9675 16.9609 18.1258C17.0318 18.3666 17.1058 18.6063 17.18 18.8461C17.2262 19.0003 17.2722 19.1546 17.318 19.3089C17.3803 19.5173 17.3803 19.5173 17.4439 19.73C17.5252 20.1501 17.5277 20.4106 17.4031 20.8192C17.0621 21.2877 16.7054 21.3829 16.1524 21.5086C16.0772 21.5261 16.002 21.5435 15.9245 21.5614C15.766 21.5978 15.6073 21.6334 15.4484 21.6682C15.2068 21.7212 14.9658 21.7768 14.7249 21.8329C13.0722 22.2085 13.0722 22.2085 12.4842 22.0125C12.2208 21.8244 12.1404 21.7134 12.0476 21.4013C12.0851 20.69 12.0851 20.69 12.3069 20.399C12.566 20.1958 12.8004 20.127 13.1173 20.0406C13.2222 20.0113 13.3271 19.9821 13.4352 19.9519C13.5151 19.9308 13.5951 19.9096 13.6776 19.8878C13.5934 19.8399 13.5093 19.792 13.4226 19.7427C11.4832 18.6379 9.54594 17.5296 7.62357 16.3951C7.53685 16.344 7.45012 16.293 7.36077 16.2403C7.14215 16.111 6.92426 15.9806 6.70674 15.8494C6.59419 15.7817 6.48163 15.714 6.36566 15.6443C6.11008 15.4637 6.11008 15.4637 5.87723 15.1145C5.85984 14.7036 5.92422 14.3138 6.11735 13.9503C6.489 13.7584 6.86952 13.7813 7.2743 13.8338Z" fill="#FF6061"/>
<path d="M53.7301 13.8368C54.0066 13.9605 54.0066 13.9605 54.1958 14.1861C54.3162 14.6198 54.3683 14.8788 54.1781 15.2933C53.9243 15.6351 53.6939 15.7804 53.3221 15.9861C53.1916 16.0594 53.0611 16.1326 52.9266 16.2081C52.7846 16.286 52.6425 16.3639 52.5004 16.4418C52.3542 16.5233 52.2082 16.605 52.0622 16.6869C51.7603 16.8561 51.4581 17.0246 51.1556 17.1928C50.4523 17.585 49.7556 17.9886 49.0586 18.3919C48.8759 18.4971 48.8759 18.4971 48.6895 18.6044C47.959 19.0257 47.2334 19.4543 46.5119 19.8908C46.5978 19.9142 46.6838 19.9377 46.7723 19.9618C47.7504 20.2286 47.7504 20.2286 48.0254 20.5893C48.119 20.9856 48.1789 21.2795 48.0617 21.6735C47.8745 21.9143 47.7255 21.9893 47.4432 22.1028C46.5367 22.1353 45.5987 21.8591 44.7219 21.659C44.5866 21.6301 44.4514 21.6012 44.3121 21.5714C44.1823 21.5419 44.0525 21.5125 43.9187 21.4821C43.8018 21.456 43.6848 21.4299 43.5643 21.403C43.193 21.2661 43.0238 21.1385 42.7863 20.8222C42.6159 20.2632 42.7063 19.8639 42.8714 19.3119C42.9049 19.1991 42.9049 19.1991 42.939 19.0841C42.9863 18.9261 43.0344 18.7683 43.0832 18.6107C43.1572 18.3709 43.228 18.1304 43.2986 17.8896C43.3452 17.7354 43.392 17.5813 43.4389 17.4273C43.4811 17.2885 43.5233 17.1496 43.5668 17.0066C43.7247 16.6136 43.8899 16.3529 44.1834 16.0489C44.6624 15.9008 44.8853 15.8734 45.3331 16.1071C45.6563 16.4873 45.6885 16.7166 45.6969 17.2131C45.6404 17.4979 45.5597 17.7525 45.4641 18.028C46.3844 17.5805 47.2762 17.1019 48.1563 16.58C48.3982 16.4378 48.6402 16.2956 48.8822 16.1535C49.0072 16.0799 49.1323 16.0063 49.2612 15.9305C49.8811 15.5673 50.5032 15.2079 51.1257 14.849C51.3263 14.7333 51.5268 14.6175 51.7273 14.5017C51.9096 14.3966 51.9096 14.3966 52.0956 14.2893C52.2034 14.2272 52.3112 14.165 52.4223 14.1009C52.8908 13.8348 53.1827 13.7991 53.7301 13.8368Z" fill="#FF6061"/>
<path d="M17.1732 4.05424C17.7938 4.68467 18.1849 5.47078 18.6139 6.23717C18.6952 6.38124 18.7767 6.52526 18.8582 6.66923C18.9843 6.89192 19.1103 7.11463 19.2361 7.33749C19.681 8.1257 20.133 8.90977 20.5858 9.69347C20.6589 9.82017 20.7319 9.94687 20.8072 10.0774C21.1766 10.7201 21.1766 10.7201 21.5609 11.3539C21.7136 11.6217 21.7136 11.6217 21.7136 11.8546C21.7905 11.8546 21.8673 11.8546 21.9465 11.8546C21.951 11.7512 21.951 11.7512 21.9556 11.6458C21.9887 11.1847 22.0298 10.8656 22.2594 10.4575C22.5951 10.1671 22.7843 10.1082 23.2271 10.1082C23.5528 10.2489 23.7458 10.3796 23.9693 10.654C24.1938 11.4846 23.7823 12.5748 23.5982 13.3899C23.5693 13.5252 23.5405 13.6605 23.5107 13.7999C23.4812 13.9304 23.4517 14.0608 23.4213 14.1953C23.3952 14.3131 23.3692 14.431 23.3423 14.5524C23.2039 14.9479 23.0676 15.1758 22.7615 15.4637C22.1594 15.6314 21.7322 15.5588 21.1447 15.3704C21.072 15.3476 20.9994 15.3247 20.9245 15.3011C20.6946 15.2283 20.4656 15.1532 20.2365 15.078C20.0816 15.0288 19.9266 14.9798 19.7715 14.9309C18.208 14.4325 18.208 14.4325 17.9517 14.103C17.8346 13.709 17.8945 13.415 17.9881 13.0188C18.1751 12.7236 18.3108 12.6784 18.643 12.5677C19.0277 12.5534 19.2283 12.6017 19.5844 12.7268C19.6781 12.7594 19.7718 12.7919 19.8683 12.8255C19.9394 12.8508 20.0105 12.8762 20.0837 12.9024C19.0519 11.0901 18.015 9.28127 16.9617 7.48144C16.9019 7.37878 16.8422 7.27613 16.7806 7.17037C16.6449 6.93993 16.5069 6.71086 16.3674 6.48275C16.2937 6.36088 16.2199 6.23902 16.144 6.11347C16.0765 6.00346 16.009 5.89346 15.9394 5.78012C15.7642 5.42739 15.6914 5.14443 15.6597 4.75278C15.8036 4.41942 15.9311 4.22971 16.22 4.01058C16.5916 3.90441 16.8049 3.93401 17.1732 4.05424Z" fill="#FF6061"/>
<path d="M44.0657 4.05287C44.3856 4.31939 44.4127 4.50202 44.4714 4.91467C44.4585 5.65403 44.0185 6.23489 43.6437 6.84702C43.524 7.04827 43.4043 7.24953 43.2847 7.45087C43.1615 7.65754 43.0374 7.86366 42.9132 8.06968C42.536 8.6961 42.1701 9.32911 41.8028 9.96132C41.6693 10.1899 41.5357 10.4185 41.4021 10.6471C40.9655 11.3956 40.5347 12.1472 40.1074 12.901C40.2087 12.8612 40.2087 12.8612 40.312 12.8205C41.293 12.4595 41.293 12.4595 41.8537 12.6681C42.1375 12.9155 42.1375 12.9155 42.3194 13.2503C42.3076 13.9336 42.3076 13.9336 42.0545 14.2519C41.8185 14.443 41.6145 14.5213 41.3257 14.6146C41.1698 14.6657 41.1698 14.6657 41.0108 14.7178C40.9024 14.7522 40.7939 14.7866 40.6822 14.822C40.5769 14.8563 40.4717 14.8907 40.3632 14.9261C40.0457 15.0292 39.7274 15.1296 39.4088 15.2294C39.3022 15.2637 39.1956 15.2979 39.0857 15.3332C38.9835 15.3653 38.8812 15.3974 38.7758 15.4305C38.6845 15.4594 38.5933 15.4883 38.4993 15.5181C38.1124 15.6102 37.8085 15.5705 37.4297 15.4623C36.8427 15.0228 36.7835 14.1567 36.6147 13.4831C36.5922 13.3946 36.5697 13.3061 36.5466 13.2149C36.4774 12.9385 36.411 12.6616 36.3455 12.3844C36.3241 12.2977 36.3027 12.211 36.2807 12.1217C36.1557 11.5714 36.141 11.1336 36.2654 10.5725C36.4511 10.294 36.5748 10.2369 36.8912 10.1287C37.2623 10.1022 37.4541 10.1602 37.7789 10.3397C38.23 10.7424 38.2094 11.2844 38.2446 11.8532C38.3215 11.8532 38.3983 11.8532 38.4775 11.8532C38.501 11.7637 38.5246 11.6743 38.5489 11.5821C38.7758 10.9812 39.1022 10.4537 39.4307 9.90311C39.5779 9.65364 39.7251 9.40412 39.8723 9.15455C39.9489 9.02492 40.0254 8.89529 40.1044 8.76174C40.5709 7.96801 41.0282 7.16888 41.4868 6.37053C41.6219 6.13583 41.7575 5.90146 41.8937 5.66744C42.0223 5.44473 42.1485 5.22057 42.2721 4.99506C42.3309 4.89034 42.3898 4.78562 42.4504 4.67774C42.5011 4.58512 42.5518 4.4925 42.6041 4.39708C42.9987 3.90051 43.4874 3.87684 44.0657 4.05287Z" fill="#FF6061"/>
<path d="M48.7223 24.779C49.057 24.9536 49.057 24.9536 49.3044 25.2447C49.3777 25.6986 49.4159 25.9828 49.1848 26.3835C48.9432 26.6831 48.6931 26.8941 48.3731 27.1075C48.4843 27.1079 48.5956 27.1083 48.7103 27.1088C49.7587 27.1131 50.807 27.1198 51.8554 27.1289C52.3944 27.1335 52.9334 27.1372 53.4724 27.139C53.9925 27.1408 54.5126 27.1448 55.0327 27.1503C55.2312 27.1521 55.4297 27.153 55.6282 27.1531C55.9061 27.1534 56.1839 27.1565 56.4618 27.1603C56.585 27.1595 56.585 27.1595 56.7108 27.1586C57.1005 27.1669 57.3054 27.1992 57.6184 27.4393C57.8596 27.7658 57.9114 27.9828 57.9197 28.3881C57.6717 28.9196 57.6717 28.9196 57.3376 29.0867C57.0535 29.1009 56.7725 29.1083 56.4883 29.1106C56.4008 29.1117 56.3133 29.1129 56.2232 29.1141C55.9334 29.1177 55.6437 29.1206 55.3539 29.1235C55.1532 29.1259 54.9526 29.1283 54.7519 29.1308C54.2233 29.1373 53.6946 29.143 53.166 29.1486C52.6268 29.1545 52.0875 29.1609 51.5483 29.1674C50.4899 29.1799 49.4315 29.1917 48.3731 29.2031C48.4393 29.2646 48.5055 29.3261 48.5737 29.3894C48.6594 29.4714 48.745 29.5534 48.8333 29.6378C48.9187 29.7185 49.0042 29.7992 49.0922 29.8824C49.3206 30.1537 49.3792 30.2797 49.3918 30.6293C49.3044 31.0658 49.3044 31.0658 49.1298 31.3569C48.806 31.5512 48.5487 31.6343 48.1684 31.6107C47.6461 31.4523 47.3061 31.0448 46.9301 30.6657C46.7127 30.4541 46.4867 30.2543 46.2588 30.054C46.0879 29.9013 45.9171 29.7487 45.7463 29.596C45.663 29.5237 45.5797 29.4515 45.4939 29.377C45.0987 29.0166 44.9033 28.8225 44.7612 28.2944C44.7646 27.8372 44.8222 27.693 45.1132 27.3403C45.3146 27.1508 45.5228 26.9721 45.7345 26.7941C46.236 26.3595 46.7149 25.9003 47.1967 25.4439C47.27 25.3749 47.3434 25.3058 47.4189 25.2347C47.485 25.1722 47.551 25.1097 47.619 25.0453C47.9743 24.7356 48.2613 24.7338 48.7223 24.779Z" fill="#FF6061"/>
<path d="M12.165 24.7812C12.4683 24.9654 12.4683 24.9654 12.7689 25.225C12.9339 25.3675 12.9339 25.3675 13.1023 25.5129C13.665 26.0239 14.1964 26.5649 14.7263 27.1096C14.8852 27.2618 14.8852 27.2618 15.0473 27.4171C15.365 27.7513 15.4248 27.9317 15.4248 28.3903C15.1432 29.0171 14.6113 29.4397 14.115 29.8965C14.0291 29.9769 13.9431 30.0572 13.8545 30.14C13.6034 30.3736 13.3503 30.6047 13.0964 30.8352C12.9834 30.9399 12.9834 30.9399 12.8681 31.0469C12.798 31.1101 12.7279 31.1734 12.6557 31.2385C12.5949 31.2941 12.5341 31.3496 12.4715 31.4068C12.0923 31.66 11.7909 31.606 11.35 31.5337C11.059 31.3591 11.059 31.3591 10.8843 31.068C10.7707 30.4999 10.7707 30.4999 10.8843 30.1366C11.0966 29.8846 11.0966 29.8846 11.3555 29.64C11.4411 29.558 11.5268 29.476 11.615 29.3916C11.6813 29.3301 11.7475 29.2686 11.8157 29.2052C11.6462 29.2042 11.6462 29.2042 11.4733 29.2032C10.4094 29.1965 9.3456 29.188 8.28176 29.1778C7.73481 29.1726 7.18786 29.168 6.64089 29.1649C6.11322 29.1619 5.58558 29.1572 5.05793 29.1513C4.85643 29.1494 4.65493 29.148 4.45342 29.1473C4.17157 29.1462 3.88982 29.1429 3.60799 29.1392C3.52433 29.1393 3.44067 29.1395 3.35448 29.1397C3.02226 29.1334 2.79006 29.1267 2.51143 28.9361C2.30291 28.6108 2.28905 28.3047 2.26904 27.9246C2.39735 27.529 2.49269 27.465 2.85116 27.2261C3.14278 27.2013 3.42191 27.1898 3.71372 27.1889C3.80121 27.1878 3.8887 27.1866 3.97884 27.1854C4.26798 27.1818 4.5571 27.1798 4.84626 27.1778C5.04675 27.1757 5.24724 27.1734 5.44772 27.171C5.9754 27.165 6.50307 27.1604 7.03076 27.1561C7.56923 27.1514 8.10768 27.1455 8.64614 27.1396C9.70265 27.1284 10.7592 27.1186 11.8157 27.1096C11.7295 27.038 11.7295 27.038 11.6415 26.965C11.5669 26.9023 11.4923 26.8396 11.4155 26.7749C11.3412 26.7128 11.2669 26.6507 11.1904 26.5866C10.9049 26.3224 10.8853 26.1871 10.8407 25.7926C10.8843 25.3633 10.8843 25.3633 11.1317 25.0213C11.532 24.7342 11.6825 24.7248 12.165 24.7812Z" fill="#FF6061"/>
<path d="M30.0964 0.386451C30.1733 0.38525 30.2501 0.384049 30.3293 0.382812C30.6776 0.47534 30.8061 0.627311 31.0278 0.910353C31.0747 1.21818 31.0936 1.47839 31.0914 1.78614C31.0926 1.87364 31.0938 1.96115 31.095 2.0513C31.0984 2.33984 31.0986 2.62827 31.0988 2.91682C31.1005 3.11715 31.1025 3.31747 31.1046 3.51779C31.1097 4.04451 31.112 4.57121 31.1138 5.09795C31.116 5.63566 31.1209 6.17333 31.1256 6.71102C31.1344 7.76564 31.1402 8.82025 31.1442 9.8749C31.2065 9.80876 31.2687 9.74263 31.3329 9.67448C31.4155 9.58889 31.498 9.5033 31.5831 9.41512C31.6646 9.32977 31.746 9.24443 31.83 9.15649C32.0756 8.94352 32.0756 8.94352 32.5049 8.84892C32.9985 8.96998 33.181 9.11012 33.4727 9.52563C33.535 10.0185 33.5317 10.2553 33.2458 10.6685C33.1406 10.774 33.0354 10.8795 32.927 10.9882C32.8094 11.1078 32.6919 11.2276 32.5745 11.3475C32.5122 11.41 32.45 11.4726 32.3858 11.537C32.1825 11.7475 31.9903 11.9649 31.7987 12.1861C31.7333 12.2604 31.6679 12.3348 31.6005 12.4114C31.4735 12.556 31.3478 12.7017 31.2235 12.8487C30.9063 13.2027 30.7285 13.3525 30.262 13.4936C29.5898 13.4774 29.295 13.1595 28.8417 12.7004C28.6796 12.5281 28.5181 12.3551 28.3574 12.1815C28.277 12.0965 28.1966 12.0115 28.1138 11.9239C26.7786 10.495 26.7786 10.495 26.6401 9.85307C26.7524 9.39377 26.9209 9.2194 27.3023 8.94352C27.6879 8.84892 27.6879 8.84892 28.1172 8.94352C28.3629 9.15649 28.3629 9.15649 28.6098 9.41512C28.6923 9.50071 28.7749 9.5863 28.86 9.67448C28.9222 9.74062 28.9845 9.80676 29.0486 9.8749C29.0491 9.76362 29.0495 9.65235 29.0499 9.5377C29.0542 8.48929 29.0609 7.44092 29.07 6.39253C29.0746 5.85354 29.0784 5.31456 29.0802 4.77555C29.0819 4.25542 29.0859 3.73534 29.0915 3.21523C29.0932 3.01676 29.0942 2.81827 29.0943 2.61979C29.0945 2.34184 29.0977 2.06406 29.1015 1.78614C29.1009 1.70399 29.1003 1.62184 29.0997 1.5372C29.1081 1.14195 29.1404 0.941846 29.3873 0.626636C29.6516 0.429048 29.7707 0.381361 30.0964 0.386451Z" fill="#FF6061"/>
</g>
<defs>
<clipPath id="clip0_4_10059">
<rect width="59.6084" height="59.6084" fill="white" transform="translate(0.29248 0.445312)"/>
</clipPath>
</defs>
</svg>
