<svg width="54" height="55" viewBox="0 0 54 55" fill="none" xmlns="http://www.w3.org/2000/svg">
<g clip-path="url(#clip0_4_9590)">
<path d="M28.9365 2.13343C29.5432 2.47702 30.1426 2.8309 30.737 3.19556C31.4198 3.61425 32.1088 4.02221 32.798 4.43015C33.8789 5.07004 34.9581 5.71256 36.0345 6.35984C37.0279 6.95714 38.0238 7.54993 39.0208 8.14111C40.1225 8.79441 41.2224 9.4506 42.3201 10.1107C43.2093 10.6448 44.1011 11.1746 44.9933 11.7036C46.3228 12.4923 47.6509 13.2833 48.9748 14.0814C49.1914 14.2118 49.4081 14.342 49.625 14.472C49.9565 14.6707 50.2876 14.8701 50.6186 15.0697C50.7183 15.1293 50.8179 15.1888 50.9205 15.2501C51.626 15.677 52.2546 16.059 52.675 16.792C52.7264 16.8797 52.7779 16.9674 52.8309 17.0577C53.2143 17.8256 53.1799 18.8997 52.986 19.7259C52.6366 20.6501 52.0342 21.242 51.1753 21.7102C50.6948 21.9072 50.2494 21.9602 49.7346 21.959C49.661 21.9589 49.5874 21.9588 49.5116 21.9587C48.6707 21.9397 47.9953 21.6508 47.2984 21.1863C47.2984 21.532 47.2984 21.8778 47.2984 22.2341C47.4061 22.2773 47.5137 22.3205 47.6246 22.3651C48.5512 22.7472 49.3447 23.1684 50.1275 23.8058C50.1923 23.8536 50.2572 23.9014 50.324 23.9507C51.4344 24.8092 52.147 26.0814 52.6422 27.3683C52.6877 27.4849 52.7333 27.6014 52.7802 27.7215C53.4629 29.8175 53.1924 32.1603 52.2427 34.1136C51.9148 34.7506 51.5558 35.3248 51.0705 35.8555C50.9866 35.949 50.9028 36.0425 50.8163 36.1388C50.0197 36.9826 49.1742 37.5372 48.1367 38.0559C48.1021 38.8166 48.0675 39.5773 48.0319 40.3611C47.4786 40.3611 46.9254 40.3611 46.3554 40.3611C46.3554 40.9143 46.3554 41.4676 46.3554 42.0376C46.9086 42.0376 47.4619 42.0376 48.0319 42.0376C48.0319 43.6973 48.0319 45.357 48.0319 47.067C47.4786 47.067 46.9254 47.067 46.3554 47.067C46.3554 47.6203 46.3554 48.1735 46.3554 48.7435C46.9086 48.7435 47.4619 48.7435 48.0319 48.7435C48.0416 49.1909 48.0499 49.6379 48.0549 50.0853C48.057 50.2371 48.0598 50.3889 48.0635 50.5407C48.0866 51.5265 48.0925 52.2825 47.4069 53.0649C47.3387 53.1213 47.2705 53.1778 47.2002 53.236C47.1322 53.2941 47.0643 53.3521 46.9943 53.412C46.5296 53.7322 46.1317 53.7991 45.5725 53.7988C45.3656 53.7994 45.3656 53.7994 45.1546 53.8C45.0017 53.7994 44.8488 53.7988 44.6959 53.7982C44.5334 53.7983 44.3709 53.7985 44.2083 53.7987C43.7615 53.7992 43.3147 53.7983 42.8679 53.7973C42.3861 53.7964 41.9044 53.7967 41.4226 53.7969C40.5879 53.797 39.7531 53.7963 38.9184 53.7951C37.7115 53.7934 36.5046 53.7929 35.2977 53.7926C33.3396 53.7922 31.3815 53.7908 29.4235 53.7888C27.5212 53.7869 25.619 53.7854 23.7168 53.7845C23.5984 53.7844 23.48 53.7844 23.358 53.7843C22.4318 53.7839 21.5057 53.7835 20.5795 53.7831C16.039 53.7811 11.4985 53.7769 6.95796 53.773C6.92338 43.0194 6.88881 32.2658 6.85318 21.1863C6.43825 21.3937 6.02332 21.6012 5.59582 21.815C4.85779 22.061 3.79535 22.0527 3.07454 21.7429C2.93465 21.6663 2.79686 21.5857 2.66197 21.5006C2.59686 21.4639 2.53176 21.4271 2.46468 21.3893C1.7458 20.9411 1.30621 20.2126 1.09026 19.405C0.986423 18.2507 1.04065 17.2449 1.7963 16.3136C2.09983 15.9696 2.43117 15.7204 2.82569 15.4888C2.89589 15.4462 2.96609 15.4036 3.03842 15.3597C3.29605 15.2044 3.55512 15.0517 3.81455 14.8994C3.92266 14.8359 4.03076 14.7724 4.14214 14.7069C4.64484 14.4119 5.14779 14.1173 5.6513 13.8237C6.54675 13.301 7.43533 12.7681 8.32011 12.2275C9.37245 11.5848 10.432 10.9559 11.4973 10.335C12.4352 9.788 13.3661 9.23086 14.2926 8.66501C15.345 8.02231 16.4045 7.3934 17.4698 6.77242C18.4076 6.22546 19.3385 5.66822 20.2651 5.10248C21.2292 4.51421 22.1968 3.93208 23.1704 3.35956C23.3006 3.28295 23.4308 3.20623 23.561 3.12938C25.2496 2.13284 26.9918 1.17954 28.9365 2.13343ZM24.5611 4.63097C24.3389 4.76568 24.1167 4.90019 23.8943 5.03454C23.5253 5.25789 23.1564 5.48153 22.7884 5.70658C21.9008 6.24908 21.0067 6.77923 20.1079 7.30287C19.1062 7.88666 18.1111 8.47986 17.1217 9.08413C16.0693 9.72684 15.0097 10.3557 13.9444 10.9767C13.0066 11.5237 12.0757 12.0808 11.1492 12.6467C10.2262 13.2102 9.29916 13.7657 8.36521 14.3109C7.98781 14.5313 7.61078 14.7522 7.2337 14.9731C6.89347 15.1724 6.5531 15.3714 6.21253 15.5701C5.84915 15.7822 5.48656 15.9957 5.12443 16.21C4.98627 16.2914 4.84787 16.3725 4.70921 16.4531C4.51619 16.5654 4.32411 16.6792 4.13217 16.7933C4.02256 16.8577 3.91295 16.922 3.80002 16.9884C3.40345 17.2744 3.09292 17.6001 2.87153 18.0429C2.81392 18.5679 2.81269 18.9751 3.05489 19.4508C3.40302 19.8473 3.69435 20.102 4.23531 20.1618C4.81279 20.1779 5.2084 20.0744 5.7006 19.7652C5.77039 19.7237 5.84017 19.6823 5.91208 19.6396C6.06949 19.5457 6.22631 19.4508 6.38264 19.3551C6.66562 19.182 6.95017 19.0117 7.23506 18.8418C7.67865 18.5769 8.12157 18.3109 8.56405 18.0441C9.25144 17.6301 9.94125 17.2203 10.6318 16.8117C10.7474 16.7433 10.8629 16.6749 10.9819 16.6045C11.1619 16.4979 11.3419 16.3914 11.5218 16.2849C12.2864 15.8324 13.0505 15.3791 13.8145 14.9256C13.8866 14.8829 13.9586 14.8401 14.0328 14.7961C14.9331 14.2616 15.8323 13.7253 16.7294 13.1855C17.7072 12.5978 18.6888 12.0166 19.6702 11.4349C20.7293 10.807 21.7861 10.175 22.8405 9.5391C23.0829 9.39293 23.3255 9.24714 23.5683 9.10173C23.7487 8.99374 23.9291 8.88573 24.1089 8.77691C25.5025 7.93435 26.73 7.4594 28.3655 7.8591C28.9433 8.08568 29.468 8.40782 29.9974 8.72886C30.1372 8.8132 30.277 8.89751 30.4169 8.98178C30.5239 9.04632 30.5239 9.04632 30.6331 9.11217C30.975 9.31772 31.318 9.52128 31.6612 9.72469C31.7286 9.76466 31.796 9.80463 31.8654 9.84581C32.0034 9.92762 32.1413 10.0094 32.2793 10.0912C33.3495 10.7256 34.4188 11.3614 35.4848 12.0029C36.4627 12.5906 37.4444 13.1719 38.4259 13.7536C39.162 14.1901 39.8971 14.6284 40.6307 15.0693C41.3032 15.4732 41.978 15.8734 42.6528 16.2734C43.6658 16.8739 44.6784 17.4751 45.6874 18.0822C46.4365 18.5327 47.1877 18.9797 47.9402 19.4247C48.0404 19.4839 48.1405 19.5432 48.2437 19.6043C48.3824 19.6862 48.3824 19.6862 48.5239 19.7697C48.606 19.8182 48.6881 19.8667 48.7728 19.9167C49.23 20.1813 49.6045 20.187 50.1275 20.1385C50.6889 19.9372 51.0138 19.6233 51.2801 19.0907C51.3345 18.5943 51.3352 18.1706 51.136 17.7089C50.4439 16.9673 49.4983 16.4808 48.6273 15.978C48.2932 15.7851 47.96 15.5906 47.6267 15.3963C47.5571 15.3559 47.4875 15.3154 47.4159 15.2737C46.6319 14.8172 45.8517 14.3545 45.0718 13.8909C45.0012 13.8489 44.9305 13.8069 44.8576 13.7637C43.8362 13.1568 42.8168 12.5467 41.7986 11.9344C40.9095 11.4003 40.0177 10.8705 39.1255 10.3415C38.0242 9.68842 36.9247 9.03248 35.8273 8.37265C34.7828 7.7451 33.7347 7.12352 32.6865 6.50213C31.9836 6.08534 31.2815 5.66736 30.582 5.24489C30.2576 5.04935 29.932 4.85583 29.6065 4.66218C29.3778 4.5243 29.1519 4.38263 28.9258 4.2405C27.9272 3.61799 27.9272 3.61799 26.7819 3.48739C25.9707 3.71944 25.2734 4.19102 24.5611 4.63097ZM24.5611 10.4987C24.3328 10.6371 24.1044 10.7753 23.8759 10.9133C23.5004 11.1404 23.1251 11.368 22.7506 11.5968C21.9707 12.0734 21.1868 12.5418 20.396 13.0003C19.4082 13.5732 18.4243 14.1525 17.4426 14.7357C17.3708 14.7784 17.299 14.821 17.225 14.865C16.1949 15.4771 15.1667 16.0923 14.1399 16.71C13.5189 17.0832 12.8966 17.4543 12.2731 17.8235C12.1984 17.8677 12.1237 17.912 12.0468 17.9576C11.6804 18.1746 11.3139 18.3914 10.9472 18.6079C10.8118 18.688 10.6764 18.7682 10.541 18.8484C10.4232 18.9179 10.3054 18.9875 10.1841 19.0591C10.1234 19.0971 10.0628 19.135 10.0003 19.1741C9.78703 19.3002 9.78703 19.3002 9.501 19.4383C8.88924 19.7537 8.88924 19.7537 8.52833 20.3116C8.48874 20.6587 8.48628 20.9898 8.49585 21.3391C8.49486 21.4704 8.49387 21.6016 8.49286 21.7368C8.49028 22.1007 8.49489 22.4642 8.50067 22.8281C8.50571 23.2266 8.50401 23.625 8.50318 24.0236C8.50257 24.7968 8.50788 25.5699 8.51528 26.3432C8.52359 27.2377 8.5245 28.1322 8.52541 29.0268C8.53146 31.3882 8.54755 33.7496 8.56241 36.1109C8.58618 41.3862 8.60996 46.6614 8.63445 52.0965C19.4572 52.0965 30.28 52.0965 41.4307 52.0965C41.3788 46.2875 41.3788 46.2875 41.3259 40.3611C31.6442 40.3611 21.9625 40.3611 11.9874 40.3611C11.9874 39.8078 11.9874 39.2546 11.9874 38.6846C13.6126 38.6846 15.2377 38.6846 16.9121 38.6846C16.5147 37.9649 16.5147 37.9649 16.087 37.2766C14.5126 34.6472 14.1135 31.1258 14.8191 28.1588C15.4129 25.9707 16.4385 24.111 17.9599 22.4436C18.0273 22.3676 18.0947 22.2915 18.1641 22.2132C19.2456 21.0567 20.6131 20.2532 22.0463 19.6146C22.1568 19.5641 22.2673 19.5135 22.3811 19.4615C25.333 18.2158 28.8671 18.3275 31.8237 19.477C33.3276 20.0984 34.574 20.9308 35.7726 22.0245C35.8498 22.0931 35.9271 22.1617 36.0067 22.2324C36.8604 23.0315 37.5129 24.0462 38.0777 25.0631C38.1426 24.9962 38.2074 24.9292 38.2742 24.8601C38.383 24.7528 38.4922 24.6459 38.6016 24.5392C38.6719 24.4694 38.7421 24.3996 38.8145 24.3276C40.1734 23.0344 41.9427 22.0732 43.8493 21.9914C43.9468 21.987 44.0444 21.9826 44.145 21.9781C44.2455 21.9739 44.3461 21.9698 44.4497 21.9656C44.5523 21.9611 44.6549 21.9565 44.7606 21.9519C45.0127 21.9408 45.2649 21.9301 45.5172 21.9197C45.5544 21.6217 45.5809 21.3283 45.6023 21.0291C45.6137 20.9462 45.6251 20.8632 45.6369 20.7778C45.6526 20.4833 45.636 20.3052 45.5172 20.0337C45.1619 19.7303 44.7687 19.5181 44.357 19.3031C44.0178 19.1223 43.6912 18.9209 43.3622 18.7223C43.2248 18.6407 43.0874 18.5592 42.9498 18.4779C42.5087 18.2169 42.0677 17.9556 41.6268 17.6941C41.5541 17.6511 41.4815 17.608 41.4067 17.5637C40.8548 17.2363 40.304 16.9069 39.7542 16.5759C38.698 15.9403 37.6375 15.3117 36.577 14.6831C35.9069 14.2858 35.2374 13.8874 34.5696 13.4861C33.75 12.9936 32.9278 12.5056 32.1053 12.018C31.2611 11.5176 30.4172 11.0166 29.5754 10.5122C29.5119 10.4742 29.4484 10.4362 29.383 10.397C29.0974 10.2257 28.8136 10.0522 28.5317 9.8749C27.9681 9.52358 27.4714 9.32425 26.8003 9.36614C25.9757 9.56393 25.2752 10.0577 24.5611 10.4987ZM20.0555 22.8628C19.9818 22.9192 19.908 22.9757 19.832 23.0338C18.2293 24.3251 17.2129 26.2808 16.5978 28.2066C16.5441 28.3695 16.5441 28.3695 16.4893 28.5356C16.0328 30.2259 16.047 32.4095 16.5978 34.0743C16.6197 34.1411 16.6416 34.2079 16.6642 34.2768C17.1492 35.7269 17.821 36.9745 18.7981 38.1607C18.8697 38.2586 18.9413 38.3565 19.0151 38.4574C19.4875 38.807 19.9367 38.7411 20.5074 38.7173C20.615 38.715 20.7225 38.7126 20.8334 38.7102C21.0982 38.704 21.3626 38.6954 21.6272 38.6846C21.3329 38.3847 21.0381 38.1024 20.7104 37.8398C19.205 36.5212 18.2492 34.46 17.9599 32.5026C17.7785 29.5244 18.3571 27.0771 20.3371 24.7946C21.7118 23.328 23.87 22.1312 25.9111 22.006C28.9988 21.9462 31.4122 22.5183 33.7154 24.6772C35.0313 26.0184 35.8466 27.841 36.1917 29.6735C36.2263 29.6735 36.2609 29.6735 36.2965 29.6735C36.325 29.5065 36.325 29.5065 36.3542 29.3362C36.5919 27.9877 36.5919 27.9877 36.7876 27.5124C36.9348 27.134 36.9628 26.9315 36.9252 26.5301C36.8124 26.277 36.7007 26.0575 36.5584 25.8228C36.5208 25.7589 36.4831 25.695 36.4443 25.6292C36.0947 25.0497 35.6889 24.5288 35.2487 24.0153C35.1986 23.9513 35.1485 23.8873 35.0968 23.8213C33.5115 21.8317 30.8457 20.6448 28.3628 20.3313C25.2692 20.0076 22.4567 20.9176 20.0555 22.8628ZM21.8686 25.7107C20.7643 26.7818 20.1559 27.9992 19.7412 29.4639C19.7225 29.5291 19.7038 29.5942 19.6846 29.6613C19.368 31.1175 19.5869 32.7184 20.1603 34.0743C20.2005 34.1726 20.2408 34.2709 20.2823 34.3722C20.5909 35.0525 21.0317 35.611 21.5224 36.1699C21.5847 36.2421 21.647 36.3144 21.7111 36.3888C23.0899 37.8798 24.9728 38.5615 26.971 38.6846C29.1086 38.728 31.0105 37.7369 32.5375 36.3008C33.0037 35.8216 33.3438 35.2799 33.677 34.7029C33.7179 34.6342 33.7588 34.5654 33.801 34.4946C33.9144 34.2885 34.0072 34.0825 34.0961 33.8647C34.1351 33.7692 34.1742 33.6737 34.2144 33.5753C34.815 31.8405 34.7012 29.8852 33.9913 28.2066C33.9511 28.1082 33.9108 28.0099 33.8693 27.9086C33.5607 27.2283 33.1199 26.6698 32.6292 26.111C32.5669 26.0387 32.5046 25.9664 32.4405 25.892C31.0705 24.4105 29.1901 23.6991 27.2045 23.6012C25.1868 23.5583 23.338 24.3473 21.8686 25.7107ZM40.5925 25.0631C40.526 25.1102 40.4596 25.1572 40.3911 25.2056C39.1547 26.1697 38.3236 27.7206 38.0777 29.2544C37.8666 31.4312 38.3669 33.1639 39.7514 34.8499C40.5411 35.6948 41.608 36.2979 42.6881 36.6938C42.7918 36.6938 42.8955 36.6938 43.0024 36.6938C43.002 36.8055 43.002 36.8055 43.0015 36.9195C42.9946 38.7324 42.9894 40.5452 42.9861 42.3581C42.9845 43.2348 42.9823 44.1115 42.9787 44.9882C42.9756 45.7524 42.9735 46.5166 42.9728 47.2808C42.9724 47.6854 42.9715 48.0899 42.9692 48.4945C42.967 48.8755 42.9664 49.2565 42.9669 49.6375C42.9667 49.8436 42.965 50.0497 42.9633 50.2557C42.9637 50.3792 42.9642 50.5026 42.9646 50.6297C42.9642 50.79 42.9642 50.79 42.9637 50.9534C43.0102 51.3196 43.1286 51.571 43.3168 51.8869C43.7369 52.1468 44.1911 52.1315 44.6724 52.1292C44.7809 52.1318 44.7809 52.1318 44.8915 52.1343C45.3875 52.1348 45.7261 52.0451 46.1458 51.7822C46.4372 51.3186 46.3554 51.0108 46.3554 50.42C45.8022 50.42 45.2489 50.42 44.6789 50.42C44.6789 48.7603 44.6789 47.1006 44.6789 45.3905C45.2322 45.3905 45.7854 45.3905 46.3554 45.3905C46.3554 44.8373 46.3554 44.2841 46.3554 43.7141C45.8022 43.7141 45.2489 43.7141 44.6789 43.7141C44.6789 42.0543 44.6789 40.3946 44.6789 38.6846C45.2322 38.6846 45.7854 38.6846 46.3554 38.6846C46.3554 38.0276 46.3554 37.3707 46.3554 36.6938C46.5629 36.6592 46.7703 36.6246 46.9841 36.589C48.5917 35.9073 50.0187 34.7862 50.7353 33.1491C51.4299 31.4157 51.6076 29.4366 50.861 27.6827C50.0034 25.8832 48.5645 24.5842 46.6918 23.9102C44.5092 23.2591 42.4213 23.7535 40.5925 25.0631ZM36.2965 31.6643C36.2811 31.781 36.2657 31.8977 36.2498 32.0179C35.904 34.4434 34.9144 36.7588 32.9239 38.2917C32.8082 38.3735 32.8082 38.3735 32.6901 38.457C32.6354 38.4976 32.5807 38.5381 32.5244 38.5798C32.5244 38.6144 32.5244 38.649 32.5244 38.6846C33.8974 38.8479 33.8974 38.8479 35.1828 38.4832C35.4607 38.1826 35.6673 37.8835 35.8774 37.532C35.961 37.4043 36.0451 37.2769 36.1295 37.1497C37.0047 35.8749 37.0047 35.8749 37.3197 34.4422C37.2301 34.1483 37.1165 33.8765 36.9906 33.5962C36.7204 32.9656 36.5472 32.3335 36.4013 31.6643C36.3667 31.6643 36.3321 31.6643 36.2965 31.6643ZM38.6016 36.1699C38.556 36.2648 38.5103 36.3598 38.4633 36.4576C38.1306 37.1409 37.7917 37.7927 37.3512 38.4149C37.2297 38.5611 37.2297 38.5611 37.2395 38.6846C38.588 38.6846 39.9365 38.6846 41.3259 38.6846C41.3259 38.4771 41.3259 38.2697 41.3259 38.0559C41.0823 37.8698 40.8749 37.741 40.6056 37.604C39.9499 37.2447 39.4304 36.864 38.8906 36.343C38.7358 36.1579 38.7358 36.1579 38.6016 36.1699Z" fill="#004DC9"/>
<path d="M26.2382 25.2705C26.7914 25.2705 27.3446 25.2705 27.9146 25.2705C27.9146 25.8237 27.9146 26.377 27.9146 26.947C28.1567 26.947 28.3987 26.947 28.6481 26.947C29.348 27.137 29.8055 27.6328 30.2198 28.2044C30.4822 28.672 30.4294 28.8677 30.4294 29.4617C29.8416 29.4617 29.2537 29.4617 28.6481 29.4617C28.579 29.2888 28.5098 29.1159 28.4385 28.9378C28.0701 28.7286 27.732 28.6983 27.3134 28.6849C27.2016 28.6808 27.0898 28.6768 26.9747 28.6726C26.8591 28.6694 26.7436 28.6661 26.6245 28.6628C26.507 28.6587 26.3894 28.6547 26.2682 28.6505C25.9788 28.6406 25.6894 28.6317 25.3999 28.6235C25.4267 28.8093 25.4555 28.9948 25.4851 29.1801C25.5009 29.2835 25.5167 29.3868 25.5329 29.4932C25.6145 29.7945 25.6771 29.9058 25.9238 30.0904C26.2334 30.1936 26.4435 30.2096 26.7666 30.2136C26.8705 30.2161 26.9744 30.2186 27.0815 30.2212C27.2987 30.2256 27.5159 30.2289 27.7331 30.231C28.5367 30.2533 29.11 30.3893 29.7213 30.925C29.7777 30.9932 29.8342 31.0614 29.8924 31.1317C29.9795 31.2336 29.9795 31.2336 30.0684 31.3375C30.4087 31.8315 30.4547 32.2485 30.4498 32.8429C30.4495 32.9143 30.4492 32.9856 30.4489 33.0592C30.4478 33.2855 30.4451 33.5118 30.4425 33.7381C30.4414 33.8922 30.4405 34.0463 30.4396 34.2004C30.4375 34.5768 30.4334 34.953 30.4294 35.3294C29.5995 35.3294 28.7697 35.3294 27.9146 35.3294C27.9146 35.8827 27.9146 36.4359 27.9146 37.0059C27.3614 37.0059 26.8082 37.0059 26.2382 37.0059C26.2382 36.4527 26.2382 35.8994 26.2382 35.3294C25.9961 35.3294 25.7541 35.3294 25.5047 35.3294C24.8048 35.1394 24.3473 34.6436 23.933 34.0721C23.6706 33.6044 23.7234 33.4087 23.7234 32.8147C24.3112 32.8147 24.8991 32.8147 25.5047 32.8147C25.5739 32.9876 25.643 33.1605 25.7143 33.3386C26.0827 33.5478 26.4208 33.5781 26.8394 33.5915C26.9512 33.5956 27.063 33.5996 27.1781 33.6038C27.2937 33.6071 27.4092 33.6103 27.5283 33.6136C27.6458 33.6177 27.7634 33.6218 27.8846 33.6259C28.174 33.6358 28.4634 33.6448 28.7529 33.6529C28.7261 33.4672 28.6973 33.2817 28.6678 33.0963C28.652 32.993 28.6361 32.8896 28.6199 32.7832C28.5383 32.4819 28.4757 32.3706 28.229 32.186C27.9194 32.0828 27.7093 32.0668 27.3862 32.0628C27.2823 32.0603 27.1784 32.0578 27.0713 32.0552C26.8541 32.0508 26.6369 32.0475 26.4197 32.0454C25.6161 32.0231 25.0428 31.8872 24.4315 31.3515C24.3751 31.2832 24.3186 31.215 24.2604 31.1448C24.2024 31.0768 24.1443 31.0089 24.0844 30.9389C23.7441 30.4449 23.6981 30.0279 23.703 29.4335C23.7033 29.3621 23.7036 29.2908 23.7039 29.2173C23.705 28.9909 23.7077 28.7647 23.7103 28.5383C23.7114 28.3842 23.7123 28.2301 23.7132 28.076C23.7153 27.6997 23.7194 27.3234 23.7234 26.947C24.5533 26.947 25.3832 26.947 26.2382 26.947C26.2382 26.3938 26.2382 25.8405 26.2382 25.2705Z" fill="#004DC9"/>
<path d="M46.3453 25.5557C47.2196 26.0771 47.7633 26.7988 48.0332 27.7831C48.1378 28.9462 48.0698 29.9557 47.3259 30.9069C46.7319 31.543 45.9929 31.9321 45.1235 32.0096C44.3082 32.0278 43.6032 32.0088 42.899 31.5552C42.8249 31.5096 42.7509 31.4639 42.6747 31.4169C41.9511 30.9265 41.5581 30.2978 41.3273 29.4596C41.2226 28.2966 41.2906 27.2871 42.0345 26.3359C43.1135 25.1805 44.9208 24.8722 46.3453 25.5557ZM43.2788 27.7438C43.0478 28.2235 43.025 28.622 43.1085 29.1453C43.3526 29.6523 43.6493 29.949 44.1563 30.1931C44.6796 30.2766 45.0781 30.2538 45.5578 30.0228C45.9333 29.683 46.2095 29.4109 46.292 28.894C46.3189 28.2984 46.2453 27.9247 45.8328 27.4688C45.3769 27.0564 45.0032 26.9827 44.4076 27.0096C43.8907 27.0921 43.6186 27.3683 43.2788 27.7438Z" fill="#004DC9"/>
<path d="M37.9722 48.7432C38.5254 48.7432 39.0786 48.7432 39.6487 48.7432C39.6487 49.2964 39.6487 49.8496 39.6487 50.4197C39.0954 50.4197 38.5422 50.4197 37.9722 50.4197C37.9722 49.8664 37.9722 49.3132 37.9722 48.7432Z" fill="#004DC9"/>
<path d="M34.6206 48.7432C35.1738 48.7432 35.7271 48.7432 36.2971 48.7432C36.2971 49.2964 36.2971 49.8496 36.2971 50.4197C35.7439 50.4197 35.1906 50.4197 34.6206 50.4197C34.6206 49.8664 34.6206 49.3132 34.6206 48.7432Z" fill="#004DC9"/>
<path d="M31.2651 48.7432C31.8184 48.7432 32.3716 48.7432 32.9416 48.7432C32.9416 49.2964 32.9416 49.8496 32.9416 50.4197C32.3884 50.4197 31.8351 50.4197 31.2651 50.4197C31.2651 49.8664 31.2651 49.3132 31.2651 48.7432Z" fill="#004DC9"/>
</g>
<defs>
<clipPath id="clip0_4_9590">
<rect width="53.6476" height="53.6476" fill="white" transform="translate(0.253418 0.961914)"/>
</clipPath>
</defs>
</svg>
