<svg width="107" height="113" viewBox="0 0 107 113" fill="none" xmlns="http://www.w3.org/2000/svg">
<g filter="url(#filter0_d_1_13303)">
<path d="M40.013 3.11001C40.1214 3.10054 40.2298 3.09107 40.3416 3.08131C40.706 3.05016 41.0705 3.02105 41.4351 2.99235C41.563 2.98206 41.691 2.97178 41.8227 2.96118C45.3824 2.67785 48.9468 2.51033 52.5156 2.39653C52.6802 2.39107 52.8449 2.38562 53.0146 2.37999C67.9225 1.89746 67.9225 1.89746 73.433 6.99834C74.3407 7.86205 75.1672 8.79151 75.9732 9.74968C76.039 9.8275 76.1048 9.90532 76.1726 9.98549C80.8727 15.5605 80.8727 15.5605 80.8769 17.254C80.8779 17.4719 80.8779 17.4719 80.879 17.6941C80.8791 17.855 80.8791 18.0158 80.8792 18.1816C80.8798 18.3514 80.8804 18.5213 80.881 18.6963C80.8826 19.1695 80.8834 19.6426 80.884 20.1157C80.8848 20.6254 80.8863 21.1351 80.8878 21.6448C80.8911 22.8767 80.8931 24.1086 80.8948 25.3406C80.8953 25.6885 80.8958 26.0365 80.8964 26.3844C80.8998 28.5449 80.9028 30.7053 80.9044 32.8658C80.9048 33.3664 80.9052 33.8671 80.9056 34.3677C80.9057 34.4921 80.9058 34.6166 80.9059 34.7448C80.9076 36.7596 80.9121 38.7743 80.9177 40.7891C80.9235 42.8575 80.9266 44.9258 80.9273 46.9942C80.9278 48.1556 80.9294 49.3169 80.9338 50.4783C80.9376 51.4676 80.9391 52.457 80.9376 53.4463C80.9369 53.9509 80.9372 54.4554 80.9406 54.96C80.9442 55.5078 80.9425 56.0554 80.9404 56.6033C80.9423 56.7617 80.9441 56.9201 80.9461 57.0834C80.9363 58.0955 80.7496 58.8479 80.1846 59.6972C79.8724 60.0009 79.8724 60.0009 79.5698 60.1773C79.4695 60.2386 79.3693 60.2999 79.266 60.3631C78.6339 60.6696 78.0266 60.6594 77.3344 60.6568C77.1669 60.6569 77.1669 60.6569 76.9961 60.6571C76.6216 60.6573 76.2471 60.6566 75.8725 60.6558C75.6042 60.6558 75.336 60.6558 75.0677 60.6559C74.3388 60.6559 73.6099 60.6552 72.881 60.6542C72.1194 60.6534 71.3579 60.6533 70.5964 60.6531C69.154 60.6527 67.7117 60.6516 66.2693 60.6502C64.6274 60.6487 62.9855 60.648 61.3435 60.6473C57.9657 60.6459 54.5879 60.6435 51.21 60.6405C51.1708 60.7233 51.1316 60.8061 51.0912 60.8913C49.9788 63.0194 46.9559 64.458 44.7886 65.1647C41.9794 66.0302 38.7974 66.1456 35.9815 65.2226C35.851 65.1803 35.851 65.1803 35.718 65.1372C33.7675 64.4815 32.0509 63.4368 30.5909 61.9882C30.4741 61.877 30.3574 61.7658 30.2371 61.6513C30.1315 61.5401 30.0259 61.4289 29.917 61.3144C29.8373 61.2324 29.7576 61.1504 29.6754 61.0659C27.0029 58.2125 26.0125 54.4349 26.1258 50.6092C26.3125 46.9783 28.0787 43.5994 30.6814 41.1058C32.1801 39.7882 34.79 37.8652 36.9249 37.8652C36.9244 37.6996 36.9239 37.534 36.9234 37.3634C36.9117 33.4309 36.9028 29.4984 36.8973 25.5659C36.8967 25.0816 36.896 24.5973 36.8952 24.113C36.8951 24.0166 36.895 23.9202 36.8948 23.8209C36.8925 22.2609 36.8882 20.7009 36.8833 19.141C36.8782 17.5397 36.8752 15.9384 36.8741 14.3371C36.8735 13.4379 36.8718 12.5387 36.8679 11.6396C36.8642 10.793 36.8631 9.94655 36.8639 9.10002C36.8637 8.78954 36.8627 8.47907 36.8606 8.1686C36.8579 7.74408 36.8586 7.31968 36.86 6.89516C36.8585 6.77284 36.8569 6.65053 36.8553 6.5245C36.8639 5.59971 37.0524 4.74516 37.7037 4.05409C38.4297 3.40025 39.0397 3.18823 40.013 3.11001ZM39.2159 5.52141C38.9423 5.93176 38.9127 6.00803 38.9132 6.46795C38.9126 6.5786 38.9121 6.68926 38.9116 6.80326C38.9123 6.92479 38.9131 7.04631 38.9139 7.17152C38.9137 7.30064 38.9135 7.42976 38.9132 7.56279C38.9128 7.99735 38.9143 8.43188 38.9157 8.86643C38.9158 9.17718 38.9158 9.48792 38.9156 9.79867C38.9155 10.644 38.9171 11.4893 38.919 12.3346C38.9207 13.2173 38.9209 14.1001 38.9212 14.9828C38.9219 16.4651 38.9236 17.9473 38.926 19.4295C38.9285 20.9562 38.9304 22.483 38.9315 24.0098C38.9316 24.1039 38.9317 24.198 38.9318 24.2949C38.9321 24.7669 38.9324 25.2389 38.9328 25.7109C38.9356 29.6276 38.9403 33.5442 38.9463 37.4609C39.026 37.4641 39.1056 37.4674 39.1877 37.4708C39.5547 37.4863 39.9217 37.5025 40.2887 37.5188C40.414 37.5239 40.5392 37.5291 40.6683 37.5344C44.6365 37.7134 48.1528 39.2429 50.8857 42.1445C53.53 45.2551 54.6909 49.0673 54.3817 53.1037C54.1935 55.0493 53.5726 56.8792 52.6924 58.6191C56.0018 58.6348 59.3111 58.6467 62.6204 58.654C64.157 58.6575 65.6935 58.6622 67.23 58.6699C68.5691 58.6766 69.9082 58.681 71.2473 58.6825C71.9565 58.6833 72.6656 58.6854 73.3748 58.6903C74.0422 58.6949 74.7094 58.6963 75.3768 58.6953C75.6219 58.6955 75.8669 58.6968 76.112 58.6994C76.4465 58.7027 76.7807 58.7019 77.1151 58.7001C77.2123 58.7021 77.3094 58.704 77.4095 58.706C77.879 58.699 78.1582 58.6221 78.5605 58.3771C78.9824 57.718 78.9278 57.1121 78.918 56.3447C78.9186 56.1807 78.9191 56.0166 78.9197 55.8477C78.9207 55.3927 78.9186 54.938 78.9152 54.4832C78.9123 53.9925 78.9132 53.5019 78.9138 53.0112C78.9141 52.1613 78.912 51.3114 78.9082 50.4615C78.9027 49.2326 78.901 48.0038 78.9001 46.7749C78.8987 44.7812 78.8942 42.7874 78.8878 40.7937C78.8816 38.857 78.8768 36.9203 78.874 34.9835C78.8738 34.8641 78.8736 34.7448 78.8734 34.6218C78.8726 34.0229 78.8717 33.424 78.8709 32.8251C78.8639 27.8567 78.852 22.8883 78.837 17.9198C78.7083 17.9197 78.5796 17.9195 78.447 17.9193C77.2297 17.917 76.0124 17.9112 74.7951 17.902C74.1694 17.8974 73.5437 17.894 72.918 17.8935C72.3133 17.8929 71.7087 17.8891 71.104 17.883C70.8741 17.8813 70.6443 17.8807 70.4145 17.8813C67.9613 17.8863 67.9613 17.8863 66.9776 17.1112C66.2579 16.2527 66.1505 15.4416 66.1413 14.3426C66.14 14.2426 66.1387 14.1426 66.1373 14.0396C66.133 13.7107 66.1297 13.3819 66.1264 13.053C66.1236 12.8243 66.1208 12.5957 66.1179 12.367C66.1104 11.7664 66.1038 11.1658 66.0973 10.5651C66.0905 9.95175 66.083 9.33837 66.0756 8.72499C66.0611 7.52237 66.0474 6.31974 66.0342 5.11711C62.6371 5.10767 59.2399 5.10054 55.8427 5.09616C54.2653 5.09408 52.688 5.09123 51.1107 5.08661C49.7361 5.08258 48.3615 5.07997 46.9868 5.07907C46.2588 5.07854 45.5308 5.0773 44.8028 5.07436C44.1178 5.07162 43.4328 5.07077 42.7477 5.07138C42.4961 5.07127 42.2446 5.07046 41.993 5.06892C41.6497 5.06691 41.3065 5.06739 40.9633 5.06849C40.8136 5.06672 40.8136 5.06672 40.661 5.06492C40.0655 5.07011 39.6875 5.15226 39.2159 5.52141ZM68.0557 6.7343C68.0401 7.82964 68.0281 8.92493 68.0208 10.0204C68.0173 10.529 68.0125 11.0376 68.0049 11.5463C67.9976 12.0374 67.9935 12.5284 67.9918 13.0195C67.9905 13.2067 67.9881 13.3938 67.9845 13.5809C67.9796 13.8435 67.9793 14.1061 67.9792 14.3687C67.9777 14.518 67.9762 14.6673 67.9747 14.8212C68.0849 15.37 68.2848 15.566 68.7295 15.8984C69.1383 15.9949 69.1383 15.9949 69.5854 15.9749C69.7553 15.9748 69.9253 15.9748 70.1004 15.9747C70.2844 15.9713 70.4685 15.9677 70.6526 15.9642C70.842 15.9629 71.0314 15.9619 71.2208 15.9613C71.7178 15.9587 72.2146 15.9521 72.7116 15.9446C73.2192 15.9377 73.727 15.9347 74.2347 15.9313C75.2298 15.924 76.2248 15.9126 77.2198 15.8984C76.6938 15.2692 76.1477 14.6719 75.5669 14.0933C75.4868 14.013 75.4067 13.9326 75.3242 13.8499C75.0627 13.5878 74.8007 13.3262 74.5387 13.0646C74.3558 12.8817 74.173 12.6987 73.9902 12.5157C73.6088 12.1341 73.2271 11.7528 72.8453 11.3716C72.3548 10.8818 71.8649 10.3915 71.3752 9.90096C70.9987 9.52395 70.6218 9.14727 70.2449 8.77068C70.064 8.58985 69.8832 8.40893 69.7025 8.2279C69.4512 7.97626 69.1994 7.72506 68.9476 7.47396C68.8725 7.39857 68.7974 7.32319 68.72 7.24551C68.4354 6.89355 68.4354 6.89355 68.0557 6.7343ZM30.8604 43.9296C28.7822 46.4357 27.9659 49.6239 28.1651 52.8241C28.4748 55.2872 29.3963 57.5315 30.9952 59.4277C31.082 59.5357 31.1689 59.6438 31.2584 59.7551C33.3047 62.1879 36.3644 63.551 39.4938 63.8665C42.7636 63.9921 45.9398 62.9926 48.3799 60.7753C48.5626 60.6114 48.5626 60.6114 48.749 60.4442C51.1501 58.1758 52.4534 55.0778 52.5566 51.7892C52.5946 48.6485 51.3996 45.7289 49.3233 43.3905C49.2422 43.2983 49.161 43.2061 49.0775 43.111C47.0448 40.942 44.0093 39.5792 41.0452 39.4502C36.9628 39.3571 33.5745 40.8665 30.8604 43.9296Z" fill="#004DC9"/>
<path d="M48.6475 43.9302C49.5859 44.5602 50.0481 45.3017 50.3995 46.3559C50.5055 47.5135 50.4104 48.4653 49.6923 49.4064C48.8123 50.412 47.8593 51.3494 46.9172 52.2962C46.8212 52.3926 46.7253 52.4891 46.6265 52.5885C46.1197 53.0981 45.6125 53.6072 45.105 54.116C44.5826 54.6399 44.0618 55.1653 43.5413 55.6911C43.1388 56.0972 42.7351 56.502 42.3311 56.9065C42.1386 57.0997 41.9465 57.2933 41.7549 57.4874C41.4867 57.7589 41.2168 58.0287 40.9464 58.2981C40.8686 58.3776 40.7908 58.4572 40.7107 58.5391C39.9622 59.2782 39.1621 59.7738 38.0853 59.782C37.948 59.7865 37.8108 59.791 37.6694 59.7957C36.4821 59.5519 35.5683 58.6942 34.7393 57.8552C34.6414 57.7579 34.5435 57.6605 34.4427 57.5602C34.2378 57.3556 34.0335 57.1504 33.8299 56.9445C33.5208 56.6326 33.209 56.3236 32.8968 56.0148C32.6966 55.8143 32.4965 55.6135 32.2967 55.4126C32.2048 55.3219 32.113 55.2311 32.0184 55.1377C30.8799 53.9769 30.2669 52.8935 30.2815 51.2565C30.3639 50.2717 30.8216 49.4616 31.5323 48.7817C32.5699 48.0216 33.6491 47.949 34.9014 48.1079C36.2138 48.4331 37.1122 49.5822 38.001 50.5337C38.7721 49.8949 39.4731 49.2059 40.1731 48.4906C40.4101 48.2506 40.6472 48.0106 40.8843 47.7707C41.2542 47.3958 41.6238 47.0204 41.9922 46.644C42.3504 46.2784 42.7103 45.9146 43.0706 45.551C43.1792 45.4391 43.2879 45.3272 43.3999 45.2119C44.8558 43.7494 46.6566 42.9186 48.6475 43.9302ZM44.8419 46.764C44.7764 46.8296 44.711 46.8952 44.6436 46.9628C44.4299 47.1773 44.2172 47.3928 44.0044 47.6083C43.8552 47.7584 43.706 47.9083 43.5566 48.0583C43.1653 48.4513 42.7748 48.8451 42.3845 49.2392C41.7581 49.8714 41.1308 50.5027 40.503 51.1336C40.2839 51.3541 40.0653 51.5749 39.8468 51.7959C39.7132 51.9304 39.5796 52.0649 39.446 52.1994C39.3293 52.3172 39.2126 52.4349 39.0924 52.5563C38.7153 52.9143 38.4109 53.0488 37.881 53.0389C37.2086 52.8509 36.7262 52.2285 36.2491 51.7466C36.1137 51.6112 35.9782 51.4759 35.8427 51.3407C35.5833 51.0817 35.3262 50.821 35.0699 50.5589C34.6606 50.161 34.5673 50.134 33.9833 50.0957C33.4637 50.1042 33.1547 50.1943 32.7452 50.5337C32.4301 50.9248 32.3456 51.1702 32.2819 51.6708C32.4068 52.6878 33.2285 53.346 33.9254 54.036C34.0759 54.1864 34.0759 54.1864 34.2294 54.3398C34.4404 54.5504 34.6518 54.7607 34.8635 54.9707C35.1884 55.2931 35.5122 55.6167 35.8358 55.9404C36.0413 56.1451 36.2467 56.3498 36.4523 56.5544C36.5494 56.6514 36.6466 56.7484 36.7467 56.8484C36.8366 56.9375 36.9266 57.0266 37.0193 57.1184C37.0985 57.1971 37.1777 57.2757 37.2592 57.3568C37.5371 57.6099 37.7186 57.674 38.0914 57.7399C38.761 57.6449 39.0606 57.2649 39.5205 56.7919C39.615 56.698 39.7096 56.604 39.807 56.5071C40.1189 56.196 40.4279 55.882 40.7369 55.5679C40.9528 55.3512 41.1689 55.1346 41.3851 54.9182C41.8378 54.4643 42.2891 54.0091 42.7393 53.5528C43.3173 52.9673 43.8975 52.3841 44.4787 51.8017C44.9247 51.3546 45.37 50.9066 45.815 50.4584C46.0288 50.2431 46.2427 50.0279 46.4567 49.8129C46.7552 49.5125 47.0528 49.2113 47.35 48.9097C47.439 48.8205 47.528 48.7312 47.6197 48.6392C47.7003 48.557 47.781 48.4748 47.8641 48.3901C47.9345 48.3189 48.0049 48.2477 48.0774 48.1744C48.4589 47.7114 48.4173 47.1956 48.378 46.6255C48.1367 46.0667 47.8586 45.7886 47.2999 45.5473C46.1869 45.4057 45.5881 46.0113 44.8419 46.764Z" fill="#004DC9"/>
<path d="M47.1031 33.9107C47.2077 33.9099 47.3122 33.9091 47.4199 33.9082C47.7713 33.906 48.1225 33.9066 48.4739 33.9073C48.7254 33.9063 48.9768 33.9051 49.2283 33.9038C49.9121 33.9008 50.5959 33.9004 51.2798 33.9007C51.8502 33.9007 52.4205 33.8995 52.9909 33.8984C54.3362 33.8958 55.6815 33.8954 57.0268 33.8963C58.4158 33.8972 59.8048 33.8942 61.1939 33.8892C62.3854 33.885 63.577 33.8835 64.7685 33.884C65.4807 33.8843 66.1928 33.8836 66.9049 33.8803C67.5744 33.8773 68.2439 33.8775 68.9135 33.8803C69.1595 33.8807 69.4055 33.88 69.6515 33.8781C69.9869 33.8757 70.322 33.8774 70.6574 33.8801C70.7551 33.8784 70.8529 33.8767 70.9537 33.875C71.452 33.8838 71.6557 33.9304 72.0252 34.2755C72.2306 34.6377 72.2306 34.6377 72.239 35.1262C72.0958 35.5811 72.0958 35.5811 71.8143 35.8085C71.3316 36.0261 70.9122 36.0412 70.393 36.0358C70.2392 36.0366 70.2392 36.0366 70.0822 36.0374C69.7391 36.0387 69.3961 36.0371 69.053 36.0355C68.8069 36.0359 68.5607 36.0364 68.3145 36.037C67.6463 36.0383 66.978 36.037 66.3098 36.0352C65.6108 36.0337 64.9117 36.0342 64.2127 36.0345C63.0389 36.0346 61.8651 36.0331 60.6913 36.0307C59.3336 36.0278 57.976 36.0273 56.6183 36.0282C55.3128 36.0289 54.0073 36.0282 52.7018 36.0267C52.1459 36.026 51.5901 36.0259 51.0342 36.0262C50.3799 36.0265 49.7256 36.0254 49.0713 36.0232C48.831 36.0227 48.5907 36.0225 48.3503 36.0229C48.0227 36.0234 47.6951 36.0221 47.3675 36.0205C47.272 36.021 47.1765 36.0215 47.0781 36.022C46.5918 36.0177 46.2248 35.9925 45.8165 35.7158C45.5575 35.3705 45.5456 35.1994 45.5723 34.764C45.8102 33.904 46.2891 33.9048 47.1031 33.9107Z" fill="#004DC9"/>
<path d="M47.1031 27.7076C47.2077 27.7068 47.3122 27.7059 47.4199 27.7051C47.7713 27.7028 48.1225 27.7035 48.4739 27.7041C48.7254 27.7032 48.9768 27.702 49.2283 27.7007C49.9121 27.6977 50.5959 27.6973 51.2798 27.6976C51.8502 27.6976 52.4205 27.6964 52.9909 27.6953C54.3362 27.6927 55.6815 27.6923 57.0268 27.6932C58.4158 27.6941 59.8048 27.691 61.1939 27.686C62.3854 27.6819 63.577 27.6804 64.7685 27.6809C65.4807 27.6812 66.1928 27.6804 66.9049 27.6771C67.5744 27.6741 68.2439 27.6744 68.9135 27.6771C69.1595 27.6776 69.4055 27.6769 69.6515 27.675C69.9869 27.6725 70.322 27.6742 70.6574 27.677C70.7551 27.6753 70.8529 27.6736 70.9537 27.6719C71.452 27.6807 71.6557 27.7273 72.0252 28.0724C72.2306 28.4346 72.2306 28.4346 72.239 28.9231C72.0958 29.3779 72.0958 29.3779 71.8143 29.6053C71.3316 29.823 70.9122 29.8381 70.393 29.8327C70.2392 29.8335 70.2392 29.8335 70.0822 29.8343C69.7391 29.8356 69.3961 29.834 69.053 29.8324C68.8069 29.8327 68.5607 29.8332 68.3145 29.8339C67.6463 29.8352 66.978 29.8339 66.3098 29.8321C65.6108 29.8306 64.9117 29.8311 64.2127 29.8314C63.0389 29.8315 61.8651 29.83 60.6913 29.8275C59.3336 29.8247 57.976 29.8242 56.6183 29.825C55.3128 29.8258 54.0073 29.8251 52.7018 29.8235C52.1459 29.8229 51.5901 29.8228 51.0342 29.8231C50.3799 29.8233 49.7256 29.8222 49.0713 29.8201C48.831 29.8195 48.5907 29.8194 48.3503 29.8198C48.0227 29.8202 47.6951 29.819 47.3675 29.8174C47.272 29.8179 47.1765 29.8184 47.0781 29.8189C46.5918 29.8146 46.2248 29.7894 45.8165 29.5127C45.5575 29.1673 45.5456 28.9963 45.5723 28.5609C45.8102 27.7008 46.2891 27.7016 47.1031 27.7076Z" fill="#004DC9"/>
<path d="M47.1059 21.5121C47.2105 21.5115 47.3152 21.5108 47.4229 21.5102C47.7746 21.5086 48.1262 21.5099 48.4779 21.5111C48.7296 21.5106 48.9813 21.5099 49.2329 21.509C49.9173 21.5071 50.6017 21.5079 51.2861 21.5091C52.0014 21.5102 52.7167 21.5092 53.432 21.5086C54.6334 21.5078 55.8347 21.5088 57.0361 21.5107C58.4262 21.5129 59.8163 21.5122 61.2064 21.51C62.3986 21.5082 63.5908 21.5079 64.7831 21.509C65.4957 21.5096 66.2083 21.5097 66.921 21.5083C67.5909 21.5072 68.2607 21.508 68.9306 21.5103C69.1769 21.5109 69.4231 21.5107 69.6694 21.5098C70.0048 21.5087 70.3401 21.5101 70.6754 21.5121C70.7736 21.5112 70.8718 21.5103 70.9729 21.5094C71.3616 21.5139 71.6281 21.5179 71.9523 21.7441C72.173 22.0836 72.2079 22.3755 72.2325 22.7763C72.1023 23.1469 72.0465 23.2736 71.6934 23.4502C71.3586 23.4645 71.0274 23.4707 70.6925 23.4709C70.5881 23.4715 70.4837 23.4721 70.3761 23.4727C70.0244 23.4745 69.6726 23.4753 69.3209 23.4762C69.0694 23.4772 68.818 23.4783 68.5666 23.4795C67.7393 23.483 66.9121 23.4851 66.0848 23.487C65.8004 23.4877 65.516 23.4885 65.2316 23.4892C64.0489 23.4921 62.8662 23.4946 61.6836 23.4961C59.9866 23.4983 58.2897 23.5028 56.5928 23.5105C55.4006 23.5157 54.2085 23.5183 53.0164 23.519C52.3038 23.5195 51.5913 23.5212 50.8787 23.5255C50.2086 23.5296 49.5386 23.5304 48.8684 23.5288C48.6222 23.5288 48.376 23.5299 48.1298 23.5323C47.7941 23.5353 47.4587 23.5342 47.123 23.5321C47.0251 23.534 46.9273 23.5358 46.8264 23.5378C46.3245 23.5298 46.1239 23.4841 45.7532 23.1345C45.5489 22.7763 45.5489 22.7763 45.5573 22.3552C45.8323 21.5117 46.2859 21.5046 47.1059 21.5121Z" fill="#004DC9"/>
<path d="M56.4478 40.074C56.6113 40.0728 56.7748 40.0716 56.9433 40.0704C57.3914 40.068 57.8393 40.0685 58.2873 40.0707C58.7563 40.0724 59.2253 40.0708 59.6943 40.0697C60.4819 40.0685 61.2695 40.0701 62.0571 40.0733C62.9675 40.077 63.8778 40.0758 64.7882 40.0721C65.57 40.069 66.3518 40.0686 67.1336 40.0704C67.6005 40.0714 68.0673 40.0716 68.5342 40.0693C69.0547 40.067 69.575 40.0702 70.0955 40.074C70.2502 40.0726 70.4049 40.0713 70.5643 40.0699C71.6028 40.0838 71.6028 40.0838 72.0639 40.473C72.2972 40.9708 72.2535 41.2562 72.0988 41.7784C71.7 42.1645 71.4162 42.2333 70.8692 42.234C70.7298 42.2351 70.5903 42.2363 70.4467 42.2375C70.2945 42.2366 70.1423 42.2358 69.9854 42.235C69.8245 42.2357 69.6637 42.2364 69.4979 42.2371C69.0571 42.2386 68.6164 42.2383 68.1756 42.237C67.7141 42.2359 67.2527 42.2369 66.7912 42.2375C66.0163 42.2383 65.2415 42.2373 64.4666 42.2354C63.5709 42.2332 62.6753 42.2339 61.7796 42.2361C61.0103 42.2379 60.2411 42.2382 59.4719 42.2371C59.0125 42.2365 58.5532 42.2364 58.0939 42.2378C57.5818 42.2388 57.0699 42.2372 56.5578 42.235C56.3295 42.2362 56.3295 42.2362 56.0966 42.2375C55.9571 42.2363 55.8177 42.2352 55.674 42.234C55.553 42.2338 55.432 42.2337 55.3072 42.2335C54.9125 42.1715 54.7301 42.055 54.4445 41.7784C54.2898 41.2562 54.2461 40.9708 54.4793 40.473C55.0732 39.9718 55.6947 40.0674 56.4478 40.074Z" fill="#004DC9"/>
<path d="M58.5081 46.3233C58.6793 46.3213 58.6793 46.3213 58.8539 46.3192C58.9786 46.3192 59.1034 46.3191 59.2319 46.319C59.4296 46.3173 59.4296 46.3173 59.6311 46.3156C60.0676 46.3123 60.5041 46.3111 60.9405 46.3103C61.2435 46.3091 61.5465 46.3078 61.8495 46.3066C62.485 46.3043 63.1206 46.3033 63.7561 46.3029C64.5708 46.3022 65.3854 46.2971 66.2001 46.291C66.826 46.287 67.4519 46.286 68.0779 46.2858C68.3782 46.2853 68.6786 46.2836 68.9789 46.2808C69.399 46.2772 69.8189 46.2778 70.239 46.2795C70.3633 46.2775 70.4875 46.2755 70.6155 46.2734C71.2185 46.2803 71.4801 46.3019 71.9775 46.6717C72.2324 47.0341 72.2324 47.0341 72.2408 47.5226C72.0977 47.9775 72.0977 47.9775 71.9006 48.2046C71.3671 48.481 70.8488 48.4391 70.2565 48.4362C70.1245 48.4371 69.9925 48.4381 69.8566 48.439C69.4202 48.4415 68.9838 48.441 68.5474 48.4402C68.2443 48.4408 67.9412 48.4415 67.6381 48.4423C67.0028 48.4435 66.3675 48.4432 65.7322 48.4419C64.9173 48.4403 64.1025 48.443 63.2877 48.447C62.6618 48.4494 62.0359 48.4494 61.41 48.4486C61.1095 48.4486 60.809 48.4494 60.5085 48.4511C60.0888 48.4531 59.6692 48.4517 59.2494 48.4494C59.1249 48.4507 59.0004 48.452 58.8721 48.4533C58.0297 48.4436 58.0297 48.4436 57.6037 48.1243C57.3982 47.8282 57.2952 47.6632 57.2734 47.3036C57.4734 46.6039 57.7771 46.3279 58.5081 46.3233Z" fill="#004DC9"/>
<path d="M47.4908 12.3738C47.6081 12.3732 47.7253 12.3725 47.8461 12.3718C48.2352 12.3698 48.6243 12.3689 49.0133 12.3682C49.2833 12.3674 49.5532 12.3666 49.8231 12.3658C50.3897 12.3644 50.9563 12.3636 51.5229 12.3632C52.2489 12.3624 52.9748 12.3592 53.7008 12.3554C54.2586 12.3529 54.8165 12.3522 55.3743 12.3519C55.6419 12.3515 55.9096 12.3505 56.1772 12.3487C56.5518 12.3464 56.9262 12.3466 57.3008 12.3475C57.4667 12.3457 57.4667 12.3457 57.6359 12.3438C58.2496 12.3482 58.6695 12.3889 59.1603 12.7998C59.3034 13.2547 59.3034 13.2547 59.295 13.7432C59.1009 14.1052 59.1009 14.1052 58.756 14.417C58.3514 14.5174 57.9555 14.5091 57.5404 14.5042C57.4177 14.5054 57.2949 14.5066 57.1684 14.5078C56.7626 14.5108 56.357 14.5088 55.9511 14.5065C55.6692 14.507 55.3872 14.5076 55.1053 14.5085C54.5143 14.5095 53.9235 14.508 53.3326 14.5049C52.5748 14.501 51.8172 14.5033 51.0594 14.5073C50.4772 14.5097 49.895 14.5089 49.3128 14.5072C49.0334 14.5068 48.754 14.5073 48.4746 14.5089C48.0841 14.5106 47.6939 14.508 47.3035 14.5042C47.1878 14.5056 47.0722 14.507 46.953 14.5084C46.3905 14.4983 46.1705 14.4924 45.742 14.101C45.5489 13.7432 45.5489 13.7432 45.5573 13.3221C45.6839 12.9339 45.7681 12.7734 46.088 12.5303C46.5264 12.3111 47.009 12.3745 47.4908 12.3738Z" fill="#004DC9"/>
<path d="M42.748 104V98.7168L37.9043 89.7812H40.3555L43.3828 95.5527C43.4805 95.748 43.5684 95.9271 43.6465 96.0898C43.7311 96.2526 43.806 96.4219 43.8711 96.5977H43.9395C44.0046 96.4219 44.0762 96.2526 44.1543 96.0898C44.2389 95.9271 44.3301 95.748 44.4277 95.5527L47.4941 89.7812H49.7598L44.9453 98.6777V104H42.748ZM49.3594 99.0977V98.7852C49.3594 97.2487 49.7923 96.002 50.6582 95.0449C51.5306 94.0879 52.6699 93.6094 54.0762 93.6094C55.4889 93.6094 56.5794 94.0586 57.3477 94.957C58.1224 95.849 58.5098 97.0697 58.5098 98.6191V99.4297H50.6973V97.916H56.3906V97.7109C56.3906 97.0339 56.1953 96.4577 55.8047 95.9824C55.4206 95.5007 54.8574 95.2598 54.1152 95.2598C53.2493 95.2598 52.5983 95.5885 52.1621 96.2461C51.7259 96.8971 51.5078 97.724 51.5078 98.7266V99.1465C51.5078 100.156 51.7389 100.989 52.2012 101.646C52.6634 102.298 53.3665 102.623 54.3105 102.623C54.9225 102.623 55.4466 102.486 55.8828 102.213C56.3255 101.933 56.6803 101.607 56.9473 101.236L58.4023 102.242C58.0833 102.776 57.5755 103.251 56.8789 103.668C56.1823 104.078 55.3327 104.283 54.3301 104.283C52.748 104.283 51.5241 103.805 50.6582 102.848C49.7923 101.891 49.3594 100.641 49.3594 99.0977ZM59.9258 100.934L62.0254 100.943V101.041C62.0254 101.601 62.2207 102.014 62.6113 102.281C63.002 102.548 63.526 102.682 64.1836 102.682C64.8477 102.682 65.362 102.555 65.7266 102.301C66.0911 102.047 66.2734 101.708 66.2734 101.285C66.2734 100.862 66.1107 100.543 65.7852 100.328C65.4661 100.107 64.763 99.8724 63.6758 99.625C62.556 99.3711 61.6934 99.0065 61.0879 98.5312C60.4889 98.0495 60.1895 97.3984 60.1895 96.5781C60.1895 95.6992 60.5443 94.9863 61.2539 94.4395C61.9701 93.8861 62.9336 93.6094 64.1445 93.6094C65.3424 93.6094 66.306 93.8893 67.0352 94.4492C67.7643 95.0026 68.1289 95.7611 68.1289 96.7246V96.8027H66.0488V96.6855C66.0488 96.2168 65.8893 95.8555 65.5703 95.6016C65.2578 95.3477 64.7793 95.2207 64.1348 95.2207C63.4902 95.2207 63.0182 95.3346 62.7188 95.5625C62.4258 95.7904 62.2793 96.0866 62.2793 96.4512C62.2793 96.8092 62.4518 97.0957 62.7969 97.3105C63.1484 97.5189 63.8678 97.7467 64.9551 97.9941C66.0749 98.248 66.9245 98.6159 67.5039 99.0977C68.0898 99.5729 68.3828 100.253 68.3828 101.139C68.3828 102.083 68.0312 102.844 67.3281 103.424C66.625 103.997 65.5801 104.283 64.1934 104.283C62.8132 104.283 61.7552 103.993 61.0195 103.414C60.2904 102.828 59.9258 102.031 59.9258 101.021V100.934Z" fill="#004DC9"/>
</g>
<defs>
<filter id="filter0_d_1_13303" x="-3.5" y="0" width="114" height="113" filterUnits="userSpaceOnUse" color-interpolation-filters="sRGB">
<feFlood flood-opacity="0" result="BackgroundImageFix"/>
<feColorMatrix in="SourceAlpha" type="matrix" values="0 0 0 0 0 0 0 0 0 0 0 0 0 0 0 0 0 0 127 0" result="hardAlpha"/>
<feOffset dy="4"/>
<feGaussianBlur stdDeviation="2"/>
<feComposite in2="hardAlpha" operator="out"/>
<feColorMatrix type="matrix" values="0 0 0 0 0 0 0 0 0 0 0 0 0 0 0 0 0 0 0.25 0"/>
<feBlend mode="normal" in2="BackgroundImageFix" result="effect1_dropShadow_1_13303"/>
<feBlend mode="normal" in="SourceGraphic" in2="effect1_dropShadow_1_13303" result="shape"/>
</filter>
</defs>
</svg>
